<?xml version="1.0" encoding="utf-8"?>
<!-- Generator: Adobe Illustrator 24.0.2, SVG Export Plug-In . SVG Version: 6.00 Build 0)  -->
<svg version="1.1" id="Layer_1" xmlns="http://www.w3.org/2000/svg" xmlns:xlink="http://www.w3.org/1999/xlink" x="0px" y="0px"
	 viewBox="0 0 530.6 283.1" style="enable-background:new 0 0 530.6 283.1;" xml:space="preserve">
<style type="text/css">
	.st0{fill:#719CD2;}
	.st1{fill:#FFFFFF;}
</style>
<g>
	<g>
		<g>
			<path class="st0" d="M161.5,19.4c-0.1,0-0.1,0-0.2,0c0.1,0,0.3,0,0.4,0c-0.6-0.1-1.1-0.3-1.7-0.3c-0.8,0-1.5,0.3-2,0.8
				c-1.2,1.4-1.6,3.6-0.6,5.2c0.4-0.8,0.9-1.5,1.3-2.3c-0.1,0-0.2,0-0.3,0c0.1,0,0.3,0,0.4,0c-0.1,0-0.1,0-0.2,0
				c0.1,0,0.2,0.1,0.4,0.1c-0.1,0-0.1-0.1-0.2-0.1c0.1,0.1,0.2,0.2,0.3,0.2c-0.1,0-0.1-0.1-0.2-0.2c0.1,0.1,0.2,0.2,0.2,0.3
				c-0.1-0.1-0.1-0.2-0.2-0.3c0.1,0.1,0.1,0.2,0.1,0.4c-0.1-0.2-0.1-0.4-0.1-0.6c0,0.1,0,0.3,0.1,0.4c0-0.3,0-0.5,0-0.8
				c0,0.1,0,0.3-0.1,0.4c0-0.2,0.1-0.4,0.1-0.6c-0.1,0.1-0.1,0.2-0.1,0.4c0.1-0.2,0.2-0.4,0.4-0.6c-0.1,0.1-0.2,0.2-0.2,0.3
				c0.2-0.3,0.4-0.5,0.7-0.7c-0.1,0.1-0.2,0.2-0.3,0.2c0.3-0.2,0.6-0.4,1-0.6c-0.1,0-0.2,0.1-0.4,0.1c0.3-0.1,0.6-0.2,0.9-0.3
				c-0.1,0-0.3,0-0.4,0c0.3,0,0.6,0,0.9,0c-0.1,0-0.3,0-0.4,0c0.1,0,0.2,0,0.3,0.1c0.8,0.2,1.7-0.2,1.9-1c0.2-0.8-0.2-1.7-1.1-1.9
				c-1.8-0.4-3.8,0.2-5.1,1.6c-0.5,0.6-0.9,1.2-1.1,2c-0.1,0.7-0.1,1.5,0.1,2.2c0.2,0.6,0.5,1,1,1.4c0.4,0.3,0.9,0.4,1.4,0.4
				c0.5-0.1,1-0.3,1.3-0.7c0.3-0.5,0.3-1.1,0-1.5c-0.1-0.1-0.1-0.2-0.2-0.3c0.1,0.1,0.1,0.2,0.1,0.4c-0.1-0.2-0.1-0.4-0.2-0.6
				c0,0.1,0,0.3,0.1,0.4c0-0.3,0-0.5,0-0.7c0,0.1,0,0.3-0.1,0.4c0-0.3,0.1-0.6,0.2-0.9c-0.1,0.1-0.1,0.2-0.1,0.4
				c0.1-0.3,0.3-0.5,0.4-0.8c-0.1,0.1-0.2,0.2-0.2,0.3c0.1-0.1,0.2-0.2,0.3-0.3c-0.1,0.1-0.2,0.2-0.3,0.2c0.1-0.1,0.1-0.1,0.2-0.1
				c-0.1,0-0.2,0.1-0.4,0.1c0.1,0,0.2,0,0.2-0.1c-0.1,0-0.3,0-0.4,0c0.1,0,0.3,0,0.4,0c-0.1,0-0.3,0-0.4,0c0.2,0,0.4,0.1,0.7,0.1
				c0.4,0.1,0.8,0.1,1.1,0.2c0.4,0,0.8-0.2,1.1-0.4c0.3-0.3,0.5-0.7,0.4-1.1c0-0.4-0.1-0.8-0.4-1.1
				C162.2,19.5,161.9,19.4,161.5,19.4L161.5,19.4z"/>
		</g>
	</g>
</g>
<g>
	<g>
		<g>
			<path class="st0" d="M179.8,16.9c-0.8,0-1.6,0.1-2.2,0.6c-0.7,0.5-1.1,1.2-1.3,2c-0.2,0.8-0.3,1.8-0.1,2.6
				c0.3,0.9,0.9,1.5,1.4,2.2c0.2-0.8,0.4-1.7,0.7-2.5c-0.1,0-0.1,0-0.2,0.1c0.3,0,0.3,0,0.2,0c0,0-0.1,0-0.1,0c-0.3,0,0.4,0.1,0.1,0
				c-0.1,0-0.2,0-0.3-0.1c-0.1,0,0.4,0.2,0.1,0c-0.1,0-0.1-0.1-0.2-0.1c-0.1-0.1,0.3,0.3,0.1,0c-0.1,0-0.1-0.1-0.2-0.2
				c-0.1-0.1,0.2,0.3,0.1,0.1c0,0,0-0.1-0.1-0.1c-0.1-0.1-0.1-0.1,0.1,0.2c0-0.1-0.1-0.2-0.1-0.3c0,0,0-0.1,0-0.1c0-0.2,0-0.1,0,0.1
				c0-0.1,0-0.2,0-0.3c0-0.1,0-0.2,0-0.3c0,0,0-0.1,0-0.1c0-0.2,0-0.1,0,0.1c0-0.1,0-0.2,0.1-0.3c0-0.2,0.1-0.3,0.1-0.5
				c0-0.1,0.2-0.3,0,0.1c0-0.1,0.1-0.1,0.1-0.2c0.1-0.1,0.1-0.3,0.2-0.4c0.1-0.2-0.2,0.3-0.1,0.1c0.1,0,0.1-0.1,0.1-0.2
				c0.1,0,0.1-0.1,0.2-0.1c0.2-0.2-0.3,0.2-0.1,0c0.1-0.1,0.2-0.2,0.4-0.2c0,0,0.1,0,0.1-0.1c-0.2,0.1-0.3,0.1-0.2,0.1
				c0.1,0,0.1,0,0.2-0.1c0.2,0,0.3-0.1,0.5-0.1c0.4-0.1,0.7-0.4,0.9-0.7c0.2-0.3,0.3-0.8,0.1-1.2c-0.3-0.8-1-1.2-1.9-1
				c-2,0.4-3.5,2.1-3.8,4.1c-0.2,1.3,0,2.5,0.9,3.5c0.8,0.8,2.2,1.4,3.3,0.9c0.5-0.2,0.9-0.5,1.1-1c0.1-0.5,0-1-0.4-1.5
				c-0.1-0.1-0.2-0.2-0.3-0.4c0,0-0.1-0.1-0.1-0.1c-0.1-0.1-0.2-0.3,0,0.1c-0.1-0.1-0.1-0.2-0.2-0.3c0,0-0.1-0.2-0.1-0.2
				c0,0,0.1,0.4,0.1,0.1c0-0.1,0-0.1-0.1-0.2c-0.1-0.3,0,0.4,0,0.1c0-0.1,0-0.3,0-0.4c0-0.1,0-0.1,0-0.2c0-0.3-0.1,0.3,0,0.1
				c0-0.1,0-0.2,0.1-0.4c0-0.1,0.1-0.2,0.1-0.3c0.1-0.1,0.1-0.2-0.1,0.1c0,0,0-0.1,0.1-0.1s0-0.1,0.1-0.1c0.1-0.1,0.2-0.1-0.1,0.1
				c0.1,0,0.1-0.1,0.2-0.2c-0.3,0.3-0.3,0.2-0.1,0.1c0,0,0.1,0,0.1-0.1c0.2-0.1-0.1,0.1-0.2,0.1c0,0,0.1,0,0.2-0.1
				c0.1,0,0.2,0,0.3-0.1c-0.4,0.1-0.3,0-0.1,0c0.1,0,0.1,0,0.2,0c0.8,0,1.5-0.7,1.5-1.5C181.3,17.6,180.7,16.9,179.8,16.9
				L179.8,16.9z"/>
		</g>
	</g>
</g>
<g>
	<path class="st0" d="M13.2,143.4c-0.6-1-0.7-2.1-1.2-3.1c-0.4-0.8-1.5-1.1-2.2-1.5c-1.6-0.8-3.6-2.1-3.3-4.1
		c0.2-1.6,1.2-2.6,0.6-4.3c-0.6-1.5-2.1-2.3-3.2-3.4c-1.2-1.2-1.4-3.1-1.4-4.7c0.1-3.9,2.5-7.5,6.3-8.6c0.6-0.2,1.1-0.9,0.9-1.5
		c-0.8-2.7-2.4-6.3-0.7-8.9c1.6-2.4,5.6-2.3,8.1-1.8c0.7,0.2,1.7-0.3,1.6-1.2c-0.4-3.4,0.2-7.2,2.7-9.6c2.7-2.6,6.3-1.8,9.1,0.1
		c0.7,0.4,1.6,0,1.8-0.7c0.5-1.9,1.5-3.9,3.6-4.2c2.1-0.2,4,1.4,5.1,2.9c0.5,0.6,1.3,0.9,2,0.3c1.4-1.5,3.1-2.9,5.3-2.7
		c2,0.2,3.8,1.5,4.8,3.1c1.8,2.9,2.2,6.5,4.3,9.2c0.3,0.4,1.1,0.5,1.5,0.2c2.6-1.9,5.5-2.9,8.4-0.9c2.4,1.7,3.2,3.9,3.6,6.7
		c0.2,1.2,0.2,2.5,0.7,3.6c0.4,1.2,1.2,2.2,1.6,3.4c1,3-0.8,5.7-1.8,8.5c-0.2,0.5,0.1,1.1,0.6,1.4c3.2,2,1.2,5.8-1.2,7.6
		c-0.4,0.3-0.8,0.9-0.6,1.4c0.8,2.3,2.1,5.7,0.3,7.9c-0.3,0.4-0.7,0.4-1.2,0.3c-0.7-0.1-1.3-0.2-2-0.2c0-3.4,0.1-6.8,0.1-10.3
		c0-2.8,0-5.6,0.1-8.4c0.2-0.1,0.3-0.2,0.4-0.3c2.3-2.1,3-5.9,1.4-8.6c-0.5-0.8-1.1-1.5-2-1.8c-0.7-0.3-1.6-0.2-2.3,0.3
		c-1.5,1-2,2.9-1.8,4.6c0.2,1.8,0.9,3.6,1.7,5.2c0,0.1,0,0.1,0,0.2c0,6.1-0.1,12.3-0.1,18.4c0,1.1,0,2.2,0,3.4
		c-0.6,1.5-1.5,2.8-3,3.2c-2,0.5-3.6-1.4-5.1-2.4c0.2-1.1,0.2-2.3,0.2-3.5c1.1,0.3,2.3,0.4,3.3-0.3c1-0.6,1.7-1.8,2-2.9
		c0.5-2.3-0.2-5.4-2.8-6c-1.5-0.3-3,0.2-4.2,1c-0.5-1.1-1-2.2-1.7-3.2c0.4-0.1,0.8-0.3,1.1-0.6c1-0.8,1.8-1.8,2.2-3
		c0.2-0.7,0.4-1.4,0.4-2.1c0.1-0.7-0.6-1.3-1.2-1.2c-0.7,0-1.2,0.6-1.2,1.2c0,0.1,0,0.2,0,0.2c0,0,0,0,0,0c0,0.2,0,0.3-0.1,0.4
		c-0.1,0.3-0.2,0.6-0.3,0.9c0,0.1,0,0.1-0.1,0.2c-0.1,0.1-0.1,0.3-0.2,0.4c-0.1,0.1-0.2,0.3-0.3,0.4c0.2-0.4,0,0-0.1,0.1
		c-0.1,0.1-0.2,0.2-0.3,0.3c0,0-0.1,0.1-0.1,0.1c0,0,0.1-0.1,0.1-0.1c-0.1,0-0.1,0.1-0.2,0.1c-0.1,0.1-0.2,0.1-0.3,0.2
		c0,0,0,0-0.1,0s0,0-0.1,0c-0.2,0.1-0.3,0.1-0.5,0.1c-0.1,0-0.1,0-0.2,0c-0.1,0-0.2,0-0.3,0c-0.2-0.2-0.3-0.3-0.4-0.5
		c-0.4-0.4-0.9-0.8-1.3-1.2c1.5-1.3,1.7-3.9,1.6-5.8c0-0.7-0.5-1.3-1.2-1.2c-0.7,0-1.3,0.6-1.2,1.2c0,0.5,0,1,0,1.4
		c0,0.3,0,0.6-0.1,0.8c0-0.4,0,0,0,0.1c0,0.1,0,0.3-0.1,0.4c0,0.1-0.1,0.3-0.1,0.4c0,0.1,0,0.1,0,0.1c0,0,0,0,0-0.1c0,0,0,0,0,0.1
		c0,0,0,0,0,0c0,0.1-0.1,0.1-0.1,0.1c0,0,0,0.1-0.1,0.1c0,0.1-0.1,0.1-0.1,0.2c0,0,0,0,0,0.1c0,0,0,0,0,0c0,0-0.1,0.1-0.1,0.1
		c0,0,0,0-0.1,0.1c0,0-0.1,0.1-0.1,0.1c0,0,0,0,0.1-0.1c0,0-0.1,0.1-0.1,0.1c0.1,0,0,0-0.1,0.1c0,0,0,0-0.1,0c0,0,0,0,0.1,0
		c-0.1,0-0.2,0.1-0.2,0.1c-0.1,0-0.3,0.1-0.4,0.2c-4.7-2.1-10.6-1.4-14.8,1.8c0,0-0.1,0.1-0.1,0.1c0,0,0,0,0,0
		c-0.2-0.1-0.3-0.2-0.4-0.2c-0.1-0.1-0.3-0.2-0.4-0.3c-0.1-0.1-0.1-0.1-0.2-0.1c-0.1-0.1-0.2-0.2-0.3-0.3c0-0.1-0.1-0.1-0.2-0.2
		c-0.2-0.3-0.3-0.5-0.5-0.8c0-0.1-0.1-0.1-0.1-0.2c0-0.1-0.1-0.3-0.1-0.4c0-0.2-0.1-0.3-0.1-0.5c0-0.1,0-0.3-0.1-0.5
		c0-0.1,0-0.2,0-0.2c0-0.2,0-0.4,0-0.6c0-0.7-0.6-1.3-1.2-1.2s-1.2,0.5-1.2,1.2c0,1.6,0.4,3.2,1.4,4.4c0.5,0.6,1,1.2,1.7,1.6
		c-0.2,0.3-0.5,0.5-0.7,0.8c-0.3-0.1-0.6-0.2-0.8-0.3c0,0,0,0,0,0s0,0,0,0c-0.1,0-0.2-0.1-0.2-0.1c-0.2-0.1-0.4-0.2-0.5-0.3
		c-0.2-0.1-0.3-0.2-0.5-0.3c0,0,0,0,0,0l0,0c-0.1-0.1-0.1-0.1-0.2-0.2c-0.1-0.1-0.3-0.3-0.4-0.4c-0.1-0.1-0.1-0.1-0.2-0.2
		c0,0,0,0,0,0c0,0,0,0,0-0.1c-0.1-0.1-0.2-0.3-0.3-0.4c0,0-0.2-0.3-0.1-0.3c0.1,0.2,0.1,0.2,0,0.1c0,0,0-0.1,0-0.1
		c-0.1-0.2-0.1-0.4-0.1-0.6c0,0,0-0.1,0-0.1c0-0.1,0-0.1,0,0.1c0,0,0-0.3,0-0.3c0-0.7-0.6-1.3-1.2-1.2c-0.6,0-1.3,0.6-1.2,1.2
		c0.1,2.8,2.2,4.8,4.6,5.7c-0.7,1.3-1.2,2.8-1.5,4.3c-0.5-0.6-1.3-1-2.1-1c-1.3,0-2.6,0.8-3.4,1.8c-1,1.1-1.5,2.5-1.3,4
		c0.2,1.6,1.1,3.1,2.6,3.8c0.9,0.4,1.8,0.5,2.8,0.3c0.6-0.1,1.2-0.4,1.8-0.7c0.5,2.2,1.5,4.2,2.7,6c-1.2,0.8-2.8,1.2-4.2,1.2
		c-1.7,0-2.6-0.8-2.5-2.6c0-0.8-0.8-1.4-1.6-1.2c-1,0.3-2.2,0.7-3.4,0.9c-0.9-2.5-1.7-5-2.5-7.5c-0.8-2.5-1.7-5.1-2.4-7.6
		c0-0.1-0.1-0.2-0.1-0.3c0.2-1.5,0.8-3,1.2-4.5c0.4-1.7,0.7-3.5,0.1-5.2c-0.8-1.9-2.8-3.4-4.8-2.6c-2.1,0.8-3.2,2.9-3,5.1
		c0.3,2.4,1.8,4.5,3.2,6.4c0.3,0.3,0.6,0.6,1,0.6c0,0.1,0.1,0.3,0.1,0.4c-0.1,0.2-0.1,0.4,0,0.6c1.4,4.9,3.1,9.7,4.8,14.5
		C14.8,145,13.9,144.5,13.2,143.4z"/>
</g>
<g>
	<path d="M425.1,235.6l-4,9.2l-51.4-22.2c1.5-3,2.5-6.2,3-9.6L425.1,235.6z"/>
</g>
<g>
	<polygon points="367.9,205.5 367.9,208.1 367.7,208.1 	"/>
	<polygon points="430.2,203.8 429.3,213.8 372.9,208.5 372.9,198.5 	"/>
</g>
<g>
	<path d="M400.9,259.5l-7,7.1l-33.6-33.2c2.8-1.9,5.2-4.3,7.1-7L400.9,259.5z"/>
</g>
<g>
	<g>
		<path d="M165.9,63.5c-13.5,0-24.5,11-24.5,24.4v65.2h17.1V129h14.8v24.1h17.1V87.9C190.4,74.5,179.4,63.5,165.9,63.5z
			 M173.3,111.9h-14.8v-24c0-4,3.3-7.3,7.4-7.3c4.1,0,7.4,3.3,7.4,7.3V111.9z"/>
	</g>
	<g>
		<path d="M250.1,92.1l-0.6-5.7v1.5c-0.6-16.9-11-24.5-24.5-24.5h-24.5V168H225c13.5,0,24.5-11,24.5-24.5v-5.2
			c0-6.1-2.2-11.7-5.9-16C251.8,113.6,250.1,98.2,250.1,92.1z M232.4,143.5c0,4.1-3.3,7.4-7.4,7.4h-7.4v-20.1h7.4
			c4.1,0,7.4,3.3,7.4,7.4V143.5z M228,113.8h-10.4V80.5h7.4c4.1,0,9.1,1.3,9.8,6.7l0.1,0.8c0.2,1.6,0.3,3.2,0.3,4.8
			C235.5,99.2,236.2,113.8,228,113.8z"/>
	</g>
	<g>
		<path d="M133.3,92.1l-0.6-5.7v1.5c-0.6-16.9-11-24.5-24.5-24.5H83.8V168h24.5c13.5,0,24.5-11,24.5-24.5v-5.2
			c0-6.1-2.2-11.7-5.9-16C135,113.6,133.3,98.2,133.3,92.1z M115.6,143.5c0,4.1-3.3,7.4-7.4,7.4h-7.4v-20.1h7.4
			c4.1,0,7.4,3.3,7.4,7.4V143.5z M111.2,113.8h-10.4V80.5h7.4c4.1,0,9.1,1.3,9.8,6.7l0.1,0.8c0.2,1.6,0.3,3.2,0.3,4.8
			C118.7,99.2,119.4,113.8,111.2,113.8z"/>
	</g>
	<g>
		<path d="M307.6,87.6c-0.2-13.3-11.1-24.1-24.5-24.1h-24.5v89.6h24.5c13.5,0,24.5-11,24.5-24.5v-5.2c0-6.1-2.2-11.7-5.9-16
			c3.7-4.3,5.9-9.9,5.9-16V88C307.6,87.9,307.6,87.8,307.6,87.6z M290.5,128.6c0,4.1-3.3,7.4-7.4,7.4h-7.4v-20.1h7.4
			c4.1,0,7.4,3.3,7.4,7.4V128.6z M290.5,91.4c0,4.1-3.3,7.4-7.4,7.4h-7.4V80.6h7.4c3.3,0,6,2.1,7,5.1c0.3,0.7,0.4,1.5,0.4,2.3V91.4z
			"/>
	</g>
	<g>
		<path d="M316.8,168V63.4h17.1v87.5H357V168L316.8,168L316.8,168z"/>
	</g>
	<g>
		<path d="M407.1,80.5h-26.9v33.2h21v17.1h-21v20.1h26.8V168H363V63.4h44.2V80.5z"/>
	</g>
	<g>
		<path class="st0" d="M132.9,198.9c0-13.5-11-24.5-24.5-24.5H84V264h24.5c13.5,0,24.5-11,24.5-24.5v-5.2c0-6.1-2.2-11.7-5.9-16
			c3.7-4.3,5.9-9.9,5.9-16V198.9z M101.1,191.5h7.4c4.1,0,7.4,3.3,7.4,7.4v3.4c0,4.1-3.3,7.4-7.4,7.4h-7.4V191.5z M115.8,239.5
			c0,4.1-3.3,7.4-7.4,7.4h-7.4v-20.1h7.4c4.1,0,7.4,3.3,7.4,7.4V239.5z"/>
	</g>
	<g>
		<path class="st0" d="M166.2,264.1h-0.5c-13.4,0-24.3-10.9-24.3-24.3v-80.3h17.1v80.3c0,4,3.2,7.2,7.2,7.2h0.5c4,0,7.2-3.2,7.2-7.2
			v-80.3h17.1v80.3C190.4,253.2,179.6,264.1,166.2,264.1z"/>
	</g>
	<g>
		<path class="st0" d="M253,216.4c-0.3-14.9-4.9-26-13.4-33c-7.3-6-17.2-9-30.4-9h-8.6l0,49V264h8.6c13.2,0,23.2-3.1,30.5-9.5
			c5.7-5,9.6-12,11.7-20.7c0.2-1,0.4-1.9,0.6-3c0.6-3.6,1-7.4,1-11.4c0-0.4,0-0.8,0-1.2C253,217.7,253,217,253,216.4z M228.5,241.6
			c-2.7,2.3-6.2,3.8-10.8,4.7v-16.1l0-38c4.7,0.8,8.3,2.2,10.9,4.4c3.9,3.3,6.2,8.5,7,16c0.1,1,0.2,1.9,0.2,3c0,0.9,0.1,1.8,0.1,2.7
			c0,3.3-0.2,6.5-0.7,9.3c-0.2,1-0.4,2-0.6,3C233.4,235.4,231.3,239.1,228.5,241.6z"/>
	</g>
	<g>
		<path class="st0" d="M313.2,202.2c-0.1-1-0.1-2-0.2-3c-1.4-15.1-5.7-22-12.9-29.1c-7.3-7.1-17.2-10.6-30.4-10.6h-8.6l0,54.1v50.2
			h8.6c13.2,0,23.2-3.7,30.5-11.3c8.8-9,13.3-19.3,13.3-41C313.5,208.1,313.4,205,313.2,202.2z M289,240.2
			c-2.7,2.7-6.2,4.6-10.8,5.5V212l0-3.2v-31.3c4.7,0.9,8.3,2.6,10.9,5.2c4.9,4.8,8.2,10.9,8.2,28.8v0.1c0,1.2,0,2.3,0,3.3
			C297,230.4,293.6,235.5,289,240.2z"/>
	</g>
	<g>
		<g>
			<path class="st0" d="M407.6,174.3v18h-36.4c-1.8,0-3.3,1.5-3.3,3.3v9.8l-0.2,2.6l0.2,0v1.3c0,0.5,0,1.1-0.1,1.6
				c-0.2,3.5-1.2,6.8-2.7,9.7c-0.4,0.8-0.8,1.5-1.3,2.2c-1.9,2.8-4.3,5.2-7.2,7c-1.5,0.9-3,1.7-4.7,2.3V264h-17.2v-31.9
				c-9.3-3.4-15.9-12.3-15.9-22.8v-6.7c3.7,0.7,7.8,2,11.4,0.5c1.9-0.8,3.6-2,5.2-3.2c0.1-0.1,0.3-0.2,0.4-0.3v9.7
				c0,4,3.2,7.2,7.2,7.2h0.5c4,0,7.2-3.2,7.2-7.2v-18.8c0-8.9,7.2-16.1,16.1-16.1v-0.1H407.6z"/>
			<path class="st0" d="M318.9,174.4H336v25.2c-0.2,0.1-0.3,0.2-0.4,0.3c-1.6,1.2-3.3,2.4-5.2,3.2c-3.6,1.5-7.7,0.2-11.4-0.5V174.4z
				"/>
			<polygon class="st0" points="367.9,205.5 367.9,208.1 367.7,208.1 			"/>
		</g>
		<g>
			<path d="M318.9,199.6v3.1c-0.2,0-0.5-0.1-0.7-0.1c-0.6-0.1-1.2-0.2-1.8-0.3c-0.8-0.1-1.7-0.2-2.5-0.1c-0.2,0-0.5,0-0.7,0
				c-0.1-1-0.1-2-0.2-3c0.3,0,0.6-0.1,0.9-0.1c0.8,0,1.7,0,2.5,0.1C317.3,199.3,318.1,199.4,318.9,199.6z"/>
			<path d="M341,200.2c-0.5,0-1-0.2-1.3-0.8c-0.4-0.7-0.6-1.3-1.3-1.3c-0.1,0-0.3,0-0.4,0.1c-0.7,0.3-1.4,0.9-2.1,1.4V196
				c0.5-0.3,1-0.5,1.6-0.7c0.3-0.1,0.6-0.2,0.9-0.2c1,0,1.8,0.3,2.5,1c0.5,0.5,1,1.1,1.3,1.8C342.9,199,342,200.1,341,200.2z"/>
		</g>
	</g>
</g>
<g>
	<g>
		<g>
			<g>
				<path d="M408.7,255.4c0,1.5,0.1,3,0.4,4.4c0.7-0.2,1.5-0.4,2.2-0.6c0-0.1,0-0.2-0.1-0.3c0,0.2,0,0,0-0.1c0-0.3,0-0.5,0-0.8
					c0-0.6,0-1,0.1-1.5c0.1-0.5,0.3-1.2,0.4-1.5c0.1-0.2,0.2-0.4,0.4-0.6c-0.1,0.2,0.1-0.1,0.1-0.1c0.1-0.1,0,0,0,0
					c0,0,0.1-0.1,0.2-0.1c-0.3,0.1,0,0,0.1,0c-0.1,0-0.1,0,0,0c-0.1,0-0.1,0,0,0c0.2,0-0.1-0.1,0.1,0c0,0,0.3,0.2,0.1,0.1
					c0.4,0.4,0.6,0.7,0.9,1.3c0.6,1,1,2.1,1.7,3c0.4,0.5,1.5,0.4,1.8-0.2c0.4-0.9,0.8-2.1,1.6-2.6c-0.2,0.1,0.3-0.1,0.1-0.1
					c-0.1,0,0,0,0.1,0c-0.1,0-0.1,0-0.2,0c0.3,0.1-0.2-0.1,0,0c-0.4-0.1,0-0.1,0,0c0,0.1,0,0-0.1-0.1c0,0,0.1,0.1,0.1,0.1
					c0,0.1,0.1,0.2,0.1,0.2c0,0.1,0.1,0.1,0.1,0.2c0-0.1,0-0.1,0,0c0,0.1,0.1,0.2,0.1,0.4c0.7,2,0.8,4.3,1.7,6.2
					c0.3,0.5,1,0.7,1.5,0.4c0.6-0.3,0.7-1,0.4-1.5c-0.1-0.1,0.1,0.3,0-0.1c0-0.1-0.1-0.2-0.1-0.3c-0.1-0.3-0.1-0.5-0.2-0.8
					c-0.1-0.6-0.3-1.2-0.4-1.9c-0.3-1.3-0.5-2.6-1.2-3.7c-0.7-1.2-2.1-1.7-3.3-0.9c-1.1,0.8-1.6,2.2-2.2,3.4
					c0.6-0.1,1.2-0.1,1.8-0.2c0.2,0.2-0.1-0.1-0.1-0.2c-0.1-0.1-0.1-0.3-0.2-0.4c-0.2-0.3-0.3-0.6-0.5-0.9c-0.3-0.6-0.6-1.3-1-1.9
					c-0.9-1.2-2.3-2.2-3.8-1.4c-1.2,0.7-1.8,2.2-2,3.5c-0.3,1.3-0.4,2.7-0.1,4c0.2,0.6,0.8,1,1.4,0.8c0.6-0.2,0.9-0.8,0.8-1.4
					c-0.2-1.3-0.3-2.5-0.3-3.8C411,253.9,408.7,253.9,408.7,255.4L408.7,255.4z"/>
			</g>
		</g>
	</g>
	<g>
		<g>
			<g>
				<path d="M428.7,253.2c-1.6-0.2-3,0.9-3.8,2.1c-0.8,1.2-1.3,2.8-0.6,4.1c0.7,1.4,2.7,1.8,3.9,0.9c1.2-0.9,1.7-2.3,2.1-3.7
					c0.3-1.3,0.4-2.6,0.7-3.8c-0.7,0-1.5,0-2.2,0c0.9,2.1,1.2,4.4,2,6.5c0.2,0.5,0.8,1,1.4,0.8c0.5-0.2,1-0.8,0.8-1.4
					c-0.8-2.1-1.1-4.4-2-6.5c-0.2-0.4-0.5-0.9-1.1-0.8c-0.5,0-1,0.3-1.1,0.8c-0.2,0.9-0.3,1.9-0.5,2.8c-0.1,0.6-0.3,1.2-0.5,1.8
					c0,0.1-0.1,0.3-0.1,0.4c0,0.1,0,0.1-0.1,0.2c0,0,0.1-0.3,0-0.1c-0.1,0.3-0.2,0.5-0.4,0.7c0,0-0.1,0.1-0.1,0.1c0,0,0.2-0.2,0,0
					c-0.1,0.1-0.2,0.2-0.2,0.2c-0.1,0.1,0.2-0.1,0.1,0c0,0-0.1,0.1-0.1,0.1c0,0-0.1,0-0.1,0.1c0.2-0.1,0.2-0.1,0.1-0.1
					c0,0-0.1,0-0.1,0c-0.3,0.1,0.3,0,0,0c0,0-0.1,0-0.2,0c-0.2,0,0.3,0.1,0.1,0c-0.1,0-0.1,0-0.2,0c-0.3,0,0.1,0,0,0
					c0,0-0.1-0.1-0.2-0.1c-0.3-0.1,0.1,0.1,0,0c0,0-0.1-0.1-0.1-0.1c-0.1-0.1,0.1,0.2,0,0.1c0,0,0-0.1-0.1-0.1
					c-0.1-0.2,0.1,0.3,0,0.1c0-0.1,0-0.3-0.1-0.3c0.1,0.1,0,0.3,0,0.1c0-0.1,0-0.1,0-0.2c0-0.1,0-0.1,0-0.2c0-0.2-0.1,0.3,0,0.1
					c0-0.1,0-0.3,0.1-0.4c0-0.1,0.1-0.3,0.1-0.4c-0.2,0.2-0.1,0.1,0,0c0-0.1,0.1-0.2,0.1-0.3c0.1-0.1,0.2-0.3,0.3-0.4
					c0,0,0.1-0.1,0.1-0.2c-0.2,0.2-0.1,0.1,0,0c0.1-0.1,0.2-0.2,0.3-0.4c0-0.1,0.1-0.1,0.1-0.1c0.2-0.2-0.1,0.1,0,0
					c0.1-0.1,0.3-0.2,0.4-0.2c0,0,0.1-0.1,0.2-0.1c-0.2,0.1-0.2,0.1-0.1,0c0,0,0.1,0,0.1,0c0.1,0,0.1,0,0.2-0.1c0.3-0.1-0.2,0,0,0
					c0.1,0,0.3,0,0.5,0c0.6,0.1,1.1-0.6,1.1-1.1C429.8,253.7,429.3,253.3,428.7,253.2L428.7,253.2z"/>
			</g>
		</g>
	</g>
	<g>
		<g>
			<g>
				<path d="M437.4,247c0,4.9,0,9.7,0,14.6c0,1.5,2.3,1.5,2.3,0c0-4.9,0-9.7,0-14.6C439.6,245.5,437.4,245.5,437.4,247L437.4,247z"
					/>
			</g>
		</g>
	</g>
	<g>
		<g>
			<g>
				<path d="M444,252.5c-2.8-0.1-5.7,0.2-8.5-0.3c-1.3-0.2-1.9,1.3-0.9,2.1c3,2.1,6,4.3,9,6.5c0.5,0.4,1.3,0.1,1.5-0.4
					c0.3-0.6,0.1-1.2-0.4-1.5c-2.9-2.2-6-4.4-9-6.5c-0.3,0.7-0.6,1.4-0.9,2.1c3,0.5,6,0.3,9.1,0.4
					C445.4,254.8,445.4,252.6,444,252.5L444,252.5z"/>
			</g>
		</g>
	</g>
	<g>
		<g>
			<g>
				<path d="M449.6,253.7c0,2.6,0,5.2,0,7.7c0,0.6,0.5,1.1,1.1,1.1c0.6,0,1.1-0.5,1.1-1.1c0-2.6,0-5.2,0-7.7c0-0.6-0.5-1.1-1.1-1.1
					C450.1,252.5,449.6,253.1,449.6,253.7L449.6,253.7z"/>
			</g>
		</g>
	</g>
	<g>
		<g>
			<g>
				<path d="M450.9,248.6c1.5,0,1.5-2.3,0-2.3C449.4,246.4,449.4,248.6,450.9,248.6L450.9,248.6z"/>
			</g>
		</g>
	</g>
	<g>
		<g>
			<g>
				<path d="M454.7,253.7c0,1.6,0,3.2,0,4.8c0.8,0,1.5,0,2.3,0c0-0.1,0-0.3,0-0.4c0-0.1,0-0.2,0-0.2c0-0.1,0-0.4,0-0.2s0-0.1,0-0.1
					c0-0.1,0-0.2,0-0.3c0-0.2,0.1-0.4,0.2-0.6c0-0.2,0.1-0.4,0.2-0.6c0-0.1,0.1-0.2,0.1-0.3c0-0.1,0-0.1,0.1-0.2
					c0.1-0.2-0.1,0.2,0,0c0.2-0.4,0.4-0.7,0.6-1.1c0.1-0.2-0.2,0.2,0,0.1c0,0,0-0.1,0.1-0.1c0.1-0.1,0.1-0.1,0.2-0.2
					c0,0,0-0.1,0.1-0.1c0.1-0.1,0.1,0-0.1,0c0.1,0,0.2-0.1,0.2-0.1c0,0,0.1,0,0.1-0.1c0.1-0.1-0.1,0.1-0.1,0.1c0,0,0.2-0.1,0.2-0.1
					c0.2-0.1-0.3,0-0.1,0c0,0,0.1,0,0.1,0c0,0,0.1,0,0.1,0c0.1,0,0,0-0.2,0c0,0,0.1,0,0.1,0c0,0,0.3,0.1,0.1,0
					c-0.2-0.1,0.1,0.1,0.1,0.1c0.2,0.1-0.1,0-0.1-0.1c0,0,0.1,0.1,0.1,0.1c0.1,0.1,0.1,0.2,0.2,0.2c0.1,0.1-0.1-0.1-0.1-0.1
					c0,0.1,0.1,0.1,0.1,0.1c0.1,0.1,0.1,0.2,0.2,0.3c0,0.1,0.1,0.2,0.1,0.3c0,0.1,0,0.1,0.1,0.1c0.1,0.2-0.1-0.3,0,0
					c0.2,0.5,0.3,0.9,0.4,1.4c0,0.1,0,0.2,0.1,0.3c0,0,0,0.1,0,0.1c-0.1-0.4,0-0.2,0-0.1c0,0.2,0,0.4,0,0.6c0,0.6,0.5,1.1,1.1,1.1
					c0.6,0,1.1-0.5,1.1-1.1c0-1-0.2-1.9-0.5-2.9c-0.4-1.1-1-2.2-2.2-2.6c-1.1-0.4-2.2,0-3,0.8c-0.8,0.8-1.2,1.8-1.5,2.8
					c-0.3,0.9-0.5,2-0.5,3c0,0.6,0.5,1.1,1.1,1.1c0.6,0,1.1-0.5,1.1-1.1c0-1.6,0-3.2,0-4.8c0-0.6-0.5-1.1-1.1-1.1
					C455.2,252.6,454.7,253,454.7,253.7L454.7,253.7z"/>
			</g>
		</g>
	</g>
	<g>
		<g>
			<g>
				<path d="M470,257.2c-0.1,0.1-0.1,0.2-0.2,0.3c-0.3,0.2,0.2,0-0.1,0.1c0,0-0.4,0.1-0.1,0c-0.5,0-0.9,0-1.4-0.3
					c-0.7-0.3-1.6-0.9-1.9-1.6c-0.1-0.2-0.1-0.4-0.2-0.6c0,0.2,0-0.6,0-0.3c0-0.1,0.2-0.5,0.1-0.3c0-0.1,0.1-0.2,0.1-0.3
					c0.1-0.1,0.1-0.1,0,0c0-0.1,0.1-0.1,0.1-0.1c0,0,0.3-0.2,0.1-0.1c0.1-0.1,0.2-0.1,0.2-0.2c0.1-0.1,0.2-0.1,0.3-0.1
					c-0.2,0.1,0.1,0,0.1,0c0.1,0,0.2-0.1,0.3-0.1c0,0,0.4,0,0.1,0c0.3,0,0.5,0,0.8,0c-0.2,0,0.1,0,0.1,0c0.1,0,0.2,0.1,0.3,0.1
					c0.1,0,0.2,0.1,0.3,0.1c-0.2-0.1,0.1,0.1,0.1,0.1c0.4,0.2,0.7,0.5,0.9,0.8c0.6,0.8,0.9,1.7,1,2.7c0.2,1.8-0.2,4.2-1.4,5.6
					c-0.8,1-2,1.7-3.4,1.6c-1.3-0.1-2.5-1.1-3.3-2.1c-0.4-0.5-1-0.7-1.5-0.4c-0.5,0.3-0.8,1-0.4,1.5c1.1,1.4,2.5,2.7,4.3,3.1
					c1.9,0.4,3.8-0.2,5.2-1.4c2.2-1.8,3-5.2,2.7-7.9c-0.3-2.9-1.9-5.6-5-5.9c-1.2-0.1-2.5,0.2-3.5,1.1c-1,0.9-1.2,2.4-0.8,3.6
					c1,2.9,5.9,5.4,7.9,2.2C472.7,257.1,470.8,256,470,257.2L470,257.2z"/>
			</g>
		</g>
	</g>
	<g>
		<g>
			<g>
				<path d="M491.3,253.2c-0.1,0-0.2,0-0.3,0c0,0-0.4-0.1-0.1,0c-0.2,0-0.4-0.1-0.6-0.1c-0.4-0.1-0.9-0.1-1.4-0.1
					c-1.1,0.1-2,0.6-2.6,1.6c-0.9,1.4-0.8,3.7,0.1,5.1c0.9,1.2,2.7,1.7,4,0.8c1.1-0.8,1.7-2.3,2-3.6c0.3-1.3,0.5-2.7,0.5-4.1
					c-0.7,0.1-1.5,0.2-2.2,0.3c0.5,1.3,1.1,2.6,1.5,4c0.2,0.7,0.5,1.4,0.6,2.1c0.2,0.7,0.2,1.1,0.2,1.9c0,0.6,0.5,1.1,1.1,1.1
					c0.6,0,1.1-0.5,1.1-1.1c0.1-3-1.4-5.8-2.4-8.5c-0.2-0.5-0.6-0.9-1.2-0.8c-0.5,0.1-1,0.5-1,1.1c0,0.4,0,0.8-0.1,1.3
					c0,0.1,0,0.2,0,0.3c0,0.1-0.1,0.4,0,0.1c0,0.3-0.1,0.6-0.1,0.9c-0.1,0.6-0.2,1.1-0.4,1.6c0,0.1-0.1,0.3-0.1,0.4
					c0,0.1-0.1,0.1-0.1,0.2c0,0,0.1-0.2,0,0c-0.1,0.2-0.2,0.5-0.4,0.7c0,0,0,0.1-0.1,0.1c-0.1,0.2,0.1-0.1,0,0
					c-0.1,0.1-0.1,0.1-0.2,0.2c0,0-0.1,0.1-0.1,0.1c0,0,0.2-0.1,0.1-0.1c0,0-0.1,0.1-0.1,0.1c-0.2,0.1,0-0.1,0.1,0
					c0,0-0.3,0.1-0.3,0.1c0-0.1,0.3,0,0.1,0c0,0-0.1,0-0.2,0c-0.2,0,0.2,0,0.1,0c0,0-0.2,0-0.2,0c0,0-0.1,0-0.1,0
					c-0.2-0.1,0.2,0.1,0,0c0,0-0.3-0.2,0,0c0,0-0.1-0.1-0.1-0.1c0,0-0.2-0.3,0,0c0,0-0.1-0.1-0.1-0.1c0-0.1-0.1-0.1-0.1-0.2
					c-0.1-0.2,0.1,0.3,0,0c0-0.2-0.1-0.4-0.1-0.6c0,0,0-0.2,0,0c0-0.1,0-0.2,0-0.3c0-0.1,0-0.3,0-0.4c0-0.1,0-0.2,0-0.3
					c0,0.2,0,0.1,0,0c0-0.2,0.1-0.4,0.1-0.5c0-0.2,0,0,0,0c0.1-0.1,0.1-0.2,0.2-0.3c0,0,0.1-0.2,0-0.1c0.1-0.1,0.1-0.2,0.2-0.2
					c0.2-0.2-0.1,0.1,0.1-0.1c0.1,0,0.3-0.1,0.1,0c0.1,0,0.2,0,0.2-0.1c0.1,0,0.1,0-0.1,0c0.1,0,0.1,0,0.2,0c0.2,0,0.3,0,0.5,0
					c0.1,0,0.2,0,0.2,0c-0.3,0,0.1,0,0.1,0c0.5,0.1,1,0.1,1.5,0.2c0.6,0,1.1-0.6,1.1-1.1C492.4,253.7,491.9,253.3,491.3,253.2
					L491.3,253.2z"/>
			</g>
		</g>
	</g>
	<g>
		<g>
			<g>
				<path d="M496.1,254.2c0,1.7,0.9,3.9,2.8,4.2c1,0.2,2.2-0.1,2.8-1c0.6-0.7,0.8-1.6,0.9-2.5c0-0.9-0.1-1.7-0.3-2.6
					c-0.1-0.6-0.8-1-1.4-0.8c-0.6,0.2-0.9,0.8-0.8,1.4c0,0.3,0.1,0.6,0.1,0.8c0,0.3,0-0.3,0,0c0,0.1,0,0.1,0,0.2c0,0.2,0,0.3,0,0.5
					c0,0.1,0,0.3,0,0.4c0,0.1,0,0.2,0,0.2c0,0.1,0,0.4,0,0.1c0-0.2,0,0,0,0.1c0,0.1,0,0.1,0,0.2c0,0.1,0,0.1-0.1,0.2
					c0,0.1-0.1,0.2,0-0.1c0,0,0,0.1,0,0.1c0,0.1-0.1,0.1-0.1,0.2c-0.1,0.2,0.1-0.2,0,0c0,0.1-0.1,0.1-0.1,0.1
					c-0.1,0.1-0.2,0.1,0.1-0.1c0,0-0.1,0.1-0.1,0.1c-0.1,0-0.1,0.1-0.2,0.1c-0.1,0.1,0.1-0.1,0.1,0c0,0-0.1,0-0.1,0
					c-0.1,0-0.2,0-0.3,0.1c-0.1,0-0.1,0,0.1,0c0,0-0.1,0-0.2,0c-0.1,0-0.1,0-0.2,0c0.3,0,0.2,0,0,0c0,0-0.1,0-0.1,0
					c-0.1,0-0.1-0.1,0.1,0.1c-0.1,0-0.1-0.1-0.2-0.1c-0.2-0.1,0.2,0.1,0,0c0,0-0.1-0.1-0.2-0.1c-0.1-0.1-0.2-0.3,0,0
					c0-0.1-0.1-0.1-0.1-0.2c0-0.1-0.1-0.1-0.1-0.2c0,0,0-0.1,0-0.1c-0.1-0.2,0,0,0,0.1c-0.1-0.1-0.1-0.4-0.2-0.5
					c0-0.1,0-0.2-0.1-0.3c0,0,0-0.1,0-0.1c0-0.2,0,0.2,0,0.1c0-0.2,0-0.4,0-0.5c0-0.6-0.5-1.1-1.1-1.1
					C496.7,253.1,496.1,253.6,496.1,254.2L496.1,254.2z"/>
			</g>
		</g>
	</g>
	<g>
		<g>
			<g>
				<path d="M512.8,252.7c-0.4-2.2-3.7-3.9-5.7-2.9c-2,1-2.5,4-2,5.9c0.6,2.5,3.6,3.8,5.9,2.5c2.3-1.4,2.7-4.4,2.9-6.8
					c0.2-3,0-6.1-0.7-8.9c-0.3-1.4-2.5-0.8-2.2,0.6c0.5,1.9,0.7,3.9,0.7,5.8c0,2-0.1,4-0.7,5.9c-0.4,1.3-1.9,2.5-3.1,1.4
					c-0.5-0.5-0.6-1-0.6-1.7c0-0.7,0.1-1.4,0.5-2c0.4-0.7,0.7-0.7,1.4-0.4c0.7,0.3,1.5,0.8,1.6,1.4c0.1,0.6,0.8,0.9,1.4,0.8
					C512.6,253.9,512.9,253.3,512.8,252.7L512.8,252.7z"/>
			</g>
		</g>
	</g>
	<g>
		<g>
			<g>
				<path d="M519,259.7c0-1.7,0-3.4,0-5.2c0-0.6-0.5-1.1-1.1-1.1c-0.6,0-1.1,0.5-1.1,1.1c0,1.7,0,3.4,0,5.2c0,0.6,0.5,1.1,1.1,1.1
					C518.5,260.8,519,260.3,519,259.7L519,259.7z"/>
			</g>
		</g>
	</g>
	<g>
		<g>
			<g>
				<path d="M518.1,250c1.5,0,1.5-2.3,0-2.3S516.6,250,518.1,250L518.1,250z"/>
			</g>
		</g>
	</g>
	<g>
		<g>
			<g>
				<path d="M522.8,252.1c-0.2,1.4,0.4,2.9,1.7,3.6c1.2,0.6,2.6,0.5,3.8,0c1.3-0.6,2.1-2,2.2-3.4c0.1-0.8-0.1-1.6-0.4-2.4
					c-0.5-1.1-1.2-2.3-2.5-2.4c-1-0.1-1.9,0.6-2.6,1.3c-0.3,0.3-0.6,0.6-0.9,0.9c-0.1,0.1-0.3,0.3-0.4,0.4c-0.1,0.1-0.1,0.1-0.2,0.2
					c0,0,0,0-0.1,0.1c-0.1,0.1,0.3-0.2,0.1-0.1c-0.5,0.3-0.8,1-0.4,1.5c0.3,0.5,1,0.8,1.5,0.4c0.6-0.4,1.1-0.9,1.6-1.5
					c0.3-0.3,0.5-0.5,0.8-0.8c0.1-0.1,0.1-0.1,0.2-0.1c0.1-0.1-0.3,0.2-0.1,0.1c0,0,0,0,0.1-0.1c0.1-0.1,0.3-0.2,0.4-0.2
					c-0.3,0.2-0.2,0.1,0,0c0,0,0.1,0,0.1,0c0.1,0,0.1,0.1-0.2,0c0,0,0.3,0,0,0c-0.3,0,0,0,0.1,0c0,0-0.3-0.1-0.2-0.1
					c0,0,0,0,0.1,0.1c0,0,0.2,0.1,0,0c-0.2-0.1,0,0,0,0c0,0,0.2,0.3,0.1,0.1c-0.1-0.2,0,0,0,0c0,0.1,0.1,0.1,0.1,0.2
					c0,0.1,0.1,0.2,0.2,0.3c0,0.1,0.1,0.1,0.1,0.2c0.1,0.1-0.1-0.2,0,0c0.1,0.2,0.1,0.4,0.2,0.5c0,0.2,0.1,0.3,0.1,0.5
					c0,0.3,0-0.2,0-0.1c0,0.1,0,0.2,0,0.3c0,0.1,0,0.3,0,0.4c0,0,0,0.1,0,0.1c0,0.2,0-0.2,0-0.2c0,0,0,0.2,0,0.2
					c0,0.1-0.1,0.2-0.1,0.4c0,0,0,0.1,0,0.1c0,0,0.1-0.3,0.1-0.2c0,0.1-0.1,0.1-0.1,0.2c-0.1,0.1-0.1,0.2-0.2,0.3
					c-0.1,0.2,0.2-0.2,0-0.1c0,0.1-0.1,0.1-0.1,0.1c-0.1,0.1-0.2,0.2-0.3,0.2c-0.2,0.2,0.3-0.2,0,0c0,0-0.1,0.1-0.2,0.1
					c-0.1,0.1-0.2,0.1-0.3,0.2c0,0-0.2,0.1-0.2,0.1c0,0,0.3-0.1,0.2-0.1c0,0-0.1,0-0.1,0c-0.1,0-0.2,0.1-0.3,0.1
					c-0.1,0-0.6,0.1-0.1,0c-0.2,0-0.4,0-0.7,0s0.3,0.1,0.1,0c0,0-0.1,0-0.2,0c-0.1,0-0.2-0.1-0.3-0.1c0,0,0,0-0.1,0
					c-0.2,0,0.3,0.1,0.1,0.1c0,0-0.1-0.1-0.2-0.1c0,0-0.1-0.1-0.2-0.1c0,0,0,0-0.1,0c-0.1-0.1,0.2,0.2,0.1,0.1
					c-0.1-0.1-0.2-0.2-0.3-0.3c-0.2-0.2,0.2,0.2,0,0.1c0-0.1-0.1-0.1-0.1-0.1c0-0.1-0.1-0.1-0.1-0.2c-0.1-0.2,0.1,0.3,0,0
					c0-0.1-0.1-0.3-0.1-0.4c0-0.2,0,0.3,0,0c0-0.1,0-0.2,0-0.3c0-0.2,0-0.4,0-0.5c0.1-0.6-0.6-1.1-1.1-1.1
					C523.2,251,522.9,251.5,522.8,252.1L522.8,252.1z"/>
			</g>
		</g>
	</g>
	<g>
		<g>
			<g>
				<path d="M436.8,280.6c0-1.6,0.2-3.3,0-4.9c-0.1-0.9-0.3-1.8-0.7-2.6c-0.5-0.9-1.5-1.7-2.5-1.9c-2.3-0.5-4.2,1.3-4.7,3.4
					c-0.4,1.5-0.7,3.7,0.8,4.7c0.9,0.6,2.2,0.4,3.1-0.1c0.5-0.3,0.9-0.7,1.3-1.1c0.1-0.1,0.2-0.2,0.3-0.2c0,0,0.3-0.2,0.1-0.1
					c0.1-0.1,0.2-0.1,0.3-0.2c0,0,0.2-0.1,0,0c-0.1,0.1,0.1,0,0.1,0c0.6-0.2,1-0.8,0.8-1.4c-0.2-0.6-0.8-1-1.4-0.8
					c-0.9,0.3-1.5,0.9-2.2,1.5c-0.1,0.1-0.3,0.2-0.4,0.3c0.2-0.1-0.1,0-0.1,0.1c-0.1,0-0.2,0.1-0.3,0.1c0.2-0.1,0,0,0,0
					c-0.1,0-0.2,0-0.3,0.1c-0.3,0.1,0.2,0-0.1,0c0,0-0.2,0-0.2,0c0,0,0.3,0.1,0,0c-0.2-0.1,0.2,0.1,0,0c-0.2-0.1,0.1,0.1,0.1,0.1
					c0,0-0.1-0.1-0.1-0.1s0.1,0.3,0,0c-0.1-0.2,0,0.2,0,0.1c0-0.1-0.1-0.3-0.1-0.4c0,0.3,0,0.1,0,0c0-0.1,0-0.1,0-0.2
					c0-0.2,0-0.3,0-0.5c0-0.1,0-0.1,0-0.2c0-0.3,0,0.3,0,0c0-0.2,0.1-0.3,0.1-0.5s0.1-0.3,0.1-0.5c0-0.1,0-0.1,0.1-0.2
					c0,0,0.1-0.3,0-0.1c0.1-0.2,0.2-0.4,0.3-0.5c0-0.1,0.1-0.1,0.1-0.2c-0.1,0.2,0.1-0.1,0.1-0.2c0.1-0.1,0.1-0.1,0.2-0.2
					c0,0,0.2-0.2,0,0c0.1-0.1,0.2-0.1,0.3-0.2c0,0,0.3-0.1,0.1-0.1c-0.1,0.1,0.1,0,0.1,0c0.1,0,0.2,0,0.3-0.1c-0.3,0,0,0,0.1,0
					c0.1,0,0.3,0,0.1,0c0.4,0.1,0.5,0.1,0.8,0.4c0.1,0.1,0.2,0.2,0.4,0.4c-0.2-0.2,0,0,0,0c0.1,0.1,0.1,0.2,0.2,0.3
					c0,0,0,0.1,0.1,0.1c-0.1-0.3,0,0,0,0c0,0.1,0.1,0.3,0.1,0.5c0,0.2,0.1,0.3,0.1,0.5c0,0.1,0,0.2,0,0.3c0-0.2,0,0,0,0.1
					c0.2,1.6,0,3.2,0,4.8c0,0.6,0.5,1.1,1.1,1.1C436.2,281.7,436.8,281.2,436.8,280.6L436.8,280.6z"/>
			</g>
		</g>
	</g>
	<g>
		<g>
			<g>
				<path d="M446.7,271c-1-1.2-2.5-2-4.1-1.7c-1.4,0.3-2.4,1.6-2.7,3c-0.1,0.7-0.2,1.4,0,2.1c0.1,0.6,0.3,1.1,0.6,1.7
					c0.3,0.6,0.6,1.1,1,1.5c0.3,0.4,0.8,0.8,1.2,1c0.7,0.4,1.5,0.4,2.2,0c0.8-0.4,1.2-1.2,1.5-2c0.2-0.5-0.2-1.3-0.8-1.4
					c-0.6-0.1-1.1,0.2-1.4,0.8c-0.1,0.2,0.1-0.2,0,0c0,0.1-0.1,0.1-0.1,0.2c-0.1,0.1-0.1,0.2-0.2,0.4c0,0.1,0.1-0.1,0.1-0.1
					c0,0,0,0-0.1,0.1c0,0-0.1,0.1-0.1,0.1c0,0-0.1,0.1-0.1,0.1c0.2-0.2,0.2-0.1,0.1-0.1c0,0-0.2,0.1,0,0c0.2-0.1,0.1,0,0,0
					c0,0-0.1,0-0.1,0c0,0,0.4,0,0.1,0c0,0-0.1,0-0.1,0c0,0,0.3,0.1,0.2,0c0,0-0.1,0-0.1,0c0,0,0,0-0.1,0c-0.1,0,0.2,0.1,0.2,0.1
					c0,0-0.2-0.1-0.2-0.1c0,0-0.1-0.1-0.1-0.1c-0.1-0.1,0.2,0.2,0.1,0.1c-0.2-0.1-0.3-0.3-0.5-0.4c0,0-0.1-0.1-0.1-0.1
					c-0.1-0.2,0.1,0.1,0,0.1c-0.1-0.1-0.1-0.2-0.2-0.3c-0.1-0.2-0.3-0.4-0.4-0.6c0-0.1-0.1-0.2-0.1-0.3c0-0.1,0-0.1-0.1-0.2
					c-0.1-0.2,0.1,0.3,0,0.1c-0.1-0.2-0.1-0.4-0.2-0.6c0-0.1,0-0.2-0.1-0.3c0,0,0-0.1,0-0.1c0-0.2,0,0.1,0,0.1c0-0.2,0-0.5,0-0.7
					c0-0.1,0-0.1,0-0.2c0,0.3,0,0.1,0,0c0-0.1,0.1-0.3,0.1-0.4c0-0.1,0-0.1,0.1-0.2c0.1-0.2-0.1,0.2,0,0c0.1-0.1,0.1-0.2,0.2-0.3
					c0,0,0.1-0.1,0.1-0.1c0.1-0.1-0.2,0.2,0,0c0.1-0.1,0.2-0.2,0.3-0.3c0.2-0.1-0.2,0.1,0,0c0,0,0.1,0,0.1-0.1c0,0,0.1,0,0.1-0.1
					c0,0,0.1,0,0.1,0c0,0-0.3,0.1-0.1,0.1c0.1,0,0.2-0.1,0.4-0.1c0.2,0-0.3,0-0.1,0c0.1,0,0.1,0,0.2,0c0.1,0,0.1,0,0.2,0
					c0.2,0-0.3-0.1-0.1,0c0.1,0,0.3,0.1,0.4,0.1c0.3,0.1-0.1-0.1,0,0c0.1,0,0.1,0.1,0.2,0.1c0.1,0.1,0.3,0.2,0.4,0.3
					c0.1,0.1-0.1-0.1-0.1-0.1c0,0,0.1,0.1,0.1,0.1c0.1,0.1,0.1,0.1,0.2,0.2c0.1,0.1,0.3,0.3,0.4,0.4c0.4,0.5,1.2,0.4,1.6,0
					C447.1,272.1,447.1,271.4,446.7,271L446.7,271z"/>
			</g>
		</g>
	</g>
	<g>
		<g>
			<g>
				<path d="M453.8,271.2c-1.3-0.3-2.7-0.1-3.5,1.1c-0.6,0.8-0.7,2-0.6,3c0.1,1.2,0.5,2.3,1,3.3c0.5,0.9,1.2,1.8,2.2,2.2
					c1.3,0.5,2.5-0.5,3-1.7c0.2-0.5,0.2-1.2-0.4-1.5c-0.5-0.3-1.3-0.2-1.5,0.4c-0.1,0.2-0.2,0.4-0.3,0.6c-0.1,0.2,0.2-0.2,0.1-0.1
					c0,0,0,0.1-0.1,0.1s-0.1,0.1-0.1,0.1c-0.1,0.1,0,0,0.1-0.1c0,0-0.1,0.1-0.2,0.1c0,0,0.3-0.1,0.1-0.1c0,0-0.1,0-0.1,0
					c-0.1,0,0.3,0,0.2,0c0,0-0.1,0-0.1,0c-0.2,0,0.2,0,0.2,0c0,0-0.1,0-0.1,0c0,0-0.1,0-0.1,0c-0.2,0,0.2,0.1,0.1,0.1
					c-0.1,0-0.1-0.1-0.2-0.1c0,0-0.1,0-0.1-0.1c-0.1-0.1,0.2,0.2,0.1,0.1c-0.1-0.1-0.1-0.1-0.2-0.2c-0.1-0.1-0.1-0.1-0.2-0.2
					c0,0,0-0.1-0.1-0.1c-0.1-0.1,0.2,0.3,0,0.1c-0.1-0.2-0.2-0.3-0.3-0.5c-0.1-0.2-0.2-0.4-0.3-0.6c0,0,0-0.1-0.1-0.2
					c-0.1-0.1,0.1,0.3,0,0.1c0-0.1-0.1-0.2-0.1-0.3c-0.1-0.4-0.3-0.9-0.4-1.3c0-0.1,0-0.1,0-0.2c0,0,0,0.3,0,0.1c0-0.1,0-0.2,0-0.3
					c0-0.2,0-0.4,0-0.6c0,0,0-0.1,0-0.1c0-0.2,0,0.1,0,0.1c0-0.1,0-0.2,0-0.3c0-0.1,0-0.2,0.1-0.3c0,0,0.1-0.2,0,0s0,0,0,0
					c0-0.1,0.1-0.2,0.1-0.2c0.1-0.1-0.2,0.2-0.1,0.1c0,0,0.1-0.1,0.1-0.1s0.1-0.1,0.1-0.1c0,0-0.3,0.2-0.1,0.1c0,0,0.1,0,0.1-0.1
					c0.2-0.1-0.1,0-0.1,0c0.1,0,0.2-0.1,0.3-0.1c0.2-0.1-0.2,0-0.1,0c0,0,0.1,0,0.2,0c0.1,0,0.3,0,0.4,0c0.3,0-0.2,0-0.1,0
					c0.1,0,0.2,0,0.3,0c0.6,0.1,1.2-0.2,1.4-0.8C454.7,272,454.4,271.3,453.8,271.2L453.8,271.2z"/>
			</g>
		</g>
	</g>
	<g>
		<g>
			<g>
				<path d="M464.6,277.5c-0.3,0-0.7,0-1,0c-0.1,0-0.2,0-0.3,0c-0.2,0,0.3,0,0,0c-0.2,0-0.4-0.1-0.6-0.1c-0.1,0-0.3-0.1-0.5-0.1
					c0,0,0.2,0.1,0,0c-0.1,0-0.1-0.1-0.2-0.1c-0.1-0.1-0.3-0.2-0.4-0.3c0,0-0.2-0.2,0,0c-0.1-0.1-0.1-0.1-0.2-0.2
					c-0.1-0.1-0.2-0.2-0.3-0.4c-0.2-0.2,0.1,0.1,0,0c0-0.1-0.1-0.1-0.1-0.2c-0.1-0.1-0.2-0.3-0.2-0.5c0.1,0.2,0,0,0,0
					c0-0.1-0.1-0.2-0.1-0.3c0-0.1,0-0.2-0.1-0.4c0-0.2,0,0.3,0,0c0,0,0-0.1,0-0.2c0-0.1,0-0.3,0-0.4c0-0.1,0-0.2,0-0.2
					c0,0.2,0,0.1,0,0c0-0.1,0.1-0.3,0.1-0.4c0,0,0-0.1,0-0.1c0.1-0.3-0.1,0.2,0,0c0.1-0.1,0.1-0.2,0.2-0.4c0,0,0.1-0.1,0.1-0.1
					c0.1-0.2-0.2,0.1,0,0c0.1-0.1,0.2-0.2,0.3-0.2c-0.2,0.2,0.1,0,0.2-0.1c0.1,0,0.3-0.1,0,0c0,0,0.1,0,0.2,0c0.1,0,0.2,0,0.3-0.1
					c0.2-0.1-0.2,0,0.1,0c0.2,0,0.3,0,0.5,0c-0.3,0,0.1,0,0.2,0.1c0,0-0.2-0.1,0,0c0.1,0,0.3,0.2,0,0c0,0,0.1,0.1,0.1,0.1
					c0.2,0.1-0.1-0.2,0,0c0,0.1,0.1,0.1,0.1,0.2c0,0-0.1-0.2,0,0c0,0.1,0,0.1,0,0.2c0,0,0-0.3,0,0c0,0.1,0,0.2,0,0.2
					c0,0.1,0.1-0.2,0,0c0,0.1,0,0.1-0.1,0.2c0,0-0.1,0.4,0,0.1c-0.1,0.2-0.2,0.3-0.3,0.5c-0.1,0.1,0.2-0.2,0,0
					c-0.1,0.1-0.1,0.1-0.2,0.2c-0.1,0.1-0.3,0.3-0.4,0.4c0.2-0.1,0,0,0,0c-0.1,0.1-0.2,0.1-0.3,0.2c-0.6,0.4-1.3,0.7-1.9,1.1
					c-0.5,0.3-0.7,1-0.4,1.5c0.3,0.5,1,0.7,1.5,0.4c1.5-0.9,3.2-1.6,4-3.2c0.4-0.9,0.6-2,0.1-2.9c-0.4-0.8-1.1-1.3-1.9-1.5
					c-1.9-0.4-3.6,0.7-4.3,2.5c-0.6,1.5-0.4,3.3,0.6,4.6c1.2,1.8,3.4,2.5,5.5,2.3c0.6-0.1,1.1-0.5,1.1-1.1
					C465.7,278.1,465.2,277.5,464.6,277.5L464.6,277.5z"/>
			</g>
		</g>
	</g>
	<g>
		<g>
			<g>
				<path d="M470.5,281.1c1,0.2,2.3,0.1,2.8-1c0.5-0.9,0.1-2-0.3-2.8c-0.4-0.8-0.9-1.5-1.7-1.9c-0.4-0.3-0.9-0.4-1.3-0.7
					c0,0-0.4-0.3-0.1-0.1c-0.1-0.1-0.1-0.1-0.2-0.2c-0.1-0.1,0.1,0.1,0,0c0,0,0-0.1-0.1-0.1c0.1,0.2,0,0.1,0,0c0.1,0.2,0,0.1,0,0
					c0-0.1,0,0.2,0,0c0-0.1,0.1-0.2,0,0c0,0,0.1-0.1,0.1-0.2c0.1-0.2-0.1,0,0,0c0.1-0.1,0.2-0.2,0.3-0.3c0,0,0.1-0.1,0,0
					s0.1-0.1,0.1-0.1c0.3-0.2,0.5-0.3,0.8-0.5c0.1-0.1,0.2-0.1,0.4-0.2c-0.3,0.1,0.1,0,0.2-0.1c0.6-0.2,1-0.8,0.8-1.4
					c-0.1-0.5-0.8-1-1.4-0.8c-1,0.4-2.1,0.9-2.8,1.7c-0.9,1-1,2.5,0,3.5c0.4,0.4,0.9,0.6,1.3,0.9c0.2,0.1,0.4,0.2,0.6,0.3
					c0.1,0.1,0.2,0.1,0.3,0.2c0.2,0.1-0.2-0.2,0,0c0.1,0.1,0.1,0.1,0.2,0.2c0,0,0.2,0.2,0.1,0.1c-0.1-0.1,0,0.1,0.1,0.1
					c0.1,0.1,0.1,0.2,0.2,0.3c0,0.1,0.1,0.1,0.1,0.2c0,0,0.1,0.3,0.1,0.1c-0.1-0.2,0,0.1,0,0.1c0,0.1,0.1,0.2,0.1,0.3
					c0,0,0,0.1,0,0.1c0,0.2,0-0.1,0-0.1c0,0,0,0.2,0,0.2c0,0.1,0.1-0.3,0,0c-0.1,0.2,0.1-0.1,0.1-0.1c0,0.1-0.1,0.1,0,0
					c0.1-0.1,0,0,0,0c-0.1,0.1,0.3-0.2,0.1-0.1c-0.1,0.1,0.3,0,0,0c0.3,0,0.1,0-0.1,0c-0.1,0-0.1,0-0.2,0c0.2,0,0,0-0.1,0
					c-0.6-0.1-1.2,0.2-1.4,0.8C469.6,280.3,470,281,470.5,281.1L470.5,281.1z"/>
			</g>
		</g>
	</g>
	<g>
		<g>
			<g>
				<path d="M480,280.8c1.5-0.1,2.3-1.2,2.5-2.7c0.1-1.1-0.1-2.4-1-3.1c-0.8-0.7-1.9-0.9-2.9-1.2c-0.2-0.1-0.5-0.1-0.7-0.2
					c-0.1,0-0.2-0.1-0.3-0.1c0.2,0.1-0.1-0.1-0.2-0.1c-0.2-0.1,0.1,0,0,0c0,0,0.1,0.1,0,0c0,0,0.1,0.2,0,0.1c0-0.1,0,0,0,0
					c0,0,0-0.1,0-0.2c0-0.2,0,0.1,0-0.1c0-0.1,0-0.2,0.1-0.2c0-0.1,0,0,0,0c0-0.1,0.1-0.1,0.1-0.2c0,0,0.1-0.2,0-0.1
					c0-0.1,0.1-0.1,0.2-0.2c0.2-0.2,0.4-0.3,0.6-0.5c0.6-0.4,0.9-0.5,1.5-0.7c1.4-0.4,0.8-2.6-0.6-2.2c-1.1,0.3-2.3,0.9-3.1,1.7
					c-0.9,0.9-1.4,2.4-0.8,3.6c0.6,1,1.8,1.2,2.8,1.6c0.5,0.2,0.9,0.3,1.4,0.5c0.1,0,0,0,0,0c0.1,0,0.1,0,0.2,0.1
					c0.1,0,0.1,0.1,0.2,0.1c0.2,0.1-0.1-0.1,0,0c0,0,0.1,0.2,0,0c0,0,0.1,0.1,0.1,0.1c0,0,0.1,0.2,0,0c0-0.1,0,0.1,0,0.1
					c0,0,0,0.1,0,0.2c0,0.2,0,0,0,0.1c0,0.2,0,0.6,0,0.7c0,0.2-0.1,0.4-0.2,0.5c0,0-0.1,0.1,0,0c0-0.1,0,0,0,0c0,0,0,0,0.1-0.1
					c-0.1,0,0,0.1-0.1,0c0,0,0,0,0,0c-0.1,0-0.1,0,0,0c-0.6,0-1.1,0.5-1.1,1.1C478.9,280.3,479.4,280.8,480,280.8L480,280.8z"/>
			</g>
		</g>
	</g>
	<g>
		<g>
			<g>
				<path d="M487.3,281.9c0-2.1,0.2-4.2,0.2-6.4c0-0.6-0.5-1.1-1.1-1.1c-0.6,0-1.1,0.5-1.1,1.1c0,2.1-0.2,4.2-0.2,6.4
					c0,0.6,0.5,1.1,1.1,1.1C486.8,283,487.3,282.6,487.3,281.9L487.3,281.9z"/>
			</g>
		</g>
	</g>
	<g>
		<g>
			<g>
				<path d="M486.5,270.3c1.5,0,1.5-2.3,0-2.3C485,268.1,485,270.3,486.5,270.3L486.5,270.3z"/>
			</g>
		</g>
	</g>
	<g>
		<g>
			<g>
				<path d="M491.2,269.2c0,2.9,0.2,6,0.8,8.8c0.3,1.3,0.8,3.1,2.2,3.5c2.1,0.5,3.4-2.1,3.5-3.7c0.2-2.7-2-5.5-4.9-4.5
					c-1.4,0.5-0.8,2.6,0.6,2.2c0.1,0,0.2-0.1,0.4-0.1c0.3-0.1-0.2,0,0.1,0c0.1,0,0.2,0,0.3,0c-0.3,0,0,0,0.1,0s0.3,0.1,0.1,0
					c0.1,0,0.2,0.1,0.3,0.1c0.3,0.2-0.1-0.1,0.1,0.1c0.1,0.1,0.2,0.2,0.3,0.3c-0.1-0.2,0,0.1,0,0.1c0,0.1,0.1,0.2,0.1,0.3
					c0.1,0.3-0.1-0.2,0,0.1c0,0.1,0.1,0.2,0.1,0.3c0,0.1,0,0.2,0.1,0.3c0.1,0.3,0-0.2,0,0.1c0,0.3,0,0.5,0,0.8c0,0.3,0-0.2,0,0.1
					c0,0.1,0,0.2-0.1,0.3s-0.1,0.2-0.1,0.3c0.1-0.2-0.1,0.1-0.1,0.1c0,0.1-0.1,0.1-0.1,0.2c-0.2,0.3,0.1-0.1-0.1,0.1
					c-0.1,0.1-0.3,0.2-0.3,0.4c-0.1,0.2,0.2-0.1,0,0c0,0-0.1,0.1-0.1,0.1c-0.2,0.1,0.3,0,0,0c0.4-0.1,0.2,0,0.1,0
					c-0.2,0,0.3,0.1,0.1,0c-0.3-0.1,0.2,0.1,0,0c0.4,0.2,0.1,0,0,0c-0.1-0.1,0.1,0.2,0,0.1c0,0-0.1-0.1-0.1-0.1
					c-0.1-0.1-0.1-0.2-0.2-0.3c0-0.1,0-0.1-0.1-0.2c0.2,0.3,0,0,0,0c-0.2-0.6-0.4-1.2-0.5-1.9c-0.1-0.4-0.1-0.7-0.2-1.1
					c0-0.1,0-0.2,0-0.3c0-0.3,0,0.2,0-0.1c0-0.2,0-0.4-0.1-0.7c-0.1-0.7-0.1-1.5-0.2-2.2c-0.1-1.1-0.1-2.2-0.1-3.4
					C493.5,267.8,491.2,267.8,491.2,269.2L491.2,269.2z"/>
			</g>
		</g>
	</g>
	<g>
		<g>
			<g>
				<path d="M499.5,264.9c0,2,0.2,4.1,0.5,6.1c0.2,1.4,0.4,2.8,0.8,4.2c0.3,1.1,0.7,2.2,1.4,3c1,1,2.3,0.9,3.3,0.1
					c0.5-0.4,0.4-1.2,0-1.6c-0.5-0.5-1.1-0.4-1.6,0c0.3-0.2,0,0-0.1,0c0,0-0.1,0-0.1,0.1c0,0,0.3-0.1,0.1,0c-0.2,0,0.1,0,0.1,0
					c-0.3,0,0.2,0.1,0,0c-0.2-0.1,0.1,0.1,0,0c0,0-0.2-0.1-0.1,0c0.2,0.1,0-0.1-0.1-0.1c0,0,0,0-0.1-0.1c-0.2-0.2,0.1,0.2,0,0
					c-0.1-0.2-0.2-0.3-0.3-0.5c0-0.1-0.1-0.2-0.1-0.3c-0.1-0.2,0,0,0,0c0-0.1-0.1-0.2-0.1-0.3c-0.2-0.5-0.3-1-0.5-1.5
					c-0.6-2.4-0.8-4.5-1-6.9c0-0.8-0.1-1.5-0.1-2.3C501.7,263.5,499.5,263.5,499.5,264.9L499.5,264.9z"/>
			</g>
		</g>
	</g>
	<g>
		<g>
			<g>
				<path d="M514,275.1c-0.1,0-0.2,0-0.3,0c-0.2,0,0.2,0-0.1,0c-0.2,0-0.4-0.1-0.5-0.1c-0.1,0-0.2-0.1-0.2-0.1c-0.1,0,0.1,0,0.1,0
					c0,0-0.1,0-0.2-0.1c-0.2-0.1-0.3-0.2-0.5-0.3c0,0-0.2-0.2-0.1-0.1c0.1,0.1-0.1-0.1-0.1-0.1c-0.1-0.1-0.3-0.3-0.4-0.4
					c-0.1-0.1-0.1-0.1-0.2-0.2c-0.1-0.1-0.2-0.2,0,0c-0.1-0.1-0.2-0.3-0.3-0.5s-0.2-0.3-0.3-0.5c0-0.1-0.1-0.2-0.1-0.2
					c0,0,0-0.1,0-0.1c-0.1-0.1,0.1,0.2,0,0c-0.1-0.4-0.3-0.7-0.3-1.1c0-0.2-0.1-0.3-0.1-0.5c0-0.2,0,0.2,0,0c0-0.1,0-0.2,0-0.3
					c0-0.4,0-0.7,0-1.1c0-0.1,0,0.2,0,0c0-0.1,0-0.2,0-0.2c0-0.2,0.1-0.3,0.1-0.5c0-0.1,0-0.1,0.1-0.2c-0.1,0.2-0.1,0.1,0,0
					c0.1-0.1,0.2-0.3,0.2-0.4c0.1-0.2-0.1,0.1,0,0c0,0,0.1-0.1,0.1-0.2c0,0,0.1-0.1,0.2-0.1c0.1-0.1-0.2,0.1,0,0
					c0.1-0.1,0.3-0.1,0.4-0.2c0,0-0.2,0.1,0,0c0.1,0,0.2,0,0.3-0.1c0.1,0,0.2,0,0.2,0c-0.2,0-0.1,0,0,0c0.2,0,0.4,0,0.6,0
					c0.1,0,0.1,0,0.2,0c-0.2,0,0,0,0,0c0.1,0,0.2,0,0.3,0.1c0.1,0,0.3,0.1,0.1,0c0.1,0,0.2,0.1,0.2,0.1c0.1,0-0.2-0.1,0,0
					c0,0-0.1-0.2,0,0c0,0.1-0.1-0.3,0,0c0,0,0-0.3,0,0c0,0.2,0.1-0.2,0,0c0,0.1,0,0.1-0.1,0.2c0,0.2,0.1-0.2,0,0
					c0,0.1-0.1,0.2-0.1,0.3c-0.1,0.1-0.1,0.2-0.2,0.3c0,0.1-0.2,0.3-0.1,0.1c-0.1,0.2-0.3,0.3-0.5,0.5c-0.2,0.2-0.3,0.3-0.5,0.5
					c-0.1,0.1-0.2,0.2-0.3,0.2c0,0-0.1,0.1-0.1,0.1c0.1-0.1,0,0,0,0c-0.4,0.3-0.8,0.5-1.2,0.8c-0.1,0-0.2,0.1-0.3,0.1
					c0.2-0.1,0,0-0.1,0c-0.2,0.1-0.3,0.1-0.5,0.1c-0.6,0.1-0.9,0.8-0.8,1.4c0.2,0.6,0.8,0.9,1.4,0.8c0.9-0.1,1.8-0.7,2.5-1.2
					c0.9-0.7,1.7-1.4,2.4-2.3c0.5-0.8,0.9-1.9,0.4-2.8c-0.5-1-1.8-1.3-2.9-1.4c-2-0.1-3.6,1.2-4.2,3c-0.6,1.8-0.2,3.9,0.6,5.5
					c1,2.1,2.9,3.6,5.2,3.7C515.4,277.4,515.4,275.1,514,275.1L514,275.1z"/>
			</g>
		</g>
	</g>
</g>
<g>
	<g>
		<g>
			<g>
				<path d="M163.2,57.6c0-3.8,0-7.7,0-11.5c0-1.4-2.2-1.4-2.2,0c0,3.8,0,7.7,0,11.5C161,59,163.2,59,163.2,57.6L163.2,57.6z"/>
			</g>
		</g>
	</g>
	<g>
		<g>
			<g>
				<path d="M171.7,57.1c0.2-3-1.3-6.3,0-9.2c0.2-0.5-0.3-1.2-0.8-1.3c-0.6-0.2-1.1,0.2-1.4,0.8c-1.3,3.2,0.1,6.5,0,9.8
					c0,0.6,0.5,1.1,1.1,1.1C171.2,58.2,171.7,57.7,171.7,57.1L171.7,57.1z"/>
			</g>
		</g>
	</g>
	<g>
		<g>
			<g>
				<path d="M162.3,47.7c2.5,0.7,5.1,1.5,7.7,1.3c2.5-0.1,4.9-1.2,7-2.6c3.4-2.5,5.8-6.1,7-10.1c2.4-7.9,0.7-17.6-5.9-23
					c-5-4.2-11.8-6.5-17.6-2.6c-5.2,3.5-7.8,10-8.4,16c-0.8,7.5,1.6,15.3,7.9,19.8c1.1,0.8,2.3-1.1,1.1-1.9
					c-9.2-6.7-9-22.7-1.3-30.5c1.7-1.7,3.8-2.9,6.2-3.3c2.8-0.4,5.5,0.6,7.9,2c3.2,1.9,5.8,4.6,7.3,8.1c1.5,3.5,2,7.5,1.5,11.2
					c-0.5,4.1-2.3,8.2-5.3,11.1c-1.8,1.7-4.2,3.2-6.7,3.5c-2.6,0.4-5.3-0.5-7.8-1.2C161.5,45.2,160.9,47.3,162.3,47.7L162.3,47.7z"
					/>
			</g>
		</g>
	</g>
	<g>
		<g>
			<g>
				<path d="M163.5,32.6c-0.3,3,0.3,6.7,3,8.4c1,0.6,2.3,0.8,3.4,0.5c1.3-0.4,2.3-1.3,2.9-2.4c1.1-1.8,1.4-3.9,1.4-6
					c0-1.4-2.2-1.4-2.2,0c0,0.5,0,1-0.1,1.4c0,0.1,0,0.2,0,0.3c0,0,0,0.3,0,0.1c0,0.2-0.1,0.5-0.1,0.7c-0.1,0.3-0.2,0.7-0.3,1
					c-0.1,0.2-0.1,0.3-0.2,0.5c0,0-0.1,0.3,0,0c0,0.1-0.1,0.2-0.1,0.2c-0.1,0.3-0.3,0.5-0.5,0.8c-0.1,0.1-0.3,0.4-0.1,0.1
					c-0.1,0.1-0.2,0.2-0.3,0.3c-0.1,0.1-0.1,0.2-0.2,0.2c-0.1,0-0.1,0.1-0.1,0.1c0.2-0.2,0.1-0.1,0,0c-0.1,0.1-0.2,0.1-0.3,0.2
					c-0.1,0.1-0.4,0.3-0.1,0.1c-0.1,0.1-0.4,0.1-0.6,0.2c-0.2,0,0,0.1,0.1,0c0,0-0.1,0-0.2,0c-0.1,0-0.3,0-0.4,0c0,0-0.1,0-0.1,0
					c-0.1,0,0.3,0.1,0.1,0c-0.1,0-0.2,0-0.3-0.1c-0.1,0-0.3,0-0.3-0.1c0,0,0.3,0.1,0.1,0c-0.1,0-0.1-0.1-0.2-0.1
					c-0.1,0-0.2-0.1-0.3-0.2c-0.1-0.1-0.3-0.3-0.1,0c-0.2-0.2-0.4-0.4-0.6-0.6c0,0-0.1-0.1-0.1-0.1c-0.2-0.2,0.1,0.2,0,0
					c-0.1-0.1-0.2-0.2-0.2-0.3c-0.2-0.3-0.3-0.5-0.4-0.8c0.1,0.3,0,0,0,0c0-0.1-0.1-0.2-0.1-0.3c-0.1-0.2-0.1-0.3-0.1-0.5
					c-0.1-0.2-0.1-0.4-0.1-0.6c0-0.1,0-0.2,0-0.2c0,0-0.1-0.4,0-0.1c-0.1-1-0.1-1.9,0-2.8c0.1-0.6-0.6-1.1-1.1-1.1
					C164,31.5,163.6,32,163.5,32.6L163.5,32.6z"/>
			</g>
		</g>
	</g>
	<g>
		<g>
			<g>
				<path d="M154.1,19.2c0,1.9-0.3,3.8,0.2,5.7c0.2,0.9,0.7,1.8,1.5,2.2c1,0.5,2.1,0.3,3.1-0.1c1.9-0.8,3.1-2.3,3.9-4.2
					c0.8-1.9,1.3-4,1-6c-0.4-2.4-2.2-3.9-4.5-4.1c-1.4-0.1-1.4,2.1,0,2.2c0.3,0,0.2,0,0.5,0.1c0.2,0,0.3,0.1,0.5,0.1
					c-0.2-0.1,0.2,0.1,0.3,0.1c0.1,0.1,0.2,0.1,0.2,0.2c-0.1-0.1,0,0,0.1,0.1c0.1,0.1,0.3,0.4,0.2,0.2c0.1,0.1,0.2,0.3,0.3,0.5
					c0,0,0.1,0.1,0.1,0.2c-0.1-0.2,0,0.1,0,0.1c0.1,0.2,0.1,0.4,0.2,0.6c0,0.1,0.1,0.5,0.1,0.3c0,0.2,0,0.4,0,0.5
					c0,0.4,0,0.9-0.1,1.3c0-0.1-0.1,0.3-0.1,0.4c0,0.2-0.1,0.4-0.1,0.6c-0.1,0.4-0.2,0.9-0.4,1.3c-0.1,0.3-0.2,0.6-0.4,0.9
					c-0.2,0.4-0.4,0.7-0.6,1c-0.3,0.4-0.9,1-1.2,1.2c-0.4,0.3-0.8,0.4-1.2,0.6c-0.1,0-0.1,0-0.2,0c-0.3,0.1,0.2,0-0.1,0
					c-0.1,0-0.1,0-0.2,0c-0.2,0,0.1,0.1-0.1,0c-0.2-0.1,0.2,0.1,0,0c-0.1,0-0.1-0.1-0.2-0.1c0.3,0.3-0.2-0.3,0,0
					c-0.1-0.1-0.2-0.3-0.3-0.4c0.1,0.2-0.1-0.3-0.1-0.3c-0.2-0.8-0.2-1.5-0.2-2.4c0-0.9,0.1-1.8,0.1-2.7
					C156.3,17.8,154.1,17.8,154.1,19.2L154.1,19.2z"/>
			</g>
		</g>
	</g>
	<g>
		<g>
			<g>
				<path d="M175.1,12.7c-2.4,1.8-2.8,5.2-2.4,8.1c0.2,1.4,0.8,2.8,1.7,3.8c1.1,1.3,2.8,1.6,4.4,1.3c1-0.1,1.9-0.6,2.6-1.4
					c0.5-0.7,0.6-1.6,1.2-2.3c1-1-0.6-2.6-1.6-1.6c-0.6,0.6-0.8,1.2-1.1,2c-0.1,0.2-0.2,0.4-0.3,0.6c-0.2,0.2-0.4,0.3-0.5,0.4
					c-0.6,0.2-1.2,0.3-1.8,0.2c-0.2,0-0.5-0.1-0.6-0.2c-0.1,0-0.3-0.2-0.3-0.2s-0.2-0.2-0.2-0.2c-0.1-0.1-0.2-0.2-0.3-0.3
					c0.1,0.1-0.1-0.1-0.1-0.1c-0.2-0.2-0.3-0.5-0.4-0.7c-0.2-0.3-0.4-1-0.5-1.5c-0.2-1-0.2-2.3-0.1-3.3c0.1-0.3,0.1-0.6,0.2-1
					c0.1-0.3,0.1-0.4,0.3-0.6c0.1-0.2,0.3-0.6,0.4-0.7c-0.1,0.1,0.1-0.1,0.1-0.1c0.1-0.1,0.1-0.1,0.1-0.1c0.1-0.1,0.3-0.3,0.2-0.2
					c0.5-0.4,0.7-0.9,0.4-1.5C176.3,12.6,175.6,12.4,175.1,12.7L175.1,12.7z"/>
			</g>
		</g>
	</g>
	<g>
		<g>
			<g>
				<path d="M168.3,28.2c1.4,0,1.4-2.2,0-2.2C166.9,26,166.9,28.2,168.3,28.2L168.3,28.2z"/>
			</g>
		</g>
	</g>
	<g>
		<g>
			<g>
				<path d="M164.7,9.4c-1.6,0-3.3,0-4.7-0.9c-1.4-0.9-1.9-2.5-2.4-4c-0.4,0.4-0.9,0.9-1.4,1.3c1.9,0.5,3.7,2.7,6,2.3
					c1.2-0.3,1.8-1.4,1.6-2.6c-0.3-1.5-1.1-2.5-0.4-4c-0.6,0.1-1.1,0.1-1.7,0.2c0.5,0.7,1.1,2,1.7,2.8c0.7,1.1,1.5,2.2,2.6,2.8
					c1.1,0.6,2.7,0.6,3.6-0.5c0.4-0.5,0.6-1.2,0.5-1.9c0-0.6-0.2-1.2,0.1-1.8c-0.6,0.1-1.1,0.2-1.7,0.2c1.4,1.3,1.6,3.5,2.7,5.1
					c0.5,0.8,1.1,1.3,1.8,1.8c0.1,0.1,0.2,0.1,0.3,0.2c-0.1-0.1,0,0.1,0-0.1c0.1,0.4,0.1,0.8,0.1,1.2c0,1.4,2.2,1.4,2.2,0
					c0-0.8,0.1-1.7-0.4-2.4c-0.5-0.7-1.3-1-1.8-1.7c-1.3-1.8-1.4-4.2-3.1-5.7c-0.6-0.5-1.3-0.4-1.7,0.2c-0.3,0.5-0.5,1-0.5,1.6
					c0,0.5,0.2,1.2,0.1,1.6c-0.2,0.5-1-0.1-1.4-0.3c-1.4-1.4-2-3.4-3.2-4.9c-0.4-0.5-1.4-0.4-1.7,0.2c-0.6,1.3-0.7,2.6-0.3,3.9
					c0.2,0.5,0.3,1.1,0.5,1.7c0-0.1,0.2,0-0.1-0.1c-0.9-0.3-1.6-0.6-2.4-1c-0.8-0.4-1.5-1-2.4-1.2c-0.8-0.2-1.6,0.5-1.4,1.3
					c0.6,2,1.5,4,3.3,5.2c1.7,1.2,3.9,1.3,6,1.3C166.1,11.6,166.1,9.4,164.7,9.4L164.7,9.4z"/>
			</g>
		</g>
	</g>
	<g>
		<g>
			<g>
				<path d="M180.4,22c0,0-0.1-0.1-0.1-0.1C180.4,21.9,180.4,22,180.4,22c-0.1,0-0.1-0.2-0.2-0.4c0,0.1,0.1,0.2,0.1,0.3
					c-0.1-0.2-0.1-0.5-0.2-0.7c0,0.1,0,0.2,0,0.3c0-0.3,0-0.5,0-0.8c0,0.1,0,0.2,0,0.3c0-0.2,0.1-0.4,0.1-0.5c0,0.1-0.1,0.2-0.1,0.3
					c0-0.1,0.1-0.2,0.1-0.3c-0.1,0.1-0.1,0.1-0.2,0.2c0,0,0.1-0.1,0.1-0.1c-0.1,0.1-0.1,0.1-0.2,0.2c0,0,0.1,0,0.1-0.1
					c-0.1,0-0.2,0.1-0.3,0.1c0,0,0.1,0,0.1,0c-0.1,0-0.2,0-0.3,0c0,0,0.1,0,0.1,0c-0.1,0-0.2,0-0.3,0c0.1,0,0.1,0,0.2,0
					c-0.1,0-0.2-0.1-0.3-0.1c0.1,0,0.1,0.1,0.2,0.1c-0.1-0.1-0.1-0.1-0.2-0.2c0.1,0.1,0.3,0.2,0.4,0.4c-0.1-0.1-0.1-0.1-0.2-0.2
					c0,0,0.1,0.1,0.1,0.2c0.2,0.2,0.4,0.4,0.7,0.5c0.3,0.1,0.6,0,0.9-0.1c0.2-0.1,0.4-0.4,0.5-0.7c0.1-0.3,0.1-0.6-0.1-0.9
					c-0.4-0.5-0.8-1-1.4-1.2c-0.6-0.2-1.2,0-1.6,0.5c-0.3,0.4-0.5,0.8-0.6,1.3c-0.1,0.5-0.1,1,0,1.6c0.1,0.6,0.4,1.1,0.8,1.6
					c0.4,0.4,1.2,0.4,1.6,0C180.9,23.1,180.9,22.4,180.4,22L180.4,22z"/>
			</g>
		</g>
	</g>
	<g>
		<g>
			<g>
				<path d="M160.2,23.3C160.2,23.3,160.2,23.3,160.2,23.3c0,0.1,0,0.2,0,0.2c0-0.1,0-0.3,0-0.4c0,0.1,0,0.2,0,0.3
					c0-0.2,0.1-0.3,0.1-0.5C160.3,23.1,160.2,23.1,160.2,23.3c0.1-0.2,0.2-0.4,0.3-0.5c-0.1,0.1-0.1,0.1-0.2,0.2
					c0.1-0.1,0.2-0.3,0.4-0.4c-0.1,0.1-0.1,0.1-0.2,0.2c0.1-0.1,0.2-0.1,0.4-0.2c-0.1,0-0.2,0.1-0.3,0.1c0.1,0,0.2-0.1,0.4-0.1
					c-0.1,0-0.2,0-0.3,0c0.1,0,0.2,0,0.3,0c0.3,0,0.6-0.1,0.8-0.3c0.2-0.2,0.3-0.5,0.3-0.8s-0.1-0.6-0.3-0.8
					c-0.1-0.1-0.1-0.1-0.2-0.2c-0.2-0.1-0.4-0.1-0.6-0.1c-0.4,0-0.9,0.1-1.3,0.3c-0.2,0.1-0.4,0.2-0.6,0.4c-0.1,0.1-0.2,0.2-0.3,0.3
					c-0.3,0.4-0.5,0.7-0.6,1.2c-0.1,0.2-0.1,0.4-0.1,0.6c0,0.2,0,0.5,0.1,0.7c0,0.3,0.3,0.5,0.5,0.7c0.2,0.1,0.6,0.2,0.9,0.1
					s0.5-0.3,0.7-0.5c0-0.1,0.1-0.2,0.1-0.3C160.2,23.7,160.2,23.5,160.2,23.3L160.2,23.3z"/>
			</g>
		</g>
	</g>
	<g>
		<g>
			<g>
				<path d="M170.8,59.2c6.7,0,13.4-1.3,18.5-6c5.2-4.8,8.6-11.6,11.1-18.1c1.5-3.8,2.8-7.7,3.9-11.6c0.4-1.4-1.7-2-2.1-0.6
					c-2.4,8.3-5.3,16.7-10.3,23.8c-2.4,3.5-5.4,6.6-9.3,8.3c-3.7,1.6-7.8,2-11.8,2C169.4,57,169.4,59.2,170.8,59.2L170.8,59.2z"/>
			</g>
		</g>
	</g>
	<g>
		<g>
			<g>
				<path d="M161.1,56.6c-1.2,0-2.4-0.9-3.4-1.6c-1.1-0.8-2.1-1.6-3.2-2.5c-2.5-2.2-5.1-4.3-7.5-6.5c-6.3-6-11.3-13.3-14.1-21.6
					c-0.4-1.3-2.6-0.8-2.1,0.6c2.9,8.8,8.3,16.6,15,22.9c2.5,2.4,5.2,4.6,7.8,6.8c2,1.7,4.6,4.1,7.4,4.2
					C162.6,58.8,162.6,56.6,161.1,56.6L161.1,56.6z"/>
			</g>
		</g>
	</g>
	<g>
		<g>
			<path class="st0" d="M131.8,23.2c-2.6,0.5-7.7,0-5.1-4.3c2.5-3.9,5.1,0.4,5.3,3.1L131.8,23.2z"/>
		</g>
		<g>
			<g>
				<path d="M131.5,22.2c-0.1,0-0.2,0-0.3,0.1c-0.2,0,0,0,0.1,0c-0.1,0-0.1,0-0.2,0c-0.3,0-0.5,0-0.8,0c-0.3,0-0.5,0-0.8,0
					c-0.1,0-0.3,0-0.4,0c-0.1,0-0.1,0-0.2,0c-0.2,0,0.1,0,0.1,0c0,0-0.1,0-0.1,0c-0.3,0-0.5-0.1-0.8-0.2c-0.1,0-0.2-0.1-0.3-0.1
					c-0.1,0-0.1,0-0.2-0.1c0,0,0.3,0.1,0.1,0.1c0,0-0.1,0-0.1,0c-0.1,0-0.2-0.1-0.3-0.2c0,0-0.1,0-0.1-0.1c0,0-0.1,0-0.1,0
					c-0.1-0.1,0.2,0.2,0.1,0.1c-0.1-0.1-0.2-0.1-0.2-0.2c0,0-0.2-0.2,0,0c0.1,0.2,0,0,0,0c0,0-0.1-0.1-0.1-0.1c-0.1-0.2,0,0,0,0.1
					c0-0.1-0.1-0.2-0.1-0.3c0-0.1,0,0.3,0,0.1c0,0,0-0.1,0-0.2c0-0.1,0-0.1,0-0.2c0-0.2-0.1,0.3,0,0c0-0.1,0.1-0.3,0.1-0.4
					c0-0.1,0.1-0.1,0.1-0.2c0,0,0.1-0.2,0,0c-0.1,0.2,0,0,0,0c0.2-0.4,0.4-0.7,0.6-1c0,0,0.1-0.1,0.1-0.1c-0.2,0.2-0.1,0.1,0,0
					c0.1-0.1,0.1-0.1,0.2-0.2c0.1-0.1,0.1-0.1,0.2-0.2c0.2-0.2-0.2,0.1,0,0c0.1,0,0.1-0.1,0.2-0.1c0,0,0.1,0,0.1,0
					c0.1-0.1-0.1,0-0.1,0c0.1,0,0.1,0,0.2-0.1c0,0,0.1,0,0.1,0c0.1,0-0.3,0-0.1,0c0.1,0,0.1,0,0.2,0c0,0,0.1,0,0.1,0
					c0.1,0-0.3-0.1-0.1,0c0.1,0,0.1,0,0.2,0c0,0,0.1,0,0.1,0c0.2,0-0.2-0.1-0.1,0c0.1,0.1,0.2,0.1,0.3,0.2c0,0,0,0,0.1,0
					c0.1,0.1-0.2-0.2-0.1-0.1c0.1,0.1,0.1,0.1,0.2,0.2c0.1,0.1,0.2,0.2,0.3,0.4c0.1,0.2-0.1-0.2,0,0c0.1,0.1,0.1,0.1,0.2,0.2
					c0.1,0.1,0.2,0.3,0.3,0.5s0.1,0.4,0.2,0.5c-0.1-0.2-0.1-0.2,0-0.1c0,0,0,0.1,0.1,0.1c0,0.1,0.1,0.2,0.1,0.3
					c0.1,0.2,0.1,0.4,0.1,0.5c0,0.2,0.1,0.3,0.1,0.5c0,0,0,0.1,0,0.1c0,0,0-0.3,0-0.1c0,0.1,0,0.2,0,0.3c0,0.6,0.5,1.1,1.1,1.1
					c0.6,0,1.1-0.5,1.1-1.1c-0.1-1.6-0.8-3.3-1.9-4.6c-0.5-0.6-1.2-1-1.9-1.2c-1-0.2-1.9,0.2-2.6,0.8c-0.7,0.7-1.3,1.6-1.6,2.5
					c-0.3,0.7-0.3,1.5-0.2,2.2c0.3,1.3,1.6,2.1,2.9,2.4c1.4,0.3,2.9,0.3,4.2,0.1c0.6-0.1,0.9-0.8,0.8-1.4
					C132.6,22.4,132.1,22.1,131.5,22.2L131.5,22.2z"/>
			</g>
		</g>
	</g>
	<g>
		<g>
			<path class="st0" d="M202.8,22.8c0-1.8,0.6-8.1,3.5-6.6c3.2,1.7,0,6.2-2.2,6.8L202.8,22.8z"/>
		</g>
		<g>
			<g>
				<path d="M203.9,22.8c0-0.4,0-0.8,0.1-1.2c0-0.3,0.1-0.5,0.1-0.8c0-0.2,0,0.1,0,0c0-0.1,0-0.1,0-0.2c0-0.1,0.1-0.3,0.1-0.4
					c0.1-0.6,0.2-1.1,0.4-1.7c0-0.1,0.1-0.3,0.1-0.4c0-0.1,0.1-0.1,0.1-0.2c0.1-0.2-0.1,0.2,0,0s0.2-0.4,0.4-0.6
					c0,0,0.1-0.1,0.1-0.1c0,0.1-0.2,0.2,0,0.1c0.1-0.1,0.2-0.1,0.2-0.2c0,0-0.2,0.1-0.1,0.1c0,0,0.1,0,0.1-0.1c0,0,0.2-0.1,0,0
					c-0.2,0.1,0,0,0,0c0.2,0-0.2,0-0.1,0c0,0,0.1,0,0.1,0c0.1,0,0.2,0,0,0c-0.2,0,0,0,0.1,0c0,0,0.1,0.1,0.2,0c-0.1,0-0.2-0.1-0.1,0
					c0.1,0,0.1,0.1,0.2,0.1c0,0,0.3,0.2,0.2,0.1s0.1,0.1,0.1,0.1c0.1,0,0.1,0.1,0.1,0.2c0,0,0.1,0.1,0.1,0.1c0,0-0.1-0.2-0.1-0.1
					c0,0.1,0.1,0.1,0.1,0.2c0,0,0,0.1,0,0.1c0.1,0.1-0.1-0.1-0.1-0.1c0,0,0.1,0.2,0.1,0.2c0,0,0.1,0.2,0,0.2c0,0,0-0.3,0-0.1
					c0,0,0,0.1,0,0.1c0,0.1,0,0.3,0,0.4c0,0.1,0-0.1,0-0.1c0,0,0,0.1,0,0.1c0,0.1,0,0.2-0.1,0.3c0,0.1-0.1,0.3-0.1,0.4
					c0,0.1-0.1,0.1-0.1,0.2c0.1-0.2,0,0,0,0c-0.2,0.3-0.4,0.6-0.6,1c-0.1,0.2,0.1-0.1-0.1,0.1c-0.1,0.1-0.1,0.1-0.2,0.2
					c-0.1,0.1-0.2,0.3-0.4,0.4c-0.1,0.1-0.3,0.2-0.4,0.4c-0.2,0.2,0.1-0.1,0,0c-0.1,0-0.1,0.1-0.2,0.1c-0.1,0.1-0.3,0.2-0.4,0.2
					c0,0-0.1,0-0.1,0c-0.1,0.1,0.1,0,0.1,0c0,0-0.2,0.1-0.2,0.1c-0.6,0.2-1,0.8-0.8,1.4c0.2,0.5,0.8,1,1.4,0.8
					c1.5-0.5,2.8-1.8,3.5-3.1c0.8-1.4,1.2-3.3,0.1-4.7c-0.9-1.2-2.7-1.9-4-1c-1.1,0.8-1.6,2.2-1.9,3.5c-0.3,1.3-0.5,2.6-0.5,4
					c0,0.6,0.5,1.1,1.1,1.1C203.4,23.9,203.9,23.4,203.9,22.8L203.9,22.8z"/>
			</g>
		</g>
	</g>
	<g>
		<g>
			<g>
				<path d="M154.8,22.5c-1-0.9-2.2-1.6-3.6-1.5c-1.2,0.1-2.4,0.7-3.2,1.6c-1.7,1.9-2.4,5.4-0.5,7.4c1,1.1,2.6,1.4,4,1.5
					c0.6,0,1.1-0.5,1.1-1.1c0-0.6-0.5-1.1-1.1-1.1c-0.1,0-0.3,0-0.4,0c-0.1,0-0.2,0,0,0c-0.1,0-0.1,0-0.1,0c-0.2,0-0.5-0.1-0.7-0.2
					c-0.1,0-0.2-0.1-0.4-0.1c0,0-0.1,0-0.1,0c0.2,0.1,0.1,0,0,0c-0.2-0.1-0.4-0.2-0.6-0.4c0.2,0.1-0.1,0-0.1-0.1
					c-0.1,0-0.3-0.3-0.1-0.1c-0.1-0.1-0.1-0.2-0.2-0.3c0,0-0.1-0.1-0.1-0.2c-0.1-0.1,0.1,0.2,0,0c0-0.1-0.1-0.2-0.1-0.3
					c0-0.1-0.1-0.4,0-0.2c0-0.3,0-0.5,0-0.8c0-0.1,0-0.2,0-0.3c0,0.3,0-0.1,0-0.2c0.1-0.2,0.1-0.5,0.2-0.7c0-0.1,0-0.1,0.1-0.2
					c0,0-0.1,0.2,0,0s0.1-0.2,0.2-0.3c0.1-0.1,0.1-0.2,0.2-0.3c0,0,0.1-0.1,0.1-0.1c0,0,0.2-0.2,0.1-0.1c-0.1,0.1,0.1-0.1,0.1-0.2
					c0.1-0.1,0.2-0.2,0.2-0.3s0.2-0.1,0.3-0.2c0,0,0.1-0.1,0,0c-0.1,0.1,0.1,0,0.1-0.1c0.2-0.1,0.4-0.2,0.5-0.3c0.1-0.1-0.2,0,0,0
					c0,0,0.1,0,0.1,0c0.1,0,0.2-0.1,0.4-0.1c0.1,0,0.1,0,0.2,0c0.1,0-0.2,0,0,0c0.1,0,0.3,0,0.4,0c0,0,0.1,0,0.1,0c0.3,0-0.2,0,0,0
					c0.1,0,0.2,0,0.3,0.1c0.1,0,0.1,0,0.2,0c0.2,0.1-0.1,0,0,0c0.1,0.1,0.3,0.1,0.4,0.2c0.1,0.1,0.2,0.1,0.3,0.2c-0.1-0.1,0,0,0,0
					c0.1,0.1,0.2,0.1,0.2,0.2c0.4,0.4,1.1,0.4,1.6,0C155.3,23.7,155.3,22.9,154.8,22.5L154.8,22.5z"/>
			</g>
		</g>
	</g>
	<g>
		<g>
			<g>
				<path d="M181.8,22.9c1-0.1,2-0.2,3.1-0.2c0,0,0.1,0,0.1,0c0.2,0-0.2,0-0.1,0c0.1,0,0.2,0,0.3,0c0.1,0,0.2,0,0.3,0.1
					c0.1,0,0.4,0.2,0.1,0c0.2,0.1,0.3,0.2,0.5,0.3c-0.2-0.1,0,0,0.1,0.1c0.1,0.1,0.2,0.2,0.2,0.2c0.1,0.1,0.2,0.3,0.1,0.1
					c0.1,0.1,0.1,0.2,0.2,0.3c0.1,0.2,0.3,0.5,0.4,0.7c0.2,0.4,0.4,0.9,0.5,1.4c0,0,0,0.1,0,0.1c0-0.2,0,0,0,0c0,0.1,0,0.2,0,0.4
					c0,0.3,0,0.5,0,0.8c0,0.2,0,0,0,0c0,0.1,0,0.1,0,0.2c0,0.1-0.1,0.2-0.1,0.3s-0.1,0.2-0.1,0.3c0,0.1,0,0.1-0.1,0.2
					c0-0.1,0-0.1,0,0c-0.1,0.1-0.1,0.3-0.2,0.4c0,0-0.1,0.1-0.1,0.1c-0.1,0.3,0.1-0.1,0,0c-0.1,0.1-0.2,0.2-0.3,0.3
					c-0.1,0-0.1,0.1-0.1,0.1c-0.1,0.1,0.2-0.1,0,0c-0.1,0.1-0.2,0.1-0.3,0.2c0,0-0.2,0.1,0,0c-0.1,0-0.1,0-0.2,0.1
					c-0.1,0-0.1,0-0.2,0c0,0-0.3,0-0.2,0c0.1,0-0.1,0-0.1,0c-0.1,0-0.2,0-0.3,0c-1.4,0-1.4,2.2,0,2.2c1.4,0,2.7-0.6,3.6-1.8
					c0.7-1,1-2.4,1-3.6c-0.1-1.3-0.5-2.7-1.3-3.8c-0.6-1-1.5-1.7-2.7-2c-1.3-0.3-2.7-0.1-4,0c-0.6,0.1-1.1,0.5-1.1,1.1
					C180.7,22.3,181.2,23,181.8,22.9L181.8,22.9z"/>
			</g>
		</g>
	</g>
</g>
<g>
	<g>
		<g>
			<g>
				<path d="M62.6,187.5c0,0.4-0.1,0.8-0.1,1.2c-0.1,0.4-0.1,0.8-0.2,1.3c-0.2,1.5-0.5,3-0.9,4.5c0,0,0,0.1,0,0.1
					c-0.4-1.1-0.7-2.3-1.2-3.3c-0.2,0.2-0.5,0.4-0.8,0.6c0,0,0,0,0-0.1c0.1-0.5,0.2-1,0.3-1.5c0.1-0.7,0.2-1.4,0.3-2.1
					c0-0.1,0-0.2,0-0.3c0.8-6.7,0.2-13.6-1.5-20c-0.9-3.5-2-7.7-5.2-9.7c-2.6-1.7-6-2-9.1-2.5c-0.1,0.1-0.3,0.2-0.4,0.2
					c-4.1,1.5-5.2,5.3-5.6,9.3c-0.6,5.4-0.9,10.8-0.8,16.2c0,1.9,0.1,3.9,0.2,5.8c0.1,1.1,0.2,2.3,0.3,3.4c0,0,0,0,0,0
					c-0.3-0.2-0.7-0.5-1-0.8c-0.1,2.1-0.3,4.1-0.5,6.1c0-0.1,0-0.1,0-0.2c0,0,0,0,0,0c-0.3-1-0.5-1.9-0.6-2.9
					c-0.3-1.5-0.4-3.1-0.5-4.7c0-0.3-0.1-0.6-0.1-0.9c0-0.2,0-0.3,0-0.5c-0.2-3.4-0.2-6.8-0.1-10.2c0-1.9,0.1-3.8,0.2-5.7
					c0-0.8,0.1-1.7,0.2-2.5c0.2-2.2,0.4-4.4,0.9-6.5c0.7-3.5,2.5-6.3,5.5-7.8c0.4-0.2,0.7-0.4,1.1-0.5c0.1,0,0.2-0.1,0.3-0.1
					c0.3-0.3,0.7-0.5,1.2-0.4c0.2,0,0.5,0.1,0.7,0.1c1,0.2,2,0.3,3,0.5c3,0.6,6,1.4,8.3,3.5c1.8,1.7,2.7,3.9,3.5,6.1
					c0.5,1.4,0.9,2.8,1.3,4.2c0.3,1.2,0.6,2.3,0.8,3.5c0,0,0,0,0,0C62.8,176.3,63.2,182,62.6,187.5z"/>
			</g>
		</g>
	</g>
	<g>
		<g>
			<g>
				<path d="M51.7,232.5c-0.1,2.7-0.4,5.4-0.8,8.1c-0.3,1.9-0.6,3.8-1.3,5.6c-1.6,3.8-5.4,5.9-9.5,5.6c-4.2-0.3-7.6-3-10.4-5.9
					c-3.2-3.3-6-7.1-8.8-10.7c-3.4-4.3-6.6-8.8-9.2-13.6c-2-3.6-4.8-9.1-2.6-13.3c1-1.9,3-2.9,5.1-3.2c1.2-0.2,2.2-0.2,3.2,0.5
					c1.1,0.7,1.9,1.8,2.6,2.9c3.5,5,5.6,10.7,8.4,16.1c2.5,4.8,5.2,9.7,8.8,13.7c0.7,0.8,1.5,1.6,2.5,2.1c0.3,0.2,0.7,0.3,0.9,0.3
					c0.2,0,0.4,0,0.5-0.1c0.7-0.5,1-1.9,1.2-2.8c0.4-1.9,0.5-3.9,0.6-5.8c0.1-1.8,0-3.7,0-5.5c0-0.9-0.1-1.7-0.1-2.6c0,0,0,0,0,0
					c0.3,0.1,0.5,0.2,0.7,0.2c0.3,0.1,0.6,0.2,0.9,0.2c0.1,0,0.3,0,0.4,0.1c0.1,0,0.3,0,0.4,0v0c0.1,0.8,0.1,1.7,0.1,2.5
					c0.1,3.2,0.1,6.3-0.3,9.5c-0.3,2.3-0.8,5.8-3.3,6.7c-2,0.7-4-0.7-5.3-2c-4-3.7-6.8-8.9-9.4-13.6c-2.6-4.8-4.6-9.8-7.3-14.5
					c-0.8-1.3-1.5-2.7-2.5-3.8c-0.3-0.4-0.7-0.9-1.1-1.2c-0.2-0.1-0.5-0.3-0.5-0.3c-0.9,0-2.1,0.2-2.9,0.6c-0.7,0.4-1.2,0.8-1.5,1.4
					c-0.7,1.3-0.3,3.4,0.2,5c0.7,2.4,1.9,4.7,3.1,6.9c2.5,4.5,5.5,8.6,8.7,12.6c2.9,3.6,5.7,7.5,9,10.7c2.8,2.7,6.4,5.3,10.5,4.2
					c1.9-0.5,3.4-1.5,4.3-3.2c0.8-1.6,1.1-3.5,1.4-5.3c0.7-4.5,1-9.1,0.8-13.6c0-0.8-0.1-1.6-0.2-2.5c0,0,0,0,0,0
					c0.8-0.1,1.7-0.2,2.5-0.4v0c0.1,0.8,0.1,1.6,0.2,2.5C51.8,228.5,51.8,230.5,51.7,232.5z"/>
			</g>
		</g>
	</g>
	<g>
		<g>
			<g>
				<path d="M76.2,263.4c-2.1,2.2-6,0.1-7.8-1.4c-3.1-2.6-4.6-6.7-5.5-10.5c-1-4-1.4-8.1-2-12.2c-0.7-4.9-2.3-9.6-3.6-14.3
					c-0.1-0.4-0.2-0.7-0.3-1.1c-0.1-0.4-0.2-0.9-0.3-1.3c0,0,0,0,0,0c0.8-0.3,1.5-0.6,2.3-0.9c0,0,0,0,0,0.1
					c0.2,0.8,0.4,1.6,0.6,2.4c0.1,0.4,0.2,0.8,0.3,1.2c1.4,5,2.9,10,3.6,15.2c0.5,4,1,8,2.1,11.9c1,3.4,2.5,7,5.7,8.7
					c0.6,0.3,1.3,0.7,2,0.8c0.4,0.1,0.7,0.1,1,0c0,0,0,0.1,0.1-0.1c0,0,0.1-0.1,0.2-0.3c0-0.1,0.1-0.6,0.1-1
					c0.1-2.7-0.9-5.5-1.8-7.9c-0.8-2.4-1.8-4.8-2.7-7.2c-1.7-4.3-3-8.9-4.3-13.3c-1-3.3-1.9-6.5-2.8-9.8c-0.2-0.8-0.4-1.6-0.7-2.4
					c0,0,0,0,0-0.1c0.2-0.1,0.4-0.3,0.7-0.4c0.5-0.3,1-0.7,1.5-1.1c0,0,0,0,0,0.1c0.2,0.8,0.4,1.7,0.7,2.5
					c1.5,5.6,3.1,11.1,4.8,16.6c1.1,3.3,2.2,6.6,3.5,9.9c1.2,2.9,2.3,5.9,3,9C77.2,258.4,78,261.7,76.2,263.4z"/>
			</g>
		</g>
	</g>
	<g>
		<g>
			<g>
				<g>
					<path d="M62.1,170.6c2.1-3.8,4-8.1,4.7-12.3c0.4-2.5,0.3-5.2,0.4-7.8c0.2-7.4,0.2-14.9,0.3-22.4c0-3,0-5.9,0.1-8.9
						c0-1.6-2.5-1.6-2.5,0c0,6.1-0.1,12.3-0.1,18.4c-0.1,6.3,0,12.5-0.4,18.8c-0.1,2.1-0.8,4.2-1.5,6.2c-0.8,2.3-1.8,4.6-3,6.7
						C59.2,170.8,61.3,172,62.1,170.6L62.1,170.6z"/>
				</g>
			</g>
		</g>
		<g>
			<g>
				<g>
					<path d="M67.3,118.2c-0.1-0.3-0.3-0.5-0.4-0.8c-0.1-0.1-0.1-0.3-0.2-0.4c0-0.1-0.1-0.2-0.1-0.2c0-0.1-0.1-0.3-0.1-0.1
						c-0.3-0.6-0.5-1.3-0.6-1.9c0-0.2-0.1-0.3-0.1-0.5c0-0.1,0-0.2,0-0.3c0,0.1,0,0.2,0,0c0-0.3,0-0.6,0-1c0,0,0-0.3,0,0
						c0-0.1,0-0.2,0-0.2c0-0.1,0.1-0.3,0.1-0.4c0-0.1,0.1-0.2,0.1-0.2c0.1-0.2-0.1,0.1,0,0c0.1-0.2,0.2-0.3,0.3-0.4
						c-0.1,0.2,0.1-0.1,0.1-0.1c0.1-0.1,0.2-0.1,0,0c0,0,0.1-0.1,0.1-0.1c0.1,0,0.2,0,0,0c-0.2,0,0,0,0.1,0c0.2,0-0.3,0-0.1,0
						c0.2,0-0.1,0,0,0c0,0,0.2,0,0.2,0c0.1,0,0.1,0.1-0.1,0c0,0,0.1,0,0.1,0.1c0.1,0.1-0.1-0.1,0,0c0.1,0.1,0.1,0.1,0.2,0.2
						c0,0,0.2,0.2,0.1,0.1c-0.1-0.1,0,0.1,0,0.1c0.1,0.1,0.1,0.2,0.2,0.3c0.1,0.1,0.2,0.3,0.2,0.4c0,0.1,0.1,0.1,0.1,0.2
						c0.1,0.2-0.1-0.2,0,0c0.1,0.3,0.2,0.6,0.3,0.9c0,0.1,0,0.2,0,0c0,0.1,0,0.1,0,0.2c0,0.1,0,0.3,0,0.4c0,0.1,0,0.3,0,0.4
						c0,0.1,0,0.1,0,0.2c0,0-0.1,0.4,0,0.1c-0.1,0.3-0.1,0.6-0.2,0.9c0,0.1-0.1,0.3-0.2,0.4c0.1-0.2,0,0,0,0c0,0.1-0.1,0.2-0.1,0.2
						c-0.2,0.3-0.3,0.6-0.5,0.8c-0.1,0.2,0.1-0.1,0,0c-0.1,0.1-0.1,0.1-0.2,0.2c-0.1,0.1-0.2,0.3-0.4,0.4c-0.5,0.4-0.5,1.3,0,1.8
						c0.5,0.5,1.3,0.5,1.8,0c2.3-2.1,3-5.9,1.4-8.6c-0.5-0.8-1.1-1.5-2-1.8c-0.7-0.3-1.6-0.2-2.3,0.3c-1.5,1-2,2.9-1.8,4.6
						c0.2,2,1,3.8,1.9,5.5c0.3,0.6,1.2,0.8,1.7,0.4C67.5,119.5,67.6,118.8,67.3,118.2L67.3,118.2z"/>
				</g>
			</g>
		</g>
	</g>
	<g>
		<g>
			<g>
				<g>
					<path d="M35.8,168.4c-3.9,0.1-7.1-3.2-9.3-5.9c-1.8-2.2-3.2-4.6-4.3-7.1c-2.4-5.8-4.4-11.8-6.3-17.7c-0.8-2.5-1.7-5.1-2.4-7.6
						c-0.4-1.5-2.8-0.9-2.4,0.7c1.7,5.8,3.7,11.4,5.7,17.1c1,2.9,2,5.7,3.2,8.5c1.2,2.8,2.8,5.4,4.7,7.8c2.7,3.4,6.6,6.9,11.2,6.8
						C37.4,170.9,37.4,168.4,35.8,168.4L35.8,168.4z"/>
				</g>
			</g>
		</g>
		<g>
			<g>
				<g>
					<path d="M12.1,127.8c-1-1.3-2.1-2.7-2.6-4.3c-0.2-0.7-0.4-1.4-0.3-2.1c0.1-0.6,0.5-1.1,1-1.4c0.4-0.3,0.8-0.3,1.3,0
						c0,0,0.2,0.2,0.3,0.2c0.1,0.1,0.1,0.1,0.2,0.2c-0.1-0.1,0,0,0,0c0.1,0.1,0.2,0.3,0.2,0.4c0,0,0.1,0.2,0,0
						c0,0.1,0.1,0.2,0.1,0.3c0,0.1,0.1,0.3,0.1,0.4c0.1,0.2,0,0.1,0,0c0,0.1,0,0.2,0,0.2c0,0.4,0,0.7,0,1.1c0,0.1,0,0.4,0,0.4
						c0-0.1,0,0.1,0,0.1c0,0.1,0,0.2-0.1,0.3c-0.1,0.4-0.1,0.8-0.3,1.1c-0.4,1.5-0.9,2.9-1.1,4.4c-0.1,0.7,0.2,1.3,0.9,1.5
						c0.6,0.2,1.4-0.2,1.5-0.9c0.2-1.6,0.8-3,1.2-4.6c0.4-1.7,0.7-3.5,0.1-5.2c-0.8-1.9-2.8-3.4-4.8-2.6c-2.1,0.8-3.2,2.9-3,5.1
						c0.3,2.4,1.8,4.5,3.2,6.4c0.4,0.5,1.1,0.8,1.7,0.4C12.2,129.2,12.5,128.4,12.1,127.8L12.1,127.8z"/>
				</g>
			</g>
		</g>
	</g>
	<g>
		<g>
			<g>
				<g>
					<path d="M43.7,151.8c-6.1-0.1-11.2-3.9-13.4-9.7c-1.8-5-1.6-11.2,2.2-15.2c3.8-4.2,11.2-5.4,15.8-1.9c4.4,3.3,6.3,9.5,6.2,14.8
						c-0.1,2.9-0.8,6-2.7,8.4c-2,2.5-4.9,3.6-8,3.6c-1.6,0-1.6,2.5,0,2.5c15.5,0,16.3-21.2,7.5-29.9c-4.9-4.9-13.2-4.9-18.7-0.9
						c-5.3,4-6.9,11.1-5.3,17.3c1.9,7.7,8.3,13.3,16.4,13.5C45.3,154.3,45.3,151.8,43.7,151.8L43.7,151.8z"/>
				</g>
			</g>
		</g>
		<g>
			<g>
				<g>
					<path d="M36.1,142c1.7,3.2,5.2,6.2,9,4.8c3.3-1.2,5.5-5,5.3-8.4c-0.1-1.6-2.6-1.6-2.5,0c0.1,2.3-1.2,5.1-3.4,6
						c-2.8,1.1-5-1.4-6.2-3.6C37.5,139.3,35.4,140.6,36.1,142L36.1,142z"/>
				</g>
			</g>
		</g>
		<g>
			<g>
				<g>
					<path d="M32.8,123.8c-0.9,2.9-0.8,6.3,0.3,9.1c0.5,1.4,1.3,2.9,2.5,3.7c1.3,1,2.8,0.4,3.7-0.8c1-1.3,1.3-3,1.5-4.6
						c0.3-2,0.4-4.1,0.1-6.1c-0.3-1.9-1.2-3.9-3.4-4c-1.6-0.1-1.6,2.4,0,2.5c0.3,0-0.2-0.1,0.1,0c0.2,0.1-0.1,0-0.1-0.1
						c0,0,0.1,0.1,0.2,0.1c0.1,0,0.2,0.2,0,0c0,0,0.1,0.1,0.1,0.1c0,0.1,0.1,0.1,0.1,0.1c0,0-0.1-0.2,0,0c0.1,0.1,0.1,0.2,0.2,0.3
						c0.2,0.3,0-0.1,0.1,0.2c0.1,0.3,0.2,0.7,0.3,1c0,0.1,0.1,0.6,0.1,0.3c0,0.2,0,0.3,0,0.5c0,0.4,0,0.8,0,1.2c0,0.8,0,1.7-0.1,2.6
						c0,0.2,0,0.3-0.1,0.5c0-0.2,0,0.3-0.1,0.4c-0.1,0.4-0.1,0.8-0.2,1.1c-0.1,0.6-0.3,1.2-0.5,1.8c-0.1,0.2,0.1-0.3,0-0.1
						c0,0,0,0.1-0.1,0.1c0,0.1-0.1,0.2-0.1,0.3c-0.1,0.1-0.2,0.3-0.3,0.4c0,0-0.2,0.1-0.2,0.1c0-0.1,0.2,0,0.2,0
						c-0.7-0.6-1.2-1.4-1.6-2.2c-1.1-2.4-1.2-5.5-0.4-8C35.7,123,33.3,122.3,32.8,123.8L32.8,123.8z"/>
				</g>
			</g>
		</g>
		<g>
			<g>
				<g>
					<path d="M43.9,122.9c0,3.2-0.3,6.7,1.2,9.6c0.8,1.5,2.5,2.6,4.3,2.2c1.7-0.4,2.5-2.1,2.9-3.6c0.4-1.7,0.5-3.7-0.1-5.4
						c-0.2-0.6-0.8-1.1-1.5-0.9c-0.6,0.2-1.1,0.9-0.9,1.5c0.1,0.3,0.2,0.5,0.2,0.8c0,0.1,0.1,0.5,0,0.2c0,0.2,0,0.4,0,0.6
						c0,0.3,0,0.7,0,1c0,0.1,0,0.3,0,0.4c0,0.1,0,0.2,0,0.3c0,0.1,0,0.1,0,0.2c0-0.1,0-0.1,0-0.1c0,0.3-0.1,0.7-0.2,1
						c0,0.1-0.1,0.3-0.1,0.4c0,0.1-0.1,0.2-0.1,0.2c0.1-0.2,0-0.1,0,0.1s-0.1,0.2-0.2,0.3c0,0.1-0.1,0.1-0.2,0.2c0,0,0.2-0.2,0-0.1
						c0,0-0.3,0.3-0.2,0.2c0.2-0.1-0.5,0.2-0.1,0.1c-0.1,0-0.4,0.1-0.2,0.1c0.2,0-0.2,0-0.3,0c0.3,0-0.1,0-0.3-0.1
						c-0.1,0-0.1,0-0.2-0.1c0.3,0.1,0,0,0,0c-0.1,0-0.1-0.1-0.2-0.1c-0.1-0.1,0.2,0.2,0,0c-0.1-0.1-0.2-0.2-0.3-0.3
						c0,0-0.2-0.3-0.1-0.1c0.1,0.2-0.1-0.1-0.1-0.1c-0.1-0.1-0.2-0.3-0.2-0.4c0-0.1-0.1-0.1-0.1-0.2c-0.1-0.2,0.1,0.3,0,0
						c0-0.1-0.1-0.3-0.2-0.5c-0.1-0.4-0.2-0.7-0.3-1.1c0-0.2-0.1-0.4-0.1-0.5c0-0.1,0-0.2,0-0.2c0,0.2,0,0,0-0.1
						c0-0.4-0.1-0.8-0.1-1.2c-0.1-1.5,0-2.9,0-4.4C46.4,121.3,43.9,121.3,43.9,122.9L43.9,122.9z"/>
				</g>
			</g>
		</g>
		<g>
			<g>
				<g>
					<path d="M48.5,123.8c2.9-0.7,3.2-4.1,3.1-6.6c0-0.7-0.5-1.3-1.2-1.2c-0.7,0-1.3,0.6-1.2,1.2c0,0.5,0,1,0,1.4
						c0,0.3,0,0.6-0.1,0.8c0-0.4,0,0,0,0.1c0,0.1,0,0.3-0.1,0.4c0,0.1-0.1,0.3-0.1,0.4c0,0.1,0,0.1-0.1,0.2c0,0.1-0.2,0.3,0-0.1
						c-0.1,0.1-0.1,0.2-0.2,0.3c0,0.1-0.1,0.1-0.1,0.2c0,0-0.2,0.3,0,0.1c0.1-0.2,0,0,0,0c0,0.1-0.1,0.1-0.1,0.1
						c0,0-0.1,0.1-0.1,0.1c0.2-0.2,0.2-0.1,0.1-0.1c-0.1,0.1-0.2,0.1-0.3,0.2c0.3-0.2,0.2-0.1,0.1,0c-0.1,0-0.2,0.1-0.2,0.1
						c-0.6,0.1-1.1,0.9-0.9,1.5C47.2,123.7,47.8,124,48.5,123.8L48.5,123.8z"/>
				</g>
			</g>
		</g>
		<g>
			<g>
				<g>
					<path d="M51.1,127.2c1.2,0.1,2.5-0.1,3.5-0.8c1-0.8,1.8-1.8,2.2-3c0.2-0.7,0.4-1.4,0.4-2.1c0.1-0.7-0.6-1.3-1.2-1.2
						c-0.7,0-1.2,0.6-1.2,1.2c0,0.1,0,0.2,0,0.3c0,0.2,0-0.3,0,0c0,0.2,0,0.3-0.1,0.4c-0.1,0.3-0.2,0.6-0.3,0.9
						c-0.1,0.2,0.1-0.3,0-0.1c0,0.1-0.1,0.2-0.1,0.2c-0.1,0.1-0.1,0.3-0.2,0.4c-0.1,0.1-0.2,0.3-0.3,0.4c0.2-0.4,0,0-0.1,0.1
						c-0.1,0.1-0.2,0.2-0.3,0.3c-0.1,0.1-0.3,0.2,0,0c-0.1,0-0.1,0.1-0.2,0.1c-0.1,0.1-0.2,0.1-0.3,0.2c-0.1,0-0.2,0.1-0.2,0.1
						c0.1,0,0.1-0.1,0.2-0.1c0,0-0.1,0-0.1,0c-0.2,0.1-0.3,0.1-0.5,0.1c-0.1,0-0.1,0-0.2,0c-0.3,0.1,0.2,0,0,0c-0.3,0-0.7,0-1,0
						c-0.3,0-0.7,0.2-0.9,0.4c-0.2,0.2-0.4,0.6-0.4,0.9c0,0.3,0.1,0.7,0.4,0.9C50.5,127.1,50.7,127.2,51.1,127.2L51.1,127.2z"/>
				</g>
			</g>
		</g>
		<g>
			<g>
				<g>
					<path d="M33.8,123.8c-0.3-0.1-0.7-0.1-1-0.3c-0.1,0-0.2-0.1-0.2-0.1c0.3,0.1,0.1,0.1,0,0c-0.2-0.1-0.3-0.2-0.4-0.2
						c-0.1-0.1-0.3-0.2-0.4-0.3c0.1,0.1,0.2,0.1,0.1,0.1c0,0-0.1-0.1-0.1-0.1c-0.1-0.1-0.1-0.1-0.2-0.1c-0.1-0.1-0.2-0.2-0.3-0.3
						c-0.1-0.1-0.1-0.1-0.2-0.2c-0.1-0.2,0.2,0.2,0,0c-0.2-0.3-0.3-0.5-0.5-0.8c0-0.1-0.1-0.2-0.1-0.2c-0.1-0.2,0.1,0.3,0,0
						c0-0.1-0.1-0.3-0.1-0.4c0-0.2-0.1-0.3-0.1-0.5c0-0.2,0-0.3-0.1-0.5c0,0.2,0,0.2,0,0.1c0,0,0-0.1,0-0.1c0-0.1,0-0.2,0-0.2
						c0-0.2,0-0.4,0-0.6c0-0.7-0.6-1.3-1.2-1.2s-1.2,0.5-1.2,1.2c0,1.6,0.4,3.2,1.4,4.4c1,1.3,2.5,2.3,4.1,2.5
						c0.3,0.1,0.6,0.1,1-0.1c0.3-0.2,0.5-0.4,0.6-0.7C34.8,124.7,34.5,123.9,33.8,123.8L33.8,123.8z"/>
				</g>
			</g>
		</g>
		<g>
			<g>
				<g>
					<path d="M32.2,126.3c-0.4,0-0.7,0-1.1,0c0,0-0.2-0.1-0.2,0c0.2,0,0.2,0,0.1,0c0,0-0.1,0-0.1,0c-0.2,0-0.4-0.1-0.5-0.1
						c-0.4-0.1-0.7-0.2-1.1-0.3c-0.3-0.1,0.2,0.1-0.1,0c-0.1,0-0.2-0.1-0.2-0.1c-0.2-0.1-0.4-0.2-0.5-0.3c-0.2-0.1-0.3-0.2-0.5-0.3
						c-0.2-0.1,0.2,0.2,0,0c-0.1-0.1-0.1-0.1-0.2-0.2c-0.1-0.1-0.3-0.3-0.4-0.4c-0.1-0.1-0.1-0.1-0.2-0.2c-0.1-0.2,0.1,0.2,0-0.1
						c-0.1-0.1-0.2-0.3-0.3-0.4c0,0-0.2-0.3-0.1-0.3c0.1,0.2,0.1,0.2,0,0.1c0,0,0-0.1,0-0.1c-0.1-0.2-0.1-0.4-0.1-0.6
						c0,0,0-0.1,0-0.1c0-0.1,0-0.1,0,0.1c0,0,0-0.3,0-0.3c0-0.7-0.6-1.3-1.2-1.2c-0.6,0-1.3,0.6-1.2,1.2c0.1,4,4.5,6.4,8.2,6.2
						c0.7,0,1.3-0.5,1.2-1.2C33.4,126.9,32.8,126.3,32.2,126.3L32.2,126.3z"/>
				</g>
			</g>
		</g>
		<g>
			<g>
				<g>
					<path d="M27.9,134.2c-0.3-1.4-1.4-2.7-3-2.7c-1.3,0-2.6,0.8-3.4,1.8c-1,1.1-1.5,2.5-1.3,4c0.2,1.6,1.1,3.1,2.6,3.8
						c0.9,0.4,1.8,0.5,2.8,0.3c1-0.2,1.8-0.7,2.6-1.3c0.5-0.4,0.5-1.3,0-1.8c-0.5-0.5-1.2-0.4-1.8,0c-0.2,0.2,0.2-0.1,0,0
						c-0.1,0-0.1,0.1-0.2,0.1c-0.1,0.1-0.3,0.2-0.4,0.2c-0.1,0-0.1,0.1-0.2,0.1c0.2-0.2,0.2-0.1,0,0c-0.1,0.1-0.3,0.1-0.5,0.1
						c-0.1,0-0.1,0-0.2,0c-0.3,0.1,0.3,0,0.1,0c-0.1,0-0.3,0-0.4,0c-0.1,0-0.1,0-0.2,0c-0.1,0-0.3-0.1,0.1,0c-0.1,0-0.3-0.1-0.4-0.1
						c-0.1,0-0.5-0.2-0.1,0c-0.1-0.1-0.2-0.1-0.3-0.2c-0.1-0.1-0.4-0.3-0.1-0.1c-0.1-0.1-0.2-0.2-0.3-0.3c0-0.1-0.1-0.1-0.1-0.1
						c-0.2-0.2,0.2,0.3,0,0.1c-0.1-0.1-0.1-0.2-0.2-0.3c0-0.1-0.1-0.1-0.1-0.2c-0.1-0.2,0.1,0.3,0,0c0-0.2-0.1-0.3-0.1-0.5
						c0-0.1,0-0.1,0-0.1c0-0.1,0-0.3,0,0c0-0.1,0-0.3,0-0.5c0-0.1,0-0.3,0-0.4c0-0.2-0.1,0.3,0,0.1c0-0.1,0-0.1,0-0.2
						c0-0.1,0.1-0.2,0.1-0.3c0-0.1,0-0.1,0.1-0.2c-0.1,0.4-0.1,0.2,0,0.1c0.1-0.2,0.3-0.5,0.4-0.7c0,0,0.1-0.1,0.1-0.1
						c0.1-0.1-0.2,0.3-0.1,0.1c0.1-0.1,0.2-0.2,0.2-0.3c0.1-0.1,0.2-0.2,0.3-0.3c0,0,0.1-0.1,0.1-0.1c0,0,0.1-0.1,0.1-0.1
						c0.1-0.1,0.1-0.1-0.1,0.1c0.1,0,0.2-0.1,0.3-0.2c0.1-0.1,0.2-0.1,0.3-0.2c0,0,0.1-0.1,0.1-0.1c0.2-0.1-0.3,0.1-0.1,0
						c0.1,0,0.2-0.1,0.3-0.1c0,0,0.1,0,0.1,0c0.2-0.1-0.3,0-0.1,0c0.1,0,0.2,0,0.3,0c-0.3,0-0.3-0.1-0.1,0c0.1,0,0.1,0,0.2,0.1
						c0.2,0-0.3-0.2-0.1-0.1c0,0,0.1,0.1,0.2,0.1c0.1,0.1,0,0.1-0.1-0.1c0,0.1,0.1,0.1,0.1,0.1c0.1,0.1,0,0.1-0.1-0.1
						c0,0.1,0.1,0.1,0.1,0.2c0,0.1,0,0.1,0.1,0.2c0.1,0.2-0.1-0.3,0,0c0,0.2,0.1,0.3,0.1,0.5c0.1,0.6,0.9,1.1,1.5,0.9
						C27.7,135.5,28.1,134.9,27.9,134.2L27.9,134.2z"/>
				</g>
			</g>
		</g>
		<g>
			<g>
				<g>
					<path d="M55.4,132.9c0.4-0.3,0.7-0.5,1.1-0.8c0.2-0.1,0.3-0.2,0.5-0.3c0.1,0,0.2-0.1,0.2-0.1c0,0,0.1,0,0.1-0.1
						c-0.4,0.2-0.2,0.1-0.1,0.1c0.3-0.1,0.6-0.2,0.9-0.3c0.1,0,0.4,0-0.1,0c0.1,0,0.1,0,0.2,0c0.1,0,0.3,0,0.4,0c0.1,0,0.1,0,0.2,0
						c-0.5,0-0.3,0-0.1,0c0.1,0,0.2,0.1,0.3,0.1c0.1,0,0.3,0.2-0.1-0.1c0,0,0.1,0,0.1,0.1c0.1,0.1,0.2,0.1,0.3,0.2
						c0.2,0.1-0.3-0.2-0.1-0.1c0,0,0.1,0.1,0.1,0.1c0.1,0.1,0.1,0.1,0.2,0.2c0.2,0.2-0.2-0.3-0.1-0.1c0,0,0.1,0.1,0.1,0.1
						c0.1,0.1,0.1,0.2,0.2,0.3c0,0.1,0,0.1,0.1,0.1c0.1,0.2-0.1-0.4,0-0.1c0,0.1,0.1,0.2,0.1,0.3c0,0.1,0.1,0.2,0.1,0.3
						c0,0.1,0,0.1,0,0.2c0,0,0,0.1,0,0.1c0,0.2,0-0.2,0-0.2c0,0.2,0,0.5,0,0.7c0,0.1,0,0.2,0,0.4c0,0.1,0,0.1,0,0.2
						c0,0.2,0.1-0.4,0-0.1c0,0.2-0.1,0.4-0.2,0.7c0,0.1-0.1,0.2-0.1,0.3c-0.1,0.2,0.2-0.3,0-0.1c0,0.1,0,0.1-0.1,0.2
						c-0.1,0.2-0.2,0.4-0.3,0.6c0,0.1,0.3-0.3,0.1-0.1c0,0-0.1,0.1-0.1,0.1c-0.1,0.1-0.2,0.1-0.2,0.2c-0.2,0.2,0.3-0.2,0.1-0.1
						c0,0-0.1,0.1-0.1,0.1c-0.1,0.1-0.2,0.1-0.3,0.2c0.5-0.2,0.1,0-0.1,0c-0.1,0-0.1,0-0.2,0c-0.1,0-0.3,0,0.2,0c0,0-0.1,0-0.1,0
						c-0.1,0-0.3,0-0.4,0c-0.1,0-0.1,0-0.2,0c0.5,0,0.2,0,0.1,0c-0.2,0-0.3-0.1-0.5-0.1c-0.1,0-0.2-0.1-0.2-0.1
						c-0.2-0.1,0.3,0.1,0.2,0.1c0,0-0.1-0.1-0.2-0.1c-0.6-0.3-1.4-0.2-1.7,0.4c-0.3,0.6-0.2,1.4,0.4,1.7c1.3,0.6,2.9,0.9,4.2,0.1
						c1-0.6,1.7-1.8,2-2.9c0.5-2.3-0.2-5.4-2.8-6c-1.9-0.4-3.7,0.6-5.2,1.7c-0.3,0.2-0.5,0.4-0.6,0.7c-0.1,0.3,0,0.7,0.1,0.9
						C54,133,54.8,133.4,55.4,132.9L55.4,132.9z"/>
				</g>
			</g>
		</g>
		<g>
			<g>
				<g>
					<path d="M43,137.9c1.6,0,1.6-2.5,0-2.5C41.4,135.5,41.4,137.9,43,137.9L43,137.9z"/>
				</g>
			</g>
		</g>
	</g>
	<g>
		<g>
			<g>
				<path d="M36.7,122.8c-0.8,0.6-1.3,1.6-1.4,2.6c-0.2,1.1-0.2,2.2,0.2,3.2c0.4,1.1,1.4,2,2.6,2c1.4-0.1,2.2-1.2,2.4-2.5
					c0.2-1.1,0.2-2.1,0.2-3.2c0-0.6-0.5-1.2-1.1-1.1c-0.6,0-1.1,0.5-1.1,1.1c0,0.7,0,1.5-0.1,2.2c0,0.1-0.1,0.3,0-0.1
					c0,0.1,0,0.1,0,0.2c0,0.1,0,0.2-0.1,0.3s0,0.2-0.1,0.3c0,0.1-0.1,0.2-0.1,0.3c0-0.2,0.1-0.2,0-0.1c0,0,0,0.1-0.1,0.1
					c0,0,0,0.1-0.1,0.1c-0.1,0.1-0.1,0,0.1-0.1c0,0-0.1,0.1-0.2,0.2c0.1-0.2,0.2-0.1,0.1-0.1c0,0-0.1,0-0.1,0.1
					c0.1-0.1,0.3-0.1,0.1-0.1c-0.2,0.1-0.1-0.1,0.1,0c-0.1,0-0.2,0-0.2,0c-0.2,0,0.3,0.1,0.1,0c0,0-0.1,0-0.1,0c0,0-0.1,0-0.1,0
					c-0.2,0,0.3,0.2,0.1,0c0,0-0.1,0-0.1-0.1c-0.1-0.1-0.1-0.1,0.1,0.1c0-0.1-0.1-0.1-0.2-0.2c-0.2-0.2,0.1,0.2,0,0
					c0-0.1-0.1-0.2-0.1-0.2c0-0.1,0-0.2,0,0.1c0-0.1,0-0.1,0-0.1c0-0.1,0-0.2-0.1-0.2c0-0.1,0-0.2-0.1-0.3c0-0.1,0-0.1,0-0.2
					c-0.1-0.3,0,0.2,0,0c0-0.4,0-0.8,0-1.2c0-0.1,0-0.1,0-0.2c0,0.3,0,0.2,0,0.1c0-0.1,0-0.2,0.1-0.3c0-0.2,0.1-0.4,0.2-0.6
					c0-0.1,0.1-0.2,0,0.1c0-0.1,0-0.1,0.1-0.2c0-0.1,0.1-0.2,0.1-0.2c0,0,0-0.1,0.1-0.1c0,0.1-0.2,0.2-0.1,0.1c0,0,0-0.1,0.1-0.1
					c0.2-0.2-0.2,0.2-0.1,0.1c0.5-0.3,0.8-1,0.4-1.5C37.9,122.7,37.2,122.4,36.7,122.8L36.7,122.8z"/>
			</g>
		</g>
	</g>
	<g>
		<g>
			<g>
				<path d="M46.7,123.9c0,0.7,0,1.3,0,2c0.1,0.7,0.2,1.4,0.4,2.1c0.2,0.6,0.5,1.2,0.9,1.6c0.5,0.5,1.3,0.7,2,0.5
					c0.9-0.3,1.6-1.1,2.1-1.9c0.2-0.2,0.2-0.6,0.1-0.8c-0.1-0.3-0.3-0.5-0.5-0.7c-0.6-0.3-1.2-0.1-1.5,0.4c0,0.1-0.3,0.4-0.1,0.1
					c-0.1,0.1-0.1,0.2-0.2,0.3c-0.1,0.1-0.3,0.3-0.4,0.4c-0.1,0.1,0.1-0.1,0.1-0.1c0,0-0.1,0.1-0.1,0.1c-0.1,0-0.1,0.1-0.2,0.1
					c-0.1,0-0.2,0,0.1-0.1c0,0-0.1,0-0.1,0c0,0-0.1,0-0.2,0c0.1,0,0.2,0,0.3,0c-0.1,0-0.2,0-0.2,0c0.1,0,0.2,0,0.3,0
					c0,0-0.1,0-0.1,0c-0.1,0,0.2,0.1,0.2,0.1c0,0,0,0-0.1,0c0,0-0.1-0.1-0.1-0.1c0,0,0.3,0.2,0.2,0.1c0,0,0,0,0-0.1
					c0,0-0.1-0.1-0.1-0.1c-0.1-0.1,0.2,0.3,0.1,0.1c0,0,0-0.1,0-0.1c-0.1-0.1-0.1-0.2-0.2-0.3c0,0,0-0.1,0-0.1
					c-0.1-0.1,0.1,0.3,0.1,0.1c0-0.1,0-0.1-0.1-0.2c0-0.1-0.1-0.3-0.1-0.4c-0.1-0.3-0.1-0.6-0.2-1c0,0.1,0,0.2,0,0.3
					c-0.1-0.8-0.1-1.7-0.1-2.5c0-0.6-0.5-1.1-1.1-1.1C47.1,122.9,46.7,123.3,46.7,123.9L46.7,123.9z"/>
			</g>
		</g>
	</g>
	<g>
		<g>
			<g>
				<path d="M55,143.7c2.6,1.5,4.5,3.9,7.8,2.9c2.8-0.9,4.4-3.9,5-6.6c-0.4,0.3-0.8,0.6-1.2,0.9c2.1,0,4.3,1,5.9-1
					c2.3-3,1.3-6.8,0.2-10c-0.2,0.5-0.4,0.9-0.6,1.4c3.9-2.8,6.1-8.8,1.2-11.8c0.2,0.5,0.4,0.9,0.6,1.4c1.1-3.3,2.9-6.2,1.8-9.8
					c-0.5-1.4-1.4-2.7-1.8-4.2c-0.3-1.5-0.4-3-0.7-4.4c-0.7-3.2-2.8-6-5.8-7.4c-3.4-1.6-6.8-0.4-9.6,1.7c0.5,0.1,1,0.1,1.5,0.2
					c-2.5-3.2-2.4-7.7-5.5-10.6c-1.6-1.5-4-2.6-6.3-2.4c-2.5,0.2-4.5,1.6-6.2,3.4c0.7,0.1,1.3,0.2,2,0.3c-1.8-2.4-4.4-4.5-7.5-4.2
					c-3.2,0.3-5,3.1-5.8,5.9c0.6-0.3,1.2-0.5,1.8-0.7c-3.6-2.4-8.2-3.1-11.7-0.1c-3.3,2.8-4.4,7.6-3.9,11.8c0.5-0.4,1-0.8,1.6-1.2
					c-3.4-0.8-8.2-0.6-10.5,2.4c-2.6,3.4-1,7.7,0.1,11.3c0.3-0.5,0.6-1,0.9-1.5c-3.8,1.1-6.7,4.1-7.7,8c-0.5,1.9-0.6,3.9-0.2,5.8
					c0.4,2.1,1.4,3.4,3,4.8c0.5,0.4,1.4,1,1.5,1.8c0.1,0.8-0.6,1.7-0.7,2.5c-0.4,2.1,0.6,4.1,2.2,5.4c0.8,0.6,1.6,1.1,2.4,1.6
					c0.1,0.1,1.3,0.8,1.5,0.7c-0.2,0.1-0.4-1-0.4-0.4c0,0.2,0.1,0.5,0.1,0.6c0.3,1,0.7,1.9,1.3,2.8c2.6,3.9,7.4,3.1,11.3,1.8
					c-0.5-0.4-1-0.8-1.6-1.2c-0.3,6.4,7.6,5.7,11.2,2.9c1.3-1-0.5-2.7-1.8-1.8c-1.2,0.9-3,1.4-4.5,1.4c-1.7,0-2.6-0.8-2.5-2.6
					c0-0.8-0.8-1.4-1.6-1.2c-2.7,0.9-6.6,2.2-8.6-0.8c-0.6-1-0.7-2.1-1.2-3.1c-0.4-0.8-1.5-1.1-2.2-1.5c-1.6-0.8-3.6-2.1-3.3-4.1
					c0.2-1.6,1.2-2.6,0.6-4.3c-0.6-1.5-2.1-2.3-3.2-3.4c-1.2-1.2-1.4-3.1-1.4-4.7c0.1-3.9,2.5-7.5,6.3-8.6c0.6-0.2,1.1-0.9,0.9-1.5
					c-0.8-2.7-2.4-6.3-0.7-8.9c1.6-2.4,5.6-2.3,8.1-1.8c0.7,0.2,1.7-0.3,1.6-1.2c-0.4-3.4,0.2-7.2,2.7-9.6c2.7-2.6,6.3-1.8,9.1,0.1
					c0.7,0.4,1.6,0,1.8-0.7c0.5-1.9,1.5-3.9,3.6-4.2c2.1-0.2,4,1.4,5.1,2.9c0.5,0.6,1.3,0.9,2,0.3c1.4-1.5,3.1-2.9,5.3-2.7
					c2,0.2,3.8,1.5,4.8,3.1c1.8,2.9,2.2,6.5,4.3,9.2c0.3,0.4,1.1,0.5,1.5,0.2c2.6-1.9,5.5-2.9,8.4-0.9c2.4,1.7,3.2,3.9,3.6,6.7
					c0.2,1.2,0.2,2.5,0.7,3.6c0.4,1.2,1.2,2.2,1.6,3.4c1,3-0.8,5.7-1.8,8.5c-0.2,0.5,0.1,1.1,0.6,1.4c3.2,2,1.2,5.8-1.2,7.6
					c-0.4,0.3-0.8,0.9-0.6,1.4c0.8,2.3,2.1,5.7,0.3,7.9c-0.3,0.4-0.7,0.4-1.2,0.3c-0.9-0.1-1.8-0.3-2.8-0.3c-0.5,0-1.1,0.4-1.2,0.9
					c-0.4,1.9-1.4,4.4-3.5,4.9c-2.2,0.6-3.9-1.7-5.5-2.7C54.9,140.8,53.6,142.9,55,143.7L55,143.7z"/>
			</g>
		</g>
	</g>
</g>
<g>
	<g>
		<g>
			<path class="st0" d="M284.6,92.1c1.9-1.7,4.2-3.4,6.8-3.5c2-0.1,4,0.6,5.9,1.2c4.8,1.4,9.7,2,14.2-0.6c3.5-2,6.4-5.6,10.5-6.6
				c5.1-1.2,9,2.6,13.2,4.7c2,1,4.2,1.3,6.4,0.7c2.8-0.7,5.3-2.7,8.3-2.7c2,0,3.7,1.1,5.4,2c2.3,1.3,4.8,2.4,7.4,2.8
				c2.8,0.4,5.4-0.4,7.9-1.4c2.4-0.9,4.9-1.9,7.5-1c2.5,0.8,4.1,2.9,6.2,4.3c2.2,1.5,4.7,1.4,7,0.2c2.3-1.1,3.8-4,6.7-3.5
				c3.2,0.5,5.6,3.4,8.4,4.9c2.6,1.3,5.7,1.7,8.5,0.6c2.8-1.1,4.5-3.7,5.1-6.6c0.3-1.9-2.5-2.7-2.9-0.8c-0.4,2.5-1.8,4.5-4.4,4.9
				c-2.7,0.5-5.1-0.8-7.2-2.3c-2.4-1.7-4.8-3.6-7.8-3.8c-2.8-0.2-4.4,1.4-6.4,3c-1.8,1.5-3.9,1.9-5.8,0.4c-2-1.5-3.7-3.3-6.2-4.2
				c-2.6-0.9-5.3-0.5-7.9,0.3c-2.5,0.8-4.9,2.1-7.6,1.9c-4.9-0.3-8.4-4.5-13.1-4.9c-3-0.3-5.5,1.2-8.2,2.2c-2,0.8-3.9,1.1-5.8,0.2
				c-2.1-1-3.9-2.5-6-3.5c-2.4-1.1-5.1-2-7.8-1.7c-4.5,0.4-7.7,3.5-11.2,6c-1.8,1.3-3.7,2.4-6,2.6c-2.8,0.2-5.6-0.6-8.3-1.4
				c-2.3-0.7-4.5-1.3-6.9-1c-3.1,0.4-5.8,2.3-8,4.3C281,91.2,283.2,93.4,284.6,92.1L284.6,92.1z"/>
		</g>
	</g>
</g>
<g>
	<g>
		<g>
			<path d="M165.7,233.3c1.6-1.8,3.4-3.7,5.8-4.5c2.3-0.7,4.5-0.3,6.7,0.7c4,1.8,8.3,5.3,13,4c1.8-0.5,3.2-1.7,4.3-3.1
				c1-1.3,2-2.9,3.6-3.6c2.1-0.9,4.8-0.3,6.8,0.4c2.2,0.8,4.3,2,6.3,3.2c3.7,2.1,8.5,5.4,13,3.9c2.2-0.7,4.1-2.2,6.3-3.1
				c2.6-1.1,5.6-0.9,8.3-0.4c5.6,1.1,11.1,3.6,16.9,3.2c4.1-0.3,7.3-2.9,10.3-5.5c2.6-2.3,6.2-5.6,10-3.5c3.5,1.9,7.5,7,11.8,4.9
				c1.7-0.9,0.2-3.4-1.5-2.6c-1.4,0.7-3.4-1.1-4.4-1.8c-1.6-1.2-3.2-2.6-5-3.4c-3.7-1.6-7.5-0.1-10.4,2.2c-3,2.3-5.6,5.5-9.4,6.5
				c-2.4,0.6-5.1,0.2-7.5-0.4c-2.9-0.6-5.8-1.6-8.7-2.3c-2.9-0.6-5.8-1-8.7-0.6c-2.5,0.4-4.6,1.7-6.8,2.8c-0.9,0.5-1.7,0.9-2.7,1.1
				c-1.1,0.2-2.1-0.1-3.1-0.4c-2.3-0.7-4.4-2-6.5-3.2c-4.1-2.4-8.6-5-13.5-4.6c-2.1,0.2-4,1.1-5.4,2.7c-1.1,1.2-1.9,2.9-3.3,3.9
				c-1.9,1.4-4.3,0.7-6.2-0.2c-2.4-1.1-4.7-2.5-7.2-3.5c-2.5-1-5.3-1.1-7.8-0.2c-2.8,1-4.9,3-6.8,5.1
				C162.3,232.6,164.4,234.7,165.7,233.3L165.7,233.3z"/>
		</g>
	</g>
</g>
<g>
	<path d="M316.8,168V63.4h17.1v87.5H357V168L316.8,168L316.8,168z"/>
</g>
<g>
	<path class="st0" d="M313.2,202.2c-0.1-1-0.1-2-0.2-3c-1.4-15.1-5.7-22-12.9-29.1c-7.3-7.1-17.2-10.6-30.4-10.6h-8.6l0,54.1v50.2
		h8.6c13.2,0,23.2-3.7,30.5-11.3c8.8-9,13.3-19.3,13.3-41C313.5,208.1,313.4,205,313.2,202.2z M289,240.2c-2.7,2.7-6.2,4.6-10.8,5.5
		V212l0-3.2v-31.3c4.7,0.9,8.3,2.6,10.9,5.2c4.9,4.8,8.2,10.9,8.2,28.8v0.1c0,1.2,0,2.3,0,3.3C297,230.4,293.6,235.5,289,240.2z"/>
</g>
<g>
	<g>
		<g>
			<path d="M313,199.2c0.1,1,0.2,2,0.2,3c-1.2,0.2-2.4,0.5-3.4,1.3c-1.5,1.1-2.6,2.7-3.7,4.2c-1.3,1.9-2.8,3.5-4.7,4.9
				c-1.3,0.9-2.6,1.7-4,2.3c-2.3,0.9-4.9,1.3-7.4,1.1c-2.2-0.2-4.4-0.7-6.4-1.5c-1.8-0.7-3.5-1.6-5.3-2.4c-0.4-0.2-0.8-0.3-1.3-0.5
				c-1.9-0.7-3.7-1.1-5.7-0.6c-2.4,0.6-4.3,2.3-6.3,3.6c-1.3,0.9-2.6,1.7-3.9,2.5c-2.5,1.4-5.2,2.3-8.1,2.3c-0.1,0-0.3,0-0.5,0
				c-4.4-0.1-8.4-1.9-12.5-3.2c-1.3-0.4-2.7-0.8-4.1-0.8c-0.3,0-0.6,0-0.9,0.1c-2.1,0.3-4,1.4-5.7,2.7c-1.5,1.2-3-1.4-1.5-2.6
				c2-1.6,4.3-2.8,6.9-3.1c0.3,0,0.6-0.1,1-0.1c1.8-0.1,3.5,0.3,5.2,0.8c3.9,1.2,8,3.1,12.2,3.1c0.9,0,1.7-0.1,2.6-0.3
				c2-0.5,3.8-1.4,5.5-2.5c2.3-1.5,4.4-3.2,6.8-4.4c2-1,4.2-1.6,6.5-1.4c1.4,0.1,2.7,0.5,3.9,1c0.7,0.3,1.4,0.6,2.1,0.9
				c4.2,1.9,8.4,3.9,13.2,3.1c1.4-0.2,2.7-0.7,3.8-1.3c2.7-1.4,4.8-3.6,6.6-6.2c2-2.7,4.4-5.4,7.9-6.1
				C312.3,199.2,312.7,199.2,313,199.2z"/>
			<path d="M336,196v3.7c-0.2,0.1-0.3,0.2-0.4,0.3c-1.6,1.2-3.3,2.4-5.2,3.2c-3.6,1.5-7.7,0.2-11.4-0.5v-3.1
				c1.5,0.3,3.1,0.6,4.6,0.9c1.6,0.3,3.3,0.5,4.9,0.1c1.6-0.4,2.9-1.4,4.2-2.3C333.8,197.6,334.8,196.7,336,196z"/>
		</g>
	</g>
</g>
<g>
	<g>
		<g>
			<path class="st0" d="M313.4,99.1c4.1-1.4,8.4-2,12.7-1.3c4.2,0.7,7.8,2.6,11.7,4.2c3.9,1.6,7.6,2.4,11.7,1.1
				c1.9-0.6,3.8-1.4,5.8-1.6c1.9-0.2,3.8,0.1,5.6,0.7c3.5,1.2,6.7,3.1,10.5,3.5c3.4,0.3,6.6-0.7,9.8-1.7c3-1,6.1-2,9.3-1.4
				c2.4,0.4,4.7,1.5,7,2.3c4.8,1.7,12.8,4.3,15.8-1.6c0.9-1.7-1.7-3.2-2.6-1.5c-2.3,4.4-9.5,1.3-12.8,0.1c-2.2-0.8-4.4-1.8-6.8-2.2
				c-3.2-0.6-6.5,0.1-9.5,1.1c-3.1,1-6.1,2.2-9.4,2c-3.6-0.2-6.9-2.2-10.3-3.3c-3.8-1.3-7.3-1.1-11.1,0.2c-1.9,0.6-3.8,1.3-5.8,1.3
				c-1.9-0.1-3.8-0.7-5.6-1.4c-4.2-1.7-8.1-3.8-12.6-4.5c-4.8-0.7-9.5-0.2-14,1.3C310.8,96.8,311.6,99.7,313.4,99.1L313.4,99.1z"/>
		</g>
	</g>
</g>
<g>
	<g>
		<g>
			<g>
				<g>
					<path d="M62.5,188.7c0,0,0,0.1-0.1,0.1c-0.1,0.2-0.3,0.3-0.4,0.5c-0.6,0.7-1.2,1.3-1.9,1.8c-0.2,0.2-0.5,0.4-0.7,0.6
						c-0.7,0.5-1.5,1-2.3,1.3c-2.1,0.8-4.3,0.8-6.5,0.8c-1.2,0-2.4,0-3.6-0.1c-1-0.1-1.9-0.2-2.9-0.4c-0.2,0-0.4-0.1-0.6-0.1
						c-0.5-0.1-1-0.2-1.5-0.4c-1.5-0.5-2.9-1.3-4.2-2.2c-0.3-0.2-0.7-0.5-1-0.8c0,0,0,0-0.1,0c-0.5-0.5-1.1-1-1.6-1.5
						c0,0-0.1-0.1-0.1-0.1c-0.2-0.2-0.3-0.5-0.3-0.8v0c0-0.2,0.1-0.4,0.2-0.6c0.4-0.6,1.3-1,1.9-0.3c0.2,0.2,0.4,0.4,0.6,0.6
						c1.6,1.5,3.5,2.8,5.7,3.4c2.4,0.7,4.9,0.8,7.4,0.8c1.9,0,3.9,0,5.7-0.6c1.5-0.6,2.7-1.7,3.7-2.8c0.2-0.2,0.4-0.5,0.6-0.7
						c0.7-0.8,1.7-0.3,2,0.5C62.8,187.9,62.8,188.3,62.5,188.7z"/>
				</g>
			</g>
		</g>
		<g>
			<g>
				<g>
					<path d="M36.8,188.4c0,0.4,0,0.9,0,1.3c-0.1,2-0.2,4-0.5,6c0,0,0,0,0,0c-1.1,8.5-3.4,16.9-3.5,25.6c0,0.3,0,0.7,0,1
						c0,1.6-2.5,1.6-2.5,0v-0.4c0-11.3,4-22.2,4.1-33.5c0-0.5,0.2-0.8,0.5-1v0c0.1,0,0.2-0.1,0.2-0.1
						C35.8,187,36.8,187.4,36.8,188.4z"/>
				</g>
			</g>
		</g>
		<g>
			<g>
				<g>
					<path d="M76.8,205c-0.8,3.7-2.9,7-5.2,9.9c-1.8,2.2-3.8,4.2-6.1,5.9c-0.5,0.4-1,0.7-1.5,1c-0.2,0.2-0.5,0.3-0.7,0.4
						c-1.2,0.7-2.4,1.3-3.7,1.9c-0.8,0.3-1.5,0.6-2.3,0.9c-1.1,0.4-2.2,0.8-3.4,1.1c-0.8,0.2-1.5,0.4-2.3,0.5
						c-0.8,0.2-1.7,0.3-2.5,0.4c-1.3,0.1-2.5,0.1-3.8,0c-0.8-0.1-1.7-0.2-2.5-0.4c0,0-0.1,0-0.1,0c-3.8-1-7.5-3-11.5-2.7
						c-1.1,0.1-1.5-1.2-1-1.9c0.2-0.3,0.5-0.5,1-0.6c0.5,0,1,0,1.5,0c0,0,0.1,0,0.1,0c0.2,0,0.5,0,0.7,0.1c0.7,0.1,1.4,0.2,2.1,0.4
						c2.4,0.6,4.7,1.5,7.1,2.2c0.2,0.1,0.4,0.1,0.7,0.2c0.3,0.1,0.7,0.2,1,0.2c0.1,0,0.3,0,0.4,0.1c0.1,0,0.3,0,0.4,0.1
						c0.2,0,0.5,0,0.7,0.1c0.1,0,0.2,0,0.3,0c0.9,0.1,1.8,0,2.7-0.1c0.8-0.1,1.7-0.2,2.5-0.4c0.8-0.2,1.6-0.4,2.4-0.6
						c0.9-0.3,1.8-0.6,2.8-0.9c0.8-0.3,1.5-0.6,2.3-0.9c1.3-0.5,2.5-1.2,3.7-1.9c0.2-0.1,0.4-0.3,0.7-0.4c0.5-0.3,1-0.7,1.5-1.1
						c2-1.6,3.8-3.5,5.4-5.5c1.7-2.2,3.2-4.6,4-7.3c-3.2-1.5-6.3-3.2-8.9-5.5c-1.4-1.3-2.7-2.8-3.5-4.5c-0.1-0.3-0.3-0.6-0.4-0.9
						c-0.4-1.1-0.7-2.3-1.2-3.3c0,0,0,0,0-0.1c-0.1-0.3-0.3-0.6-0.4-0.9c-0.1-0.1-0.2-0.3-0.2-0.4c-0.4-0.7-0.1-1.4,0.5-1.7
						c0.5-0.3,1.2-0.2,1.6,0.4c0.2,0.2,0.3,0.5,0.4,0.7c0.1,0.2,0.2,0.4,0.3,0.7c0.6,1.3,0.9,2.6,1.4,4c0.7,1.7,1.9,3,3.2,4.2
						c2.7,2.4,6,4,9.2,5.5C76.7,203.9,76.9,204.5,76.8,205z"/>
				</g>
			</g>
		</g>
	</g>
	<g>
		<path class="st1" d="M33.5,221.4c-0.2,0-0.5,0-0.7,0v0C33.1,221.3,33.3,221.3,33.5,221.4z"/>
		<path class="st1" d="M43.5,193.1c-0.5-0.1-1-0.2-1.5-0.4c-1.5-0.5-2.9-1.3-4.2-2.2c-0.3-0.2-0.7-0.5-1-0.8v-0.1
			c0.3,0.3,0.6,0.5,1,0.8c1.3,1,2.8,1.7,4.3,2.3C42.6,192.9,43.1,193,43.5,193.1z"/>
		<path class="st1" d="M74.2,205.4C74.2,205.4,74.2,205.4,74.2,205.4c-0.8,2.7-2.3,5.1-4,7.3c-1.6,2-3.4,4-5.5,5.6
			c-0.5,0.4-0.9,0.7-1.4,1c-0.2,0.2-0.5,0.3-0.7,0.5c-1.2,0.7-2.4,1.4-3.7,1.9c-0.8,0.3-1.5,0.6-2.3,0.9c-0.9,0.3-1.8,0.6-2.7,0.9
			c-0.8,0.2-1.7,0.5-2.5,0.6c-0.8,0.2-1.6,0.3-2.5,0.4c-0.9,0.1-1.8,0.1-2.7,0c0.9,0.1,1.8,0,2.7-0.1c0.8-0.1,1.7-0.2,2.5-0.4
			c0.8-0.2,1.6-0.4,2.4-0.6c0.9-0.3,1.8-0.6,2.8-0.9c0.8-0.3,1.5-0.6,2.3-0.9c1.3-0.5,2.5-1.2,3.7-1.9c0.2-0.1,0.4-0.3,0.7-0.4
			c0.5-0.3,1-0.7,1.5-1.1c2-1.6,3.8-3.5,5.4-5.5C71.8,210.5,73.3,208.1,74.2,205.4c-3.2-1.5-6.3-3.2-9-5.5c-1.4-1.3-2.7-2.8-3.5-4.5
			c-0.1-0.3-0.3-0.6-0.4-0.9c-0.4-1.1-0.7-2.3-1.2-3.3c0,0,0,0,0.1,0c0.5,1.1,0.8,2.2,1.2,3.3c0.1,0.3,0.3,0.7,0.4,1
			c0.8,1.7,2.1,3.3,3.5,4.5C67.9,202.2,71,203.9,74.2,205.4C74.1,205.4,74.2,205.4,74.2,205.4z"/>
	</g>
</g>
</svg>
