<?xml version="1.0" encoding="utf-8"?>
<!-- Generator: Adobe Illustrator 27.9.0, SVG Export Plug-In . SVG Version: 6.00 Build 0)  -->
<svg version="1.1" id="Layer_1" xmlns="http://www.w3.org/2000/svg" xmlns:xlink="http://www.w3.org/1999/xlink" x="0px" y="0px"
	 viewBox="0 0 530.59 283.07" style="enable-background:new 0 0 530.59 283.07;" xml:space="preserve">
<style type="text/css">
	.st0{fill:#719CD2;}
	.st1{fill:none;stroke:#000000;stroke-width:10;stroke-miterlimit:10;}
	.st2{fill:#FFFFFF;}
</style>
<g>
	<g>
		<path class="st0" d="M161.46,19.37c-0.06-0.01-0.12-0.01-0.18-0.02c0.13,0.02,0.27,0.04,0.4,0.05c-0.58-0.09-1.13-0.27-1.71-0.31
			c-0.75-0.05-1.52,0.27-2.02,0.83c-1.23,1.39-1.64,3.56-0.64,5.19c0.43-0.75,0.86-1.5,1.3-2.26c-0.09,0.01-0.18,0.01-0.26,0
			c0.13,0.02,0.27,0.04,0.4,0.05c-0.07-0.01-0.13-0.03-0.19-0.05c0.12,0.05,0.24,0.1,0.36,0.15c-0.07-0.03-0.13-0.07-0.2-0.11
			c0.1,0.08,0.2,0.16,0.3,0.23c-0.06-0.05-0.11-0.1-0.16-0.16c0.08,0.1,0.16,0.2,0.23,0.3c-0.07-0.09-0.12-0.18-0.16-0.28
			c0.05,0.12,0.1,0.24,0.15,0.36c-0.08-0.18-0.12-0.37-0.15-0.56c0.02,0.13,0.04,0.27,0.05,0.4c-0.04-0.28-0.04-0.55,0-0.83
			c-0.02,0.13-0.04,0.27-0.05,0.4c0.03-0.2,0.07-0.4,0.15-0.58c-0.05,0.12-0.1,0.24-0.15,0.36c0.09-0.2,0.22-0.38,0.35-0.56
			c-0.08,0.1-0.16,0.2-0.23,0.3c0.21-0.26,0.44-0.49,0.7-0.7c-0.1,0.08-0.2,0.16-0.3,0.23c0.3-0.23,0.62-0.42,0.97-0.56
			c-0.12,0.05-0.24,0.1-0.36,0.15c0.3-0.12,0.62-0.21,0.94-0.26c-0.13,0.02-0.27,0.04-0.4,0.05c0.3-0.04,0.6-0.04,0.9-0.01
			c-0.13-0.02-0.27-0.04-0.4-0.05c0.11,0.01,0.21,0.03,0.32,0.06c0.76,0.17,1.66-0.23,1.85-1.05c0.17-0.76-0.23-1.66-1.05-1.85
			c-1.83-0.41-3.82,0.23-5.09,1.63c-0.51,0.57-0.95,1.22-1.07,1.99c-0.11,0.73-0.13,1.49,0.13,2.19c0.22,0.57,0.53,1.02,1.03,1.38
			c0.39,0.27,0.94,0.42,1.41,0.37c0.54-0.06,1.01-0.25,1.3-0.74c0.27-0.46,0.28-1.06,0-1.51c-0.07-0.11-0.13-0.22-0.18-0.34
			c0.05,0.12,0.1,0.24,0.15,0.36c-0.07-0.19-0.13-0.37-0.16-0.57c0.02,0.13,0.04,0.27,0.05,0.4c-0.03-0.25-0.03-0.49,0-0.74
			c-0.02,0.13-0.04,0.27-0.05,0.4c0.04-0.3,0.13-0.59,0.24-0.87c-0.05,0.12-0.1,0.24-0.15,0.36c0.12-0.27,0.25-0.53,0.43-0.76
			c-0.08,0.1-0.16,0.2-0.23,0.3c0.08-0.1,0.17-0.19,0.27-0.28c-0.1,0.08-0.2,0.16-0.3,0.23c0.07-0.06,0.15-0.1,0.23-0.14
			c-0.12,0.05-0.24,0.1-0.36,0.15c0.08-0.03,0.16-0.05,0.24-0.07c-0.13,0.02-0.27,0.04-0.4,0.05c0.13-0.02,0.25-0.01,0.38,0
			c-0.13-0.02-0.27-0.04-0.4-0.05c0.23,0.03,0.45,0.09,0.67,0.14c0.37,0.09,0.75,0.15,1.14,0.18c0.36,0.04,0.82-0.19,1.06-0.44
			c0.26-0.26,0.46-0.69,0.44-1.06c-0.02-0.39-0.14-0.79-0.44-1.06C162.21,19.52,161.88,19.41,161.46,19.37L161.46,19.37z"/>
	</g>
</g>
<g>
	<g>
		<path class="st0" d="M179.84,16.87c-0.76,0.02-1.56,0.15-2.19,0.6c-0.67,0.48-1.11,1.16-1.31,1.97c-0.21,0.81-0.3,1.76-0.05,2.57
			c0.27,0.86,0.85,1.51,1.43,2.17c0.22-0.84,0.44-1.67,0.66-2.51c-0.06,0.02-0.15,0.03-0.2,0.06c0.28-0.03,0.34-0.04,0.19-0.03
			c-0.02,0-0.05,0-0.07,0c-0.27,0.02,0.35,0.09,0.11,0.02c-0.09-0.02-0.17-0.05-0.25-0.08c-0.14-0.05,0.36,0.18,0.08,0.02
			c-0.07-0.04-0.13-0.08-0.2-0.12c-0.13-0.08,0.3,0.26,0.06,0.04c-0.05-0.05-0.1-0.11-0.16-0.16c-0.11-0.08,0.2,0.34,0.06,0.08
			c-0.02-0.03-0.04-0.06-0.05-0.09c-0.07-0.13-0.05-0.08,0.06,0.16c0-0.07-0.06-0.18-0.08-0.25c-0.01-0.03-0.01-0.06-0.02-0.09
			c-0.03-0.16-0.02-0.12,0.01,0.13c0.02-0.07-0.01-0.2-0.01-0.27c0-0.09,0-0.18,0.01-0.28c0-0.03,0-0.06,0.01-0.09
			c0.02-0.16,0.01-0.12-0.02,0.13c0.04-0.07,0.03-0.19,0.05-0.27c0.04-0.17,0.08-0.34,0.14-0.5c0.04-0.11,0.16-0.34-0.04,0.06
			c0.03-0.07,0.06-0.14,0.1-0.21c0.07-0.14,0.15-0.26,0.24-0.39c0.15-0.23-0.23,0.26-0.05,0.07c0.05-0.05,0.1-0.11,0.15-0.16
			c0.05-0.05,0.11-0.1,0.16-0.15c0.2-0.19-0.29,0.2-0.08,0.05c0.12-0.08,0.24-0.16,0.37-0.23c0.04-0.02,0.09-0.04,0.13-0.06
			c-0.23,0.1-0.3,0.12-0.19,0.08c0.07-0.03,0.14-0.05,0.21-0.07c0.16-0.05,0.32-0.09,0.49-0.12c0.35-0.06,0.72-0.39,0.9-0.69
			c0.19-0.32,0.27-0.8,0.15-1.16c-0.27-0.83-1.01-1.19-1.85-1.05c-2.04,0.35-3.5,2.09-3.8,4.09c-0.19,1.25-0.04,2.55,0.89,3.49
			c0.81,0.81,2.17,1.36,3.3,0.93c0.5-0.2,0.9-0.5,1.05-1.05c0.15-0.54-0.03-1.05-0.39-1.46c-0.1-0.12-0.21-0.24-0.31-0.36
			c-0.04-0.05-0.09-0.1-0.13-0.15c-0.08-0.1-0.18-0.3,0.04,0.06c-0.06-0.1-0.14-0.2-0.2-0.3c-0.01-0.02-0.11-0.16-0.1-0.19
			c-0.01,0.02,0.13,0.4,0.06,0.13c-0.02-0.06-0.03-0.12-0.05-0.18c-0.08-0.25,0.01,0.37,0.01,0.09c0-0.15-0.01-0.29,0-0.44
			c0.01-0.07,0.01-0.15,0.02-0.22c0.02-0.25-0.05,0.33-0.02,0.15c0.02-0.12,0.04-0.24,0.07-0.36c0.02-0.1,0.05-0.2,0.08-0.29
			c0.05-0.15,0.14-0.21-0.07,0.14c0.02-0.04,0.04-0.08,0.06-0.12c0.02-0.04,0.04-0.08,0.07-0.12c0.08-0.14,0.18-0.12-0.11,0.13
			c0.06-0.05,0.13-0.12,0.18-0.18c-0.25,0.29-0.28,0.19-0.13,0.11c0.04-0.02,0.08-0.04,0.12-0.07c0.2-0.12-0.14,0.08-0.18,0.07
			c0.03,0.01,0.14-0.05,0.17-0.06c0.1-0.03,0.21-0.04,0.32-0.07c-0.45,0.1-0.25,0.03-0.11,0.02c0.08-0.01,0.15-0.01,0.23-0.01
			c0.78-0.02,1.54-0.68,1.5-1.5C181.31,17.57,180.68,16.85,179.84,16.87L179.84,16.87z"/>
	</g>
</g>
<path class="st0" d="M13.21,143.42c-0.64-0.99-0.72-2.07-1.18-3.09c-0.38-0.84-1.48-1.09-2.24-1.48c-1.55-0.81-3.58-2.09-3.34-4.13
	c0.19-1.58,1.19-2.62,0.57-4.29c-0.58-1.54-2.07-2.3-3.15-3.44c-1.16-1.23-1.41-3.11-1.38-4.74c0.08-3.91,2.48-7.51,6.3-8.6
	c0.64-0.18,1.05-0.87,0.87-1.52c-0.75-2.67-2.4-6.29-0.69-8.91c1.57-2.4,5.63-2.33,8.12-1.78c0.7,0.16,1.67-0.35,1.57-1.2
	c-0.38-3.37,0.19-7.18,2.74-9.64c2.7-2.6,6.29-1.75,9.13,0.14c0.66,0.44,1.64,0.01,1.82-0.74c0.45-1.86,1.46-3.94,3.6-4.16
	c2.1-0.21,3.97,1.38,5.13,2.95c0.46,0.62,1.35,0.88,1.95,0.25c1.39-1.47,3.14-2.87,5.3-2.68c1.97,0.18,3.78,1.5,4.81,3.14
	c1.84,2.92,2.16,6.46,4.35,9.21c0.31,0.39,1.1,0.49,1.5,0.19c2.63-1.93,5.5-2.95,8.42-0.94c2.4,1.65,3.22,3.93,3.59,6.7
	c0.16,1.21,0.24,2.48,0.66,3.64c0.43,1.17,1.18,2.21,1.56,3.4c0.98,3.01-0.82,5.72-1.77,8.47c-0.18,0.52,0.12,1.12,0.57,1.4
	c3.19,1.96,1.23,5.83-1.18,7.56c-0.43,0.31-0.75,0.85-0.57,1.4c0.75,2.26,2.13,5.74,0.25,7.85c-0.35,0.4-0.68,0.35-1.2,0.29
	c-0.66-0.07-1.31-0.18-1.96-0.24c0.04-3.42,0.06-6.84,0.09-10.26c0.02-2.8,0.04-5.6,0.05-8.4c0.15-0.06,0.3-0.15,0.43-0.27
	c2.29-2.14,3.03-5.89,1.43-8.64c-0.46-0.79-1.09-1.5-1.97-1.82c-0.74-0.27-1.61-0.16-2.26,0.28c-1.45,0.97-1.95,2.91-1.79,4.56
	c0.17,1.85,0.88,3.57,1.71,5.22c-0.01,0.05-0.02,0.1-0.02,0.16c-0.02,6.14-0.07,12.27-0.13,18.41c-0.01,1.12-0.02,2.24-0.03,3.36
	c-0.57,1.46-1.52,2.83-3.03,3.22c-1.96,0.5-3.57-1.36-5.11-2.42c0.15-1.15,0.2-2.32,0.16-3.5c1.1,0.34,2.27,0.35,3.3-0.29
	c1.04-0.64,1.73-1.76,2.01-2.94c0.54-2.28-0.22-5.42-2.85-5.98c-1.49-0.32-2.95,0.22-4.22,1c-0.47-1.14-1.04-2.22-1.69-3.21
	c0.4-0.14,0.78-0.32,1.12-0.56c1.05-0.76,1.75-1.79,2.19-3c0.24-0.67,0.36-1.38,0.42-2.08c0.06-0.65-0.61-1.27-1.24-1.24
	c-0.72,0.03-1.18,0.55-1.24,1.24c-0.01,0.07-0.01,0.15-0.02,0.22c0,0.01,0,0.02-0.01,0.03c-0.02,0.15-0.05,0.3-0.09,0.44
	c-0.07,0.3-0.17,0.59-0.27,0.88c-0.03,0.06-0.05,0.12-0.08,0.18c-0.06,0.13-0.13,0.25-0.2,0.37c-0.08,0.14-0.18,0.26-0.27,0.39
	c0.24-0.36-0.02,0.02-0.11,0.11c-0.09,0.1-0.19,0.19-0.29,0.28c-0.03,0.03-0.08,0.06-0.11,0.09c0.03-0.02,0.06-0.05,0.14-0.1
	c-0.06,0.04-0.12,0.09-0.19,0.13c-0.11,0.08-0.23,0.14-0.35,0.21c-0.02,0.01-0.05,0.03-0.07,0.04c-0.02,0.01-0.04,0.02-0.06,0.02
	c-0.15,0.06-0.3,0.1-0.46,0.14c-0.06,0.01-0.12,0.03-0.18,0.04c-0.11,0.01-0.21,0.01-0.31,0.01c-0.15-0.16-0.29-0.32-0.44-0.47
	c-0.42-0.42-0.88-0.8-1.35-1.15c1.54-1.31,1.72-3.91,1.63-5.84c-0.03-0.65-0.55-1.27-1.24-1.24c-0.65,0.03-1.27,0.55-1.24,1.24
	c0.02,0.48,0.03,0.97,0.01,1.45c-0.01,0.27-0.04,0.55-0.07,0.82c0.04-0.45,0-0.01-0.02,0.11c-0.02,0.13-0.05,0.27-0.09,0.4
	c-0.03,0.13-0.07,0.26-0.11,0.38c-0.02,0.05-0.03,0.09-0.05,0.14c0.01-0.02,0.01-0.02,0.02-0.05c-0.01,0.02-0.02,0.04-0.03,0.05
	c0,0.01-0.01,0.02-0.01,0.02c-0.02,0.05-0.06,0.11-0.06,0.12c-0.02,0.04-0.04,0.08-0.06,0.12c-0.03,0.05-0.06,0.1-0.09,0.15
	c-0.01,0.01-0.03,0.04-0.05,0.06c-0.01,0.01-0.01,0.02-0.02,0.02c-0.04,0.04-0.07,0.08-0.11,0.11c0.01-0.01-0.02,0.03-0.07,0.06
	c-0.03,0.02-0.06,0.05-0.08,0.07c0.03-0.03,0.04-0.04,0.06-0.06c-0.04,0.03-0.09,0.05-0.13,0.07c0.07-0.03-0.01,0.02-0.09,0.05
	c-0.03,0.01-0.05,0.03-0.08,0.04c0.04-0.02,0.05-0.03,0.07-0.04c-0.08,0.03-0.16,0.05-0.24,0.06c-0.14,0.03-0.27,0.1-0.39,0.19
	c-4.72-2.08-10.56-1.39-14.8,1.76c-0.03,0.02-0.06,0.05-0.08,0.07c0,0,0,0-0.01,0c-0.15-0.07-0.29-0.15-0.43-0.23
	c-0.11-0.06-0.26-0.21-0.38-0.26c-0.06-0.05-0.11-0.09-0.16-0.14c-0.12-0.11-0.23-0.22-0.33-0.33c-0.05-0.06-0.1-0.12-0.16-0.18
	c-0.17-0.25-0.33-0.5-0.47-0.77c-0.04-0.07-0.07-0.14-0.1-0.21c-0.05-0.14-0.1-0.28-0.15-0.42c-0.05-0.16-0.09-0.31-0.13-0.47
	c-0.03-0.14-0.04-0.33-0.09-0.47c-0.01-0.08-0.01-0.15-0.02-0.23c-0.01-0.18-0.02-0.36-0.02-0.55c0-0.65-0.57-1.27-1.24-1.24
	c-0.67,0.03-1.24,0.54-1.24,1.24c0,1.55,0.42,3.17,1.36,4.43c0.46,0.62,1.03,1.15,1.66,1.58c-0.24,0.27-0.47,0.54-0.69,0.82
	c-0.28-0.08-0.56-0.16-0.83-0.26c-0.01-0.01-0.02-0.01-0.03-0.01c-0.01,0-0.01-0.01-0.03-0.01c-0.08-0.04-0.16-0.07-0.23-0.11
	c-0.18-0.09-0.35-0.18-0.53-0.29c-0.17-0.1-0.33-0.21-0.49-0.33c-0.01-0.01,0,0-0.01-0.01c0,0,0,0,0,0
	c-0.06-0.05-0.13-0.11-0.19-0.16c-0.14-0.13-0.28-0.26-0.41-0.41c-0.06-0.06-0.11-0.12-0.16-0.19c0,0,0,0-0.01-0.01
	c-0.01-0.02-0.02-0.04-0.04-0.07c-0.09-0.13-0.18-0.27-0.25-0.42c-0.02-0.03-0.16-0.26-0.14-0.29c0.07,0.16,0.08,0.19,0.05,0.11
	c-0.01-0.04-0.03-0.08-0.04-0.12c-0.06-0.18-0.11-0.37-0.15-0.56c-0.01-0.04-0.02-0.08-0.02-0.12c-0.01-0.1-0.01-0.06,0.02,0.12
	c-0.04-0.03-0.02-0.3-0.02-0.35c-0.02-0.65-0.56-1.27-1.24-1.24c-0.65,0.03-1.26,0.55-1.24,1.24c0.08,2.76,2.16,4.75,4.64,5.66
	c-0.69,1.34-1.19,2.78-1.49,4.28c-0.53-0.6-1.25-0.99-2.14-0.97c-1.32,0.04-2.57,0.84-3.4,1.83c-0.96,1.14-1.52,2.53-1.33,4.03
	c0.2,1.59,1.06,3.11,2.59,3.77c0.89,0.38,1.79,0.48,2.75,0.32c0.63-0.1,1.21-0.36,1.75-0.69c0.55,2.19,1.47,4.2,2.68,5.98
	c-1.18,0.8-2.77,1.23-4.16,1.22c-1.72-0.01-2.62-0.83-2.53-2.57c0.04-0.77-0.83-1.45-1.57-1.2c-1.01,0.34-2.18,0.73-3.36,0.93
	c-0.86-2.49-1.69-4.99-2.52-7.48c-0.84-2.53-1.69-5.06-2.43-7.63c-0.03-0.09-0.06-0.17-0.1-0.25c0.23-1.52,0.8-2.98,1.16-4.47
	c0.4-1.65,0.69-3.52,0.05-5.15c-0.75-1.87-2.75-3.37-4.81-2.62c-2.1,0.77-3.24,2.92-2.97,5.09c0.3,2.44,1.76,4.52,3.19,6.44
	c0.25,0.33,0.6,0.56,0.97,0.6c0.02,0.13,0.06,0.26,0.11,0.38c-0.05,0.19-0.05,0.4,0.02,0.63c1.41,4.87,3.06,9.68,4.75,14.47
	C14.79,144.97,13.88,144.46,13.21,143.42z"/>
<line class="st1" x1="364.37" y1="214.88" x2="423.11" y2="240.21"/>
<line class="st1" x1="368.13" y1="203.08" x2="429.74" y2="208.78"/>
<line class="st1" x1="359.33" y1="225.4" x2="397.4" y2="263.01"/>
<g>
	<path d="M190.43,87.91v65.17h-17.08v-24.12h-14.83v24.12h-17.08V87.91c0-13.46,10.99-24.41,24.5-24.41
		C179.44,63.51,190.43,74.45,190.43,87.91z M173.35,111.87V87.91c0-4.04-3.33-7.33-7.41-7.33c-4.09,0-7.41,3.29-7.41,7.33v23.96
		H173.35z"/>
	<path d="M249.5,86.43l0.58,5.68c0,6.1,1.73,21.45-6.52,30.22c3.7,4.29,5.94,9.87,5.94,15.97v5.23c0,13.51-10.99,24.49-24.49,24.49
		h-24.45V63.43h24.45c13.51,0,23.89,7.62,24.49,24.49L249.5,86.43z M217.64,113.77h10.37c8.16,0,7.52-14.61,7.25-20.9
		c-0.07-1.62-0.18-3.23-0.34-4.84l-0.08-0.81c-0.77-5.43-5.74-6.71-9.83-6.71h-7.37V113.77z M232.42,138.3
		c0-4.09-3.33-7.41-7.41-7.41h-7.37v20.06h7.37c4.09,0,7.41-3.33,7.41-7.41V138.3z"/>
	<path d="M132.7,86.43l0.58,5.68c0,6.1,1.73,21.45-6.52,30.22c3.7,4.29,5.94,9.87,5.94,15.97v5.23c0,13.51-10.99,24.49-24.49,24.49
		H83.76V63.43h24.45c13.51,0,23.89,7.62,24.49,24.49L132.7,86.43z M100.84,113.77h10.37c8.16,0,7.52-14.61,7.25-20.9
		c-0.07-1.62-0.18-3.23-0.34-4.84l-0.08-0.81c-0.77-5.43-5.74-6.71-9.83-6.71h-7.37V113.77z M115.63,138.3
		c0-4.09-3.33-7.41-7.41-7.41h-7.37v20.06h7.37c4.09,0,7.41-3.33,7.41-7.41V138.3z"/>
	<path d="M307.6,88v3.42c0,6.1-2.24,11.68-5.94,15.97c3.7,4.29,5.94,9.87,5.94,15.97v5.23c0,13.51-10.99,24.49-24.49,24.49h-24.45
		V63.51h24.45C296.61,63.51,307.6,74.49,307.6,88L307.6,88z M275.74,98.83h7.37c4.09,0,7.41-3.33,7.41-7.41V88
		c0-4.09-3.33-7.41-7.41-7.41h-7.37V98.83z M290.52,123.35c0-4.09-3.33-7.41-7.41-7.41h-7.37V136h7.37c4.09,0,7.41-3.33,7.41-7.41
		V123.35z"/>
	<path d="M316.75,168.02V63.43h17.14v87.5h23.09v17.08H316.75z"/>
	<path d="M407.12,80.51h-26.85v33.22h21.03v17.08h-21.02v20.12h26.84v17.08h-44.17V63.43h44.17V80.51z"/>
	<path class="st0" d="M132.93,198.92v3.42c0,6.1-2.24,11.68-5.94,15.97c3.7,4.29,5.94,9.87,5.94,15.97v5.23
		c0,13.51-10.99,24.49-24.49,24.49H83.98v-89.57h24.45C121.94,174.42,132.93,185.41,132.93,198.92L132.93,198.92z M101.06,209.75
		h7.37c4.09,0,7.41-3.33,7.41-7.41v-3.42c0-4.09-3.33-7.41-7.41-7.41h-7.37V209.75z M115.85,234.27c0-4.09-3.33-7.41-7.41-7.41
		h-7.37v20.06h7.37c4.09,0,7.41-3.33,7.41-7.41V234.27z"/>
	<path class="st0" d="M166.18,264.07h-0.48c-13.37,0-24.26-10.88-24.26-24.25v-80.33h17.08v80.33c0,3.96,3.22,7.17,7.17,7.17h0.48
		c3.96,0,7.17-3.22,7.17-7.17v-80.33h17.08v80.33C190.43,253.19,179.55,264.07,166.18,264.07z"/>
	<path class="st0" d="M209.16,264h-8.59l-0.01-89.57h8.59c13.15,0,23.09,2.93,30.39,8.96c8.92,7.36,13.44,19.1,13.44,34.87
		c0,16.06-4.47,28.61-13.29,36.25C232.31,260.89,222.32,264,209.16,264z M217.75,192.13l-0.01,54.11c4.55-0.81,8.11-2.35,10.77-4.66
		c4.9-4.24,7.38-12.45,7.38-23.33c0-10.58-2.37-17.68-7.23-21.7C226.01,194.35,222.41,192.89,217.75,192.13z"/>
	<path class="st0" d="M269.68,263.79h-8.59l-0.01-104.31h8.59c13.15,0,23.09,3.48,30.39,10.63c8.92,8.74,13.44,17.33,13.44,41.39
		c0,21.72-4.47,31.96-13.29,41.01C292.84,260.1,282.85,263.79,269.68,263.79z M278.28,177.49l-0.01,68.22
		c4.55-0.96,8.11-2.79,10.77-5.53c4.9-5.03,8.39-10.44,8.39-28.69c0-17.9-3.37-23.99-8.23-28.76
		C286.54,180.13,282.94,178.4,278.28,177.49z"/>
	<g>
		<path class="st0" d="M332.34,266.5v-32.68c-9.59-4.26-15.92-13.88-15.92-24.46v-37.43h22.08v37.43c0,2.58,2.1,4.67,4.67,4.67h0.48
			c2.58,0,4.67-2.1,4.67-4.67v-18.83c0-9.41,7.02-17.21,16.1-18.43v-0.17l2.5-0.07h43.18v22.98h-38.88c-0.45,0-0.82,0.37-0.82,0.82
			v13.7c0,10.58-6.33,20.19-15.91,24.46v32.68H332.34z"/>
		<path class="st2" d="M407.61,174.35v17.98h-36.38c-1.83,0-3.32,1.49-3.32,3.32v13.7c0,10.44-6.64,19.37-15.91,22.78V264h-17.16
			v-31.86c-9.28-3.41-15.92-12.33-15.92-22.78v-34.93h17.08v34.93c0,3.96,3.21,7.17,7.17,7.17h0.48c3.96,0,7.17-3.21,7.17-7.17
			v-18.84c0-8.89,7.21-16.1,16.1-16.1h0v-0.07H407.61 M412.61,169.35h-5h-40.68h-5v0.67c-9.23,2.25-16.1,10.59-16.1,20.5v18.84
			c0,1.2-0.98,2.17-2.17,2.17h-0.48c-1.2,0-2.17-0.98-2.17-2.17v-34.93v-5h-5h-17.08h-5v5v34.93c0,11.01,6.27,21.07,15.92,26.03V264
			v5h5H352h5v-5v-28.61c9.65-4.96,15.91-15.02,15.91-26.03v-12.02h34.7h5v-5v-17.98V169.35L412.61,169.35z"/>
	</g>
</g>
<g>
	<g>
		<g>
			<path d="M408.66,255.39c-0.04,1.49,0.11,2.96,0.35,4.42c0.72-0.2,1.45-0.4,2.17-0.6c-0.03-0.11-0.05-0.21-0.07-0.32
				c0.04,0.21,0,0.03-0.01-0.08c-0.02-0.26-0.03-0.52-0.02-0.78c0.01-0.56,0.05-1.03,0.14-1.5c0.09-0.49,0.28-1.2,0.42-1.5
				c0.1-0.22,0.21-0.44,0.36-0.63c-0.14,0.17,0.09-0.08,0.12-0.11c0.06-0.05,0.05-0.04-0.04,0.03c0.05-0.03,0.1-0.07,0.16-0.09
				c-0.29,0.08,0.04-0.01,0.07,0c-0.12,0.02-0.12,0.02,0.01,0.01c-0.13-0.03-0.14-0.03-0.01,0c0.22,0.04-0.11-0.09,0.1,0.04
				c0.04,0.02,0.26,0.18,0.11,0.07c0.43,0.35,0.63,0.72,0.92,1.25c0.56,1,0.98,2.07,1.7,2.97c0.44,0.55,1.47,0.38,1.77-0.23
				c0.44-0.89,0.83-2.08,1.57-2.65c-0.19,0.15,0.25-0.15,0.1-0.05c-0.07,0.03-0.05,0.03,0.06-0.01c-0.06,0.03-0.12,0.03-0.19,0
				c0.33,0.15-0.21-0.09-0.01-0.01c-0.36-0.14,0-0.09-0.01,0.02c0.05,0.06,0.03,0.03-0.06-0.08c0.03,0.04,0.06,0.09,0.09,0.14
				c0.04,0.08,0.09,0.16,0.13,0.24c0.03,0.06,0.06,0.12,0.08,0.17c-0.04-0.1-0.04-0.11-0.01-0.03c0.05,0.12,0.09,0.24,0.13,0.36
				c0.7,2.01,0.76,4.29,1.69,6.22c0.26,0.55,1.05,0.69,1.54,0.4c0.56-0.33,0.67-0.99,0.4-1.54c-0.07-0.15,0.07,0.25-0.02-0.06
				c-0.04-0.11-0.07-0.22-0.11-0.33c-0.08-0.27-0.15-0.54-0.22-0.82c-0.15-0.62-0.28-1.24-0.42-1.86c-0.28-1.25-0.55-2.59-1.17-3.73
				c-0.67-1.24-2.08-1.73-3.3-0.87c-1.14,0.8-1.65,2.16-2.24,3.36c0.59-0.08,1.18-0.15,1.77-0.23c0.17,0.22-0.08-0.12-0.1-0.17
				c-0.08-0.13-0.15-0.26-0.22-0.39c-0.16-0.29-0.31-0.59-0.46-0.89c-0.32-0.63-0.63-1.27-1.04-1.85c-0.86-1.22-2.3-2.22-3.8-1.4
				c-1.23,0.68-1.77,2.22-2.03,3.52c-0.25,1.28-0.41,2.73-0.06,4.01c0.16,0.59,0.8,0.95,1.38,0.79c0.64-0.17,0.89-0.78,0.79-1.38
				c-0.21-1.27-0.3-2.54-0.27-3.82C410.95,253.94,408.7,253.94,408.66,255.39L408.66,255.39z"/>
		</g>
	</g>
	<g>
		<g>
			<path d="M428.69,253.23c-1.58-0.19-2.98,0.92-3.83,2.14c-0.8,1.16-1.27,2.83-0.58,4.15c0.71,1.37,2.7,1.8,3.94,0.91
				c1.19-0.85,1.72-2.33,2.07-3.69c0.32-1.26,0.44-2.55,0.73-3.81c-0.72,0-1.45,0-2.17,0c0.88,2.11,1.24,4.39,2.03,6.53
				c0.2,0.55,0.77,0.98,1.38,0.79c0.54-0.17,1.01-0.79,0.79-1.38c-0.79-2.14-1.15-4.42-2.03-6.53c-0.19-0.45-0.55-0.85-1.09-0.83
				c-0.48,0.02-0.98,0.33-1.09,0.83c-0.21,0.93-0.31,1.89-0.5,2.83c-0.12,0.61-0.27,1.21-0.46,1.8c-0.05,0.14-0.09,0.27-0.14,0.41
				c-0.02,0.06-0.04,0.14-0.08,0.2c0.01-0.02,0.11-0.25,0.03-0.08c-0.12,0.25-0.24,0.51-0.4,0.74c-0.01,0.02-0.08,0.15-0.1,0.15
				c0.03,0,0.19-0.22,0.03-0.05c-0.08,0.08-0.16,0.16-0.24,0.24c-0.14,0.15,0.24-0.14,0.06-0.04c-0.05,0.03-0.09,0.06-0.13,0.08
				c-0.03,0.02-0.11,0.04-0.14,0.07c0.19-0.08,0.23-0.1,0.13-0.06c-0.03,0.01-0.07,0.02-0.1,0.03c-0.25,0.08,0.26,0.01-0.01,0
				c-0.05,0-0.11-0.01-0.16,0c-0.21,0.01,0.29,0.08,0.06,0.01c-0.06-0.02-0.13-0.03-0.2-0.05c-0.26-0.05,0.06,0,0.03,0.03
				c-0.01,0.01-0.14-0.07-0.16-0.08c-0.25-0.12,0.11,0.13,0,0.02c-0.03-0.04-0.08-0.08-0.11-0.11c-0.15-0.12,0.13,0.24,0.05,0.06
				c-0.02-0.04-0.05-0.1-0.08-0.14c-0.11-0.16,0.07,0.27,0.03,0.08c-0.02-0.07-0.04-0.26-0.08-0.32c0.11,0.15,0.02,0.26,0.02,0.13
				c0-0.08-0.01-0.15,0-0.23c0-0.06,0.01-0.12,0.01-0.18c0-0.23-0.06,0.28-0.01,0.06c0.03-0.12,0.05-0.25,0.09-0.37
				c0.03-0.1,0.06-0.29,0.13-0.38c-0.16,0.19-0.06,0.13-0.01,0.02c0.04-0.08,0.08-0.16,0.12-0.25c0.08-0.14,0.16-0.28,0.25-0.42
				c0.04-0.05,0.07-0.13,0.12-0.17c-0.22,0.2-0.06,0.07,0,0.01c0.11-0.12,0.22-0.24,0.33-0.35c0.05-0.05,0.1-0.09,0.15-0.14
				c0.23-0.21-0.12,0.06,0.04-0.03c0.13-0.08,0.26-0.17,0.4-0.24c0.05-0.02,0.12-0.08,0.18-0.08c-0.17,0.07-0.2,0.08-0.09,0.04
				c0.04-0.01,0.08-0.03,0.12-0.04c0.06-0.02,0.12-0.03,0.19-0.05c0.29-0.08-0.17-0.01,0.02-0.01c0.15,0.01,0.3,0,0.45,0.01
				c0.59,0.07,1.15-0.57,1.13-1.13C429.79,253.69,429.32,253.31,428.69,253.23L428.69,253.23z"/>
		</g>
	</g>
	<g>
		<g>
			<path d="M437.36,246.97c0,4.87,0,9.74,0,14.61c0,1.45,2.25,1.45,2.25,0c0-4.87,0-9.74,0-14.61
				C439.62,245.52,437.36,245.52,437.36,246.97L437.36,246.97z"/>
		</g>
	</g>
	<g>
		<g>
			<path d="M443.99,252.54c-2.83-0.08-5.7,0.23-8.5-0.27c-1.27-0.22-1.93,1.3-0.87,2.06c3,2.15,6.03,4.26,8.97,6.49
				c0.48,0.37,1.26,0.08,1.54-0.4c0.34-0.58,0.08-1.17-0.4-1.54c-2.94-2.23-5.97-4.35-8.97-6.49c-0.29,0.69-0.58,1.37-0.87,2.06
				c3.02,0.53,6.05,0.26,9.1,0.35C445.44,254.84,445.44,252.59,443.99,252.54L443.99,252.54z"/>
		</g>
	</g>
	<g>
		<g>
			<path d="M449.57,253.67c0,2.58,0,5.16,0,7.73c0,0.61,0.52,1.13,1.13,1.13c0.61,0,1.13-0.52,1.13-1.13c0-2.58,0-5.16,0-7.73
				c0-0.61-0.52-1.13-1.13-1.13C450.08,252.54,449.57,253.06,449.57,253.67L449.57,253.67z"/>
		</g>
	</g>
	<g>
		<g>
			<path d="M450.86,248.61c1.45,0,1.45-2.25,0-2.25C449.42,246.36,449.41,248.61,450.86,248.61L450.86,248.61z"/>
		</g>
	</g>
	<g>
		<g>
			<path d="M454.72,253.67c0,1.59,0.01,3.18-0.01,4.78c0.75,0,1.5,0,2.25,0c-0.01-0.14-0.01-0.28,0-0.42c0-0.08,0.01-0.16,0.02-0.24
				c0.01-0.07,0.05-0.39,0.02-0.16c-0.03,0.23,0.01-0.07,0.02-0.12c0.02-0.1,0.03-0.19,0.05-0.29c0.04-0.22,0.1-0.44,0.16-0.65
				c0.05-0.19,0.11-0.39,0.18-0.58c0.03-0.09,0.06-0.18,0.1-0.27c0.02-0.06,0.05-0.12,0.07-0.18c0.08-0.19-0.11,0.24-0.01,0.03
				c0.17-0.37,0.36-0.72,0.6-1.06c0.12-0.18-0.18,0.21-0.04,0.05c0.02-0.03,0.05-0.06,0.07-0.09c0.06-0.07,0.12-0.13,0.19-0.2
				c0.03-0.02,0.05-0.05,0.08-0.07c0.11-0.11,0.13-0.02-0.07,0.04c0.08-0.02,0.16-0.11,0.23-0.15c0.04-0.02,0.07-0.04,0.11-0.06
				c0.14-0.08-0.13,0.06-0.13,0.06c0.05,0.01,0.18-0.05,0.23-0.07c0.18-0.06-0.3,0.01-0.11,0.01c0.03,0,0.07,0,0.1,0
				c0.04,0,0.09,0.01,0.13,0c0.09,0.01,0.04,0-0.17-0.02c0.03,0.01,0.07,0.01,0.1,0.02c0.05,0.02,0.32,0.11,0.11,0.03
				c-0.21-0.08,0.06,0.05,0.12,0.08c0.16,0.09-0.06,0.04-0.08-0.07c0,0.01,0.07,0.06,0.08,0.07c0.08,0.08,0.15,0.16,0.23,0.24
				c0.12,0.13-0.06-0.08-0.07-0.09c0.03,0.05,0.07,0.1,0.1,0.14c0.06,0.08,0.11,0.17,0.16,0.26c0.05,0.08,0.09,0.16,0.13,0.25
				c0.02,0.05,0.04,0.1,0.07,0.14c0.1,0.21-0.1-0.25-0.01-0.03c0.17,0.46,0.31,0.93,0.41,1.41c0.02,0.11,0.04,0.22,0.06,0.33
				c0.01,0.05,0.01,0.1,0.02,0.14c-0.06-0.37-0.02-0.16-0.01-0.08c0.02,0.2,0.04,0.4,0.04,0.59c0.01,0.59,0.51,1.15,1.13,1.13
				c0.6-0.03,1.14-0.49,1.13-1.13c-0.02-0.96-0.2-1.95-0.53-2.85c-0.41-1.12-1.05-2.2-2.22-2.65c-1.06-0.41-2.2,0-2.98,0.77
				c-0.75,0.75-1.21,1.77-1.54,2.76c-0.31,0.93-0.54,1.98-0.49,2.97c0.03,0.59,0.49,1.15,1.13,1.13c0.62-0.03,1.12-0.49,1.13-1.13
				c0.02-1.59,0.01-3.18,0.01-4.78c0-0.59-0.52-1.15-1.13-1.13C455.24,252.57,454.72,253.04,454.72,253.67L454.72,253.67z"/>
		</g>
	</g>
	<g>
		<g>
			<path d="M470,257.23c-0.08,0.13-0.15,0.19-0.24,0.25c-0.26,0.16,0.16-0.03-0.13,0.06c-0.02,0.01-0.36,0.06-0.14,0.04
				c-0.47,0.05-0.85-0.04-1.38-0.26c-0.73-0.31-1.56-0.93-1.86-1.62c-0.07-0.16-0.14-0.41-0.17-0.61c0.03,0.2,0.03-0.56-0.02-0.27
				c0.01-0.09,0.16-0.5,0.06-0.29c0.04-0.09,0.09-0.17,0.14-0.25c0.07-0.1,0.07-0.1-0.01,0c0.04-0.05,0.08-0.09,0.13-0.14
				c0.03-0.03,0.27-0.22,0.06-0.07c0.08-0.06,0.16-0.11,0.24-0.16c0.09-0.05,0.17-0.09,0.26-0.13c-0.23,0.1,0.08-0.02,0.11-0.03
				c0.1-0.02,0.2-0.05,0.3-0.08c0.03-0.01,0.36-0.04,0.12-0.02c0.25-0.02,0.5-0.02,0.75,0c-0.24-0.02,0.11,0.02,0.13,0.02
				c0.11,0.02,0.22,0.05,0.32,0.08c0.11,0.03,0.21,0.07,0.32,0.11c-0.2-0.08,0.13,0.07,0.14,0.07c0.35,0.19,0.69,0.48,0.9,0.75
				c0.61,0.79,0.88,1.65,1.02,2.66c0.24,1.8-0.2,4.16-1.35,5.57c-0.77,0.95-2.03,1.71-3.4,1.59c-1.34-0.12-2.51-1.09-3.3-2.12
				c-0.37-0.48-0.97-0.74-1.54-0.4c-0.47,0.28-0.78,1.05-0.4,1.54c1.1,1.43,2.51,2.73,4.33,3.11c1.89,0.4,3.77-0.22,5.23-1.44
				c2.18-1.81,2.99-5.16,2.68-7.87c-0.32-2.85-1.92-5.59-5.02-5.9c-1.23-0.12-2.55,0.24-3.46,1.1c-0.99,0.94-1.21,2.39-0.79,3.65
				c0.96,2.86,5.87,5.38,7.91,2.2C472.73,257.14,470.78,256.01,470,257.23L470,257.23z"/>
		</g>
	</g>
	<g>
		<g>
			<path d="M491.25,253.23c-0.11-0.01-0.23-0.02-0.34-0.03c-0.02,0-0.38-0.05-0.14-0.01c-0.21-0.03-0.42-0.06-0.62-0.09
				c-0.44-0.06-0.9-0.14-1.35-0.11c-1.11,0.08-1.97,0.64-2.57,1.56c-0.91,1.4-0.84,3.7,0.13,5.05c0.89,1.24,2.69,1.72,3.97,0.77
				c1.14-0.84,1.68-2.28,2.01-3.6c0.34-1.33,0.54-2.73,0.55-4.1c-0.74,0.1-1.47,0.2-2.21,0.3c0.49,1.33,1.06,2.63,1.53,3.97
				c0.24,0.68,0.46,1.37,0.62,2.07c0.17,0.73,0.23,1.11,0.21,1.87c-0.02,0.61,0.53,1.13,1.13,1.13c0.63,0,1.11-0.52,1.13-1.13
				c0.09-2.98-1.44-5.79-2.44-8.51c-0.19-0.52-0.65-0.89-1.23-0.81c-0.55,0.08-0.97,0.53-0.98,1.11c0,0.42-0.03,0.84-0.07,1.26
				c-0.01,0.11-0.02,0.22-0.04,0.33c-0.01,0.12-0.06,0.4-0.01,0.12c-0.04,0.3-0.09,0.59-0.15,0.89c-0.11,0.55-0.24,1.09-0.41,1.62
				c-0.04,0.13-0.09,0.26-0.13,0.38c-0.03,0.07-0.06,0.15-0.09,0.22c0.01-0.03,0.11-0.23,0.02-0.05c-0.12,0.24-0.23,0.48-0.38,0.71
				c-0.02,0.04-0.05,0.08-0.08,0.11c-0.11,0.19,0.14-0.12,0.03-0.04c-0.07,0.06-0.13,0.15-0.19,0.21c-0.01,0.01-0.12,0.13-0.14,0.12
				c-0.05-0.01,0.23-0.15,0.09-0.07c-0.05,0.03-0.1,0.06-0.15,0.09c-0.19,0.13,0.02-0.08,0.06-0.02c0.01,0.01-0.27,0.07-0.27,0.07
				c0.05-0.13,0.28,0,0.13-0.02c-0.05-0.01-0.13-0.01-0.18,0c-0.18,0.01,0.16-0.03,0.11,0.02c-0.02,0.01-0.17-0.04-0.19-0.05
				c-0.04-0.01-0.09-0.03-0.13-0.04c-0.21-0.06,0.17,0.11-0.01-0.01c-0.05-0.03-0.26-0.19-0.05-0.01c-0.04-0.04-0.08-0.07-0.12-0.11
				c-0.05-0.05-0.18-0.26-0.04-0.04c-0.03-0.05-0.06-0.1-0.09-0.15c-0.04-0.07-0.07-0.13-0.1-0.2c-0.08-0.16,0.07,0.25-0.01-0.03
				c-0.05-0.19-0.1-0.37-0.15-0.56c-0.01-0.05-0.03-0.22,0,0.01c-0.01-0.08-0.02-0.16-0.02-0.25c-0.01-0.15-0.01-0.3-0.01-0.44
				c0-0.1,0.01-0.19,0.02-0.29c-0.02,0.23-0.01,0.07,0,0.02c0.04-0.18,0.08-0.35,0.13-0.52c0.05-0.19,0,0-0.02,0.04
				c0.06-0.11,0.11-0.21,0.18-0.32c0.01-0.01,0.13-0.18,0.04-0.06c0.07-0.08,0.15-0.16,0.22-0.23c0.19-0.19-0.15,0.05,0.08-0.05
				c0.07-0.03,0.29-0.1,0.06-0.04c0.06-0.01,0.16-0.03,0.21-0.06c0.08-0.02,0.06-0.01-0.08,0.01c0.06-0.01,0.12-0.01,0.18-0.01
				c0.17-0.01,0.34,0,0.51,0.02c0.08,0.01,0.16,0.02,0.24,0.03c-0.26-0.03,0.08,0.01,0.1,0.02c0.5,0.07,0.99,0.15,1.49,0.19
				c0.61,0.04,1.13-0.55,1.13-1.13C492.38,253.71,491.86,253.27,491.25,253.23L491.25,253.23z"/>
		</g>
	</g>
	<g>
		<g>
			<path d="M496.14,254.19c0,1.69,0.86,3.91,2.75,4.22c1.01,0.16,2.16-0.14,2.84-0.95c0.6-0.72,0.83-1.61,0.85-2.54
				c0.02-0.86-0.13-1.73-0.28-2.58c-0.1-0.58-0.84-0.96-1.38-0.79c-0.62,0.2-0.9,0.76-0.79,1.38c0.05,0.28,0.1,0.55,0.14,0.83
				c0.04,0.29-0.04-0.29,0,0c0.01,0.07,0.02,0.14,0.02,0.21c0.02,0.17,0.03,0.33,0.04,0.5c0.01,0.15,0.01,0.3,0,0.45
				c0,0.08-0.01,0.16-0.01,0.23c0,0.06-0.04,0.37-0.01,0.13c0.03-0.23-0.01,0.04-0.02,0.1c-0.01,0.06-0.03,0.13-0.05,0.19
				c-0.02,0.07-0.04,0.14-0.07,0.21c-0.03,0.09-0.11,0.17,0.05-0.12c-0.02,0.03-0.03,0.07-0.05,0.11c-0.03,0.06-0.07,0.12-0.11,0.18
				c-0.14,0.21,0.15-0.17,0.04-0.04c-0.05,0.05-0.1,0.1-0.15,0.15c-0.07,0.07-0.17,0.09,0.1-0.07c-0.04,0.03-0.08,0.06-0.12,0.08
				c-0.06,0.04-0.12,0.06-0.18,0.1c-0.15,0.08,0.13-0.06,0.12-0.05c-0.02,0.02-0.1,0.04-0.13,0.04c-0.09,0.03-0.17,0.04-0.26,0.06
				c-0.1,0.02-0.13-0.03,0.13-0.02c-0.05,0-0.11,0.01-0.17,0.01c-0.07,0-0.14-0.01-0.21-0.01c0.34,0,0.16,0.03,0.03-0.01
				c-0.04-0.01-0.08-0.03-0.12-0.04c-0.09-0.03-0.09-0.09,0.13,0.06c-0.07-0.04-0.14-0.07-0.21-0.12c-0.21-0.14,0.16,0.14,0.03,0.03
				c-0.05-0.05-0.11-0.1-0.16-0.15c-0.08-0.09-0.19-0.28,0,0.02c-0.05-0.07-0.1-0.14-0.14-0.21c-0.05-0.07-0.09-0.15-0.13-0.23
				c-0.02-0.03-0.03-0.06-0.05-0.1c-0.09-0.19-0.02,0.02,0.03,0.07c-0.09-0.1-0.13-0.38-0.17-0.51c-0.02-0.09-0.04-0.17-0.06-0.26
				c-0.01-0.04-0.02-0.09-0.02-0.13c-0.05-0.23,0.02,0.22,0.01,0.09c-0.02-0.17-0.03-0.35-0.03-0.52c0-0.59-0.52-1.15-1.13-1.13
				C496.66,253.09,496.14,253.55,496.14,254.19L496.14,254.19z"/>
		</g>
	</g>
	<g>
		<g>
			<path d="M512.79,252.68c-0.37-2.18-3.7-3.94-5.68-2.95c-1.99,0.99-2.51,3.96-2.03,5.93c0.62,2.54,3.62,3.83,5.87,2.5
				c2.3-1.36,2.69-4.42,2.88-6.84c0.23-2.96,0.03-6.06-0.69-8.95c-0.35-1.41-2.52-0.81-2.17,0.6c0.47,1.9,0.66,3.85,0.69,5.8
				c0.03,1.96-0.07,3.98-0.69,5.86c-0.44,1.33-1.87,2.54-3.15,1.36c-0.53-0.49-0.63-0.99-0.64-1.71c0-0.68,0.12-1.4,0.46-2
				c0.38-0.66,0.68-0.73,1.4-0.45c0.66,0.25,1.48,0.8,1.59,1.45c0.1,0.6,0.84,0.94,1.38,0.79
				C512.64,253.89,512.89,253.28,512.79,252.68L512.79,252.68z"/>
		</g>
	</g>
	<g>
		<g>
			<path d="M519.02,259.69c0-1.72,0-3.44,0-5.16c0-0.59-0.52-1.15-1.13-1.13c-0.61,0.03-1.13,0.49-1.13,1.13c0,1.72,0,3.44,0,5.16
				c0,0.59,0.52,1.15,1.13,1.13C518.5,260.78,519.02,260.32,519.02,259.69L519.02,259.69z"/>
		</g>
	</g>
	<g>
		<g>
			<path d="M518.06,249.98c1.45,0,1.45-2.25,0-2.25C516.61,247.73,516.61,249.98,518.06,249.98L518.06,249.98z"/>
		</g>
	</g>
	<g>
		<g>
			<path d="M522.78,252.12c-0.17,1.42,0.4,2.94,1.72,3.63c1.21,0.64,2.63,0.55,3.83-0.03c1.33-0.64,2.13-1.97,2.24-3.42
				c0.06-0.79-0.12-1.62-0.41-2.35c-0.45-1.12-1.17-2.28-2.5-2.37c-1.02-0.07-1.91,0.64-2.6,1.31c-0.31,0.3-0.6,0.62-0.9,0.94
				c-0.14,0.15-0.29,0.3-0.44,0.44c-0.07,0.06-0.14,0.13-0.21,0.19c-0.02,0.02-0.05,0.04-0.07,0.06c-0.14,0.12,0.26-0.19,0.06-0.05
				c-0.48,0.34-0.75,1-0.4,1.54c0.31,0.48,1.02,0.76,1.54,0.4c0.6-0.42,1.07-0.95,1.57-1.48c0.25-0.26,0.49-0.52,0.76-0.75
				c0.06-0.05,0.12-0.1,0.18-0.15c0.11-0.09-0.25,0.17-0.08,0.07c0.03-0.02,0.05-0.04,0.08-0.06c0.13-0.09,0.27-0.16,0.41-0.23
				c-0.3,0.17-0.17,0.07-0.04,0.03c0.03-0.01,0.07-0.02,0.1-0.02c0.11-0.03,0.06,0.07-0.18,0.02c0.05,0.01,0.3,0.02,0.05-0.02
				c-0.26-0.04,0.04,0.03,0.09,0.04c-0.02,0-0.26-0.14-0.15-0.06c0.02,0.02,0.05,0.03,0.08,0.05c0.04,0.02,0.17,0.12,0,0
				c-0.17-0.13-0.03-0.02,0,0.01c0.04,0.04,0.21,0.26,0.1,0.1c-0.12-0.17,0.01,0.01,0.02,0.04c0.04,0.06,0.08,0.12,0.11,0.18
				c0.05,0.09,0.1,0.18,0.15,0.27c0.03,0.06,0.06,0.13,0.09,0.19c0.07,0.15-0.08-0.2,0-0.01c0.07,0.18,0.13,0.35,0.18,0.53
				c0.05,0.17,0.09,0.33,0.12,0.5c0.05,0.26-0.02-0.22,0-0.05c0.01,0.09,0.02,0.18,0.02,0.27c0.01,0.14,0,0.28-0.01,0.42
				c0,0.04-0.01,0.07-0.01,0.11c-0.01,0.16,0.02-0.17,0.02-0.17c0.01,0-0.04,0.22-0.04,0.23c-0.03,0.12-0.06,0.24-0.1,0.36
				c-0.01,0.02-0.02,0.08-0.04,0.09c-0.02,0.01,0.14-0.3,0.07-0.16c-0.03,0.06-0.06,0.12-0.09,0.18c-0.06,0.11-0.13,0.21-0.19,0.31
				c-0.12,0.17,0.2-0.24,0.05-0.06c-0.04,0.05-0.08,0.09-0.13,0.14c-0.08,0.08-0.16,0.16-0.25,0.23c-0.18,0.16,0.25-0.17,0.05-0.04
				c-0.05,0.03-0.1,0.07-0.15,0.1c-0.09,0.06-0.19,0.11-0.29,0.16c-0.01,0.01-0.16,0.08-0.17,0.08c-0.01-0.01,0.3-0.11,0.17-0.07
				c-0.03,0.01-0.07,0.03-0.1,0.04c-0.1,0.04-0.21,0.07-0.31,0.09c-0.14,0.03-0.57,0.06-0.09,0.03c-0.23,0.01-0.44,0.03-0.67,0.01
				c-0.23-0.02,0.31,0.05,0.11,0.02c-0.05-0.01-0.1-0.02-0.15-0.03c-0.11-0.02-0.22-0.06-0.33-0.09c-0.02-0.01-0.04-0.02-0.06-0.02
				c-0.15-0.04,0.28,0.14,0.14,0.06c-0.05-0.03-0.11-0.05-0.17-0.08c-0.05-0.03-0.11-0.06-0.16-0.1c-0.02-0.01-0.04-0.03-0.06-0.04
				c-0.13-0.07,0.23,0.2,0.12,0.09c-0.09-0.08-0.17-0.16-0.26-0.25c-0.18-0.19,0.16,0.24,0.04,0.05c-0.03-0.05-0.07-0.1-0.1-0.15
				c-0.03-0.06-0.06-0.12-0.09-0.18c-0.09-0.17,0.12,0.33,0.02,0.04c-0.04-0.13-0.07-0.25-0.1-0.38c-0.05-0.24,0.03,0.33,0,0.02
				c-0.01-0.08-0.01-0.16-0.01-0.25c0-0.18,0.01-0.36,0.03-0.54c0.07-0.59-0.57-1.15-1.13-1.13
				C523.24,251.03,522.86,251.49,522.78,252.12L522.78,252.12z"/>
		</g>
	</g>
	<g>
		<g>
			<path d="M436.75,280.57c0-1.63,0.17-3.26-0.03-4.89c-0.11-0.91-0.28-1.82-0.73-2.63c-0.5-0.92-1.46-1.69-2.48-1.93
				c-2.26-0.53-4.16,1.32-4.72,3.37c-0.41,1.48-0.67,3.66,0.81,4.66c0.91,0.61,2.21,0.43,3.11-0.1c0.48-0.29,0.89-0.68,1.3-1.06
				c0.09-0.08,0.17-0.16,0.26-0.23c0.05-0.05,0.29-0.22,0.12-0.1c0.11-0.07,0.22-0.14,0.33-0.21c0.01-0.01,0.16-0.08,0.04-0.03
				c-0.13,0.06,0.14-0.04,0.14-0.04c0.58-0.17,0.95-0.79,0.79-1.38c-0.16-0.58-0.8-0.96-1.38-0.79c-0.88,0.26-1.52,0.86-2.18,1.46
				c-0.12,0.11-0.25,0.22-0.37,0.33c0.19-0.15-0.06,0.04-0.09,0.06c-0.08,0.05-0.17,0.1-0.25,0.15c0.17-0.09,0.05-0.02,0,0
				c-0.1,0.03-0.2,0.05-0.29,0.08c-0.29,0.08,0.2,0.02-0.07,0.01c-0.01,0-0.24,0.01-0.24,0c-0.01-0.03,0.27,0.09,0.01-0.01
				c-0.23-0.09,0.23,0.13,0.03,0.01c-0.17-0.1,0.08,0.07,0.08,0.07c-0.01,0-0.13-0.12-0.13-0.13c0-0.01,0.14,0.25,0.04,0.02
				c-0.09-0.2,0.05,0.21,0.02,0.06c-0.03-0.14-0.13-0.3-0.11-0.44c-0.03,0.27,0.01,0.13,0.01,0.04c0-0.06-0.01-0.13-0.01-0.19
				c0-0.16,0-0.32,0.02-0.48c0-0.06,0.01-0.11,0.02-0.17c0.02-0.29-0.05,0.25,0-0.03c0.03-0.16,0.06-0.33,0.09-0.49
				c0.03-0.16,0.07-0.32,0.12-0.47c0.02-0.07,0.04-0.14,0.06-0.21c0.01-0.02,0.14-0.34,0.04-0.13c0.08-0.18,0.17-0.35,0.28-0.51
				c0.05-0.07,0.1-0.15,0.15-0.22c-0.13,0.18,0.12-0.14,0.15-0.17c0.06-0.06,0.12-0.12,0.18-0.17c0.04-0.04,0.22-0.16,0.04-0.04
				c0.08-0.06,0.16-0.11,0.25-0.16c0,0,0.28-0.14,0.12-0.07c-0.15,0.07,0.13-0.04,0.13-0.04c0.09-0.03,0.18-0.05,0.27-0.06
				c-0.27,0.05,0.02,0.01,0.08,0.01c0.07,0,0.33,0.05,0.09,0c0.37,0.08,0.53,0.15,0.78,0.37c0.12,0.11,0.24,0.23,0.35,0.35
				c-0.2-0.22-0.03-0.03,0.01,0.02c0.06,0.09,0.11,0.18,0.16,0.28c0.02,0.05,0.05,0.1,0.07,0.15c-0.12-0.26-0.01-0.01,0.01,0.05
				c0.05,0.15,0.1,0.31,0.14,0.47c0.04,0.17,0.08,0.33,0.11,0.5c0.02,0.09,0.03,0.19,0.05,0.28c-0.03-0.2,0,0,0.01,0.09
				c0.17,1.58,0.01,3.16,0.01,4.75c0,0.61,0.52,1.13,1.13,1.13C436.23,281.69,436.75,281.18,436.75,280.57L436.75,280.57z"/>
		</g>
	</g>
	<g>
		<g>
			<path d="M446.67,270.95c-1.01-1.18-2.49-2-4.08-1.68c-1.43,0.28-2.41,1.63-2.68,2.99c-0.15,0.72-0.17,1.43-0.03,2.15
				c0.11,0.57,0.34,1.13,0.59,1.66c0.27,0.56,0.61,1.07,1,1.55c0.33,0.41,0.75,0.81,1.23,1.05c0.72,0.36,1.5,0.42,2.23,0.04
				c0.78-0.41,1.2-1.24,1.52-2.02c0.22-0.55-0.24-1.26-0.79-1.38c-0.65-0.15-1.15,0.2-1.38,0.79c-0.08,0.19,0.1-0.22-0.01,0.02
				c-0.03,0.06-0.06,0.12-0.09,0.17c-0.06,0.12-0.15,0.23-0.21,0.35c-0.05,0.1,0.11-0.13,0.1-0.12c-0.02,0.02-0.04,0.05-0.06,0.08
				c-0.03,0.04-0.06,0.07-0.1,0.1c-0.03,0.03-0.07,0.06-0.1,0.09c0.19-0.23,0.18-0.13,0.06-0.06c-0.05,0.03-0.22,0.1,0,0.01
				c0.21-0.09,0.06-0.02,0.01-0.01c-0.01,0-0.12,0.02-0.12,0.03c0.01-0.05,0.36-0.01,0.14-0.03c-0.01,0-0.12-0.01-0.12-0.01
				c0.02-0.03,0.34,0.07,0.16,0.02c-0.04-0.01-0.07-0.02-0.11-0.03c-0.02-0.01-0.05-0.02-0.07-0.02c-0.14-0.04,0.18,0.06,0.16,0.07
				c-0.04,0.01-0.19-0.1-0.23-0.12c-0.04-0.03-0.08-0.06-0.12-0.08c-0.13-0.08,0.23,0.19,0.07,0.06c-0.16-0.14-0.31-0.28-0.45-0.44
				c-0.04-0.04-0.07-0.09-0.11-0.13c-0.13-0.16,0.09,0.13,0.05,0.07c-0.07-0.1-0.14-0.19-0.21-0.3c-0.13-0.2-0.25-0.4-0.36-0.61
				c-0.05-0.1-0.1-0.2-0.15-0.31c-0.03-0.06-0.05-0.11-0.08-0.17c-0.07-0.16,0.11,0.27,0.02,0.06c-0.08-0.21-0.15-0.41-0.21-0.63
				c-0.03-0.1-0.05-0.19-0.07-0.29c-0.01-0.05-0.02-0.1-0.03-0.15c-0.04-0.21,0.01,0.15,0.01,0.12c0.01-0.24-0.02-0.48,0-0.72
				c0.01-0.07,0.02-0.14,0.02-0.21c-0.03,0.34-0.01,0.09,0.01,0c0.03-0.15,0.06-0.29,0.11-0.43c0.02-0.07,0.05-0.13,0.07-0.2
				c0.06-0.18-0.11,0.22-0.02,0.05c0.06-0.12,0.12-0.23,0.19-0.34c0.03-0.05,0.06-0.09,0.09-0.13c0.09-0.14-0.18,0.21-0.03,0.04
				c0.08-0.09,0.16-0.17,0.25-0.25c0.16-0.15-0.19,0.12-0.05,0.04c0.04-0.02,0.08-0.05,0.12-0.08c0.04-0.02,0.08-0.05,0.13-0.07
				c0.02-0.01,0.06-0.02,0.09-0.04c-0.01,0.01-0.28,0.1-0.14,0.06c0.12-0.03,0.23-0.07,0.35-0.1c0.22-0.05-0.28,0.01-0.06,0.01
				c0.06,0,0.11-0.01,0.17-0.01c0.07,0,0.13,0.01,0.2,0.01c0.17,0.01-0.29-0.06-0.07-0.01c0.13,0.03,0.26,0.06,0.39,0.11
				c0.26,0.09-0.15-0.08-0.01-0.01c0.07,0.04,0.14,0.07,0.21,0.11c0.14,0.08,0.26,0.17,0.4,0.26c0.1,0.06-0.1-0.08-0.1-0.08
				c0.03,0.03,0.07,0.06,0.1,0.09c0.07,0.06,0.14,0.12,0.21,0.19c0.14,0.14,0.28,0.28,0.41,0.44c0.38,0.45,1.2,0.42,1.59,0
				C447.11,272.07,447.08,271.43,446.67,270.95L446.67,270.95z"/>
		</g>
	</g>
	<g>
		<g>
			<path d="M453.81,271.18c-1.33-0.29-2.68-0.08-3.52,1.07c-0.6,0.83-0.71,1.97-0.6,2.96c0.13,1.16,0.46,2.28,1.01,3.31
				c0.48,0.91,1.19,1.8,2.19,2.16c1.32,0.47,2.46-0.53,2.97-1.66c0.24-0.54,0.17-1.24-0.4-1.54c-0.49-0.26-1.28-0.17-1.54,0.4
				c-0.09,0.21-0.21,0.4-0.33,0.59c-0.11,0.17,0.2-0.22,0.06-0.08c-0.03,0.03-0.05,0.06-0.08,0.09c-0.03,0.03-0.06,0.06-0.09,0.09
				c-0.14,0.14,0.04-0.05,0.11-0.08c-0.05,0.02-0.14,0.07-0.18,0.11c-0.01,0.01,0.33-0.1,0.15-0.07c-0.03,0.01-0.08,0.01-0.11,0.03
				c-0.08,0.04,0.32-0.01,0.19-0.03c-0.03,0-0.06,0-0.09,0c-0.21,0.02,0.18,0,0.17,0.03c0,0-0.09-0.02-0.1-0.02
				c-0.03-0.01-0.07-0.02-0.1-0.03c-0.17-0.04,0.22,0.12,0.14,0.06c-0.06-0.04-0.14-0.07-0.2-0.11c-0.03-0.02-0.06-0.04-0.09-0.06
				c-0.15-0.09,0.24,0.21,0.11,0.08c-0.06-0.06-0.13-0.11-0.19-0.18c-0.06-0.06-0.12-0.12-0.18-0.19c-0.03-0.03-0.05-0.06-0.08-0.1
				c-0.12-0.14,0.19,0.26,0.05,0.07c-0.12-0.17-0.23-0.33-0.33-0.51c-0.11-0.19-0.21-0.38-0.3-0.57c-0.02-0.05-0.05-0.1-0.07-0.16
				c-0.07-0.15,0.12,0.3,0.04,0.09c-0.04-0.11-0.09-0.22-0.12-0.33c-0.15-0.43-0.27-0.87-0.35-1.32c-0.01-0.06-0.01-0.12-0.03-0.17
				c-0.01-0.04,0.04,0.33,0.01,0.11c-0.01-0.11-0.02-0.22-0.03-0.34c-0.01-0.21-0.02-0.43,0-0.64c0-0.05,0.01-0.09,0.01-0.14
				c0.02-0.21,0,0.06-0.02,0.13c0.02-0.09,0.03-0.19,0.05-0.29c0.02-0.09,0.05-0.18,0.08-0.27c0.02-0.05,0.09-0.21-0.01,0.01
				c-0.1,0.22-0.01,0.03,0.01-0.02c0.04-0.08,0.1-0.16,0.14-0.24c0.08-0.15-0.22,0.24-0.07,0.09c0.03-0.03,0.06-0.06,0.09-0.09
				c0.03-0.03,0.08-0.06,0.11-0.1c-0.03,0.03-0.27,0.18-0.08,0.07c0.04-0.02,0.09-0.05,0.13-0.07c0.17-0.1-0.12,0.04-0.12,0.04
				c0.1-0.01,0.21-0.07,0.31-0.09c0.23-0.06-0.19,0.01-0.09,0.01c0.05,0,0.11-0.01,0.16-0.01c0.13-0.01,0.26,0,0.39,0.01
				c0.25,0.02-0.23-0.04-0.06-0.01c0.08,0.02,0.17,0.03,0.25,0.05c0.57,0.12,1.24-0.17,1.38-0.79
				C454.73,272,454.43,271.31,453.81,271.18L453.81,271.18z"/>
		</g>
	</g>
	<g>
		<g>
			<path d="M464.6,277.54c-0.34,0.03-0.67,0.04-1.01,0.02c-0.08,0-0.17-0.02-0.25-0.02c-0.19-0.01,0.26,0.05-0.04-0.01
				c-0.19-0.04-0.38-0.07-0.57-0.13c-0.15-0.04-0.31-0.1-0.46-0.15c0.04,0.02,0.2,0.09,0.01,0c-0.07-0.03-0.14-0.07-0.21-0.11
				c-0.14-0.07-0.27-0.16-0.41-0.25c-0.05-0.03-0.21-0.16-0.04-0.02c-0.07-0.06-0.15-0.12-0.22-0.19c-0.12-0.11-0.22-0.23-0.33-0.35
				c-0.2-0.23,0.07,0.11-0.03-0.04c-0.05-0.07-0.09-0.14-0.14-0.21c-0.09-0.14-0.17-0.29-0.24-0.45c0.08,0.17,0.01,0.01-0.01-0.02
				c-0.03-0.1-0.07-0.19-0.09-0.29c-0.03-0.11-0.04-0.23-0.07-0.35c-0.05-0.16,0.02,0.28,0.01,0.02c0-0.05-0.01-0.11-0.01-0.16
				c-0.01-0.13-0.01-0.27,0-0.4c0-0.08,0.01-0.16,0.02-0.24c-0.02,0.18-0.02,0.12,0.01-0.02c0.03-0.13,0.06-0.26,0.1-0.39
				c0.02-0.05,0.04-0.1,0.05-0.15c0.08-0.26-0.11,0.21,0.01-0.03c0.06-0.12,0.12-0.24,0.19-0.35c0.03-0.04,0.06-0.09,0.09-0.13
				c0.12-0.18-0.16,0.15,0.05-0.05c0.09-0.08,0.17-0.16,0.26-0.24c-0.22,0.2,0.08-0.04,0.17-0.09c0.06-0.03,0.3-0.11,0.03-0.02
				c0.05-0.02,0.1-0.04,0.16-0.05c0.08-0.03,0.17-0.04,0.25-0.06c0.23-0.06-0.21,0,0.06-0.01c0.17,0,0.33-0.01,0.49,0.01
				c-0.27-0.02,0.14,0.05,0.22,0.08c-0.04-0.01-0.2-0.11-0.04-0.01c0.06,0.04,0.25,0.19,0.03,0c0.04,0.03,0.07,0.07,0.11,0.1
				c0.17,0.14-0.09-0.17,0.01,0c0.04,0.07,0.07,0.13,0.11,0.2c-0.02-0.04-0.07-0.23-0.03-0.05c0.02,0.08,0.04,0.15,0.05,0.23
				c-0.01-0.05-0.01-0.25-0.02-0.05c0,0.06-0.02,0.16,0,0.21c0.03,0.14,0.06-0.24,0,0.01c-0.02,0.08-0.03,0.15-0.06,0.23
				c-0.01,0.05-0.14,0.37-0.04,0.15c-0.07,0.16-0.18,0.31-0.26,0.46c-0.08,0.15,0.17-0.18-0.03,0.04c-0.06,0.07-0.13,0.14-0.19,0.21
				c-0.14,0.14-0.28,0.27-0.44,0.39c0.16-0.13,0.03-0.02-0.01,0c-0.11,0.07-0.22,0.15-0.33,0.22c-0.62,0.4-1.29,0.72-1.93,1.1
				c-0.51,0.3-0.74,1.03-0.4,1.54c0.33,0.51,1,0.73,1.54,0.4c1.47-0.87,3.23-1.59,3.99-3.24c0.44-0.94,0.56-1.98,0.13-2.94
				c-0.35-0.77-1.11-1.32-1.93-1.49c-1.92-0.38-3.63,0.69-4.33,2.46c-0.59,1.49-0.36,3.29,0.57,4.59c1.24,1.75,3.38,2.51,5.47,2.31
				c0.58-0.06,1.15-0.48,1.13-1.13C465.7,278.1,465.22,277.47,464.6,277.54L464.6,277.54z"/>
		</g>
	</g>
	<g>
		<g>
			<path d="M470.55,281.14c1.04,0.22,2.25,0.12,2.77-0.95c0.45-0.92,0.15-1.97-0.27-2.84c-0.37-0.78-0.94-1.49-1.69-1.94
				c-0.41-0.25-0.86-0.42-1.27-0.67c-0.05-0.03-0.35-0.25-0.15-0.08c-0.08-0.06-0.14-0.15-0.22-0.21c-0.12-0.09,0.13,0.14,0.03,0.03
				c-0.03-0.03-0.04-0.07-0.06-0.11c0.11,0.18,0.05,0.11,0.03,0.03c0.07,0.23-0.01,0.08,0.01-0.01c0.03-0.13,0.03,0.16,0,0.04
				c-0.03-0.08,0.08-0.19-0.01-0.02c0.03-0.05,0.06-0.11,0.09-0.16c0.09-0.18-0.06,0.05,0.02-0.04c0.1-0.11,0.21-0.21,0.31-0.32
				c0.01-0.01,0.14-0.12,0.04-0.04c-0.1,0.08,0.12-0.08,0.14-0.1c0.25-0.17,0.52-0.33,0.8-0.46c0.11-0.06,0.23-0.11,0.35-0.16
				c-0.25,0.11,0.14-0.05,0.19-0.07c0.57-0.21,0.96-0.76,0.79-1.38c-0.15-0.55-0.81-1-1.38-0.79c-1.02,0.38-2.1,0.89-2.83,1.73
				c-0.89,1.03-1.05,2.52-0.01,3.52c0.38,0.37,0.85,0.62,1.32,0.86c0.19,0.1,0.39,0.19,0.57,0.29c0.1,0.06,0.19,0.12,0.29,0.18
				c0.18,0.11-0.17-0.18,0.02,0.02c0.06,0.06,0.12,0.12,0.18,0.18c0.03,0.03,0.2,0.24,0.09,0.1c-0.11-0.14,0.05,0.07,0.08,0.12
				c0.06,0.09,0.12,0.18,0.17,0.28c0.04,0.07,0.08,0.15,0.12,0.23c0.02,0.05,0.14,0.29,0.07,0.13c-0.07-0.17,0.03,0.09,0.05,0.14
				c0.03,0.1,0.06,0.2,0.09,0.3c0.01,0.04,0.02,0.09,0.03,0.13c0.05,0.21-0.02-0.08-0.01-0.08c0.02,0,0.01,0.22,0.01,0.24
				c0.02,0.15,0.09-0.26,0-0.03c-0.06,0.16,0.06-0.12,0.06-0.12c-0.03,0.06-0.12,0.14,0.01,0.01c0.14-0.13,0.04-0.05,0.01-0.02
				c-0.08,0.08,0.25-0.17,0.08-0.07c-0.09,0.06,0.25-0.05,0-0.01c0.26-0.04,0.09-0.01-0.06-0.01c-0.06,0-0.11-0.01-0.17-0.01
				c0.21,0.02,0.03,0-0.08-0.02c-0.59-0.13-1.22,0.18-1.38,0.79C469.61,280.31,469.96,281.01,470.55,281.14L470.55,281.14z"/>
		</g>
	</g>
	<g>
		<g>
			<path d="M479.98,280.8c1.51-0.1,2.32-1.23,2.49-2.66c0.13-1.1-0.07-2.38-0.95-3.14c-0.8-0.68-1.92-0.93-2.9-1.24
				c-0.24-0.08-0.48-0.14-0.72-0.22c-0.1-0.03-0.2-0.07-0.3-0.11c0.2,0.08-0.11-0.07-0.17-0.1c-0.19-0.1,0.14,0.03-0.04-0.05
				c0.04,0.02,0.15,0.1,0.03,0.02c0.02,0.01,0.06,0.19,0.03,0.06c-0.03-0.12,0,0.04,0,0.05c-0.01-0.05-0.01-0.11,0-0.17
				c0.01-0.19-0.03,0.14,0-0.08c0.01-0.08,0.03-0.16,0.06-0.24c0.04-0.12,0-0.03-0.01,0c0.03-0.07,0.07-0.14,0.11-0.2
				c0.01-0.01,0.11-0.18,0.03-0.06c0.05-0.06,0.11-0.12,0.16-0.18c0.23-0.24,0.35-0.33,0.6-0.49c0.56-0.36,0.92-0.5,1.54-0.68
				c1.39-0.41,0.8-2.58-0.6-2.17c-1.12,0.33-2.26,0.87-3.09,1.71c-0.89,0.91-1.42,2.4-0.77,3.6c0.56,1.02,1.78,1.23,2.78,1.57
				c0.47,0.16,0.94,0.3,1.41,0.47c0.12,0.05-0.03-0.01-0.04-0.02c0.06,0.03,0.11,0.05,0.17,0.08c0.08,0.04,0.15,0.09,0.23,0.13
				c0.18,0.1-0.11-0.1,0.04,0.04c0.04,0.04,0.12,0.16-0.01-0.03c0.03,0.05,0.06,0.1,0.1,0.15c0.01,0.02,0.07,0.16,0.02,0.04
				c-0.05-0.12,0.02,0.08,0.03,0.11c0.01,0.05,0.03,0.11,0.04,0.16c0.03,0.17,0.01,0.01,0.02,0.13c0.02,0.21,0.01,0.64-0.01,0.72
				c-0.03,0.19-0.07,0.35-0.17,0.5c-0.01,0.01-0.1,0.15-0.03,0.05c0.04-0.06,0.03-0.05-0.05,0.03c0.02-0.02,0.04-0.04,0.06-0.06
				c-0.1,0.01-0.04,0.07-0.06,0.03c0.05-0.02,0.05-0.03-0.02-0.01c-0.07,0.02-0.07,0.02,0,0c-0.61,0.04-1.13,0.49-1.13,1.13
				C478.86,280.25,479.37,280.84,479.98,280.8L479.98,280.8z"/>
		</g>
	</g>
	<g>
		<g>
			<path d="M487.27,281.94c0-2.12,0.22-4.24,0.17-6.36c-0.01-0.59-0.51-1.15-1.13-1.13c-0.6,0.03-1.14,0.49-1.13,1.13
				c0.05,2.12-0.17,4.24-0.17,6.36c0,0.59,0.52,1.15,1.13,1.13C486.76,283.04,487.27,282.57,487.27,281.94L487.27,281.94z"/>
		</g>
	</g>
	<g>
		<g>
			<path d="M486.46,270.33c1.45,0,1.45-2.25,0-2.25C485.01,268.08,485,270.33,486.46,270.33L486.46,270.33z"/>
		</g>
	</g>
	<g>
		<g>
			<path d="M491.21,269.22c0.01,2.93,0.18,5.96,0.83,8.82c0.28,1.25,0.79,3.13,2.23,3.5c2.06,0.53,3.36-2.06,3.5-3.7
				c0.24-2.73-1.98-5.52-4.88-4.55c-1.37,0.46-0.78,2.63,0.6,2.17c0.12-0.04,0.23-0.07,0.35-0.1c0.34-0.08-0.18-0.01,0.14-0.02
				c0.1,0,0.21,0,0.31,0c-0.26-0.02,0.05,0.02,0.09,0.03s0.32,0.13,0.09,0.02c0.09,0.04,0.17,0.09,0.25,0.14
				c0.25,0.16-0.14-0.15,0.07,0.06c0.09,0.09,0.19,0.18,0.27,0.28c-0.15-0.19,0.04,0.07,0.05,0.1c0.05,0.09,0.1,0.18,0.15,0.27
				c0.15,0.29-0.06-0.2,0.05,0.11c0.04,0.1,0.07,0.2,0.1,0.3c0.03,0.1,0.05,0.21,0.07,0.31c0.07,0.34-0.01-0.22,0.02,0.13
				c0.02,0.25,0.02,0.5,0,0.76c-0.03,0.34,0.05-0.21-0.02,0.13c-0.02,0.11-0.05,0.21-0.08,0.31c-0.03,0.1-0.06,0.2-0.1,0.3
				c0.09-0.21-0.06,0.1-0.07,0.12c-0.03,0.06-0.07,0.12-0.11,0.18c-0.17,0.28,0.11-0.11-0.06,0.09c-0.1,0.12-0.25,0.23-0.34,0.35
				c-0.12,0.16,0.21-0.09,0.04-0.03c-0.04,0.01-0.1,0.06-0.13,0.08c-0.2,0.15,0.26-0.05-0.03,0c0.4-0.07,0.23-0.02,0.14-0.02
				c-0.18-0.01,0.32,0.06,0.15,0.02c-0.29-0.06,0.24,0.14-0.02-0.02c0.37,0.23,0.08,0.02,0-0.03c-0.15-0.09,0.14,0.24,0.05,0.07
				c-0.02-0.05-0.06-0.09-0.09-0.13c-0.06-0.1-0.11-0.2-0.17-0.31c-0.03-0.06-0.05-0.12-0.08-0.17c0.16,0.32,0.02,0.03-0.01-0.04
				c-0.21-0.6-0.37-1.23-0.49-1.86c-0.07-0.36-0.13-0.72-0.18-1.08c-0.01-0.09-0.03-0.19-0.04-0.28c-0.04-0.31,0.03,0.24-0.01-0.08
				c-0.03-0.22-0.05-0.44-0.08-0.66c-0.08-0.74-0.14-1.48-0.19-2.22c-0.07-1.12-0.13-2.24-0.13-3.36
				C493.46,267.77,491.21,267.77,491.21,269.22L491.21,269.22z"/>
		</g>
	</g>
	<g>
		<g>
			<path d="M499.47,264.9c0.01,2.03,0.21,4.08,0.48,6.09c0.18,1.41,0.4,2.83,0.78,4.21c0.29,1.06,0.67,2.22,1.44,3.04
				c0.98,1.04,2.28,0.9,3.32,0.06c0.48-0.38,0.4-1.2,0-1.59c-0.47-0.47-1.12-0.38-1.59,0c0.29-0.23-0.05,0.01-0.07,0.03
				c-0.01,0.02-0.1,0.05-0.11,0.06c0.03-0.02,0.26-0.07,0.1-0.05c-0.24,0.03,0.12,0.01,0.06,0.01c-0.31-0.02,0.18,0.06,0.02,0.02
				c-0.24-0.07,0.15,0.1,0.03,0.02c-0.04-0.03-0.23-0.15-0.07-0.03c0.17,0.13-0.05-0.06-0.08-0.09c-0.02-0.02-0.04-0.05-0.06-0.07
				c-0.16-0.16,0.14,0.21,0.01,0.02c-0.1-0.16-0.2-0.32-0.29-0.48c-0.04-0.09-0.08-0.17-0.12-0.26c-0.09-0.19,0-0.01,0.01,0.03
				c-0.03-0.08-0.07-0.17-0.1-0.25c-0.18-0.49-0.33-1-0.45-1.51c-0.58-2.37-0.78-4.48-0.95-6.94c-0.05-0.76-0.1-1.53-0.11-2.3
				C501.71,263.46,499.46,263.45,499.47,264.9L499.47,264.9z"/>
		</g>
	</g>
	<g>
		<g>
			<path d="M513.96,275.06c-0.09,0-0.18-0.01-0.28-0.02c-0.22-0.01,0.15,0.04-0.06-0.01c-0.19-0.04-0.37-0.08-0.55-0.14
				c-0.08-0.03-0.16-0.06-0.24-0.09c-0.12-0.04,0.06,0.03,0.07,0.03c-0.05-0.02-0.1-0.05-0.15-0.07c-0.16-0.09-0.33-0.18-0.48-0.28
				c-0.03-0.02-0.24-0.17-0.13-0.09c0.11,0.09-0.09-0.07-0.12-0.1c-0.14-0.12-0.28-0.25-0.4-0.39c-0.06-0.06-0.12-0.13-0.17-0.19
				c-0.06-0.07-0.16-0.2-0.04-0.04c-0.11-0.15-0.22-0.31-0.32-0.47c-0.1-0.16-0.2-0.33-0.28-0.5c-0.04-0.08-0.08-0.16-0.12-0.24
				c-0.02-0.04-0.04-0.08-0.05-0.12c-0.07-0.15,0.07,0.18,0.01,0.02c-0.13-0.35-0.25-0.7-0.33-1.06c-0.04-0.17-0.07-0.34-0.1-0.52
				c-0.04-0.22,0.01,0.18-0.01-0.05c-0.01-0.1-0.02-0.2-0.03-0.3c-0.02-0.36-0.01-0.72,0.02-1.09c0-0.07-0.04,0.21,0-0.02
				c0.02-0.08,0.03-0.16,0.04-0.23c0.04-0.16,0.08-0.33,0.13-0.49c0.02-0.07,0.05-0.14,0.08-0.21c-0.06,0.17-0.06,0.12,0.01,0
				c0.07-0.14,0.16-0.27,0.24-0.41c0.12-0.21-0.11,0.09,0.02-0.03c0.05-0.05,0.09-0.11,0.14-0.16c0.05-0.05,0.11-0.09,0.16-0.15
				c0.11-0.12-0.18,0.1,0.03-0.02c0.13-0.07,0.25-0.14,0.38-0.21c0.05-0.03-0.2,0.06,0.01,0c0.09-0.02,0.17-0.05,0.26-0.08
				c0.08-0.02,0.16-0.03,0.24-0.05c-0.19,0.04-0.09,0.01,0.04,0c0.2-0.01,0.39-0.01,0.59,0c0.06,0,0.11,0.01,0.17,0.02
				c-0.17-0.02,0.02,0,0.04,0.01c0.1,0.02,0.2,0.04,0.3,0.07c0.11,0.03,0.25,0.1,0.06,0.01c0.08,0.04,0.15,0.09,0.23,0.13
				c0.07,0.04-0.19-0.15-0.03,0c0.05,0.04-0.14-0.21-0.04-0.03c0.03,0.06-0.08-0.25-0.03-0.05c0,0,0-0.25-0.02-0.03
				c-0.02,0.19,0.08-0.23,0.01-0.04c-0.02,0.06-0.05,0.14-0.06,0.2c-0.03,0.18,0.1-0.16,0,0.01c-0.05,0.08-0.08,0.17-0.13,0.25
				c-0.06,0.1-0.12,0.2-0.18,0.29c-0.04,0.06-0.2,0.27-0.07,0.1c-0.14,0.18-0.29,0.34-0.45,0.51c-0.16,0.17-0.34,0.33-0.51,0.49
				c-0.09,0.08-0.18,0.16-0.27,0.23c-0.04,0.03-0.08,0.06-0.12,0.1c0.09-0.07,0.05-0.04-0.02,0.01c-0.38,0.28-0.77,0.54-1.19,0.75
				c-0.09,0.05-0.18,0.09-0.28,0.13c0.2-0.1,0.02-0.01-0.07,0.02c-0.17,0.06-0.34,0.11-0.52,0.14c-0.6,0.1-0.94,0.84-0.79,1.38
				c0.17,0.64,0.78,0.89,1.38,0.79c0.91-0.15,1.79-0.68,2.52-1.21c0.9-0.66,1.73-1.41,2.36-2.34c0.55-0.81,0.89-1.89,0.42-2.81
				c-0.54-1.05-1.82-1.34-2.9-1.38c-1.99-0.06-3.59,1.17-4.19,3.04c-0.58,1.81-0.21,3.86,0.58,5.55c0.97,2.06,2.89,3.59,5.21,3.67
				C515.41,277.36,515.41,275.11,513.96,275.06L513.96,275.06z"/>
		</g>
	</g>
</g>
<g>
	<g>
		<g>
			<path d="M163.21,57.62c0-3.83,0-7.67,0-11.5c0-1.42-2.2-1.42-2.2,0c0,3.83,0,7.67,0,11.5C161.01,59.03,163.21,59.04,163.21,57.62
				L163.21,57.62z"/>
		</g>
	</g>
	<g>
		<g>
			<path d="M171.71,57.12c0.18-3.03-1.27-6.28-0.04-9.21c0.23-0.55-0.25-1.21-0.77-1.35c-0.64-0.17-1.12,0.22-1.35,0.77
				c-1.33,3.16,0.15,6.54-0.04,9.79c-0.03,0.59,0.53,1.1,1.1,1.1C171.24,58.22,171.68,57.71,171.71,57.12L171.71,57.12z"/>
		</g>
	</g>
	<g>
		<g>
			<path d="M162.32,47.68c2.51,0.65,5.11,1.47,7.73,1.34c2.54-0.13,4.94-1.16,7-2.63c3.43-2.46,5.8-6.08,7.04-10.08
				c2.45-7.89,0.66-17.56-5.86-23.01c-4.99-4.17-11.82-6.5-17.65-2.55c-5.19,3.52-7.76,9.97-8.4,16c-0.79,7.46,1.64,15.3,7.88,19.82
				c1.15,0.83,2.25-1.08,1.11-1.9c-9.24-6.7-9.03-22.69-1.3-30.48c1.67-1.68,3.8-2.95,6.18-3.27c2.79-0.37,5.54,0.56,7.9,1.99
				c3.21,1.93,5.78,4.61,7.3,8.05c1.54,3.48,2,7.46,1.5,11.23c-0.54,4.12-2.3,8.17-5.33,11.06c-1.81,1.72-4.17,3.17-6.67,3.51
				c-2.65,0.36-5.31-0.54-7.84-1.2C161.53,45.2,160.95,47.32,162.32,47.68L162.32,47.68z"/>
		</g>
	</g>
	<g>
		<g>
			<path d="M163.51,32.62c-0.31,2.96,0.25,6.66,2.98,8.38c1,0.63,2.26,0.84,3.4,0.51c1.27-0.37,2.28-1.32,2.95-2.44
				c1.06-1.77,1.36-3.93,1.37-5.95c0.01-1.42-2.19-1.42-2.2,0c0,0.48-0.02,0.96-0.07,1.44c-0.01,0.09-0.02,0.19-0.03,0.28
				c-0.01,0.05-0.04,0.29-0.01,0.09c-0.03,0.24-0.08,0.48-0.12,0.72c-0.07,0.34-0.16,0.69-0.26,1.02c-0.05,0.17-0.11,0.34-0.18,0.5
				c-0.02,0.05-0.14,0.31-0.02,0.05c-0.03,0.07-0.07,0.15-0.1,0.22c-0.13,0.28-0.28,0.54-0.46,0.8c-0.05,0.07-0.29,0.37-0.08,0.12
				c-0.1,0.12-0.2,0.24-0.31,0.35c-0.08,0.08-0.15,0.15-0.23,0.22c-0.05,0.04-0.1,0.08-0.14,0.12c0.24-0.21,0.09-0.07,0.03-0.03
				c-0.1,0.06-0.2,0.13-0.3,0.19c-0.1,0.06-0.39,0.28-0.1,0.06c-0.15,0.11-0.41,0.13-0.58,0.17c-0.18,0.05-0.03,0.07,0.08-0.01
				c-0.03,0.02-0.13,0.01-0.16,0.01c-0.13,0-0.25,0-0.38,0c-0.04,0-0.09-0.01-0.13-0.01c-0.13,0.01,0.3,0.07,0.11,0.01
				c-0.1-0.03-0.21-0.04-0.32-0.07c-0.08-0.02-0.26-0.05-0.31-0.11c0,0,0.27,0.14,0.11,0.05c-0.07-0.04-0.14-0.06-0.2-0.1
				c-0.1-0.05-0.2-0.11-0.3-0.18c-0.09-0.06-0.3-0.27-0.07-0.04c-0.19-0.19-0.41-0.36-0.59-0.57c-0.03-0.03-0.06-0.07-0.08-0.1
				c-0.16-0.18,0.14,0.21,0.01,0.01c-0.07-0.12-0.16-0.23-0.23-0.35c-0.16-0.25-0.29-0.52-0.41-0.79c0.12,0.27,0.01,0.03-0.01-0.03
				c-0.04-0.1-0.07-0.2-0.11-0.3c-0.05-0.16-0.1-0.32-0.14-0.48c-0.05-0.2-0.1-0.4-0.14-0.6c-0.01-0.07-0.03-0.15-0.04-0.22
				c-0.01-0.05-0.05-0.39-0.02-0.12c-0.11-0.95-0.1-1.89,0-2.84c0.06-0.59-0.55-1.1-1.1-1.1C163.96,31.52,163.57,32.02,163.51,32.62
				L163.51,32.62z"/>
		</g>
	</g>
	<g>
		<g>
			<path d="M154.05,19.2c-0.01,1.88-0.25,3.82,0.21,5.67c0.22,0.87,0.67,1.75,1.48,2.2c0.97,0.54,2.1,0.34,3.07-0.08
				c1.87-0.8,3.14-2.34,3.95-4.18c0.84-1.89,1.3-3.98,0.96-6.04c-0.38-2.37-2.17-3.9-4.54-4.05c-1.41-0.09-1.41,2.11,0,2.2
				c0.26,0.02,0.21,0,0.51,0.07c0.17,0.04,0.34,0.09,0.5,0.15c-0.18-0.07,0.21,0.11,0.27,0.15c0.08,0.05,0.16,0.1,0.24,0.16
				c-0.15-0.11,0.01,0.01,0.06,0.07c0.05,0.05,0.34,0.38,0.19,0.19c0.11,0.15,0.2,0.31,0.29,0.47c0.03,0.05,0.06,0.11,0.08,0.17
				c-0.11-0.23,0.02,0.06,0.03,0.09c0.06,0.19,0.12,0.37,0.16,0.57c0.02,0.07,0.09,0.52,0.06,0.31c0.02,0.17,0.03,0.35,0.04,0.53
				c0.02,0.44-0.01,0.88-0.06,1.32c0.02-0.15-0.05,0.3-0.07,0.38c-0.04,0.19-0.08,0.38-0.12,0.56c-0.11,0.43-0.24,0.86-0.4,1.27
				c-0.11,0.29-0.23,0.56-0.42,0.94c-0.18,0.36-0.39,0.7-0.62,1.03c-0.28,0.4-0.85,1-1.23,1.23c-0.4,0.25-0.79,0.44-1.23,0.56
				c-0.07,0.02-0.14,0.04-0.22,0.05c-0.32,0.07,0.2,0.01-0.11,0.01c-0.06,0-0.12,0-0.18,0c-0.17,0,0.15,0.08-0.12-0.03
				c-0.24-0.1,0.17,0.06,0.01,0.01c-0.05-0.02-0.13-0.06-0.16-0.1c0.28,0.28-0.2-0.28,0.02,0.02c-0.1-0.13-0.18-0.28-0.25-0.43
				c0.11,0.23-0.07-0.25-0.1-0.34c-0.2-0.75-0.21-1.48-0.21-2.42c0-0.91,0.05-1.81,0.06-2.71C156.26,17.79,154.06,17.78,154.05,19.2
				L154.05,19.2z"/>
		</g>
	</g>
	<g>
		<g>
			<path d="M175.09,12.72c-2.39,1.84-2.81,5.24-2.35,8.05c0.23,1.38,0.76,2.75,1.68,3.81c1.12,1.29,2.78,1.59,4.41,1.34
				c1.02-0.15,1.93-0.6,2.55-1.44c0.5-0.69,0.59-1.63,1.18-2.25c0.97-1.03-0.58-2.59-1.56-1.56c-0.55,0.58-0.8,1.24-1.11,1.97
				c-0.08,0.19-0.19,0.44-0.32,0.61c-0.16,0.2-0.37,0.31-0.51,0.36c-0.57,0.2-1.22,0.25-1.81,0.16c-0.21-0.03-0.46-0.11-0.59-0.17
				c-0.07-0.04-0.29-0.19-0.25-0.16c0.04,0.03-0.17-0.16-0.24-0.23c-0.09-0.09-0.17-0.18-0.25-0.28c0.1,0.12-0.06-0.09-0.09-0.13
				c-0.16-0.24-0.29-0.48-0.42-0.74c-0.16-0.32-0.35-0.96-0.46-1.46c-0.21-0.98-0.23-2.3-0.05-3.27c0.06-0.32,0.14-0.64,0.24-0.95
				c0.1-0.33,0.12-0.39,0.25-0.65c0.1-0.21,0.33-0.59,0.4-0.68c-0.07,0.09,0.06-0.07,0.08-0.09c0.05-0.05,0.09-0.1,0.14-0.15
				c0.06-0.06,0.34-0.31,0.19-0.2c0.47-0.36,0.72-0.95,0.39-1.51C176.32,12.65,175.56,12.35,175.09,12.72L175.09,12.72z"/>
		</g>
	</g>
	<g>
		<g>
			<path d="M168.32,28.23c1.42,0,1.42-2.2,0-2.2C166.9,26.03,166.9,28.23,168.32,28.23L168.32,28.23z"/>
		</g>
	</g>
	<g>
		<g>
			<path d="M164.73,9.43c-1.57-0.01-3.34-0.03-4.71-0.91c-1.35-0.86-1.95-2.52-2.41-3.97c-0.45,0.45-0.9,0.9-1.35,1.35
				c1.9,0.47,3.7,2.73,5.98,2.26c1.24-0.26,1.83-1.37,1.63-2.56c-0.25-1.46-1.11-2.53-0.45-3.95c-0.58,0.07-1.15,0.15-1.73,0.22
				c0.54,0.69,1.11,1.95,1.66,2.83c0.67,1.07,1.47,2.23,2.61,2.84c1.12,0.6,2.68,0.56,3.55-0.47c0.45-0.53,0.55-1.21,0.53-1.88
				c-0.02-0.58-0.22-1.24,0.15-1.75c-0.58,0.07-1.15,0.15-1.73,0.22c1.45,1.31,1.62,3.5,2.66,5.1c0.49,0.76,1.11,1.26,1.8,1.83
				c0.09,0.07,0.19,0.15,0.27,0.23c-0.13-0.14,0,0.11-0.03-0.05c0.08,0.37,0.05,0.83,0.06,1.23c0.01,1.42,2.21,1.42,2.2,0
				c-0.01-0.81,0.05-1.73-0.43-2.44c-0.47-0.7-1.32-1.04-1.83-1.73c-1.33-1.78-1.41-4.18-3.13-5.73c-0.57-0.51-1.3-0.36-1.73,0.22
				c-0.34,0.46-0.48,1.02-0.51,1.59c-0.02,0.48,0.21,1.17,0.06,1.63c-0.17,0.51-1.04-0.05-1.35-0.35c-1.43-1.36-2.04-3.36-3.24-4.9
				c-0.42-0.53-1.45-0.37-1.73,0.22c-0.6,1.28-0.7,2.57-0.27,3.91c0.17,0.54,0.29,1.13,0.49,1.66c-0.04-0.11,0.2,0-0.05-0.09
				c-0.85-0.3-1.63-0.58-2.45-1.04c-0.76-0.43-1.54-0.98-2.39-1.19c-0.78-0.19-1.61,0.53-1.35,1.35c0.63,1.98,1.5,4,3.28,5.2
				c1.73,1.16,3.94,1.28,5.96,1.29C166.14,11.64,166.14,9.44,164.73,9.43L164.73,9.43z"/>
		</g>
	</g>
	<g>
		<g>
			<path d="M180.44,21.99c-0.04-0.04-0.07-0.08-0.11-0.13c0.06,0.07,0.11,0.15,0.17,0.22c-0.11-0.14-0.19-0.29-0.26-0.46
				c0.04,0.09,0.07,0.18,0.11,0.26c-0.09-0.22-0.15-0.45-0.18-0.68c0.01,0.1,0.03,0.2,0.04,0.29c-0.03-0.26-0.04-0.52,0-0.78
				c-0.01,0.1-0.03,0.2-0.04,0.29c0.02-0.18,0.07-0.35,0.14-0.52c-0.04,0.09-0.07,0.18-0.11,0.26c0.04-0.09,0.09-0.18,0.15-0.26
				c-0.06,0.07-0.11,0.15-0.17,0.22c0.04-0.05,0.09-0.1,0.14-0.14c-0.07,0.06-0.15,0.11-0.22,0.17c0.03-0.03,0.07-0.05,0.11-0.07
				c-0.09,0.04-0.18,0.07-0.26,0.11c0.04-0.02,0.08-0.03,0.12-0.03c-0.1,0.01-0.2,0.03-0.29,0.04c0.04-0.01,0.09-0.01,0.13,0
				c-0.1-0.01-0.2-0.03-0.29-0.04c0.05,0.01,0.11,0.02,0.16,0.04c-0.09-0.04-0.18-0.07-0.26-0.11c0.08,0.03,0.15,0.08,0.22,0.13
				c-0.07-0.06-0.15-0.11-0.22-0.17c0.13,0.1,0.25,0.23,0.35,0.36c-0.06-0.07-0.11-0.15-0.17-0.22c0.04,0.05,0.08,0.11,0.12,0.16
				c0.17,0.24,0.37,0.43,0.66,0.51c0.26,0.07,0.61,0.04,0.85-0.11c0.23-0.15,0.44-0.38,0.51-0.66c0.06-0.28,0.06-0.61-0.11-0.85
				c-0.36-0.51-0.8-1.01-1.42-1.18c-0.57-0.16-1.23,0.02-1.62,0.47c-0.31,0.36-0.51,0.79-0.59,1.26c-0.09,0.55-0.08,1.05,0.03,1.6
				c0.12,0.58,0.4,1.13,0.81,1.56c0.39,0.42,1.16,0.43,1.56,0C180.85,23.09,180.86,22.44,180.44,21.99L180.44,21.99z"/>
		</g>
	</g>
	<g>
		<g>
			<path d="M160.18,23.3c0-0.02-0.01-0.03-0.01-0.05c0.01,0.1,0.03,0.2,0.04,0.29c-0.02-0.14-0.01-0.28,0-0.41
				c-0.01,0.1-0.03,0.2-0.04,0.29c0.02-0.16,0.07-0.31,0.13-0.46c-0.04,0.09-0.07,0.18-0.11,0.26c0.07-0.16,0.15-0.3,0.25-0.44
				c-0.06,0.07-0.11,0.15-0.17,0.22c0.1-0.13,0.22-0.25,0.35-0.36c-0.07,0.06-0.15,0.11-0.22,0.17c0.11-0.08,0.23-0.15,0.36-0.21
				c-0.09,0.04-0.18,0.07-0.26,0.11c0.11-0.05,0.23-0.08,0.35-0.1c-0.1,0.01-0.2,0.03-0.29,0.04c0.11-0.01,0.23-0.02,0.34,0
				c0.26,0.03,0.6-0.14,0.78-0.32c0.19-0.19,0.33-0.5,0.32-0.78c-0.01-0.28-0.11-0.58-0.32-0.78c-0.07-0.06-0.15-0.11-0.22-0.17
				c-0.17-0.1-0.36-0.15-0.56-0.15c-0.45-0.05-0.89,0.08-1.3,0.27c-0.2,0.09-0.38,0.24-0.55,0.38c-0.1,0.08-0.2,0.17-0.28,0.28
				c-0.29,0.35-0.51,0.71-0.65,1.16c-0.07,0.21-0.09,0.43-0.11,0.65c-0.02,0.23,0.02,0.45,0.05,0.68c0.04,0.25,0.29,0.53,0.51,0.66
				c0.24,0.14,0.58,0.2,0.85,0.11c0.27-0.09,0.52-0.25,0.66-0.51c0.04-0.09,0.07-0.18,0.11-0.26
				C160.23,23.69,160.23,23.5,160.18,23.3L160.18,23.3z"/>
		</g>
	</g>
	<g>
		<g>
			<path d="M170.8,59.22c6.72-0.04,13.42-1.25,18.5-5.97c5.19-4.82,8.56-11.58,11.14-18.07c1.51-3.8,2.75-7.71,3.88-11.64
				c0.39-1.36-1.73-1.95-2.12-0.59c-2.38,8.29-5.26,16.67-10.26,23.79c-2.43,3.46-5.36,6.57-9.3,8.29
				c-3.72,1.63-7.83,1.95-11.84,1.98C169.39,57.03,169.38,59.23,170.8,59.22L170.8,59.22z"/>
		</g>
	</g>
	<g>
		<g>
			<path d="M161.15,56.58c-1.21-0.02-2.44-0.94-3.39-1.59c-1.11-0.77-2.15-1.63-3.18-2.52c-2.51-2.16-5.06-4.26-7.46-6.55
				c-6.29-6.02-11.34-13.34-14.09-21.65c-0.44-1.34-2.57-0.76-2.12,0.59c2.92,8.82,8.26,16.56,14.97,22.93
				c2.51,2.38,5.17,4.6,7.82,6.83c2.01,1.69,4.65,4.13,7.44,4.17C162.57,58.8,162.57,56.6,161.15,56.58L161.15,56.58z"/>
		</g>
	</g>
	<g>
		<path class="st0" d="M131.76,23.24c-2.58,0.51-7.72-0.02-5.07-4.25c2.46-3.93,5.12,0.42,5.29,3.15"/>
		<g>
			<path d="M131.47,22.18c-0.11,0.02-0.21,0.04-0.32,0.06c-0.2,0.03-0.01,0,0.09-0.01c-0.07,0.01-0.14,0.02-0.21,0.02
				c-0.25,0.03-0.5,0.04-0.75,0.05c-0.25,0.01-0.51,0-0.76-0.01c-0.13-0.01-0.25-0.02-0.38-0.03c-0.06-0.01-0.12-0.01-0.18-0.02
				c-0.17-0.02,0.14,0.02,0.14,0.02c-0.04-0.01-0.08-0.01-0.12-0.02c-0.25-0.04-0.5-0.09-0.75-0.16c-0.11-0.03-0.21-0.06-0.32-0.1
				c-0.06-0.02-0.11-0.05-0.17-0.07c-0.01,0,0.28,0.13,0.14,0.06c-0.03-0.01-0.05-0.02-0.08-0.04c-0.1-0.05-0.2-0.1-0.29-0.16
				c-0.04-0.03-0.08-0.05-0.13-0.08c-0.02-0.02-0.05-0.03-0.07-0.05c-0.14-0.09,0.17,0.16,0.11,0.08c-0.07-0.07-0.15-0.13-0.22-0.21
				c-0.04-0.04-0.15-0.18-0.02-0.01c0.14,0.18,0,0-0.03-0.05c-0.02-0.04-0.05-0.08-0.07-0.12c-0.1-0.18,0.03,0.02,0.04,0.1
				c-0.01-0.1-0.06-0.22-0.09-0.32c-0.03-0.12,0.02,0.32,0.01,0.08c0-0.05,0-0.11,0-0.16c0-0.06,0.01-0.13,0.01-0.19
				c0.01-0.22-0.06,0.27,0,0.04c0.03-0.13,0.06-0.27,0.1-0.4c0.02-0.07,0.05-0.13,0.07-0.2c0.01-0.04,0.07-0.17,0-0.01
				c-0.08,0.17,0.01-0.01,0.02-0.05c0.17-0.37,0.38-0.72,0.61-1.04c0.02-0.03,0.05-0.08,0.08-0.1c-0.16,0.16-0.06,0.07-0.02,0.03
				c0.07-0.07,0.13-0.15,0.2-0.23c0.06-0.06,0.12-0.11,0.18-0.17c0.18-0.17-0.16,0.1,0.03-0.03c0.07-0.04,0.13-0.09,0.2-0.12
				c0.03-0.01,0.05-0.03,0.08-0.04c0.15-0.08-0.1,0.04-0.11,0.05c0.06-0.01,0.14-0.04,0.2-0.06c0.02-0.01,0.05-0.01,0.07-0.02
				c0.12-0.04-0.29,0.02-0.12,0.02c0.06,0,0.13,0,0.2,0c0.02,0,0.05,0.01,0.07,0.01c0.13,0-0.27-0.06-0.15-0.02
				c0.05,0.02,0.11,0.02,0.17,0.04c0.03,0.01,0.06,0.02,0.09,0.03c0.17,0.05-0.21-0.11-0.1-0.04c0.11,0.06,0.23,0.12,0.34,0.19
				c0.02,0.01,0.04,0.03,0.07,0.05c0.11,0.07-0.19-0.16-0.09-0.07c0.06,0.06,0.13,0.11,0.19,0.17c0.12,0.11,0.23,0.24,0.34,0.37
				c0.15,0.18-0.12-0.18,0.01,0.02c0.05,0.08,0.11,0.15,0.16,0.23c0.1,0.15,0.19,0.31,0.27,0.47c0.08,0.16,0.14,0.35,0.24,0.5
				c-0.13-0.19-0.07-0.16-0.03-0.08c0.02,0.05,0.04,0.1,0.06,0.15c0.03,0.09,0.07,0.18,0.1,0.28c0.06,0.17,0.11,0.35,0.15,0.53
				c0.04,0.17,0.08,0.34,0.11,0.52c0.01,0.04,0.01,0.08,0.02,0.12c-0.01-0.03-0.03-0.27-0.02-0.12c0.01,0.1,0.02,0.19,0.03,0.29
				c0.04,0.57,0.48,1.13,1.1,1.1c0.56-0.03,1.14-0.49,1.1-1.1c-0.11-1.65-0.75-3.33-1.85-4.58c-0.49-0.56-1.17-1.05-1.91-1.18
				c-0.98-0.17-1.86,0.17-2.59,0.82c-0.73,0.66-1.26,1.58-1.61,2.49c-0.26,0.68-0.35,1.45-0.16,2.16c0.35,1.32,1.61,2.08,2.86,2.39
				c1.38,0.34,2.86,0.33,4.24,0.06c0.57-0.11,0.94-0.82,0.77-1.35C132.63,22.35,132.08,22.07,131.47,22.18L131.47,22.18z"/>
		</g>
	</g>
	<g>
		<path class="st0" d="M202.82,22.81c0.02-1.81,0.65-8.13,3.51-6.61c3.16,1.68,0,6.17-2.19,6.83"/>
		<g>
			<path d="M203.93,22.81c0-0.4,0.03-0.8,0.07-1.2c0.02-0.26,0.05-0.51,0.08-0.77c0.03-0.22-0.02,0.11,0,0.03
				c0.01-0.07,0.02-0.13,0.03-0.2c0.02-0.15,0.05-0.29,0.07-0.44c0.1-0.56,0.22-1.12,0.4-1.67c0.04-0.13,0.08-0.25,0.13-0.37
				c0.02-0.06,0.05-0.12,0.07-0.18c0.06-0.17-0.1,0.22,0,0c0.1-0.22,0.21-0.44,0.35-0.64c0.01-0.02,0.1-0.11,0.09-0.13
				c0.01,0.06-0.18,0.21-0.04,0.06c0.07-0.08,0.16-0.15,0.23-0.23c0.04-0.04-0.23,0.15-0.07,0.06c0.04-0.02,0.08-0.05,0.12-0.07
				c0.04-0.03,0.21-0.1,0.01-0.01c-0.19,0.09-0.02,0.01,0.04,0c0.22-0.04-0.17,0-0.09,0.01c0.04,0,0.1,0,0.14,0
				c0.05,0,0.24,0.02,0.02,0c-0.21-0.02,0,0.01,0.06,0.02c0.03,0.01,0.13,0.06,0.16,0.05c-0.08,0.02-0.23-0.11-0.05-0.02
				c0.07,0.04,0.14,0.07,0.21,0.11c0.04,0.03,0.28,0.18,0.16,0.1c-0.12-0.08,0.06,0.06,0.1,0.09c0.05,0.05,0.1,0.1,0.15,0.16
				c0.01,0.01,0.07,0.08,0.07,0.08c-0.01,0.02-0.12-0.19-0.07-0.08c0.03,0.07,0.08,0.14,0.12,0.21c0.02,0.03,0.03,0.06,0.04,0.09
				c0.07,0.1-0.06-0.11-0.05-0.11c0.02,0,0.05,0.17,0.06,0.19c0,0.02,0.05,0.19,0.04,0.2c-0.01,0.01-0.02-0.25-0.02-0.13
				c0,0.04,0.01,0.09,0.01,0.14c0.01,0.14-0.01,0.28-0.01,0.41c0,0.11,0.01-0.11,0.02-0.12c-0.01,0.02-0.01,0.08-0.02,0.11
				c-0.02,0.08-0.03,0.17-0.05,0.25c-0.04,0.14-0.08,0.29-0.13,0.43c-0.03,0.07-0.05,0.14-0.08,0.21c0.08-0.21,0.02-0.05-0.03,0.05
				c-0.16,0.33-0.36,0.64-0.57,0.95c-0.15,0.21,0.07-0.08-0.05,0.06c-0.06,0.07-0.12,0.14-0.18,0.21c-0.12,0.14-0.24,0.27-0.37,0.4
				c-0.13,0.12-0.26,0.24-0.39,0.35c-0.19,0.16,0.11-0.07-0.03,0.03c-0.07,0.05-0.13,0.1-0.2,0.14c-0.13,0.09-0.26,0.16-0.4,0.24
				c-0.03,0.01-0.06,0.03-0.08,0.04c-0.14,0.08,0.06-0.04,0.09-0.04c-0.04-0.01-0.18,0.06-0.22,0.08c-0.55,0.17-0.96,0.77-0.77,1.35
				c0.18,0.55,0.77,0.95,1.35,0.77c1.5-0.47,2.75-1.76,3.52-3.09c0.83-1.42,1.23-3.32,0.14-4.73c-0.91-1.17-2.66-1.92-3.99-0.96
				c-1.11,0.81-1.6,2.24-1.9,3.53c-0.3,1.29-0.47,2.64-0.49,3.96c-0.01,0.58,0.51,1.13,1.1,1.1
				C203.43,23.88,203.92,23.42,203.93,22.81L203.93,22.81z"/>
		</g>
	</g>
	<g>
		<g>
			<path d="M154.84,22.51c-0.96-0.91-2.24-1.56-3.6-1.45c-1.24,0.11-2.39,0.69-3.23,1.61c-1.73,1.9-2.43,5.36-0.49,7.37
				c1.04,1.08,2.58,1.42,4.02,1.52c0.58,0.04,1.13-0.54,1.1-1.1c-0.03-0.63-0.48-1.06-1.1-1.1c-0.12-0.01-0.25-0.02-0.37-0.03
				c-0.05,0-0.22-0.03,0.01,0c-0.05-0.01-0.09-0.01-0.14-0.02c-0.24-0.04-0.49-0.09-0.73-0.16c-0.12-0.03-0.23-0.07-0.35-0.11
				c-0.04-0.01-0.08-0.03-0.13-0.05c0.2,0.07,0.07,0.03,0.02,0.01c-0.21-0.11-0.41-0.22-0.61-0.35c0.2,0.13-0.05-0.05-0.11-0.11
				c-0.05-0.05-0.26-0.3-0.12-0.1c-0.06-0.08-0.12-0.17-0.17-0.26c-0.03-0.05-0.05-0.11-0.09-0.16c-0.08-0.11,0.07,0.21-0.02-0.04
				c-0.04-0.11-0.07-0.22-0.1-0.33c-0.02-0.07-0.07-0.37-0.04-0.16c-0.03-0.27-0.04-0.55-0.03-0.83c0-0.11,0.02-0.22,0.03-0.33
				c-0.02,0.25,0.02-0.12,0.03-0.18c0.05-0.24,0.12-0.48,0.2-0.72c0.02-0.06,0.04-0.11,0.07-0.17c-0.01,0.02-0.08,0.16-0.02,0.05
				c0.06-0.11,0.1-0.22,0.16-0.33c0.05-0.09,0.1-0.18,0.16-0.27c0.03-0.05,0.06-0.1,0.1-0.15c0.02-0.02,0.16-0.23,0.07-0.1
				c-0.08,0.1,0.11-0.13,0.14-0.16c0.08-0.09,0.16-0.17,0.24-0.25c0.08-0.08,0.17-0.15,0.25-0.23c0.02-0.02,0.13-0.1,0.02-0.02
				c-0.12,0.1,0.07-0.05,0.09-0.06c0.17-0.12,0.36-0.2,0.54-0.31c0.13-0.08-0.18,0.05-0.04,0.01c0.04-0.01,0.08-0.03,0.12-0.04
				c0.12-0.04,0.23-0.07,0.35-0.1c0.05-0.01,0.11-0.02,0.16-0.03c0.13-0.04-0.22,0.01-0.01,0c0.12,0,0.25-0.01,0.37-0.01
				c0.04,0,0.08,0.01,0.12,0.01c0.27,0.01-0.23-0.05,0.04,0c0.11,0.02,0.22,0.05,0.34,0.08c0.06,0.02,0.11,0.04,0.17,0.05
				c0.2,0.06-0.08-0.05,0.03,0.01c0.12,0.07,0.25,0.12,0.38,0.2c0.11,0.07,0.22,0.14,0.33,0.22c-0.14-0.11,0,0,0.02,0.02
				c0.08,0.07,0.16,0.14,0.24,0.22c0.43,0.41,1.13,0.43,1.56,0C155.25,23.66,155.27,22.92,154.84,22.51L154.84,22.51z"/>
		</g>
	</g>
	<g>
		<g>
			<path d="M181.78,22.88c1.01-0.11,2.03-0.24,3.05-0.18c0.04,0,0.08,0.01,0.13,0.01c0.16,0.01-0.2-0.04-0.05-0.01
				c0.09,0.02,0.18,0.03,0.28,0.05c0.09,0.02,0.18,0.04,0.26,0.07c0.08,0.03,0.39,0.18,0.13,0.04c0.16,0.09,0.31,0.17,0.47,0.27
				c-0.18-0.11-0.03-0.02,0.06,0.06c0.08,0.08,0.16,0.16,0.24,0.24c0.05,0.06,0.2,0.26,0.08,0.09c0.08,0.11,0.15,0.21,0.22,0.32
				c0.14,0.23,0.27,0.48,0.39,0.72c0.17,0.36,0.36,0.93,0.46,1.42c0.01,0.05,0.02,0.1,0.02,0.15c-0.03-0.21-0.01-0.04,0,0
				c0.01,0.12,0.02,0.23,0.02,0.35c0.01,0.25-0.01,0.5-0.02,0.75c-0.02,0.22-0.01,0.05,0,0.01c-0.01,0.07-0.02,0.13-0.03,0.2
				c-0.02,0.11-0.05,0.23-0.08,0.34c-0.03,0.11-0.06,0.22-0.1,0.33c-0.02,0.06-0.04,0.12-0.07,0.18c0.04-0.1,0.04-0.08-0.01,0
				c-0.07,0.13-0.13,0.25-0.21,0.38c-0.02,0.04-0.05,0.08-0.08,0.12c-0.15,0.25,0.08-0.08-0.03,0.04c-0.08,0.1-0.16,0.19-0.25,0.28
				c-0.05,0.04-0.09,0.08-0.14,0.13c-0.12,0.11,0.21-0.12-0.04,0.03c-0.11,0.07-0.22,0.13-0.33,0.19c-0.04,0.02-0.19,0.07-0.01,0.01
				c-0.06,0.02-0.13,0.05-0.19,0.06c-0.07,0.02-0.13,0.04-0.2,0.05c-0.02,0.01-0.29,0.05-0.17,0.04c0.12-0.02-0.06,0-0.07,0
				c-0.11,0-0.23,0.01-0.34,0.01c-1.42,0-1.42,2.2,0,2.2c1.45,0,2.73-0.63,3.58-1.81c0.73-1.01,1.03-2.35,0.97-3.58
				c-0.06-1.34-0.54-2.71-1.28-3.83c-0.64-0.97-1.54-1.72-2.69-1.98c-1.31-0.3-2.67-0.1-3.99,0.05c-0.59,0.07-1.1,0.46-1.1,1.1
				C180.68,22.32,181.19,22.95,181.78,22.88L181.78,22.88z"/>
		</g>
	</g>
</g>
<g>
	<g>
		<g>
			<path d="M43.12,153.4c-3.95,1.39-6.17,4.47-6.99,8.5c-0.97,4.78-1.1,9.85-1.23,14.7c-0.14,5.4-0.05,10.91,0.8,16.26
				c0.62,3.89,1.94,7.92,4.67,10.86c2.78,2.99,7.21,4.48,11.21,3.45c3.89-1,6.54-4.37,8.1-7.9c3.82-8.65,3.81-19.14,2.09-28.28
				c-0.49-2.61-1.16-5.18-2.07-7.67c-0.81-2.24-1.78-4.45-3.54-6.11c-3.22-3.04-7.84-3.41-11.99-4.17c-1.56-0.29-2.23,2.1-0.66,2.39
				c3.26,0.6,6.93,0.83,9.78,2.66c3.2,2.05,4.29,6.26,5.22,9.71c2.23,8.35,2.59,17.6,0.43,26c-0.89,3.46-2.27,7.24-5.17,9.55
				c-2.89,2.3-7.02,2.07-10,0.05c-2.93-1.99-4.4-5.51-5.2-8.84c-1.04-4.3-1.17-8.86-1.22-13.26c-0.07-5.41,0.22-10.83,0.8-16.2
				c0.43-3.97,1.5-7.86,5.63-9.31C45.28,155.26,44.64,152.87,43.12,153.4L43.12,153.4z"/>
		</g>
	</g>
	<g>
		<g>
			<path d="M46.47,206.48c0.95,5.89,2.01,11.77,2.5,17.71c0.46,5.52,0.25,10.92-0.58,16.38c-0.27,1.78-0.54,3.69-1.39,5.31
				c-0.91,1.74-2.47,2.75-4.35,3.23c-4.08,1.05-7.72-1.49-10.48-4.22c-3.28-3.25-6.1-7.08-8.98-10.7c-3.18-4-6.2-8.18-8.73-12.63
				c-1.25-2.19-2.41-4.48-3.12-6.91c-0.48-1.65-0.82-3.69-0.15-5.02c0.35-0.69,0.78-1.08,1.52-1.44c0.82-0.4,1.97-0.67,2.91-0.62
				c-0.14-0.01,0.25,0.11,0.48,0.29c0.43,0.32,0.8,0.76,1.14,1.18c0.97,1.18,1.75,2.51,2.51,3.83c2.7,4.72,4.71,9.78,7.3,14.55
				c2.57,4.74,5.38,9.91,9.35,13.64c1.39,1.3,3.34,2.73,5.34,2.01c2.52-0.91,2.98-4.41,3.27-6.67c0.55-4.24,0.42-8.56,0.16-12.82
				c-0.3-4.76-0.84-9.5-1.54-14.21c-0.3-2.05-0.64-4.09-1.01-6.13c-0.29-1.57-2.68-0.9-2.39,0.66c1.69,9.21,2.93,18.74,2.64,28.11
				c-0.06,1.95-0.18,3.92-0.58,5.83c-0.2,0.95-0.56,2.32-1.22,2.82c-0.13,0.1-0.33,0.14-0.49,0.14c-0.18-0.01-0.54-0.12-0.85-0.29
				c-0.96-0.52-1.75-1.32-2.48-2.12c-3.65-3.97-6.35-8.94-8.84-13.7c-2.8-5.36-4.89-11.14-8.42-16.1c-0.74-1.04-1.55-2.12-2.62-2.86
				c-1.02-0.7-2.03-0.67-3.22-0.49c-2.05,0.3-4.1,1.23-5.09,3.15c-2.15,4.12,0.67,9.62,2.62,13.25c2.59,4.82,5.83,9.29,9.21,13.59
				c2.84,3.61,5.68,7.37,8.84,10.69c2.78,2.92,6.23,5.63,10.4,5.91c4.02,0.27,7.91-1.86,9.46-5.61c0.74-1.79,1.02-3.72,1.31-5.62
				c0.4-2.69,0.74-5.37,0.83-8.09c0.19-5.88-0.51-11.74-1.38-17.54c-0.46-3.05-0.97-6.1-1.46-9.14
				C48.6,204.25,46.21,204.92,46.47,206.48L46.47,206.48z"/>
		</g>
	</g>
	<g>
		<g>
			<path d="M53.05,204.38c0.69,6.62,2.23,13.11,3.94,19.54c1.35,5.1,3.1,10.17,3.87,15.4c0.6,4.08,1.01,8.19,2,12.2
				c0.94,3.79,2.41,7.95,5.54,10.5c1.84,1.5,5.72,3.6,7.83,1.42c1.72-1.79,1-5.03,0.51-7.16c-0.71-3.08-1.84-6.06-3-9
				c-1.28-3.25-2.41-6.53-3.47-9.86c-4.08-12.89-7.52-26.05-9.99-39.34c-0.29-1.57-2.68-0.9-2.39,0.66
				c2.08,11.23,4.9,22.34,8.13,33.29c1.31,4.45,2.6,8.97,4.28,13.3c0.92,2.39,1.9,4.75,2.73,7.17c0.85,2.49,1.85,5.27,1.75,7.94
				c-0.01,0.34-0.1,0.83-0.14,0.95c-0.09,0.24-0.14,0.25-0.17,0.3c-0.13,0.22-0.13,0.12-0.12,0.12c-0.29,0.11-0.56,0.09-0.98,0.01
				c-0.71-0.14-1.38-0.46-2.02-0.8c-3.25-1.71-4.76-5.35-5.72-8.71c-1.11-3.87-1.6-7.88-2.14-11.86c-0.7-5.18-2.21-10.13-3.58-15.17
				c-1.86-6.86-3.65-13.81-4.39-20.89C55.36,202.81,52.88,202.8,53.05,204.38L53.05,204.38z"/>
		</g>
	</g>
	<g>
		<g>
			<g>
				<path d="M62.12,170.63c2.12-3.75,3.98-8.06,4.68-12.33c0.42-2.54,0.32-5.2,0.38-7.77c0.15-7.45,0.21-14.9,0.27-22.35
					c0.02-2.97,0.04-5.94,0.05-8.91c0-1.6-2.47-1.6-2.48,0c-0.02,6.14-0.07,12.27-0.13,18.41c-0.07,6.25-0.03,12.52-0.36,18.76
					c-0.11,2.13-0.78,4.21-1.49,6.2c-0.83,2.32-1.83,4.58-3.04,6.73C59.19,170.77,61.33,172.02,62.12,170.63L62.12,170.63z"/>
			</g>
		</g>
		<g>
			<g>
				<path d="M67.31,118.18c-0.14-0.27-0.28-0.54-0.41-0.82c-0.06-0.13-0.12-0.26-0.18-0.39c-0.03-0.08-0.07-0.15-0.1-0.23
					c-0.02-0.05-0.11-0.26-0.05-0.11c-0.26-0.63-0.49-1.28-0.64-1.95c-0.04-0.16-0.07-0.33-0.1-0.5c-0.01-0.08-0.03-0.17-0.04-0.25
					c0.01,0.06,0.02,0.21,0-0.04c-0.02-0.33-0.02-0.64-0.01-0.97c0-0.04,0.03-0.25,0-0.02c0.01-0.08,0.03-0.15,0.04-0.23
					c0.03-0.14,0.06-0.27,0.1-0.4c0.03-0.08,0.05-0.16,0.08-0.24c0.07-0.19-0.07,0.14,0.02-0.03c0.08-0.15,0.16-0.29,0.25-0.43
					c-0.14,0.21,0.07-0.06,0.13-0.12c0.06-0.07,0.17-0.09-0.04,0.02c0.04-0.02,0.07-0.05,0.11-0.07c0.07-0.04,0.19-0.04,0.04-0.03
					c-0.17,0.02,0,0,0.05,0c0.17-0.02-0.26,0.02-0.09,0.01c0.24-0.01-0.05,0-0.04-0.03c0-0.01,0.18,0.04,0.16,0.04
					c0.12,0.03,0.08,0.1-0.05-0.02c0.03,0.03,0.09,0.04,0.12,0.07c0.11,0.13-0.14-0.14-0.01-0.01c0.05,0.05,0.11,0.1,0.16,0.15
					c0.02,0.02,0.18,0.2,0.09,0.1c-0.08-0.09,0.04,0.05,0.04,0.06c0.06,0.09,0.13,0.19,0.19,0.28c0.08,0.13,0.15,0.26,0.22,0.39
					c0.02,0.05,0.05,0.1,0.07,0.15c0.08,0.17-0.06-0.17,0,0.01c0.1,0.29,0.18,0.59,0.25,0.89c0.01,0.05,0.04,0.24,0-0.01
					c0.01,0.05,0.01,0.11,0.02,0.16c0.01,0.14,0.02,0.29,0.02,0.43c0,0.13,0,0.25-0.01,0.38c0,0.07-0.01,0.14-0.01,0.22
					c0,0.04-0.06,0.38-0.01,0.1c-0.06,0.32-0.13,0.64-0.23,0.95c-0.04,0.14-0.1,0.27-0.15,0.41c0.08-0.22,0.02-0.04,0,0
					c-0.04,0.08-0.08,0.16-0.12,0.24c-0.15,0.29-0.33,0.55-0.5,0.82c-0.1,0.16,0.12-0.14,0,0c-0.06,0.07-0.11,0.14-0.17,0.2
					c-0.12,0.13-0.24,0.25-0.37,0.37c-0.47,0.44-0.48,1.31,0,1.75c0.51,0.47,1.25,0.47,1.75,0c2.29-2.14,3.03-5.89,1.43-8.64
					c-0.46-0.79-1.09-1.5-1.97-1.82c-0.74-0.27-1.61-0.16-2.26,0.28c-1.45,0.97-1.95,2.91-1.79,4.56c0.18,1.96,0.96,3.8,1.86,5.53
					c0.3,0.58,1.15,0.79,1.7,0.44C67.46,119.5,67.63,118.8,67.31,118.18L67.31,118.18z"/>
			</g>
		</g>
	</g>
	<g>
		<g>
			<g>
				<path d="M35.81,168.44c-3.87,0.11-7.07-3.16-9.32-5.95c-1.75-2.17-3.22-4.56-4.29-7.13c-2.4-5.77-4.36-11.75-6.33-17.68
					c-0.84-2.53-1.69-5.06-2.43-7.63c-0.44-1.53-2.83-0.88-2.39,0.66c1.66,5.75,3.67,11.43,5.67,17.07
					c1.01,2.85,2.04,5.71,3.21,8.51c1.18,2.83,2.78,5.41,4.71,7.81c2.7,3.38,6.56,6.95,11.18,6.82
					C37.4,170.87,37.41,168.39,35.81,168.44L35.81,168.44z"/>
			</g>
		</g>
		<g>
			<g>
				<path d="M12.09,127.85c-0.98-1.32-2.05-2.71-2.59-4.28c-0.24-0.69-0.41-1.45-0.27-2.1c0.13-0.6,0.52-1.12,1.02-1.43
					c0.45-0.27,0.8-0.28,1.25,0.04c0,0,0.19,0.17,0.26,0.23c0.06,0.06,0.11,0.12,0.16,0.18c-0.12-0.14,0,0,0.02,0.03
					c0.09,0.13,0.16,0.26,0.24,0.4c0.02,0.04,0.09,0.22,0.01,0.02c0.04,0.09,0.07,0.18,0.09,0.28c0.04,0.13,0.07,0.26,0.1,0.4
					c0.05,0.24,0.02,0.08,0.01,0.03c0.01,0.08,0.02,0.16,0.02,0.24c0.03,0.36,0.02,0.71-0.01,1.07c-0.01,0.1-0.04,0.42-0.04,0.42
					c0.02-0.11-0.02,0.1-0.02,0.1c-0.01,0.09-0.03,0.18-0.05,0.26c-0.07,0.38-0.15,0.76-0.25,1.13c-0.36,1.46-0.92,2.88-1.13,4.37
					c-0.1,0.66,0.16,1.33,0.87,1.52c0.58,0.16,1.43-0.2,1.52-0.87c0.22-1.56,0.82-3.04,1.18-4.57c0.4-1.65,0.69-3.52,0.05-5.15
					c-0.75-1.87-2.75-3.37-4.81-2.62c-2.1,0.77-3.24,2.92-2.97,5.09c0.3,2.44,1.76,4.52,3.19,6.44c0.4,0.54,1.07,0.81,1.7,0.44
					C12.17,129.23,12.49,128.39,12.09,127.85L12.09,127.85z"/>
			</g>
		</g>
	</g>
	<g>
		<g>
			<g>
				<path d="M43.66,151.75c-6.11-0.12-11.24-3.95-13.35-9.66c-1.84-4.96-1.57-11.18,2.16-15.23c3.84-4.17,11.17-5.42,15.83-1.93
					c4.43,3.31,6.32,9.49,6.18,14.82c-0.08,2.94-0.82,6.02-2.66,8.38c-1.96,2.52-4.92,3.62-8.05,3.62c-1.59,0-1.6,2.48,0,2.48
					c15.47-0.02,16.27-21.22,7.53-29.95c-4.93-4.92-13.16-4.95-18.67-0.87c-5.34,3.96-6.87,11.09-5.34,17.33
					c1.9,7.71,8.33,13.34,16.36,13.49C45.25,154.26,45.25,151.78,43.66,151.75L43.66,151.75z"/>
			</g>
		</g>
		<g>
			<g>
				<path d="M36.14,141.99c1.67,3.23,5.16,6.18,9,4.78c3.29-1.19,5.45-4.96,5.25-8.39c-0.09-1.59-2.57-1.6-2.48,0
					c0.13,2.3-1.18,5.13-3.43,6c-2.77,1.08-5.05-1.42-6.2-3.64C37.55,139.32,35.41,140.58,36.14,141.99L36.14,141.99z"/>
			</g>
		</g>
		<g>
			<g>
				<path d="M32.8,123.84c-0.87,2.89-0.75,6.25,0.33,9.08c0.52,1.37,1.29,2.86,2.5,3.74c1.31,0.96,2.79,0.44,3.72-0.75
					c1.01-1.27,1.31-3.03,1.54-4.6c0.3-2.03,0.42-4.1,0.1-6.13c-0.29-1.86-1.24-3.9-3.38-3.97c-1.6-0.05-1.59,2.43,0,2.48
					c0.33,0.01-0.17-0.1,0.12,0.02c0.19,0.08-0.08-0.04-0.09-0.05c0.04,0.02,0.12,0.08,0.16,0.09c0.07,0.01,0.22,0.2-0.04-0.04
					c0.03,0.03,0.09,0.06,0.11,0.1c0.03,0.05,0.09,0.1,0.13,0.14c0.02,0.02-0.11-0.2,0.02,0.04c0.06,0.1,0.11,0.2,0.17,0.3
					c0.16,0.3-0.02-0.12,0.09,0.22c0.11,0.33,0.2,0.66,0.26,1c0.02,0.08,0.09,0.59,0.06,0.34c0.02,0.16,0.03,0.31,0.05,0.47
					c0.03,0.41,0.05,0.82,0.05,1.23c0.01,0.85-0.04,1.71-0.14,2.56c-0.02,0.17-0.04,0.33-0.06,0.5c0.03-0.19-0.05,0.31-0.06,0.4
					c-0.06,0.38-0.13,0.76-0.21,1.14c-0.13,0.6-0.3,1.19-0.51,1.76c-0.06,0.16,0.14-0.28,0.03-0.06c-0.02,0.04-0.04,0.08-0.06,0.12
					c-0.05,0.08-0.09,0.17-0.14,0.25c-0.09,0.14-0.21,0.31-0.34,0.41c-0.02,0.01-0.21,0.11-0.2,0.1c0.02-0.06,0.21-0.01,0.23,0.01
					c-0.68-0.56-1.23-1.37-1.62-2.24c-1.07-2.45-1.19-5.46-0.43-8.01C35.65,122.97,33.26,122.31,32.8,123.84L32.8,123.84z"/>
			</g>
		</g>
		<g>
			<g>
				<path d="M43.94,122.86c0,3.15-0.34,6.7,1.19,9.58c0.81,1.52,2.49,2.63,4.26,2.22c1.66-0.39,2.54-2.06,2.9-3.59
					c0.4-1.71,0.46-3.73-0.14-5.4c-0.22-0.63-0.85-1.05-1.52-0.87c-0.61,0.17-1.09,0.89-0.87,1.52c0.09,0.26,0.16,0.52,0.21,0.79
					c0.02,0.08,0.08,0.52,0.04,0.19c0.02,0.19,0.04,0.37,0.05,0.56c0.02,0.34,0.03,0.68,0.02,1.02c0,0.15-0.01,0.29-0.02,0.44
					c-0.01,0.09-0.02,0.18-0.02,0.27c-0.01,0.05-0.01,0.11-0.02,0.16c0.02-0.13,0.02-0.15,0.01-0.06c-0.05,0.34-0.12,0.67-0.21,1
					c-0.04,0.15-0.09,0.3-0.14,0.44c-0.03,0.08-0.06,0.16-0.09,0.23c0.08-0.2,0.02-0.05-0.04,0.06c-0.06,0.11-0.12,0.22-0.18,0.32
					c-0.05,0.08-0.1,0.15-0.15,0.22c0.03-0.04,0.18-0.17,0.03-0.05c-0.05,0.04-0.33,0.3-0.18,0.19c0.15-0.12-0.48,0.18-0.07,0.06
					c-0.06,0.02-0.43,0.11-0.23,0.08c0.19-0.03-0.2-0.01-0.27-0.01c0.31,0-0.14-0.04-0.25-0.07c-0.06-0.02-0.12-0.04-0.17-0.06
					c0.3,0.11,0.03,0.01-0.03-0.03c-0.06-0.04-0.13-0.08-0.19-0.12c-0.14-0.09,0.19,0.21,0.01,0c-0.08-0.09-0.17-0.17-0.26-0.26
					c-0.01-0.01-0.19-0.25-0.08-0.09c0.12,0.16-0.06-0.1-0.07-0.11c-0.09-0.14-0.17-0.28-0.24-0.43c-0.04-0.08-0.07-0.15-0.11-0.23
					c-0.08-0.18,0.09,0.28-0.01-0.04c-0.05-0.15-0.11-0.3-0.16-0.46c-0.11-0.36-0.2-0.73-0.27-1.1c-0.03-0.17-0.06-0.35-0.09-0.52
					c-0.01-0.08-0.02-0.16-0.03-0.23c0.03,0.23,0-0.03-0.01-0.09c-0.04-0.4-0.08-0.8-0.1-1.2c-0.09-1.46-0.02-2.92-0.03-4.38
					C46.41,121.26,43.93,121.26,43.94,122.86L43.94,122.86z"/>
			</g>
		</g>
		<g>
			<g>
				<path d="M48.49,123.85c2.9-0.66,3.21-4.14,3.1-6.57c-0.03-0.65-0.55-1.27-1.24-1.24c-0.65,0.03-1.27,0.55-1.24,1.24
					c0.02,0.48,0.03,0.97,0.01,1.45c-0.01,0.27-0.04,0.55-0.07,0.82c0.04-0.45,0-0.01-0.02,0.11c-0.02,0.13-0.05,0.27-0.09,0.4
					c-0.03,0.13-0.07,0.26-0.11,0.38c-0.02,0.06-0.04,0.11-0.06,0.17c-0.04,0.1-0.15,0.25,0.03-0.08c-0.06,0.1-0.1,0.21-0.16,0.31
					c-0.03,0.05-0.06,0.1-0.09,0.15c-0.03,0.04-0.18,0.25-0.03,0.06c0.14-0.18,0.01-0.01-0.03,0.03c-0.04,0.05-0.09,0.1-0.14,0.14
					c-0.04,0.04-0.09,0.07-0.13,0.11c0.24-0.24,0.17-0.13,0.07-0.06c-0.1,0.06-0.2,0.11-0.3,0.16c0.31-0.18,0.18-0.07,0.07-0.04
					c-0.08,0.03-0.16,0.05-0.24,0.06c-0.63,0.14-1.07,0.91-0.87,1.52C47.18,123.65,47.81,124,48.49,123.85L48.49,123.85z"/>
			</g>
		</g>
		<g>
			<g>
				<path d="M51.07,127.2c1.2,0.14,2.5-0.14,3.49-0.85c1.05-0.76,1.75-1.79,2.19-3c0.24-0.67,0.36-1.38,0.42-2.08
					c0.06-0.65-0.61-1.27-1.24-1.24c-0.72,0.03-1.18,0.55-1.24,1.24c-0.01,0.09-0.02,0.17-0.03,0.26c-0.02,0.22,0.05-0.34,0-0.01
					c-0.02,0.15-0.05,0.3-0.09,0.44c-0.07,0.31-0.17,0.61-0.28,0.9c-0.08,0.22,0.13-0.28,0.03-0.07c-0.03,0.07-0.07,0.15-0.1,0.22
					c-0.06,0.13-0.13,0.25-0.2,0.37c-0.08,0.14-0.18,0.26-0.27,0.39c0.24-0.36-0.02,0.02-0.11,0.11c-0.09,0.1-0.19,0.19-0.29,0.28
					c-0.08,0.07-0.31,0.22,0.03-0.01c-0.06,0.04-0.12,0.09-0.19,0.13c-0.11,0.08-0.23,0.14-0.35,0.21c-0.06,0.03-0.15,0.1-0.21,0.1
					c0.06-0.03,0.13-0.05,0.19-0.08c-0.04,0.01-0.07,0.03-0.11,0.04c-0.15,0.06-0.3,0.1-0.46,0.14c-0.06,0.01-0.12,0.03-0.18,0.04
					c-0.33,0.06,0.24-0.02,0.02,0c-0.34,0.02-0.67,0.02-1.01-0.02c-0.29-0.03-0.68,0.16-0.88,0.36c-0.21,0.21-0.38,0.57-0.36,0.88
					c0.01,0.32,0.12,0.65,0.36,0.88C50.45,127.07,50.72,127.16,51.07,127.2L51.07,127.2z"/>
			</g>
		</g>
		<g>
			<g>
				<path d="M33.78,123.79c-0.35-0.05-0.69-0.13-1.03-0.25c-0.07-0.02-0.15-0.06-0.22-0.08c0.32,0.08,0.1,0.05,0.01,0
					c-0.15-0.07-0.29-0.15-0.43-0.23c-0.11-0.07-0.28-0.23-0.4-0.27c0.14,0.11,0.18,0.14,0.11,0.08c-0.03-0.02-0.06-0.05-0.09-0.07
					c-0.06-0.05-0.11-0.09-0.16-0.14c-0.12-0.11-0.23-0.22-0.33-0.33c-0.06-0.06-0.11-0.13-0.17-0.19
					c-0.15-0.17,0.16,0.23,0.02,0.02c-0.17-0.25-0.34-0.51-0.47-0.78c-0.04-0.08-0.07-0.16-0.11-0.23c-0.1-0.21,0.1,0.26,0.01,0.02
					c-0.05-0.14-0.1-0.28-0.15-0.42c-0.05-0.16-0.09-0.31-0.13-0.47c-0.03-0.15-0.03-0.35-0.09-0.49c0.02,0.19,0.03,0.24,0.02,0.14
					c0-0.04-0.01-0.08-0.01-0.11c-0.01-0.08-0.01-0.15-0.02-0.23c-0.01-0.18-0.02-0.36-0.02-0.55c0-0.65-0.57-1.27-1.24-1.24
					c-0.67,0.03-1.24,0.54-1.24,1.24c0,1.55,0.42,3.17,1.36,4.43c1,1.35,2.45,2.29,4.13,2.54c0.34,0.05,0.64,0.06,0.95-0.12
					c0.26-0.15,0.5-0.45,0.57-0.74C34.78,124.73,34.47,123.9,33.78,123.79L33.78,123.79z"/>
			</g>
		</g>
		<g>
			<g>
				<path d="M32.15,126.3c-0.37,0.02-0.73,0.02-1.1-0.02c-0.05,0-0.21-0.05-0.24-0.03c0.19,0.03,0.22,0.03,0.08,0.01
					c-0.04-0.01-0.08-0.01-0.12-0.02c-0.18-0.03-0.36-0.07-0.54-0.11c-0.38-0.09-0.74-0.21-1.1-0.35c-0.3-0.11,0.17,0.08-0.06-0.03
					c-0.08-0.04-0.16-0.07-0.23-0.11c-0.18-0.09-0.35-0.18-0.53-0.29c-0.17-0.1-0.33-0.21-0.49-0.33c-0.2-0.14,0.19,0.16-0.02-0.01
					c-0.06-0.05-0.13-0.11-0.19-0.16c-0.14-0.13-0.28-0.26-0.41-0.41c-0.06-0.06-0.11-0.12-0.16-0.19
					c-0.14-0.16,0.15,0.21-0.05-0.07c-0.09-0.13-0.18-0.27-0.25-0.42c-0.02-0.03-0.16-0.26-0.14-0.29c0.07,0.16,0.08,0.19,0.05,0.11
					c-0.01-0.04-0.03-0.08-0.04-0.12c-0.06-0.18-0.11-0.37-0.15-0.56c-0.01-0.04-0.02-0.08-0.02-0.12c-0.01-0.1-0.01-0.06,0.02,0.12
					c-0.04-0.03-0.02-0.3-0.02-0.35c-0.02-0.65-0.56-1.27-1.24-1.24c-0.65,0.03-1.26,0.55-1.24,1.24c0.12,4.04,4.53,6.44,8.21,6.22
					c0.65-0.04,1.27-0.54,1.24-1.24C33.36,126.9,32.84,126.25,32.15,126.3L32.15,126.3z"/>
			</g>
		</g>
		<g>
			<g>
				<path d="M27.93,134.21c-0.31-1.45-1.4-2.72-2.98-2.67c-1.32,0.04-2.57,0.84-3.4,1.83c-0.96,1.14-1.52,2.53-1.33,4.03
					c0.2,1.59,1.06,3.11,2.59,3.77c0.89,0.38,1.79,0.48,2.75,0.32c0.97-0.16,1.82-0.66,2.58-1.27c0.51-0.41,0.46-1.33,0-1.75
					c-0.54-0.5-1.21-0.43-1.75,0c-0.23,0.18,0.23-0.15-0.01,0c-0.07,0.04-0.13,0.09-0.2,0.13c-0.13,0.08-0.26,0.16-0.4,0.23
					c-0.06,0.03-0.15,0.05-0.2,0.1c0.2-0.16,0.17-0.07,0.03-0.02c-0.15,0.06-0.31,0.1-0.47,0.14c-0.07,0.02-0.13,0.03-0.2,0.04
					c-0.25,0.05,0.32-0.02,0.06-0.01c-0.13,0.01-0.26,0.02-0.39,0.01c-0.06,0-0.13,0-0.19-0.01c-0.12-0.01-0.28-0.08,0.08,0.01
					c-0.13-0.03-0.27-0.05-0.4-0.09c-0.12-0.03-0.45-0.21-0.08-0.01c-0.11-0.06-0.22-0.11-0.33-0.17c-0.11-0.07-0.4-0.33-0.11-0.05
					c-0.11-0.1-0.22-0.19-0.32-0.3c-0.04-0.05-0.08-0.1-0.13-0.14c-0.16-0.18,0.17,0.25,0.04,0.05c-0.07-0.11-0.15-0.22-0.21-0.34
					c-0.03-0.06-0.06-0.12-0.09-0.18c-0.12-0.23,0.1,0.29,0.02,0.04c-0.05-0.16-0.11-0.31-0.15-0.48c-0.01-0.05-0.02-0.1-0.03-0.14
					c-0.03-0.13,0.02-0.27,0,0.03c0.01-0.15-0.03-0.32-0.03-0.47c0-0.13,0.01-0.26,0.01-0.4c0-0.23-0.06,0.33-0.01,0.1
					c0.02-0.08,0.03-0.15,0.05-0.23c0.03-0.12,0.06-0.23,0.1-0.34c0.02-0.06,0.05-0.11,0.06-0.17c-0.11,0.36-0.07,0.17-0.03,0.08
					c0.11-0.24,0.25-0.47,0.4-0.68c0.03-0.04,0.06-0.08,0.09-0.12c0.09-0.13-0.21,0.25-0.06,0.08c0.08-0.09,0.16-0.19,0.24-0.27
					c0.08-0.09,0.17-0.17,0.26-0.25c0.04-0.04,0.09-0.08,0.13-0.12c0.03-0.03,0.06-0.05,0.09-0.08c0.1-0.08,0.06-0.05-0.11,0.09
					c0.09-0.02,0.21-0.15,0.29-0.2c0.09-0.06,0.19-0.12,0.29-0.17c0.05-0.02,0.1-0.05,0.15-0.07c0.19-0.1-0.31,0.11-0.1,0.04
					c0.11-0.04,0.23-0.08,0.34-0.11c0.05-0.01,0.1-0.02,0.15-0.03c0.19-0.05-0.33,0.02-0.14,0.02c0.1,0,0.23,0.01,0.33,0
					c-0.32,0.03-0.29-0.05-0.15-0.02c0.06,0.02,0.12,0.03,0.17,0.05c0.19,0.04-0.3-0.16-0.13-0.06c0.05,0.03,0.11,0.06,0.16,0.09
					c0.14,0.08,0.03,0.12-0.1-0.08c0.03,0.05,0.1,0.1,0.14,0.14c0.13,0.12-0.01,0.12-0.06-0.09c0.02,0.06,0.09,0.13,0.12,0.18
					c0.03,0.05,0.05,0.1,0.08,0.16c0.09,0.18-0.11-0.32-0.01,0c0.05,0.16,0.09,0.32,0.13,0.48c0.13,0.64,0.91,1.06,1.52,0.87
					C27.74,135.52,28.08,134.89,27.93,134.21L27.93,134.21z"/>
			</g>
		</g>
		<g>
			<g>
				<path d="M55.38,132.94c0.36-0.27,0.72-0.52,1.11-0.75c0.17-0.1,0.34-0.19,0.51-0.28c0.08-0.04,0.16-0.08,0.24-0.11
					c0.04-0.02,0.08-0.04,0.13-0.06c-0.38,0.19-0.23,0.09-0.13,0.06c0.29-0.11,0.58-0.21,0.88-0.27c0.13-0.02,0.43-0.04-0.08,0
					c0.06-0.01,0.12-0.01,0.19-0.02c0.12-0.01,0.25-0.01,0.37,0c0.06,0,0.12,0.01,0.18,0.02c-0.48-0.02-0.27-0.04-0.14-0.01
					c0.11,0.02,0.21,0.05,0.32,0.08c0.13,0.04,0.31,0.17-0.12-0.05c0.04,0.02,0.09,0.04,0.14,0.06c0.09,0.05,0.18,0.1,0.26,0.16
					c0.22,0.14-0.26-0.22-0.1-0.08c0.04,0.03,0.07,0.06,0.11,0.1c0.08,0.07,0.14,0.15,0.21,0.22c0.17,0.2-0.2-0.28-0.08-0.1
					c0.03,0.04,0.06,0.08,0.08,0.12c0.06,0.09,0.11,0.18,0.16,0.27c0.03,0.05,0.05,0.1,0.07,0.15c0.1,0.2-0.14-0.36-0.05-0.13
					c0.04,0.1,0.08,0.21,0.11,0.31c0.03,0.11,0.06,0.21,0.08,0.32c0.01,0.05,0.02,0.11,0.03,0.16c0.01,0.03,0.01,0.06,0.01,0.09
					c0.03,0.19-0.03-0.21-0.03-0.21c-0.01,0.22,0.04,0.46,0.04,0.69c0,0.12-0.01,0.23-0.02,0.35c0,0.06-0.01,0.11-0.02,0.17
					c-0.02,0.23,0.06-0.4,0.02-0.12c-0.04,0.23-0.09,0.45-0.15,0.67c-0.03,0.11-0.07,0.21-0.11,0.32c-0.09,0.24,0.15-0.33,0.05-0.12
					c-0.02,0.05-0.05,0.11-0.07,0.16c-0.1,0.2-0.22,0.38-0.34,0.56c-0.05,0.08,0.26-0.31,0.07-0.1c-0.03,0.04-0.07,0.08-0.1,0.11
					c-0.07,0.08-0.15,0.15-0.23,0.22c-0.2,0.18,0.3-0.21,0.08-0.06c-0.05,0.03-0.09,0.06-0.14,0.09c-0.1,0.06-0.21,0.11-0.31,0.16
					c0.48-0.24,0.09-0.04-0.07,0c-0.06,0.02-0.12,0.02-0.18,0.04c-0.1,0.02-0.26,0,0.23-0.03c-0.04,0-0.08,0.01-0.12,0.01
					c-0.13,0.01-0.27,0.01-0.4,0c-0.06,0-0.13-0.01-0.19-0.02c0.51,0.03,0.2,0.03,0.06,0c-0.15-0.03-0.31-0.08-0.46-0.13
					c-0.07-0.03-0.15-0.05-0.22-0.08c-0.18-0.07,0.32,0.14,0.15,0.06c-0.05-0.02-0.1-0.05-0.15-0.07c-0.59-0.28-1.36-0.18-1.7,0.44
					c-0.29,0.55-0.18,1.4,0.44,1.7c1.32,0.62,2.87,0.85,4.18,0.05c1.04-0.64,1.73-1.76,2.01-2.94c0.54-2.28-0.22-5.42-2.85-5.98
					c-1.89-0.4-3.74,0.56-5.21,1.67c-0.27,0.2-0.48,0.4-0.57,0.74c-0.08,0.3-0.04,0.69,0.12,0.95
					C54.01,133,54.83,133.36,55.38,132.94L55.38,132.94z"/>
			</g>
		</g>
		<g>
			<g>
				<path d="M42.96,137.94c1.59,0,1.6-2.48,0-2.48C41.36,135.47,41.36,137.94,42.96,137.94L42.96,137.94z"/>
			</g>
		</g>
	</g>
	<g>
		<g>
			<path d="M36.67,122.77c-0.85,0.61-1.27,1.61-1.42,2.62c-0.16,1.05-0.19,2.2,0.21,3.2c0.44,1.12,1.36,2.03,2.64,1.96
				c1.37-0.08,2.16-1.21,2.44-2.46c0.23-1.05,0.22-2.12,0.22-3.18c0-0.59-0.52-1.15-1.13-1.13c-0.61,0.03-1.12,0.49-1.13,1.13
				c0,0.73,0.02,1.46-0.07,2.19c-0.01,0.09-0.06,0.29,0.01-0.06c-0.01,0.06-0.02,0.12-0.03,0.18c-0.02,0.1-0.04,0.19-0.06,0.29
				c-0.02,0.1-0.05,0.2-0.08,0.3c-0.03,0.1-0.11,0.23-0.12,0.34c0.01-0.2,0.11-0.22,0.04-0.1c-0.02,0.04-0.04,0.08-0.06,0.11
				c-0.02,0.04-0.05,0.08-0.08,0.13c-0.08,0.14-0.11,0.02,0.06-0.07c-0.04,0.02-0.14,0.13-0.16,0.16c0.1-0.18,0.22-0.14,0.08-0.07
				c-0.03,0.01-0.1,0.04-0.12,0.06c0.13-0.13,0.26-0.1,0.1-0.05c-0.17,0.05-0.07-0.06,0.11-0.01c-0.06-0.02-0.18,0-0.24,0
				c-0.19,0.01,0.3,0.07,0.12,0.02c-0.04-0.01-0.07-0.01-0.11-0.02c-0.03-0.01-0.07-0.02-0.1-0.03c-0.16-0.04,0.28,0.16,0.08,0.03
				c-0.03-0.02-0.06-0.04-0.09-0.05c-0.1-0.05-0.07-0.14,0.11,0.09c-0.05-0.06-0.12-0.11-0.17-0.16c-0.2-0.2,0.13,0.22,0,0
				c-0.05-0.08-0.09-0.16-0.14-0.24c-0.05-0.1-0.04-0.2,0.03,0.09c-0.01-0.05-0.04-0.09-0.05-0.14c-0.03-0.08-0.05-0.16-0.08-0.24
				c-0.02-0.08-0.04-0.17-0.06-0.25c-0.01-0.05-0.02-0.1-0.03-0.16c-0.06-0.29,0.02,0.23,0,0.03c-0.03-0.41-0.05-0.81-0.01-1.22
				c0-0.05,0.02-0.12,0.02-0.16c0.03,0.29-0.03,0.19,0,0.06c0.02-0.11,0.04-0.23,0.07-0.34c0.05-0.2,0.11-0.39,0.17-0.58
				c0.04-0.11,0.13-0.18-0.04,0.09c0.03-0.05,0.05-0.11,0.08-0.16c0.04-0.08,0.08-0.15,0.13-0.22c0.02-0.03,0.05-0.07,0.07-0.1
				c-0.02,0.05-0.21,0.23-0.08,0.11c0.03-0.02,0.05-0.05,0.08-0.08c0.15-0.17-0.22,0.16-0.09,0.07c0.48-0.34,0.75-1,0.4-1.54
				C37.91,122.7,37.18,122.4,36.67,122.77L36.67,122.77z"/>
		</g>
	</g>
	<g>
		<g>
			<path d="M46.65,123.93c-0.05,0.67-0.05,1.35,0.01,2.02c0.06,0.7,0.16,1.41,0.38,2.07c0.19,0.57,0.46,1.19,0.92,1.6
				c0.54,0.48,1.28,0.72,1.99,0.47c0.93-0.32,1.56-1.09,2.11-1.87c0.16-0.22,0.18-0.6,0.11-0.85c-0.07-0.26-0.27-0.53-0.51-0.66
				c-0.56-0.3-1.15-0.11-1.51,0.39c-0.05,0.07-0.33,0.42-0.09,0.14c-0.07,0.09-0.14,0.18-0.22,0.26c-0.12,0.14-0.26,0.27-0.4,0.39
				c-0.13,0.12,0.08-0.07,0.11-0.08c-0.03,0.02-0.06,0.05-0.1,0.07c-0.06,0.04-0.12,0.08-0.19,0.11c-0.09,0.05-0.2,0.05,0.14-0.06
				c-0.03,0.01-0.06,0.02-0.09,0.03c-0.05,0.02-0.11,0.03-0.17,0.04c0.1-0.01,0.2-0.03,0.29-0.04c-0.08,0.01-0.16,0.01-0.24,0
				c0.1,0.01,0.2,0.03,0.29,0.04c-0.05-0.01-0.09-0.02-0.14-0.03c-0.13-0.03,0.18,0.08,0.18,0.08c-0.02-0.01-0.05-0.02-0.07-0.03
				c-0.04-0.02-0.07-0.06-0.11-0.07c0,0,0.25,0.22,0.15,0.11c-0.02-0.02-0.03-0.03-0.05-0.05c-0.04-0.04-0.07-0.08-0.11-0.12
				c-0.08-0.08,0.19,0.26,0.11,0.14c-0.02-0.03-0.04-0.05-0.05-0.08c-0.07-0.1-0.12-0.21-0.17-0.31c-0.01-0.03-0.03-0.06-0.04-0.08
				c-0.07-0.14,0.1,0.26,0.06,0.14c-0.03-0.07-0.05-0.13-0.07-0.2c-0.05-0.14-0.09-0.28-0.13-0.42c-0.08-0.32-0.14-0.64-0.19-0.96
				c0.01,0.1,0.03,0.2,0.04,0.29c-0.11-0.83-0.13-1.67-0.07-2.5c0.04-0.58-0.54-1.13-1.1-1.1C47.12,122.86,46.7,123.31,46.65,123.93
				L46.65,123.93z"/>
		</g>
	</g>
	<g>
		<g>
			<path d="M55.02,143.7c2.56,1.49,4.48,3.93,7.77,2.87c2.79-0.9,4.42-3.87,4.96-6.59c-0.4,0.3-0.8,0.61-1.2,0.91
				c2.12,0.01,4.35,1.01,5.9-0.97c2.33-2.98,1.27-6.79,0.19-10.02c-0.19,0.47-0.38,0.93-0.57,1.4c3.95-2.82,6.12-8.81,1.18-11.84
				c0.19,0.47,0.38,0.93,0.57,1.4c1.11-3.25,2.91-6.24,1.77-9.79c-0.47-1.44-1.45-2.69-1.8-4.17c-0.34-1.46-0.38-2.97-0.68-4.44
				c-0.65-3.24-2.79-5.97-5.81-7.37c-3.37-1.55-6.75-0.38-9.59,1.7c0.5,0.06,1,0.13,1.5,0.19c-2.54-3.19-2.42-7.73-5.51-10.62
				c-1.64-1.54-3.98-2.62-6.26-2.45c-2.49,0.19-4.51,1.64-6.19,3.4c0.65,0.08,1.3,0.17,1.95,0.25c-1.75-2.37-4.38-4.47-7.51-4.16
				c-3.18,0.32-5.05,3.06-5.75,5.95c0.61-0.25,1.21-0.49,1.82-0.74c-3.64-2.42-8.19-3.11-11.71-0.13
				c-3.32,2.81-4.36,7.61-3.88,11.76c0.52-0.4,1.05-0.8,1.57-1.2c-3.42-0.77-8.22-0.61-10.54,2.39c-2.62,3.38-0.97,7.7,0.05,11.34
				c0.29-0.51,0.58-1.02,0.87-1.52c-3.82,1.09-6.68,4.14-7.7,7.97c-0.5,1.88-0.55,3.86-0.16,5.77c0.41,2.06,1.42,3.44,3,4.78
				c0.52,0.44,1.4,1.01,1.51,1.75c0.12,0.81-0.56,1.74-0.72,2.53c-0.41,2.1,0.59,4.09,2.18,5.43c0.75,0.63,1.58,1.13,2.45,1.57
				c0.1,0.05,1.33,0.78,1.48,0.7c-0.24,0.13-0.35-0.99-0.4-0.37c-0.02,0.19,0.1,0.46,0.15,0.64c0.27,0.96,0.69,1.95,1.25,2.78
				c2.63,3.94,7.4,3.11,11.26,1.8c-0.52-0.4-1.05-0.8-1.57-1.2c-0.32,6.43,7.64,5.69,11.22,2.92c1.26-0.98-0.51-2.72-1.75-1.75
				c-1.2,0.93-2.95,1.41-4.45,1.4c-1.72-0.01-2.62-0.83-2.53-2.57c0.04-0.77-0.83-1.45-1.57-1.2c-2.71,0.93-6.64,2.17-8.55-0.8
				c-0.64-0.99-0.72-2.07-1.18-3.09c-0.38-0.84-1.48-1.09-2.24-1.48c-1.55-0.81-3.58-2.09-3.34-4.13c0.19-1.58,1.19-2.62,0.57-4.29
				c-0.58-1.54-2.07-2.3-3.15-3.44c-1.16-1.23-1.41-3.11-1.38-4.74c0.08-3.91,2.48-7.51,6.3-8.6c0.64-0.18,1.05-0.87,0.87-1.52
				c-0.75-2.67-2.4-6.29-0.69-8.91c1.57-2.4,5.63-2.33,8.12-1.78c0.7,0.16,1.67-0.35,1.57-1.2c-0.38-3.37,0.19-7.18,2.74-9.64
				c2.7-2.6,6.29-1.75,9.13,0.14c0.66,0.44,1.64,0.01,1.82-0.74c0.45-1.86,1.46-3.94,3.6-4.16c2.1-0.21,3.97,1.38,5.13,2.95
				c0.46,0.62,1.35,0.88,1.95,0.25c1.39-1.47,3.14-2.87,5.3-2.68c1.97,0.18,3.78,1.5,4.81,3.14c1.84,2.92,2.16,6.46,4.35,9.21
				c0.31,0.39,1.1,0.49,1.5,0.19c2.63-1.93,5.5-2.95,8.42-0.94c2.4,1.65,3.22,3.93,3.59,6.7c0.16,1.21,0.24,2.48,0.66,3.64
				c0.43,1.17,1.18,2.21,1.56,3.4c0.98,3.01-0.82,5.72-1.77,8.47c-0.18,0.52,0.12,1.12,0.57,1.4c3.19,1.96,1.23,5.83-1.18,7.56
				c-0.43,0.31-0.75,0.85-0.57,1.4c0.75,2.26,2.13,5.74,0.25,7.85c-0.35,0.4-0.68,0.35-1.2,0.29c-0.93-0.1-1.82-0.28-2.76-0.28
				c-0.51,0-1.09,0.38-1.2,0.91c-0.39,1.94-1.42,4.41-3.54,4.95c-2.15,0.55-3.87-1.73-5.54-2.71
				C54.89,140.75,53.64,142.89,55.02,143.7L55.02,143.7z"/>
		</g>
	</g>
</g>
<g>
	<g>
		<path class="st0" d="M284.59,92.07c1.9-1.71,4.16-3.42,6.81-3.52c2.03-0.08,3.99,0.63,5.91,1.18c4.8,1.39,9.67,2.04,14.17-0.57
			c3.53-2.04,6.41-5.57,10.49-6.56c5.06-1.23,9.02,2.56,13.17,4.66c2.05,1.04,4.2,1.27,6.43,0.71c2.82-0.7,5.29-2.7,8.28-2.73
			c2.02-0.02,3.72,1.07,5.42,2.03c2.32,1.31,4.79,2.44,7.44,2.82c2.76,0.4,5.37-0.42,7.93-1.36c2.39-0.87,4.92-1.86,7.46-1.02
			c2.46,0.81,4.09,2.88,6.17,4.29c2.19,1.48,4.67,1.37,6.99,0.23c2.3-1.12,3.83-3.96,6.69-3.5c3.21,0.51,5.62,3.45,8.44,4.86
			c2.57,1.28,5.74,1.72,8.45,0.63c2.83-1.14,4.54-3.68,5.07-6.63c0.34-1.89-2.55-2.7-2.89-0.8c-0.44,2.46-1.78,4.48-4.36,4.95
			c-2.7,0.49-5.1-0.79-7.24-2.28c-2.38-1.66-4.77-3.58-7.79-3.77c-2.77-0.18-4.41,1.41-6.41,3.02c-1.83,1.47-3.85,1.91-5.78,0.45
			c-2.03-1.54-3.74-3.33-6.2-4.23c-2.59-0.95-5.3-0.52-7.85,0.34c-2.46,0.84-4.93,2.05-7.59,1.92c-4.9-0.25-8.36-4.49-13.15-4.93
			c-2.99-0.27-5.48,1.18-8.16,2.24c-1.95,0.77-3.91,1.12-5.84,0.15c-2.07-1.04-3.88-2.53-5.99-3.51c-2.42-1.13-5.08-1.99-7.78-1.73
			c-4.49,0.44-7.66,3.51-11.16,6c-1.78,1.26-3.74,2.4-5.97,2.57c-2.83,0.21-5.64-0.57-8.32-1.36c-2.25-0.66-4.55-1.31-6.92-1.02
			c-3.14,0.4-5.75,2.25-8.05,4.32C281.03,91.24,283.16,93.36,284.59,92.07L284.59,92.07z"/>
	</g>
</g>
<g>
	<g>
		<path d="M165.72,233.28c1.62-1.83,3.41-3.7,5.81-4.46c2.31-0.74,4.48-0.31,6.66,0.66c4,1.79,8.3,5.25,12.96,3.99
			c1.8-0.49,3.16-1.68,4.29-3.11c1.03-1.31,1.97-2.92,3.58-3.6c2.11-0.89,4.75-0.29,6.81,0.44c2.22,0.79,4.26,2.02,6.29,3.21
			c3.67,2.14,8.53,5.37,12.97,3.9c2.23-0.74,4.13-2.18,6.29-3.06c2.63-1.07,5.58-0.87,8.32-0.35c5.58,1.06,11.11,3.65,16.9,3.2
			c4.14-0.32,7.28-2.85,10.28-5.48c2.63-2.31,6.24-5.55,9.96-3.54c3.46,1.87,7.45,7.03,11.84,4.88c1.73-0.85,0.21-3.44-1.51-2.59
			c-1.35,0.66-3.43-1.1-4.42-1.8c-1.64-1.17-3.19-2.57-5.04-3.39c-3.68-1.64-7.46-0.1-10.43,2.2c-2.96,2.3-5.59,5.52-9.36,6.49
			c-2.42,0.63-5.11,0.17-7.5-0.35c-2.92-0.64-5.77-1.59-8.68-2.25c-2.85-0.64-5.8-1.02-8.71-0.57c-2.46,0.38-4.59,1.66-6.75,2.81
			c-0.85,0.46-1.74,0.93-2.7,1.13c-1.06,0.21-2.13-0.1-3.14-0.42c-2.3-0.73-4.41-1.99-6.48-3.2c-4.08-2.38-8.56-5.03-13.48-4.59
			c-2.13,0.19-4,1.07-5.44,2.66c-1.13,1.24-1.94,2.89-3.33,3.88c-1.89,1.35-4.28,0.7-6.23-0.16c-2.45-1.09-4.72-2.54-7.23-3.51
			c-2.53-0.98-5.26-1.15-7.84-0.23c-2.76,0.99-4.88,2.96-6.79,5.12C162.32,232.59,164.43,234.72,165.72,233.28L165.72,233.28z"/>
	</g>
</g>
<path d="M316.75,168.02V63.43h17.14v87.5h23.09v17.08H316.75z"/>
<path class="st0" d="M269.68,263.79h-8.59l-0.01-104.31h8.59c13.15,0,23.09,3.48,30.39,10.63c8.92,8.74,13.44,17.33,13.44,41.39
	c0,21.72-4.47,31.96-13.29,41.01C292.84,260.1,282.85,263.79,269.68,263.79z M278.28,177.49l-0.01,68.22
	c4.55-0.96,8.11-2.79,10.77-5.53c4.9-5.03,8.39-10.44,8.39-28.69c0-17.9-3.37-23.99-8.23-28.76
	C286.54,180.13,282.94,178.4,278.28,177.49z"/>
<g>
	<g>
		<path d="M342.34,197.9c-0.92-1.87-2.59-3.28-4.77-2.62c-1.82,0.54-3.35,2-4.88,3.06c-1.3,0.9-2.66,1.87-4.22,2.27
			c-1.61,0.42-3.34,0.16-4.95-0.12c-3.75-0.65-7.7-1.91-11.54-1.18c-3.49,0.66-5.92,3.36-7.91,6.1c-2.65,3.63-5.87,6.67-10.46,7.45
			c-4.78,0.8-9-1.19-13.21-3.13c-1.94-0.89-3.91-1.72-6.04-1.96c-2.27-0.25-4.47,0.34-6.48,1.38c-4.23,2.17-7.56,5.88-12.32,6.99
			c-5.11,1.19-10.03-1.28-14.78-2.77c-1.98-0.62-4.05-1.02-6.13-0.77c-2.57,0.32-4.85,1.52-6.89,3.08
			c-1.52,1.15-0.02,3.76,1.51,2.59c1.67-1.27,3.54-2.43,5.67-2.7c1.72-0.22,3.41,0.18,5.04,0.69c4.13,1.3,8.12,3.1,12.53,3.19
			c4.74,0.09,8.74-2.21,12.51-4.84c1.98-1.38,3.96-2.99,6.33-3.63c1.94-0.53,3.82-0.14,5.67,0.55c2.24,0.85,4.33,2.06,6.55,2.94
			c2.06,0.82,4.22,1.34,6.43,1.52c4.09,0.33,8.17-0.88,11.44-3.36c1.82-1.39,3.34-3.05,4.67-4.91c1.08-1.5,2.21-3.07,3.7-4.2
			c2.47-1.88,5.56-1.49,8.44-0.98c3.9,0.69,8.24,2.17,12.11,0.61c1.9-0.76,3.57-1.98,5.21-3.17c0.79-0.57,1.59-1.28,2.49-1.68
			c0.98-0.43,1.26,0.25,1.69,1.13C340.6,201.15,343.19,199.63,342.34,197.9L342.34,197.9z"/>
	</g>
</g>
<g>
	<g>
		<path class="st0" d="M313.39,99.11c4.09-1.39,8.38-2.01,12.68-1.31c4.19,0.68,7.8,2.55,11.66,4.19c3.87,1.64,7.61,2.36,11.7,1.11
			c1.91-0.58,3.78-1.41,5.78-1.63c1.9-0.21,3.76,0.13,5.56,0.74c3.52,1.19,6.74,3.11,10.5,3.47c3.38,0.32,6.64-0.68,9.8-1.72
			c2.96-0.97,6.13-1.99,9.28-1.44c2.4,0.42,4.71,1.47,6.99,2.27c4.81,1.69,12.76,4.35,15.77-1.61c0.87-1.72-1.72-3.24-2.59-1.51
			c-2.25,4.45-9.45,1.28-12.8,0.09c-2.21-0.79-4.44-1.75-6.76-2.16c-3.23-0.56-6.46,0.13-9.54,1.1c-3.07,0.97-6.15,2.18-9.42,2.04
			c-3.65-0.16-6.88-2.18-10.26-3.35c-3.76-1.3-7.33-1.09-11.06,0.16c-1.88,0.63-3.77,1.35-5.79,1.3c-1.94-0.06-3.83-0.69-5.61-1.42
			c-4.21-1.72-8.07-3.83-12.63-4.54c-4.77-0.74-9.5-0.2-14.05,1.35C310.77,96.83,311.56,99.73,313.39,99.11L313.39,99.11z"/>
	</g>
</g>
<g>
	<g>
		<g>
			<g>
				<path d="M35.21,188.28c1.95,1.98,4.22,3.56,6.87,4.45c2.75,0.93,5.65,1.02,8.52,1c2.15-0.01,4.44,0,6.49-0.77
					c2.19-0.82,3.86-2.42,5.34-4.17c1.02-1.21-0.72-2.97-1.75-1.75c-1.21,1.44-2.56,2.9-4.36,3.58c-1.8,0.68-3.82,0.63-5.71,0.64
					c-2.49,0.02-4.97-0.03-7.37-0.75c-2.44-0.74-4.49-2.17-6.27-3.97C35.84,185.39,34.09,187.14,35.21,188.28L35.21,188.28z"/>
			</g>
		</g>
		<g>
			<g>
				<path d="M34.34,188.42c-0.09,11.43-4.17,22.42-4.07,33.87c0.01,1.59,2.49,1.6,2.48,0c-0.1-11.44,3.99-22.44,4.07-33.87
					C36.83,186.83,34.35,186.83,34.34,188.42L34.34,188.42z"/>
			</g>
		</g>
		<g>
			<g>
				<path d="M31.25,223.79c4.04-0.24,7.68,1.76,11.51,2.72c3.71,0.93,7.5,0.54,11.16-0.46c3.47-0.94,7.02-2.32,10.07-4.24
					c2.88-1.81,5.41-4.26,7.54-6.9c2.33-2.89,4.44-6.2,5.24-9.87c0.11-0.5-0.06-1.16-0.57-1.4c-3.24-1.49-6.55-3.11-9.23-5.5
					c-1.34-1.19-2.53-2.57-3.21-4.24c-0.73-1.79-1.11-3.68-2.15-5.34c-0.84-1.35-2.99-0.11-2.14,1.25c1.07,1.72,1.4,3.74,2.24,5.56
					c0.8,1.74,2.09,3.25,3.51,4.52c2.85,2.55,6.28,4.3,9.73,5.89c-0.19-0.47-0.38-0.93-0.57-1.4c-0.67,3.06-2.33,5.84-4.23,8.3
					c-1.93,2.51-4.24,4.87-6.88,6.64c-2.83,1.9-6.14,3.23-9.4,4.17c-3.41,0.99-6.96,1.5-10.45,0.62c-4.05-1.02-7.88-3.06-12.16-2.81
					C29.66,221.4,29.65,223.88,31.25,223.79L31.25,223.79z"/>
			</g>
		</g>
	</g>
	<path class="st2" d="M70.23,212.69c-1.93,2.51-4.24,4.87-6.88,6.64c-2.83,1.9-6.14,3.23-9.4,4.17c-3.41,0.99-6.96,1.5-10.45,0.62
		c-3.57-0.9-6.97-2.59-10.66-2.8c0.13-10.66,3.67-20.95,4.02-31.59c1.57,1.3,3.33,2.35,5.3,3.01c2.75,0.93,5.65,1.02,8.52,1
		c2.15-0.01,4.44,0,6.49-0.77c1.14-0.43,2.14-1.07,3.05-1.84c0.59,1.38,0.93,2.87,1.56,4.25c0.8,1.74,2.09,3.25,3.51,4.52
		c2.62,2.34,5.73,4.01,8.9,5.5C73.41,208.06,71.91,210.5,70.23,212.69z"/>
</g>
</svg>
