<?xml version="1.0" encoding="utf-8"?>
<!-- Generator: Adobe Illustrator 27.9.0, SVG Export Plug-In . SVG Version: 6.00 Build 0)  -->
<svg version="1.1" id="Layer_1" xmlns="http://www.w3.org/2000/svg" xmlns:xlink="http://www.w3.org/1999/xlink" x="0px" y="0px"
	 viewBox="0 0 567 318" style="enable-background:new 0 0 567 318;" xml:space="preserve">
<style type="text/css">
	.st0{fill:#FFFFFF;}
	.st1{fill:#709BD1;}
	.st2{fill:none;stroke:#000000;stroke-width:9.0038;stroke-miterlimit:10;}
	.st3{fill:#231F20;}
</style>
<g>
	<path class="st0" d="M521.89,318H45.11C20.2,318,0,297.8,0,272.89V45.11C0,20.2,20.2,0,45.11,0h476.78C546.8,0,567,20.2,567,45.11
		v227.78C567,297.8,546.8,318,521.89,318z"/>
	<g>
		<g>
			<path class="st1" d="M201.04,47.85c-0.05-0.01-0.11-0.01-0.16-0.02c0.12,0.02,0.24,0.03,0.36,0.05
				c-0.52-0.08-1.01-0.25-1.54-0.28c-0.67-0.05-1.37,0.24-1.82,0.75c-1.1,1.25-1.47,3.21-0.58,4.68c0.39-0.68,0.78-1.35,1.17-2.03
				c-0.08,0.01-0.16,0.01-0.24,0c0.12,0.02,0.24,0.03,0.36,0.05c-0.06-0.01-0.12-0.02-0.17-0.05c0.11,0.05,0.22,0.09,0.32,0.14
				c-0.06-0.03-0.12-0.06-0.18-0.1c0.09,0.07,0.18,0.14,0.27,0.21c-0.05-0.04-0.1-0.09-0.15-0.15c0.07,0.09,0.14,0.18,0.21,0.27
				c-0.06-0.08-0.11-0.16-0.15-0.25c0.05,0.11,0.09,0.22,0.14,0.32c-0.07-0.16-0.11-0.33-0.14-0.5c0.02,0.12,0.03,0.24,0.05,0.36
				c-0.03-0.25-0.03-0.5,0-0.75c-0.02,0.12-0.03,0.24-0.05,0.36c0.02-0.18,0.06-0.36,0.13-0.53c-0.05,0.11-0.09,0.22-0.14,0.32
				c0.08-0.18,0.2-0.35,0.32-0.5c-0.07,0.09-0.14,0.18-0.21,0.27c0.19-0.24,0.4-0.44,0.63-0.63c-0.09,0.07-0.18,0.14-0.27,0.21
				c0.27-0.21,0.56-0.38,0.87-0.51c-0.11,0.05-0.22,0.09-0.32,0.14c0.27-0.11,0.55-0.19,0.85-0.23c-0.12,0.02-0.24,0.03-0.36,0.05
				c0.27-0.03,0.54-0.04,0.81-0.01c-0.12-0.02-0.24-0.03-0.36-0.05c0.1,0.01,0.19,0.03,0.29,0.05c0.69,0.15,1.49-0.21,1.66-0.94
				c0.16-0.69-0.21-1.5-0.94-1.66c-1.65-0.37-3.44,0.21-4.58,1.46c-0.46,0.51-0.86,1.1-0.97,1.79c-0.1,0.65-0.12,1.34,0.12,1.97
				c0.2,0.52,0.47,0.92,0.93,1.24c0.35,0.25,0.84,0.38,1.27,0.33c0.49-0.05,0.91-0.22,1.17-0.67c0.24-0.41,0.25-0.95,0-1.36
				c-0.06-0.1-0.11-0.2-0.16-0.31c0.05,0.11,0.09,0.22,0.14,0.32c-0.07-0.17-0.11-0.34-0.14-0.51c0.02,0.12,0.03,0.24,0.05,0.36
				c-0.03-0.22-0.03-0.44,0-0.66c-0.02,0.12-0.03,0.24-0.05,0.36c0.04-0.27,0.11-0.53,0.22-0.78c-0.05,0.11-0.09,0.22-0.14,0.32
				c0.1-0.24,0.23-0.48,0.39-0.69c-0.07,0.09-0.14,0.18-0.21,0.27c0.07-0.09,0.15-0.17,0.24-0.25c-0.09,0.07-0.18,0.14-0.27,0.21
				c0.07-0.05,0.13-0.09,0.21-0.13c-0.11,0.05-0.22,0.09-0.32,0.14c0.07-0.03,0.14-0.05,0.22-0.06c-0.12,0.02-0.24,0.03-0.36,0.05
				c0.12-0.01,0.23-0.01,0.34,0c-0.12-0.02-0.24-0.03-0.36-0.05c0.2,0.03,0.4,0.08,0.6,0.13c0.34,0.08,0.68,0.13,1.02,0.17
				c0.32,0.03,0.73-0.17,0.95-0.4c0.23-0.23,0.41-0.62,0.4-0.95c-0.02-0.35-0.13-0.71-0.4-0.95
				C201.72,47.99,201.42,47.89,201.04,47.85L201.04,47.85z"/>
		</g>
	</g>
	<g>
		<g>
			<path class="st1" d="M217.59,45.6c-0.68,0.01-1.4,0.14-1.97,0.54c-0.61,0.43-1,1.05-1.18,1.77c-0.18,0.73-0.27,1.59-0.05,2.32
				c0.24,0.77,0.76,1.36,1.29,1.95c0.2-0.75,0.4-1.5,0.6-2.26c-0.06,0.02-0.13,0.03-0.18,0.06c0.25-0.03,0.31-0.04,0.17-0.03
				c-0.02,0-0.04,0-0.07,0c-0.24,0.02,0.32,0.08,0.1,0.02c-0.08-0.02-0.15-0.04-0.23-0.07c-0.13-0.04,0.32,0.16,0.07,0.02
				c-0.06-0.03-0.12-0.07-0.18-0.11c-0.12-0.07,0.27,0.23,0.06,0.04c-0.05-0.04-0.09-0.1-0.14-0.14c-0.09-0.07,0.18,0.3,0.05,0.07
				c-0.02-0.03-0.03-0.05-0.05-0.08c-0.06-0.12-0.04-0.07,0.05,0.14c0-0.07-0.05-0.16-0.07-0.23c-0.01-0.03-0.01-0.05-0.02-0.08
				c-0.03-0.15-0.02-0.11,0.01,0.12c0.02-0.06-0.01-0.18-0.01-0.25c0-0.08,0-0.17,0.01-0.25c0-0.03,0-0.06,0.01-0.08
				c0.02-0.15,0.01-0.11-0.02,0.11c0.03-0.06,0.03-0.17,0.05-0.24c0.03-0.15,0.07-0.3,0.12-0.45c0.03-0.1,0.15-0.31-0.03,0.05
				c0.03-0.06,0.06-0.13,0.09-0.19c0.06-0.12,0.14-0.24,0.21-0.35c0.14-0.21-0.21,0.23-0.05,0.06c0.05-0.05,0.09-0.1,0.13-0.15
				c0.05-0.05,0.1-0.09,0.14-0.13c0.18-0.17-0.26,0.18-0.07,0.05c0.11-0.07,0.22-0.14,0.34-0.21c0.04-0.02,0.08-0.04,0.12-0.06
				c-0.21,0.09-0.27,0.11-0.17,0.07c0.06-0.02,0.13-0.05,0.19-0.07c0.14-0.05,0.29-0.08,0.44-0.1c0.31-0.05,0.65-0.36,0.81-0.62
				c0.17-0.29,0.24-0.72,0.14-1.04c-0.24-0.75-0.91-1.07-1.66-0.94c-1.83,0.32-3.15,1.88-3.42,3.68c-0.17,1.13-0.04,2.3,0.8,3.14
				c0.73,0.73,1.96,1.23,2.97,0.83c0.45-0.18,0.81-0.45,0.94-0.94c0.13-0.49-0.02-0.94-0.35-1.31c-0.09-0.11-0.19-0.21-0.28-0.32
				c-0.04-0.05-0.08-0.09-0.12-0.14c-0.07-0.09-0.16-0.27,0.04,0.06c-0.06-0.09-0.13-0.18-0.18-0.27c-0.01-0.02-0.1-0.15-0.09-0.17
				c-0.01,0.02,0.12,0.36,0.05,0.11c-0.01-0.05-0.03-0.11-0.04-0.16c-0.07-0.23,0.01,0.34,0.01,0.08c0-0.13-0.01-0.26,0-0.39
				c0-0.07,0.01-0.13,0.02-0.2c0.02-0.22-0.05,0.3-0.02,0.14c0.02-0.11,0.04-0.22,0.06-0.32c0.02-0.09,0.05-0.18,0.08-0.27
				c0.05-0.13,0.13-0.19-0.06,0.13c0.02-0.04,0.04-0.07,0.05-0.11c0.02-0.04,0.04-0.07,0.06-0.1c0.07-0.13,0.16-0.11-0.1,0.12
				c0.05-0.05,0.12-0.11,0.16-0.16c-0.23,0.26-0.25,0.17-0.12,0.1c0.04-0.02,0.07-0.04,0.11-0.06c0.18-0.11-0.13,0.07-0.16,0.06
				c0.02,0,0.13-0.04,0.15-0.05c0.09-0.03,0.19-0.04,0.28-0.06c-0.41,0.09-0.23,0.03-0.1,0.02c0.07,0,0.14-0.01,0.21-0.01
				c0.71-0.01,1.38-0.61,1.35-1.35C218.91,46.23,218.35,45.58,217.59,45.6L217.59,45.6z"/>
		</g>
	</g>
	<path class="st1" d="M67.56,159.55c-0.58-0.89-0.65-1.86-1.06-2.78c-0.34-0.76-1.34-0.98-2.02-1.33c-1.4-0.73-3.22-1.88-3-3.72
		c0.17-1.42,1.08-2.36,0.51-3.86c-0.52-1.39-1.87-2.07-2.84-3.1c-1.05-1.11-1.27-2.8-1.24-4.27c0.07-3.52,2.23-6.76,5.67-7.74
		c0.58-0.16,0.94-0.79,0.78-1.37c-0.67-2.41-2.16-5.66-0.62-8.02c1.41-2.16,5.07-2.1,7.31-1.6c0.63,0.14,1.5-0.31,1.41-1.08
		c-0.35-3.03,0.17-6.47,2.47-8.68c2.43-2.34,5.66-1.57,8.22,0.13c0.59,0.39,1.48,0,1.64-0.67c0.41-1.67,1.32-3.55,3.24-3.74
		c1.89-0.19,3.57,1.24,4.62,2.66c0.41,0.56,1.21,0.79,1.75,0.23c1.26-1.32,2.83-2.58,4.77-2.41c1.77,0.16,3.4,1.35,4.33,2.82
		c1.66,2.63,1.94,5.82,3.92,8.29c0.28,0.35,0.99,0.44,1.35,0.17c2.37-1.73,4.95-2.65,7.58-0.85c2.16,1.49,2.89,3.54,3.23,6.03
		c0.15,1.09,0.21,2.24,0.6,3.27c0.39,1.06,1.06,1.99,1.41,3.06c0.89,2.71-0.74,5.15-1.59,7.63c-0.16,0.47,0.11,1.01,0.51,1.26
		c2.88,1.77,1.11,5.25-1.07,6.81c-0.39,0.28-0.68,0.77-0.51,1.26c0.68,2.04,1.92,5.16,0.23,7.06c-0.32,0.36-0.61,0.31-1.08,0.26
		c-0.59-0.07-1.18-0.16-1.77-0.21c0.03-3.08,0.06-6.16,0.08-9.24c0.02-2.52,0.03-5.04,0.04-7.56c0.14-0.05,0.27-0.13,0.38-0.24
		c2.06-1.93,2.73-5.3,1.29-7.78c-0.41-0.71-0.98-1.35-1.77-1.64c-0.67-0.25-1.45-0.14-2.04,0.25c-1.3,0.87-1.75,2.62-1.62,4.1
		c0.15,1.66,0.79,3.22,1.54,4.7c-0.01,0.05-0.01,0.09-0.01,0.14c-0.01,5.52-0.06,11.05-0.12,16.57c-0.01,1.01-0.02,2.02-0.02,3.03
		c-0.51,1.31-1.37,2.55-2.73,2.9c-1.77,0.45-3.22-1.22-4.6-2.18c0.13-1.03,0.18-2.09,0.15-3.15c0.99,0.3,2.05,0.31,2.97-0.26
		c0.94-0.58,1.55-1.59,1.81-2.65c0.49-2.05-0.2-4.88-2.56-5.39c-1.34-0.29-2.65,0.19-3.8,0.9c-0.43-1.02-0.93-1.99-1.52-2.89
		c0.36-0.13,0.71-0.29,1.01-0.51c0.94-0.68,1.58-1.61,1.97-2.7c0.22-0.6,0.32-1.24,0.38-1.87c0.05-0.58-0.55-1.14-1.12-1.12
		c-0.65,0.03-1.06,0.49-1.12,1.12c-0.01,0.07-0.01,0.13-0.02,0.2c0,0.01,0,0.01,0,0.03c-0.02,0.13-0.05,0.27-0.08,0.4
		c-0.06,0.27-0.15,0.53-0.25,0.79c-0.02,0.05-0.05,0.11-0.07,0.16c-0.06,0.11-0.12,0.22-0.18,0.33c-0.07,0.12-0.16,0.24-0.24,0.35
		c0.22-0.33-0.02,0.01-0.1,0.1c-0.08,0.09-0.17,0.17-0.26,0.25c-0.03,0.02-0.07,0.05-0.1,0.08c0.02-0.02,0.06-0.04,0.13-0.09
		c-0.06,0.04-0.11,0.08-0.17,0.12c-0.1,0.07-0.21,0.13-0.31,0.19c-0.02,0.01-0.04,0.02-0.06,0.04c-0.02,0.01-0.04,0.01-0.06,0.02
		c-0.14,0.05-0.27,0.09-0.42,0.12c-0.05,0.01-0.11,0.02-0.16,0.03c-0.09,0.01-0.19,0.01-0.28,0.01c-0.13-0.14-0.26-0.29-0.39-0.43
		c-0.38-0.38-0.79-0.72-1.22-1.04c1.38-1.18,1.55-3.52,1.47-5.26c-0.03-0.58-0.49-1.14-1.12-1.12c-0.58,0.03-1.14,0.49-1.12,1.12
		c0.02,0.44,0.03,0.87,0.01,1.31c-0.01,0.25-0.04,0.49-0.06,0.74c0.03-0.4,0-0.01-0.02,0.1c-0.02,0.12-0.05,0.24-0.08,0.36
		c-0.03,0.12-0.06,0.23-0.1,0.35c-0.01,0.04-0.03,0.08-0.04,0.13c0.01-0.02,0.01-0.02,0.02-0.04c-0.01,0.02-0.02,0.03-0.02,0.05
		c0,0.01,0,0.01-0.01,0.02c-0.02,0.05-0.05,0.1-0.06,0.11c-0.02,0.04-0.03,0.07-0.05,0.11c-0.03,0.04-0.05,0.09-0.08,0.13
		c-0.01,0.01-0.02,0.03-0.04,0.06c-0.01,0.01-0.01,0.01-0.02,0.02c-0.03,0.04-0.07,0.07-0.1,0.1c0.01,0-0.02,0.03-0.06,0.06
		c-0.03,0.02-0.05,0.04-0.08,0.07c0.03-0.03,0.04-0.03,0.06-0.05c-0.04,0.02-0.08,0.04-0.12,0.06c0.06-0.03-0.01,0.02-0.08,0.04
		c-0.02,0.01-0.05,0.02-0.07,0.04c0.03-0.02,0.04-0.02,0.06-0.04c-0.07,0.02-0.14,0.04-0.22,0.06c-0.13,0.03-0.25,0.09-0.35,0.17
		c-4.25-1.87-9.51-1.25-13.32,1.58c-0.03,0.02-0.05,0.04-0.08,0.06c0,0,0,0-0.01,0c-0.13-0.06-0.26-0.13-0.39-0.21
		c-0.1-0.06-0.23-0.19-0.35-0.23c-0.05-0.04-0.1-0.08-0.15-0.13c-0.1-0.1-0.2-0.2-0.3-0.3c-0.05-0.05-0.09-0.11-0.14-0.16
		c-0.15-0.22-0.3-0.45-0.42-0.69c-0.03-0.06-0.06-0.13-0.09-0.19c-0.05-0.13-0.09-0.25-0.13-0.38c-0.04-0.14-0.08-0.28-0.11-0.43
		c-0.03-0.13-0.03-0.3-0.08-0.42c-0.01-0.07-0.01-0.14-0.02-0.2c-0.01-0.16-0.02-0.33-0.02-0.49c0-0.58-0.51-1.14-1.12-1.12
		c-0.6,0.03-1.12,0.49-1.12,1.12c0,1.4,0.38,2.86,1.22,3.99c0.42,0.56,0.92,1.04,1.49,1.42c-0.22,0.24-0.43,0.48-0.62,0.74
		c-0.25-0.07-0.5-0.14-0.75-0.24c-0.01,0-0.02-0.01-0.03-0.01c-0.01,0-0.01-0.01-0.03-0.01c-0.07-0.03-0.14-0.07-0.21-0.1
		c-0.16-0.08-0.32-0.17-0.47-0.26c-0.15-0.09-0.3-0.19-0.45-0.29c-0.01-0.01,0,0-0.01-0.01c0,0,0,0,0,0
		c-0.06-0.05-0.12-0.1-0.17-0.15c-0.13-0.12-0.25-0.24-0.37-0.37c-0.05-0.05-0.1-0.11-0.15-0.17c0,0,0,0-0.01-0.01
		c-0.01-0.02-0.02-0.03-0.04-0.06c-0.08-0.12-0.16-0.25-0.23-0.37c-0.02-0.03-0.14-0.24-0.13-0.26c0.06,0.14,0.07,0.18,0.04,0.1
		c-0.01-0.03-0.03-0.07-0.04-0.1c-0.06-0.16-0.1-0.33-0.13-0.5c-0.01-0.04-0.01-0.07-0.02-0.11c-0.01-0.09-0.01-0.05,0.01,0.11
		c-0.03-0.02-0.02-0.27-0.02-0.31c-0.02-0.58-0.5-1.14-1.12-1.12c-0.59,0.03-1.13,0.49-1.12,1.12c0.07,2.48,1.94,4.27,4.17,5.1
		c-0.63,1.21-1.07,2.51-1.34,3.85c-0.47-0.54-1.13-0.9-1.93-0.87c-1.19,0.04-2.31,0.75-3.06,1.64c-0.86,1.03-1.37,2.28-1.2,3.63
		c0.18,1.43,0.96,2.8,2.33,3.39c0.8,0.35,1.62,0.43,2.48,0.29c0.57-0.09,1.09-0.33,1.58-0.62c0.49,1.97,1.32,3.79,2.41,5.38
		c-1.07,0.72-2.49,1.11-3.74,1.1c-1.55-0.01-2.36-0.74-2.28-2.32c0.04-0.7-0.75-1.3-1.41-1.08c-0.91,0.31-1.96,0.66-3.02,0.84
		c-0.77-2.24-1.52-4.49-2.27-6.73c-0.76-2.28-1.52-4.56-2.19-6.87c-0.02-0.08-0.05-0.16-0.09-0.22c0.21-1.37,0.72-2.68,1.05-4.02
		c0.36-1.48,0.62-3.17,0.04-4.64c-0.67-1.69-2.47-3.04-4.33-2.36c-1.89,0.69-2.91,2.63-2.68,4.58c0.27,2.2,1.58,4.07,2.87,5.8
		c0.22,0.3,0.54,0.5,0.88,0.54c0.01,0.12,0.05,0.23,0.09,0.34c-0.04,0.17-0.04,0.36,0.02,0.57c1.27,4.38,2.76,8.72,4.28,13.03
		C68.98,160.94,68.16,160.48,67.56,159.55z"/>
	<line class="st2" x1="383.74" y1="223.89" x2="436.63" y2="246.69"/>
	<line class="st2" x1="387.12" y1="213.27" x2="442.59" y2="218.4"/>
	<line class="st2" x1="379.19" y1="233.36" x2="413.48" y2="267.22"/>
	<g>
		<path d="M227.12,109.57v58.68h-15.38v-21.72h-13.35v21.72h-15.38v-58.68c0-12.12,9.89-21.97,22.05-21.97
			S227.12,97.45,227.12,109.57z M211.74,131.14v-21.58c0-3.64-2.99-6.6-6.67-6.6c-3.68,0-6.68,2.96-6.68,6.6v21.58H211.74z"/>
		<path d="M280.31,108.23l0.52,5.11c0,5.49,1.56,19.32-5.87,27.21c3.33,3.86,5.35,8.89,5.35,14.38v4.71
			c0,12.16-9.89,22.05-22.05,22.05h-22.01V87.53h22.01c12.16,0,21.51,6.86,22.05,22.05L280.31,108.23z M251.62,132.85h9.34
			c7.34,0,6.77-13.15,6.53-18.82c-0.06-1.46-0.17-2.91-0.31-4.36l-0.07-0.73c-0.69-4.89-5.17-6.04-8.85-6.04h-6.63V132.85z
			 M264.93,154.93c0-3.68-2.99-6.67-6.68-6.67h-6.63v18.06h6.63c3.68,0,6.68-2.99,6.68-6.67V154.93z"/>
		<path d="M175.15,108.23l0.52,5.11c0,5.49,1.56,19.32-5.87,27.21c3.33,3.86,5.35,8.89,5.35,14.38v4.71
			c0,12.16-9.89,22.05-22.05,22.05h-22.01V87.53h22.01c12.16,0,21.51,6.86,22.05,22.05L175.15,108.23z M146.46,132.85h9.34
			c7.34,0,6.77-13.15,6.53-18.82c-0.06-1.46-0.17-2.91-0.31-4.36l-0.07-0.73c-0.69-4.89-5.17-6.04-8.85-6.04h-6.63V132.85z
			 M159.77,154.93c0-3.68-2.99-6.67-6.68-6.67h-6.63v18.06h6.63c3.68,0,6.68-2.99,6.68-6.67V154.93z"/>
		<path d="M332.62,109.65v3.08c0,5.49-2.02,10.51-5.35,14.38c3.33,3.86,5.35,8.89,5.35,14.38v4.71c0,12.16-9.89,22.05-22.05,22.05
			h-22.01V87.59h22.01C322.73,87.59,332.62,97.49,332.62,109.65L332.62,109.65z M303.93,119.4h6.63c3.68,0,6.68-2.99,6.68-6.68
			v-3.08c0-3.68-2.99-6.68-6.68-6.68h-6.63V119.4z M317.24,141.48c0-3.68-2.99-6.67-6.68-6.67h-6.63v18.06h6.63
			c3.68,0,6.68-2.99,6.68-6.67V141.48z"/>
		<path d="M340.86,181.7V87.53h15.43v78.79h20.79v15.38H340.86z"/>
		<path d="M422.23,102.91h-24.18v29.91h18.93v15.38h-18.92v18.12h24.17v15.38h-39.77V87.53h39.77V102.91z"/>
		<path class="st1" d="M175.35,209.51v3.08c0,5.49-2.02,10.51-5.35,14.38c3.33,3.86,5.35,8.89,5.35,14.38v4.71
			c0,12.16-9.89,22.05-22.05,22.05h-22.01v-80.65h22.01C165.46,187.46,175.35,197.35,175.35,209.51L175.35,209.51z M146.66,219.27
			h6.63c3.68,0,6.68-2.99,6.68-6.68v-3.08c0-3.68-2.99-6.68-6.68-6.68h-6.63V219.27z M159.97,241.35c0-3.68-2.99-6.67-6.68-6.67
			h-6.63v18.06h6.63c3.68,0,6.68-2.99,6.68-6.67V241.35z"/>
		<path class="st1" d="M205.29,268.17h-0.43c-12.04,0-21.84-9.8-21.84-21.84v-72.33h15.38v72.33c0,3.56,2.9,6.46,6.46,6.46h0.43
			c3.56,0,6.46-2.9,6.46-6.46v-72.33h15.38v72.33C227.12,258.38,217.33,268.17,205.29,268.17z"/>
		<path class="st1" d="M243.98,268.11h-7.73l-0.01-80.65h7.74c11.84,0,20.79,2.64,27.36,8.06c8.03,6.63,12.1,17.2,12.1,31.4
			c0,14.46-4.03,25.76-11.96,32.63C264.83,265.31,255.84,268.11,243.98,268.11z M251.73,203.4l-0.01,48.72
			c4.1-0.73,7.31-2.12,9.7-4.19c4.41-3.82,6.65-11.21,6.65-21c0-9.53-2.13-15.92-6.51-19.54
			C259.16,205.41,255.92,204.09,251.73,203.4z"/>
		<path class="st1" d="M298.48,267.92h-7.73l-0.01-93.91h7.74c11.84,0,20.79,3.13,27.36,9.57c8.03,7.87,12.1,15.6,12.1,37.27
			c0,19.56-4.03,28.78-11.96,36.93C319.33,264.6,310.34,267.92,298.48,267.92z M306.22,190.22l-0.01,61.43
			c4.1-0.87,7.31-2.52,9.7-4.98c4.41-4.53,7.55-9.4,7.55-25.83c0-16.12-3.03-21.6-7.41-25.9
			C313.66,192.6,310.41,191.04,306.22,190.22z"/>
		<g>
			<path class="st1" d="M354.9,270.36v-29.42c-8.63-3.84-14.33-12.5-14.33-22.02v-33.7h19.88v33.71c0,2.32,1.89,4.21,4.21,4.21h0.43
				c2.32,0,4.21-1.89,4.21-4.21v-16.96c0-8.47,6.32-15.49,14.5-16.6v-0.15l2.25-0.06h38.88v20.69h-35c-0.41,0-0.74,0.33-0.74,0.74
				v12.34c0,9.52-5.7,18.18-14.33,22.02v29.42H354.9z"/>
			<path class="st0" d="M422.67,187.4v16.19h-32.75c-1.65,0-2.99,1.34-2.99,2.99v12.34c0,9.4-5.97,17.44-14.33,20.51v28.69h-15.45
				v-28.69c-8.35-3.07-14.33-11.1-14.33-20.51v-31.45h15.38v31.45c0,3.57,2.89,6.46,6.46,6.46h0.43c3.57,0,6.46-2.89,6.46-6.46
				v-16.96c0-8.01,6.49-14.49,14.49-14.49h0v-0.06H422.67 M427.17,182.9h-4.5h-36.63h-4.5v0.6c-8.31,2.03-14.49,9.53-14.49,18.46
				v16.96c0,1.08-0.88,1.96-1.96,1.96h-0.43c-1.08,0-1.96-0.88-1.96-1.96v-31.45v-4.5h-4.5h-15.38h-4.5v4.5v31.45
				c0,9.92,5.64,18.97,14.33,23.44v25.76v4.5h4.5h15.45h4.5v-4.5v-25.76c8.68-4.47,14.33-13.52,14.33-23.44v-10.82h31.24h4.5v-4.5
				V187.4V182.9L427.17,182.9z"/>
		</g>
	</g>
	<g>
		<g>
			<g>
				<path class="st3" d="M423.62,260.36c-0.03,1.34,0.1,2.66,0.32,3.98c0.65-0.18,1.3-0.36,1.95-0.54
					c-0.03-0.09-0.04-0.19-0.06-0.29c0.04,0.19,0,0.02-0.01-0.07c-0.02-0.23-0.03-0.47-0.02-0.7c0.01-0.5,0.05-0.93,0.13-1.35
					c0.08-0.44,0.25-1.08,0.38-1.35c0.09-0.19,0.19-0.4,0.33-0.56c-0.12,0.16,0.08-0.07,0.11-0.1c0.06-0.05,0.04-0.04-0.04,0.03
					c0.04-0.03,0.09-0.06,0.14-0.08c-0.26,0.07,0.03-0.01,0.06,0c-0.11,0.01-0.11,0.02,0.01,0.01c-0.12-0.02-0.12-0.02-0.01,0
					c0.2,0.04-0.1-0.08,0.09,0.03c0.04,0.02,0.23,0.16,0.1,0.06c0.39,0.32,0.56,0.65,0.83,1.13c0.51,0.9,0.88,1.87,1.53,2.68
					c0.39,0.49,1.32,0.34,1.59-0.21c0.4-0.81,0.75-1.87,1.41-2.39c-0.17,0.13,0.23-0.14,0.09-0.05c-0.06,0.03-0.04,0.03,0.06-0.01
					c-0.06,0.02-0.11,0.02-0.17,0c0.3,0.13-0.19-0.08-0.01-0.01c-0.32-0.13,0-0.09-0.01,0.02c0.05,0.06,0.03,0.03-0.05-0.07
					c0.03,0.04,0.06,0.08,0.08,0.12c0.04,0.07,0.08,0.14,0.12,0.21c0.03,0.05,0.05,0.1,0.07,0.16c-0.04-0.09-0.04-0.1-0.01-0.03
					c0.04,0.11,0.08,0.22,0.12,0.33c0.63,1.81,0.69,3.86,1.52,5.6c0.24,0.49,0.94,0.62,1.39,0.36c0.5-0.3,0.6-0.89,0.36-1.39
					c-0.06-0.13,0.07,0.22-0.02-0.06c-0.03-0.1-0.07-0.2-0.1-0.3c-0.07-0.24-0.13-0.49-0.19-0.73c-0.13-0.56-0.25-1.12-0.38-1.68
					c-0.25-1.13-0.5-2.33-1.05-3.36c-0.6-1.12-1.87-1.55-2.97-0.78c-1.02,0.72-1.49,1.94-2.02,3.02c0.53-0.07,1.06-0.14,1.59-0.21
					c0.16,0.19-0.07-0.11-0.09-0.15c-0.07-0.11-0.14-0.23-0.2-0.35c-0.15-0.26-0.28-0.54-0.42-0.81c-0.29-0.57-0.57-1.14-0.94-1.66
					c-0.78-1.1-2.07-2-3.42-1.26c-1.11,0.61-1.59,2-1.83,3.17c-0.23,1.15-0.37,2.46-0.06,3.61c0.14,0.53,0.72,0.85,1.25,0.71
					c0.57-0.16,0.8-0.7,0.71-1.25c-0.19-1.14-0.27-2.29-0.24-3.44C425.68,259.06,423.65,259.06,423.62,260.36L423.62,260.36z"/>
			</g>
		</g>
		<g>
			<g>
				<path class="st3" d="M441.65,258.42c-1.42-0.17-2.69,0.83-3.45,1.93c-0.72,1.05-1.14,2.55-0.52,3.74
					c0.64,1.23,2.43,1.62,3.54,0.82c1.07-0.77,1.54-2.1,1.86-3.32c0.29-1.13,0.4-2.29,0.65-3.43c-0.65,0-1.3,0-1.95,0
					c0.79,1.9,1.11,3.96,1.83,5.88c0.18,0.5,0.69,0.89,1.25,0.71c0.49-0.16,0.91-0.71,0.71-1.25c-0.72-1.93-1.04-3.98-1.83-5.88
					c-0.17-0.4-0.5-0.77-0.98-0.74c-0.43,0.02-0.88,0.3-0.98,0.74c-0.19,0.84-0.28,1.7-0.45,2.55c-0.11,0.55-0.24,1.09-0.42,1.62
					c-0.04,0.12-0.08,0.25-0.13,0.37c-0.02,0.06-0.04,0.12-0.07,0.18c0.01-0.01,0.1-0.23,0.03-0.07c-0.11,0.23-0.22,0.46-0.36,0.67
					c-0.01,0.02-0.07,0.13-0.09,0.13c0.03,0,0.17-0.19,0.03-0.04c-0.07,0.07-0.14,0.14-0.21,0.21c-0.12,0.13,0.21-0.13,0.05-0.04
					c-0.04,0.02-0.08,0.05-0.12,0.08c-0.03,0.02-0.1,0.04-0.12,0.06c0.17-0.07,0.21-0.09,0.11-0.05c-0.03,0.01-0.06,0.02-0.09,0.03
					c-0.23,0.08,0.23,0.01-0.01,0c-0.05,0-0.1,0-0.15,0c-0.19,0.01,0.26,0.07,0.05,0.01c-0.06-0.02-0.12-0.03-0.18-0.04
					c-0.24-0.05,0.06,0,0.03,0.03c-0.01,0.01-0.13-0.07-0.14-0.07c-0.22-0.1,0.1,0.12,0,0.01c-0.03-0.03-0.07-0.07-0.1-0.1
					c-0.13-0.11,0.12,0.21,0.04,0.06c-0.02-0.04-0.05-0.09-0.07-0.12c-0.1-0.15,0.07,0.24,0.03,0.07c-0.01-0.06-0.03-0.23-0.07-0.28
					c0.1,0.13,0.02,0.23,0.02,0.12c0-0.07-0.01-0.14,0-0.21c0-0.05,0.01-0.11,0.01-0.16c0-0.2-0.06,0.25-0.01,0.05
					c0.03-0.11,0.05-0.22,0.08-0.33c0.03-0.09,0.05-0.26,0.12-0.34c-0.14,0.17-0.06,0.12-0.01,0.02c0.04-0.07,0.07-0.15,0.11-0.22
					c0.07-0.13,0.15-0.25,0.23-0.37c0.03-0.05,0.07-0.12,0.11-0.15c-0.2,0.18-0.05,0.06,0,0.01c0.1-0.11,0.19-0.22,0.3-0.32
					c0.04-0.04,0.09-0.08,0.14-0.12c0.2-0.19-0.11,0.06,0.04-0.03c0.12-0.07,0.23-0.16,0.36-0.22c0.04-0.02,0.11-0.07,0.16-0.08
					c-0.15,0.06-0.18,0.08-0.08,0.04c0.04-0.01,0.07-0.03,0.11-0.04c0.06-0.02,0.11-0.03,0.17-0.04c0.26-0.07-0.15-0.01,0.01-0.01
					c0.14,0.01,0.27,0,0.4,0.01c0.53,0.06,1.04-0.51,1.01-1.01C442.64,258.83,442.22,258.49,441.65,258.42L441.65,258.42z"/>
			</g>
		</g>
		<g>
			<g>
				<path class="st3" d="M449.46,252.78c0,4.38,0,8.77,0,13.15c0,1.3,2.03,1.31,2.03,0c0-4.38,0-8.77,0-13.15
					C451.49,251.47,449.46,251.47,449.46,252.78L449.46,252.78z"/>
			</g>
		</g>
		<g>
			<g>
				<path class="st3" d="M455.42,257.8c-2.55-0.07-5.13,0.2-7.66-0.24c-1.14-0.2-1.73,1.17-0.78,1.85c2.7,1.93,5.43,3.84,8.08,5.85
					c0.44,0.33,1.13,0.07,1.39-0.36c0.3-0.52,0.07-1.05-0.36-1.39c-2.65-2.01-5.38-3.91-8.08-5.85c-0.26,0.62-0.52,1.23-0.78,1.85
					c2.72,0.48,5.45,0.23,8.19,0.31C456.73,259.86,456.73,257.84,455.42,257.8L455.42,257.8z"/>
			</g>
		</g>
		<g>
			<g>
				<path class="st3" d="M460.45,258.81c0,2.32,0,4.64,0,6.96c0,0.55,0.47,1.01,1.01,1.01c0.55,0,1.01-0.46,1.01-1.01
					c0-2.32,0-4.64,0-6.96c0-0.55-0.47-1.01-1.01-1.01C460.91,257.8,460.45,258.26,460.45,258.81L460.45,258.81z"/>
			</g>
		</g>
		<g>
			<g>
				<path class="st3" d="M461.61,254.26c1.3,0,1.31-2.03,0-2.03C460.31,252.23,460.31,254.26,461.61,254.26L461.61,254.26z"/>
			</g>
		</g>
		<g>
			<g>
				<path class="st3" d="M465.09,258.81c0,1.43,0.01,2.87-0.01,4.3c0.68,0,1.35,0,2.03,0c-0.01-0.13-0.01-0.25,0-0.38
					c0-0.07,0.01-0.14,0.02-0.22c0.01-0.06,0.04-0.35,0.01-0.15c-0.03,0.21,0.01-0.06,0.02-0.11c0.01-0.09,0.03-0.17,0.05-0.26
					c0.04-0.2,0.09-0.39,0.14-0.59c0.05-0.17,0.1-0.35,0.16-0.52c0.03-0.08,0.06-0.16,0.09-0.24c0.02-0.05,0.04-0.11,0.06-0.16
					c0.07-0.18-0.1,0.21-0.01,0.03c0.15-0.34,0.33-0.65,0.54-0.96c0.11-0.16-0.16,0.19-0.03,0.04c0.02-0.03,0.04-0.05,0.06-0.08
					c0.05-0.06,0.11-0.12,0.17-0.18c0.02-0.02,0.05-0.04,0.07-0.06c0.1-0.1,0.12-0.02-0.06,0.04c0.07-0.02,0.14-0.1,0.21-0.14
					c0.03-0.02,0.07-0.03,0.1-0.05c0.12-0.07-0.11,0.05-0.12,0.05c0.04,0.01,0.16-0.04,0.21-0.06c0.17-0.06-0.27,0.01-0.1,0.01
					c0.03,0,0.06,0,0.09,0c0.04,0,0.08,0.01,0.12,0c0.08,0.01,0.03,0-0.15-0.02c0.03,0.01,0.06,0.01,0.09,0.02
					c0.05,0.02,0.29,0.1,0.1,0.02c-0.19-0.07,0.06,0.04,0.1,0.07c0.14,0.08-0.06,0.03-0.07-0.06c0,0.01,0.06,0.05,0.07,0.06
					c0.07,0.07,0.14,0.14,0.21,0.22c0.1,0.11-0.06-0.07-0.06-0.08c0.02,0.04,0.06,0.09,0.09,0.13c0.05,0.08,0.1,0.15,0.14,0.23
					c0.04,0.07,0.08,0.15,0.12,0.22c0.02,0.04,0.04,0.09,0.06,0.13c0.09,0.19-0.09-0.23-0.01-0.03c0.16,0.41,0.28,0.84,0.37,1.27
					c0.02,0.1,0.04,0.2,0.05,0.29c0.01,0.04,0.01,0.09,0.02,0.13c-0.06-0.33-0.02-0.14-0.01-0.07c0.02,0.18,0.03,0.36,0.04,0.53
					c0.01,0.53,0.46,1.04,1.01,1.01c0.54-0.02,1.02-0.45,1.01-1.01c-0.02-0.86-0.18-1.76-0.48-2.56c-0.37-1.01-0.95-1.98-2-2.39
					c-0.95-0.37-1.98,0-2.68,0.69c-0.68,0.68-1.09,1.59-1.39,2.48c-0.28,0.84-0.49,1.78-0.44,2.67c0.03,0.53,0.44,1.04,1.01,1.01
					c0.55-0.02,1.01-0.45,1.01-1.01c0.02-1.43,0.01-2.87,0.01-4.3c0-0.53-0.47-1.04-1.01-1.01
					C465.55,257.82,465.09,258.24,465.09,258.81L465.09,258.81z"/>
			</g>
		</g>
		<g>
			<g>
				<path class="st3" d="M478.84,262.01c-0.08,0.12-0.13,0.17-0.22,0.22c-0.24,0.14,0.15-0.02-0.12,0.05
					c-0.02,0-0.33,0.06-0.12,0.04c-0.42,0.04-0.77-0.03-1.24-0.24c-0.66-0.28-1.41-0.83-1.68-1.46c-0.06-0.14-0.12-0.37-0.15-0.55
					c0.03,0.18,0.02-0.5-0.01-0.24c0.01-0.08,0.14-0.45,0.05-0.26c0.04-0.08,0.08-0.15,0.12-0.22c0.07-0.09,0.06-0.09-0.01,0
					c0.04-0.04,0.08-0.08,0.12-0.12c0.02-0.02,0.24-0.2,0.06-0.06c0.07-0.05,0.14-0.1,0.22-0.14c0.08-0.04,0.16-0.08,0.24-0.12
					c-0.21,0.09,0.07-0.02,0.1-0.02c0.09-0.02,0.18-0.05,0.27-0.07c0.03-0.01,0.33-0.04,0.1-0.02c0.23-0.02,0.45-0.02,0.68,0
					c-0.21-0.02,0.1,0.02,0.12,0.02c0.1,0.02,0.19,0.04,0.29,0.07c0.1,0.03,0.19,0.06,0.29,0.1c-0.18-0.07,0.12,0.06,0.13,0.07
					c0.32,0.17,0.63,0.44,0.81,0.67c0.55,0.71,0.79,1.48,0.91,2.39c0.22,1.62-0.18,3.74-1.21,5.01c-0.7,0.86-1.83,1.54-3.07,1.43
					c-1.21-0.11-2.26-0.98-2.97-1.91c-0.33-0.43-0.87-0.66-1.39-0.36c-0.43,0.25-0.7,0.95-0.36,1.39c0.99,1.29,2.26,2.45,3.9,2.8
					c1.7,0.36,3.39-0.2,4.71-1.29c1.96-1.63,2.69-4.65,2.41-7.09c-0.29-2.57-1.73-5.04-4.52-5.31c-1.11-0.11-2.3,0.22-3.12,0.99
					c-0.89,0.84-1.09,2.15-0.71,3.29c0.87,2.58,5.28,4.84,7.12,1.98C481.3,261.94,479.55,260.92,478.84,262.01L478.84,262.01z"/>
			</g>
		</g>
		<g>
			<g>
				<path class="st3" d="M497.98,258.42c-0.1-0.01-0.2-0.02-0.3-0.03c-0.02,0-0.34-0.04-0.12-0.01c-0.19-0.03-0.37-0.06-0.56-0.08
					c-0.4-0.06-0.81-0.13-1.21-0.09c-1,0.07-1.77,0.57-2.31,1.41c-0.82,1.26-0.76,3.33,0.12,4.55c0.8,1.12,2.42,1.55,3.58,0.7
					c1.03-0.76,1.51-2.05,1.81-3.24c0.31-1.19,0.49-2.46,0.5-3.69c-0.66,0.09-1.33,0.18-1.99,0.27c0.44,1.2,0.96,2.37,1.38,3.58
					c0.22,0.61,0.41,1.23,0.56,1.86c0.15,0.65,0.21,1,0.19,1.68c-0.02,0.55,0.48,1.01,1.01,1.01c0.56,0,1-0.46,1.01-1.01
					c0.08-2.68-1.3-5.21-2.19-7.66c-0.17-0.47-0.59-0.8-1.11-0.73c-0.5,0.07-0.87,0.48-0.88,1c0,0.38-0.03,0.76-0.07,1.13
					c-0.01,0.1-0.02,0.2-0.03,0.3c-0.01,0.11-0.05,0.36-0.01,0.11c-0.04,0.27-0.08,0.53-0.13,0.8c-0.09,0.49-0.21,0.98-0.37,1.46
					c-0.04,0.12-0.08,0.23-0.12,0.35c-0.03,0.07-0.05,0.13-0.08,0.2c0.01-0.03,0.1-0.21,0.02-0.05c-0.11,0.22-0.21,0.44-0.34,0.64
					c-0.02,0.03-0.05,0.07-0.07,0.1c-0.1,0.17,0.13-0.11,0.03-0.04c-0.06,0.05-0.11,0.13-0.17,0.19c-0.01,0.01-0.11,0.12-0.12,0.11
					c-0.04-0.01,0.21-0.13,0.08-0.06c-0.04,0.02-0.09,0.06-0.13,0.08c-0.17,0.11,0.02-0.07,0.06-0.01c0.01,0.01-0.25,0.07-0.25,0.07
					c0.04-0.11,0.25,0,0.11-0.02c-0.05-0.01-0.11,0-0.16,0c-0.16,0.01,0.14-0.03,0.1,0.01c-0.01,0.01-0.16-0.04-0.17-0.04
					c-0.04-0.01-0.08-0.03-0.12-0.04c-0.19-0.05,0.16,0.1-0.01-0.01c-0.05-0.03-0.23-0.17-0.04,0c-0.04-0.03-0.08-0.07-0.11-0.1
					c-0.04-0.04-0.16-0.23-0.04-0.03c-0.03-0.05-0.06-0.09-0.09-0.13c-0.03-0.06-0.06-0.12-0.09-0.18
					c-0.07-0.14,0.06,0.23-0.01-0.03c-0.05-0.17-0.09-0.33-0.13-0.51c-0.01-0.04-0.03-0.2,0,0.01c-0.01-0.07-0.01-0.15-0.02-0.22
					c-0.01-0.13-0.01-0.27-0.01-0.4c0-0.09,0.01-0.17,0.02-0.26c-0.02,0.21-0.01,0.06,0,0.02c0.03-0.16,0.08-0.31,0.12-0.47
					c0.05-0.17,0,0-0.02,0.03c0.05-0.1,0.1-0.19,0.16-0.29c0.01-0.01,0.12-0.16,0.03-0.06c0.06-0.08,0.13-0.14,0.2-0.21
					c0.17-0.17-0.13,0.04,0.08-0.05c0.06-0.03,0.26-0.09,0.05-0.03c0.05-0.01,0.15-0.02,0.19-0.05c0.08-0.01,0.05-0.01-0.07,0
					c0.05-0.01,0.11-0.01,0.16-0.01c0.15-0.01,0.31,0,0.46,0.02c0.07,0.01,0.15,0.02,0.22,0.02c-0.23-0.03,0.07,0.01,0.09,0.01
					c0.45,0.07,0.89,0.14,1.35,0.17c0.55,0.04,1.01-0.49,1.01-1.01C498.99,258.85,498.53,258.46,497.98,258.42L497.98,258.42z"/>
			</g>
		</g>
		<g>
			<g>
				<path class="st3" d="M502.38,259.28c0,1.52,0.78,3.52,2.48,3.8c0.91,0.15,1.94-0.13,2.56-0.85c0.54-0.65,0.75-1.45,0.77-2.29
					c0.02-0.78-0.12-1.56-0.25-2.32c-0.09-0.52-0.76-0.87-1.25-0.71c-0.56,0.18-0.81,0.69-0.71,1.25c0.04,0.25,0.09,0.5,0.12,0.74
					c0.04,0.26-0.03-0.26,0,0c0.01,0.06,0.01,0.12,0.02,0.19c0.02,0.15,0.03,0.3,0.03,0.45c0.01,0.13,0.01,0.27,0,0.4
					c0,0.07-0.01,0.14-0.01,0.21c0,0.05-0.04,0.33-0.01,0.12c0.03-0.21-0.01,0.04-0.02,0.09c-0.01,0.06-0.03,0.11-0.04,0.17
					c-0.02,0.06-0.04,0.12-0.06,0.19c-0.03,0.08-0.1,0.16,0.05-0.1c-0.02,0.03-0.03,0.06-0.05,0.09c-0.03,0.06-0.06,0.11-0.09,0.16
					c-0.12,0.19,0.14-0.15,0.03-0.04c-0.04,0.05-0.09,0.09-0.13,0.13c-0.06,0.06-0.15,0.08,0.09-0.06
					c-0.04,0.02-0.07,0.05-0.11,0.07c-0.05,0.03-0.11,0.06-0.16,0.09c-0.14,0.07,0.12-0.05,0.11-0.05
					c-0.02,0.02-0.09,0.03-0.12,0.04c-0.08,0.02-0.16,0.04-0.24,0.06c-0.09,0.02-0.12-0.03,0.11-0.01c-0.05,0-0.1,0.01-0.15,0.01
					c-0.06,0-0.13-0.01-0.19-0.01c0.3,0,0.15,0.02,0.02-0.01c-0.04-0.01-0.07-0.02-0.11-0.03c-0.08-0.03-0.08-0.08,0.12,0.05
					c-0.06-0.04-0.13-0.07-0.19-0.11c-0.19-0.13,0.14,0.13,0.03,0.03c-0.05-0.05-0.1-0.09-0.14-0.14c-0.07-0.08-0.17-0.25,0,0.01
					c-0.04-0.07-0.09-0.13-0.13-0.19c-0.04-0.07-0.08-0.14-0.11-0.21c-0.01-0.03-0.03-0.06-0.04-0.09
					c-0.08-0.17-0.02,0.02,0.03,0.07c-0.08-0.09-0.12-0.34-0.15-0.46c-0.02-0.08-0.04-0.16-0.05-0.23
					c-0.01-0.04-0.01-0.08-0.02-0.12c-0.04-0.21,0.02,0.19,0.01,0.08c-0.02-0.16-0.03-0.31-0.03-0.47c0-0.53-0.47-1.04-1.01-1.01
					C502.85,258.29,502.38,258.71,502.38,259.28L502.38,259.28z"/>
			</g>
		</g>
		<g>
			<g>
				<path class="st3" d="M517.37,257.92c-0.34-1.97-3.33-3.55-5.11-2.66c-1.79,0.89-2.26,3.57-1.83,5.34
					c0.55,2.29,3.26,3.45,5.28,2.25c2.07-1.22,2.42-3.98,2.6-6.16c0.21-2.67,0.02-5.46-0.62-8.06c-0.31-1.27-2.27-0.73-1.95,0.54
					c0.42,1.71,0.59,3.47,0.62,5.23c0.03,1.76-0.06,3.59-0.62,5.27c-0.4,1.19-1.69,2.29-2.84,1.23c-0.48-0.44-0.57-0.89-0.57-1.54
					c0-0.61,0.11-1.26,0.42-1.8c0.34-0.59,0.61-0.65,1.26-0.41c0.59,0.23,1.33,0.72,1.43,1.3c0.09,0.54,0.76,0.84,1.25,0.71
					C517.23,259.01,517.46,258.47,517.37,257.92L517.37,257.92z"/>
			</g>
		</g>
		<g>
			<g>
				<path class="st3" d="M522.98,264.23c0-1.55,0-3.09,0-4.64c0-0.53-0.47-1.04-1.01-1.01c-0.55,0.02-1.01,0.45-1.01,1.01
					c0,1.55,0,3.09,0,4.64c0,0.53,0.47,1.04,1.01,1.01C522.51,265.22,522.98,264.8,522.98,264.23L522.98,264.23z"/>
			</g>
		</g>
		<g>
			<g>
				<path class="st3" d="M522.12,255.49c1.3,0,1.31-2.03,0-2.03C520.81,253.47,520.81,255.49,522.12,255.49L522.12,255.49z"/>
			</g>
		</g>
		<g>
			<g>
				<path class="st3" d="M526.37,257.42c-0.15,1.28,0.36,2.65,1.55,3.27c1.09,0.57,2.36,0.5,3.45-0.03c1.2-0.58,1.92-1.78,2.02-3.08
					c0.06-0.71-0.11-1.46-0.37-2.11c-0.41-1.01-1.05-2.05-2.25-2.14c-0.92-0.07-1.72,0.57-2.34,1.18c-0.28,0.27-0.54,0.56-0.81,0.85
					c-0.13,0.14-0.26,0.27-0.4,0.4c-0.06,0.06-0.12,0.12-0.19,0.17c-0.02,0.02-0.04,0.03-0.06,0.05c-0.12,0.11,0.24-0.17,0.06-0.05
					c-0.43,0.3-0.68,0.9-0.36,1.39c0.28,0.43,0.92,0.69,1.39,0.36c0.54-0.38,0.97-0.86,1.41-1.33c0.22-0.23,0.45-0.46,0.69-0.68
					c0.05-0.05,0.11-0.09,0.17-0.14c0.1-0.08-0.22,0.16-0.08,0.06c0.03-0.02,0.05-0.04,0.07-0.05c0.12-0.08,0.25-0.14,0.37-0.21
					c-0.27,0.15-0.15,0.06-0.04,0.03c0.03-0.01,0.06-0.01,0.09-0.02c0.1-0.02,0.06,0.06-0.16,0.02c0.05,0.01,0.27,0.02,0.05-0.01
					c-0.24-0.03,0.04,0.03,0.08,0.03c-0.02,0-0.24-0.13-0.13-0.05c0.02,0.01,0.05,0.03,0.07,0.04c0.03,0.02,0.16,0.11,0,0
					c-0.15-0.11-0.03-0.02,0,0.01c0.04,0.04,0.19,0.24,0.09,0.09c-0.1-0.15,0.01,0.01,0.02,0.04c0.04,0.05,0.07,0.1,0.1,0.16
					c0.05,0.08,0.09,0.16,0.13,0.24c0.03,0.06,0.05,0.11,0.08,0.17c0.07,0.13-0.07-0.18,0-0.01c0.06,0.16,0.12,0.32,0.16,0.48
					c0.04,0.15,0.08,0.3,0.11,0.45c0.04,0.24-0.02-0.2,0-0.04c0.01,0.08,0.02,0.16,0.02,0.24c0.01,0.13,0,0.25,0,0.38
					c0,0.03-0.01,0.07-0.01,0.1c-0.01,0.14,0.01-0.15,0.02-0.15c0.01,0-0.04,0.2-0.04,0.21c-0.02,0.11-0.06,0.21-0.09,0.32
					c-0.01,0.02-0.02,0.07-0.03,0.08c-0.01,0.01,0.12-0.27,0.06-0.14c-0.03,0.05-0.05,0.11-0.08,0.16c-0.05,0.1-0.11,0.19-0.17,0.28
					c-0.1,0.16,0.18-0.22,0.04-0.06c-0.04,0.04-0.07,0.09-0.11,0.13c-0.07,0.07-0.15,0.14-0.22,0.21c-0.16,0.14,0.23-0.16,0.05-0.04
					c-0.05,0.03-0.09,0.06-0.14,0.09c-0.08,0.05-0.17,0.1-0.26,0.15c-0.01,0-0.15,0.07-0.15,0.07c-0.01-0.01,0.27-0.1,0.15-0.06
					c-0.03,0.01-0.06,0.02-0.09,0.03c-0.09,0.03-0.19,0.06-0.28,0.08c-0.12,0.03-0.51,0.06-0.08,0.03c-0.2,0.01-0.4,0.02-0.61,0.01
					c-0.21-0.02,0.28,0.05,0.1,0.01c-0.05-0.01-0.09-0.02-0.14-0.03c-0.1-0.02-0.2-0.05-0.3-0.09c-0.02-0.01-0.04-0.02-0.06-0.02
					c-0.13-0.04,0.25,0.12,0.13,0.05c-0.05-0.03-0.1-0.05-0.15-0.08c-0.05-0.03-0.09-0.06-0.14-0.09c-0.02-0.01-0.03-0.02-0.05-0.03
					c-0.12-0.07,0.21,0.18,0.11,0.08c-0.08-0.08-0.16-0.14-0.23-0.22c-0.16-0.17,0.14,0.21,0.03,0.05
					c-0.03-0.04-0.06-0.09-0.09-0.13c-0.03-0.05-0.06-0.11-0.08-0.16c-0.08-0.15,0.11,0.29,0.02,0.04
					c-0.04-0.11-0.07-0.23-0.09-0.35c-0.05-0.22,0.03,0.29,0,0.02c-0.01-0.07-0.01-0.15-0.01-0.22c0-0.16,0.01-0.32,0.03-0.48
					c0.06-0.53-0.51-1.04-1.01-1.01C526.78,256.43,526.43,256.85,526.37,257.42L526.37,257.42z"/>
			</g>
		</g>
		<g>
			<g>
				<path class="st3" d="M448.9,283.03c0-1.47,0.15-2.94-0.03-4.41c-0.1-0.82-0.26-1.64-0.66-2.37c-0.45-0.83-1.31-1.52-2.24-1.74
					c-2.03-0.48-3.74,1.19-4.25,3.03c-0.37,1.34-0.61,3.29,0.73,4.19c0.82,0.55,1.99,0.39,2.8-0.09c0.43-0.26,0.8-0.61,1.17-0.96
					c0.08-0.07,0.15-0.14,0.23-0.21c0.05-0.04,0.26-0.19,0.11-0.09c0.1-0.07,0.2-0.12,0.3-0.19c0.01-0.01,0.14-0.07,0.04-0.02
					c-0.12,0.05,0.13-0.04,0.13-0.04c0.53-0.15,0.85-0.71,0.71-1.25c-0.14-0.52-0.72-0.86-1.25-0.71c-0.79,0.23-1.37,0.77-1.96,1.32
					c-0.11,0.1-0.22,0.2-0.34,0.3c0.17-0.14-0.06,0.04-0.08,0.05c-0.07,0.05-0.15,0.09-0.23,0.13c0.16-0.08,0.05-0.01,0,0
					c-0.09,0.02-0.18,0.05-0.26,0.07c-0.26,0.07,0.18,0.01-0.06,0.01c-0.01,0-0.22,0.01-0.22,0c-0.01-0.03,0.24,0.08,0.01-0.01
					c-0.2-0.08,0.21,0.12,0.03,0.01c-0.15-0.09,0.07,0.06,0.07,0.06c-0.01,0-0.12-0.11-0.12-0.12c0-0.01,0.13,0.23,0.03,0.02
					c-0.09-0.18,0.05,0.19,0.02,0.06c-0.03-0.12-0.11-0.27-0.1-0.4c-0.02,0.25,0.01,0.12,0.01,0.03c0-0.06-0.01-0.12-0.01-0.17
					c0-0.15,0-0.29,0.01-0.44c0-0.05,0.01-0.1,0.01-0.15c0.02-0.26-0.04,0.23,0-0.03c0.03-0.15,0.05-0.3,0.08-0.44
					c0.03-0.14,0.07-0.28,0.11-0.43c0.02-0.06,0.04-0.12,0.06-0.19c0-0.01,0.12-0.31,0.04-0.12c0.07-0.16,0.16-0.31,0.25-0.46
					c0.04-0.07,0.09-0.13,0.13-0.19c-0.12,0.16,0.11-0.12,0.14-0.15c0.05-0.05,0.11-0.1,0.16-0.16c0.04-0.04,0.2-0.15,0.04-0.04
					c0.07-0.05,0.14-0.1,0.22-0.14c0,0,0.25-0.13,0.11-0.06c-0.14,0.06,0.12-0.04,0.12-0.04c0.08-0.02,0.16-0.04,0.25-0.06
					c-0.24,0.04,0.02,0.01,0.07,0.01c0.06,0,0.3,0.05,0.08,0c0.33,0.07,0.48,0.13,0.7,0.33c0.11,0.1,0.21,0.2,0.31,0.32
					c-0.18-0.2-0.03-0.03,0,0.02c0.05,0.08,0.1,0.17,0.14,0.25c0.02,0.04,0.04,0.09,0.06,0.13c-0.11-0.24-0.01-0.01,0.01,0.04
					c0.05,0.14,0.09,0.28,0.13,0.42c0.04,0.15,0.07,0.3,0.1,0.45c0.02,0.08,0.03,0.17,0.04,0.26c-0.03-0.18,0,0,0.01,0.08
					c0.15,1.42,0.01,2.85,0.01,4.27c0,0.55,0.47,1.01,1.01,1.01C448.44,284.04,448.9,283.58,448.9,283.03L448.9,283.03z"/>
			</g>
		</g>
		<g>
			<g>
				<path class="st3" d="M457.84,274.37c-0.91-1.06-2.24-1.8-3.67-1.51c-1.29,0.26-2.17,1.47-2.42,2.69
					c-0.13,0.65-0.16,1.29-0.03,1.94c0.1,0.52,0.31,1.02,0.53,1.49c0.24,0.51,0.55,0.97,0.9,1.4c0.3,0.37,0.68,0.73,1.1,0.94
					c0.65,0.33,1.35,0.38,2.01,0.04c0.7-0.37,1.08-1.11,1.37-1.82c0.2-0.49-0.22-1.13-0.71-1.25c-0.59-0.13-1.03,0.18-1.25,0.71
					c-0.07,0.17,0.09-0.2-0.01,0.02c-0.03,0.05-0.05,0.11-0.08,0.16c-0.06,0.11-0.13,0.21-0.19,0.31c-0.05,0.09,0.1-0.12,0.09-0.11
					c-0.02,0.02-0.04,0.05-0.06,0.07c-0.03,0.03-0.06,0.06-0.09,0.09c-0.03,0.03-0.06,0.05-0.09,0.08c0.17-0.2,0.16-0.11,0.05-0.05
					c-0.04,0.03-0.19,0.09,0,0.01c0.19-0.08,0.06-0.02,0.01-0.01c-0.01,0-0.11,0.02-0.11,0.03c0.01-0.04,0.32-0.01,0.13-0.02
					c-0.01,0-0.11-0.01-0.11,0c0.02-0.02,0.31,0.06,0.14,0.02c-0.03-0.01-0.06-0.02-0.1-0.03c-0.02-0.01-0.04-0.02-0.06-0.02
					c-0.12-0.03,0.16,0.06,0.15,0.06c-0.04,0.01-0.17-0.09-0.21-0.11c-0.04-0.02-0.07-0.05-0.11-0.07
					c-0.12-0.07,0.21,0.17,0.07,0.05c-0.14-0.13-0.28-0.26-0.41-0.4c-0.03-0.04-0.07-0.08-0.1-0.12c-0.12-0.14,0.08,0.12,0.05,0.06
					c-0.06-0.09-0.13-0.18-0.19-0.27c-0.12-0.18-0.23-0.36-0.32-0.55c-0.05-0.09-0.09-0.18-0.14-0.28c-0.02-0.05-0.05-0.1-0.07-0.15
					c-0.06-0.14,0.1,0.24,0.02,0.05c-0.07-0.19-0.14-0.37-0.19-0.57c-0.02-0.09-0.04-0.17-0.06-0.26c-0.01-0.04-0.02-0.09-0.03-0.13
					c-0.04-0.19,0.01,0.13,0.01,0.1c0.01-0.22-0.02-0.43,0-0.65c0.01-0.06,0.01-0.13,0.02-0.19c-0.02,0.31-0.01,0.08,0.01,0
					c0.03-0.13,0.06-0.26,0.1-0.39c0.02-0.06,0.04-0.12,0.06-0.18c0.06-0.17-0.1,0.2-0.02,0.05c0.05-0.11,0.1-0.21,0.17-0.31
					c0.03-0.04,0.05-0.08,0.08-0.12c0.09-0.13-0.16,0.19-0.03,0.04c0.07-0.08,0.15-0.15,0.22-0.23c0.15-0.13-0.17,0.11-0.05,0.04
					c0.04-0.02,0.07-0.05,0.11-0.07c0.04-0.02,0.08-0.04,0.11-0.06c0.02-0.01,0.06-0.02,0.08-0.04c-0.01,0.01-0.25,0.09-0.12,0.05
					c0.1-0.03,0.21-0.06,0.31-0.09c0.2-0.05-0.26,0.01-0.05,0.01c0.05,0,0.1-0.01,0.16,0c0.06,0,0.12,0.01,0.18,0.01
					c0.15,0.01-0.27-0.05-0.06-0.01c0.12,0.03,0.24,0.06,0.35,0.1c0.23,0.08-0.13-0.07-0.01,0c0.06,0.03,0.13,0.06,0.19,0.1
					c0.12,0.07,0.24,0.16,0.36,0.23c0.09,0.05-0.09-0.07-0.09-0.07c0.03,0.03,0.06,0.05,0.09,0.08c0.06,0.05,0.13,0.11,0.19,0.17
					c0.13,0.12,0.25,0.26,0.37,0.39c0.35,0.4,1.08,0.38,1.43,0C458.24,275.38,458.21,274.8,457.84,274.37L457.84,274.37z"/>
			</g>
		</g>
		<g>
			<g>
				<path class="st3" d="M464.27,274.58c-1.19-0.26-2.41-0.07-3.17,0.96c-0.54,0.74-0.64,1.77-0.54,2.66
					c0.12,1.05,0.41,2.05,0.91,2.98c0.44,0.82,1.07,1.62,1.97,1.95c1.19,0.43,2.22-0.47,2.67-1.5c0.22-0.48,0.16-1.11-0.36-1.39
					c-0.44-0.23-1.15-0.15-1.39,0.36c-0.08,0.19-0.19,0.36-0.3,0.54c-0.09,0.16,0.18-0.2,0.06-0.07c-0.03,0.03-0.05,0.06-0.07,0.08
					c-0.03,0.03-0.06,0.05-0.08,0.08c-0.13,0.13,0.04-0.05,0.1-0.07c-0.04,0.02-0.13,0.07-0.16,0.1c-0.01,0.01,0.3-0.09,0.13-0.06
					c-0.03,0.01-0.07,0.01-0.1,0.03c-0.07,0.04,0.29-0.01,0.17-0.02c-0.02,0-0.05,0-0.08,0c-0.19,0.02,0.17,0,0.16,0.03
					c0,0-0.08-0.01-0.09-0.02c-0.03-0.01-0.06-0.02-0.09-0.03c-0.16-0.03,0.2,0.11,0.13,0.06c-0.05-0.04-0.12-0.06-0.18-0.1
					c-0.03-0.02-0.05-0.04-0.08-0.05c-0.14-0.08,0.22,0.19,0.1,0.07c-0.06-0.05-0.12-0.1-0.17-0.16c-0.05-0.05-0.11-0.11-0.16-0.17
					c-0.02-0.03-0.05-0.06-0.07-0.09c-0.11-0.13,0.17,0.23,0.05,0.06c-0.1-0.15-0.21-0.3-0.3-0.46c-0.1-0.17-0.19-0.34-0.27-0.52
					c-0.02-0.05-0.04-0.09-0.06-0.14c-0.06-0.14,0.11,0.27,0.03,0.08c-0.04-0.1-0.08-0.2-0.11-0.29c-0.14-0.39-0.24-0.78-0.31-1.19
					c-0.01-0.05-0.01-0.1-0.02-0.15c-0.01-0.04,0.03,0.3,0.01,0.1c-0.01-0.1-0.02-0.2-0.03-0.3c-0.01-0.19-0.01-0.39,0-0.58
					c0-0.04,0.01-0.08,0.01-0.12c0.01-0.19,0,0.06-0.02,0.12c0.02-0.09,0.03-0.17,0.05-0.26c0.02-0.08,0.05-0.16,0.07-0.24
					c0.01-0.05,0.08-0.19-0.01,0.01c-0.09,0.2-0.01,0.03,0.01-0.02c0.04-0.08,0.09-0.14,0.13-0.21c0.07-0.13-0.19,0.21-0.06,0.08
					c0.03-0.03,0.05-0.06,0.08-0.08c0.03-0.03,0.07-0.06,0.1-0.09c-0.03,0.03-0.24,0.16-0.08,0.06c0.04-0.02,0.08-0.04,0.12-0.07
					c0.15-0.09-0.11,0.04-0.1,0.04c0.09-0.01,0.19-0.06,0.28-0.08c0.21-0.05-0.17,0.01-0.08,0.01c0.05,0,0.1-0.01,0.15-0.01
					c0.12,0,0.24,0,0.36,0.01c0.23,0.02-0.21-0.04-0.05-0.01c0.08,0.01,0.15,0.03,0.23,0.04c0.52,0.11,1.12-0.15,1.25-0.71
					C465.09,275.31,464.82,274.7,464.27,274.58L464.27,274.58z"/>
			</g>
		</g>
		<g>
			<g>
				<path class="st3" d="M473.98,280.3c-0.3,0.03-0.61,0.04-0.91,0.02c-0.07,0-0.15-0.01-0.22-0.02c-0.17-0.01,0.24,0.05-0.04-0.01
					c-0.17-0.03-0.34-0.07-0.51-0.11c-0.14-0.04-0.28-0.09-0.41-0.14c0.04,0.01,0.18,0.08,0,0c-0.06-0.03-0.13-0.06-0.19-0.1
					c-0.13-0.07-0.24-0.14-0.37-0.22c-0.04-0.03-0.19-0.15-0.03-0.02c-0.07-0.05-0.13-0.11-0.19-0.17c-0.11-0.1-0.2-0.2-0.3-0.31
					c-0.18-0.21,0.07,0.1-0.03-0.04c-0.04-0.06-0.08-0.12-0.12-0.19c-0.08-0.13-0.15-0.27-0.21-0.4c0.07,0.16,0,0.01-0.01-0.02
					c-0.03-0.09-0.06-0.17-0.08-0.26c-0.03-0.1-0.04-0.21-0.07-0.31c-0.04-0.14,0.02,0.25,0,0.02c0-0.05-0.01-0.1-0.01-0.14
					c-0.01-0.12-0.01-0.24,0-0.36c0-0.07,0.01-0.15,0.02-0.22c-0.01,0.16-0.02,0.11,0.01-0.02c0.02-0.12,0.05-0.24,0.09-0.35
					c0.01-0.05,0.03-0.09,0.05-0.14c0.07-0.23-0.1,0.19,0.01-0.02c0.05-0.11,0.11-0.21,0.17-0.31c0.03-0.04,0.05-0.08,0.08-0.12
					c0.11-0.16-0.14,0.13,0.04-0.04c0.08-0.07,0.15-0.15,0.23-0.22c-0.2,0.18,0.07-0.04,0.15-0.08c0.05-0.03,0.27-0.1,0.02-0.02
					c0.05-0.02,0.09-0.03,0.14-0.05c0.07-0.02,0.15-0.04,0.22-0.06c0.2-0.05-0.19,0,0.05-0.01c0.15,0,0.3-0.01,0.44,0.01
					c-0.24-0.02,0.13,0.05,0.2,0.07c-0.04-0.01-0.18-0.1-0.04-0.01c0.06,0.03,0.22,0.17,0.03,0c0.03,0.03,0.07,0.07,0.1,0.09
					c0.16,0.12-0.08-0.16,0.01,0c0.03,0.06,0.07,0.12,0.1,0.18c-0.02-0.04-0.06-0.21-0.03-0.05c0.01,0.07,0.03,0.14,0.05,0.21
					c-0.01-0.04-0.01-0.22-0.02-0.05c0,0.05-0.02,0.14,0,0.19c0.03,0.12,0.06-0.22,0,0.01c-0.02,0.07-0.03,0.14-0.05,0.21
					c-0.01,0.04-0.12,0.33-0.04,0.14c-0.06,0.15-0.16,0.28-0.24,0.42c-0.07,0.14,0.15-0.16-0.02,0.04
					c-0.06,0.07-0.11,0.13-0.18,0.19c-0.12,0.12-0.25,0.24-0.39,0.35c0.15-0.11,0.02-0.02-0.01,0c-0.1,0.07-0.2,0.14-0.3,0.2
					c-0.56,0.36-1.16,0.65-1.74,0.99c-0.46,0.27-0.66,0.92-0.36,1.39c0.3,0.46,0.9,0.65,1.39,0.36c1.32-0.79,2.91-1.43,3.6-2.91
					c0.39-0.84,0.5-1.78,0.12-2.64c-0.31-0.7-1-1.19-1.74-1.34c-1.73-0.35-3.27,0.62-3.9,2.21c-0.54,1.34-0.32,2.96,0.51,4.13
					c1.12,1.57,3.04,2.26,4.93,2.08c0.53-0.05,1.04-0.43,1.01-1.01C474.97,280.81,474.54,280.24,473.98,280.3L473.98,280.3z"/>
			</g>
		</g>
		<g>
			<g>
				<path class="st3" d="M479.34,283.54c0.93,0.2,2.02,0.11,2.5-0.85c0.41-0.83,0.13-1.78-0.24-2.56c-0.33-0.7-0.85-1.35-1.52-1.75
					c-0.37-0.22-0.77-0.38-1.14-0.6c-0.05-0.03-0.31-0.22-0.13-0.07c-0.07-0.06-0.13-0.13-0.2-0.19c-0.11-0.09,0.12,0.13,0.02,0.03
					c-0.02-0.03-0.04-0.07-0.05-0.1c0.1,0.16,0.05,0.1,0.03,0.03c0.07,0.21-0.01,0.07,0.01-0.01c0.03-0.12,0.03,0.14,0,0.03
					c-0.02-0.07,0.07-0.17-0.01-0.02c0.02-0.05,0.06-0.1,0.08-0.14c0.08-0.16-0.06,0.05,0.02-0.03c0.09-0.1,0.19-0.19,0.28-0.28
					c0.01-0.01,0.12-0.1,0.04-0.04c-0.09,0.07,0.1-0.07,0.12-0.09c0.23-0.16,0.47-0.29,0.72-0.42c0.1-0.05,0.21-0.1,0.31-0.15
					c-0.23,0.1,0.12-0.05,0.17-0.07c0.51-0.19,0.86-0.68,0.71-1.25c-0.14-0.49-0.73-0.9-1.25-0.71c-0.92,0.34-1.89,0.8-2.55,1.56
					c-0.81,0.93-0.94,2.26-0.01,3.17c0.34,0.33,0.76,0.56,1.18,0.77c0.17,0.09,0.35,0.17,0.52,0.26c0.09,0.05,0.17,0.11,0.26,0.16
					c0.16,0.1-0.16-0.16,0.01,0.02c0.05,0.06,0.11,0.11,0.16,0.16c0.03,0.03,0.18,0.22,0.08,0.09c-0.1-0.12,0.04,0.07,0.07,0.1
					c0.06,0.08,0.11,0.17,0.16,0.25c0.04,0.07,0.08,0.14,0.11,0.21c0.02,0.04,0.12,0.26,0.06,0.12c-0.07-0.15,0.03,0.08,0.04,0.12
					c0.03,0.09,0.06,0.18,0.08,0.27c0.01,0.04,0.02,0.08,0.03,0.12c0.05,0.19-0.02-0.07-0.01-0.07c0.02,0,0,0.2,0.01,0.22
					c0.02,0.14,0.08-0.23,0-0.02c-0.05,0.15,0.05-0.11,0.05-0.11c-0.03,0.05-0.11,0.12,0.01,0.01c0.13-0.12,0.04-0.05,0.01-0.02
					c-0.08,0.07,0.23-0.15,0.07-0.06c-0.08,0.05,0.22-0.04,0-0.01c0.24-0.03,0.08-0.01-0.05-0.01c-0.05,0-0.1-0.01-0.15-0.01
					c0.19,0.01,0.02,0-0.07-0.02c-0.53-0.11-1.1,0.16-1.25,0.71C478.49,282.8,478.8,283.43,479.34,283.54L479.34,283.54z"/>
			</g>
		</g>
		<g>
			<g>
				<path class="st3" d="M487.83,283.24c1.36-0.09,2.09-1.11,2.25-2.39c0.12-0.99-0.06-2.14-0.86-2.82
					c-0.72-0.62-1.73-0.84-2.61-1.12c-0.22-0.07-0.43-0.13-0.65-0.2c-0.09-0.03-0.18-0.06-0.27-0.1c0.18,0.07-0.1-0.06-0.15-0.09
					c-0.17-0.09,0.13,0.02-0.04-0.04c0.04,0.02,0.13,0.09,0.02,0.02c0.02,0.01,0.05,0.17,0.03,0.05c-0.02-0.11,0,0.03,0,0.05
					c-0.01-0.05-0.01-0.1,0-0.15c0.01-0.18-0.03,0.13,0-0.08c0.01-0.07,0.03-0.14,0.05-0.21c0.03-0.11,0-0.02-0.01,0
					c0.03-0.06,0.07-0.12,0.1-0.18c0.01-0.01,0.1-0.16,0.03-0.06c0.04-0.06,0.09-0.11,0.14-0.16c0.21-0.22,0.32-0.3,0.54-0.44
					c0.51-0.32,0.83-0.45,1.38-0.62c1.25-0.37,0.72-2.32-0.54-1.95c-1.01,0.3-2.04,0.78-2.78,1.54c-0.8,0.82-1.28,2.17-0.69,3.24
					c0.5,0.91,1.6,1.11,2.5,1.41c0.42,0.14,0.85,0.27,1.27,0.42c0.11,0.04-0.02-0.01-0.04-0.02c0.05,0.02,0.1,0.05,0.15,0.07
					c0.07,0.04,0.14,0.08,0.21,0.12c0.16,0.09-0.09-0.09,0.04,0.04c0.04,0.04,0.11,0.14-0.01-0.03c0.03,0.04,0.05,0.09,0.09,0.14
					c0.01,0.01,0.06,0.14,0.02,0.03c-0.04-0.11,0.02,0.07,0.02,0.09c0.01,0.05,0.02,0.1,0.03,0.14c0.03,0.15,0.01,0.01,0.01,0.12
					c0.01,0.19,0.01,0.57-0.01,0.65c-0.03,0.17-0.07,0.31-0.15,0.45c-0.01,0.01-0.09,0.14-0.03,0.04c0.04-0.06,0.02-0.05-0.04,0.03
					c0.02-0.02,0.04-0.03,0.06-0.05c-0.09,0.01-0.04,0.06-0.05,0.03c0.05-0.02,0.04-0.02-0.02,0c-0.07,0.02-0.07,0.02,0,0
					c-0.55,0.04-1.01,0.44-1.01,1.01C486.82,282.75,487.28,283.28,487.83,283.24L487.83,283.24z"/>
			</g>
		</g>
		<g>
			<g>
				<path class="st3" d="M494.4,284.27c0-1.91,0.2-3.81,0.15-5.73c-0.01-0.53-0.46-1.04-1.01-1.01c-0.54,0.02-1.03,0.45-1.01,1.01
					c0.05,1.91-0.15,3.82-0.15,5.73c0,0.53,0.47,1.04,1.01,1.01C493.93,285.26,494.39,284.84,494.4,284.27L494.4,284.27z"/>
			</g>
		</g>
		<g>
			<g>
				<path class="st3" d="M493.66,273.81c1.3,0,1.31-2.03,0-2.03C492.36,271.79,492.35,273.81,493.66,273.81L493.66,273.81z"/>
			</g>
		</g>
		<g>
			<g>
				<path class="st3" d="M497.94,272.82c0.01,2.63,0.16,5.37,0.75,7.94c0.26,1.12,0.71,2.82,2.01,3.15
					c1.85,0.47,3.03-1.86,3.15-3.34c0.21-2.46-1.78-4.97-4.39-4.1c-1.23,0.41-0.7,2.37,0.54,1.95c0.1-0.03,0.21-0.07,0.31-0.09
					c0.3-0.07-0.17-0.01,0.13-0.02c0.09,0,0.19,0,0.28,0c-0.23-0.02,0.04,0.02,0.08,0.03s0.29,0.12,0.08,0.02
					c0.08,0.04,0.15,0.08,0.22,0.13c0.23,0.14-0.13-0.13,0.07,0.05c0.08,0.08,0.17,0.16,0.24,0.25c-0.14-0.17,0.04,0.06,0.05,0.09
					c0.04,0.08,0.09,0.16,0.13,0.24c0.14,0.26-0.06-0.18,0.05,0.1c0.03,0.09,0.06,0.18,0.09,0.27c0.03,0.09,0.05,0.19,0.07,0.28
					c0.07,0.3-0.01-0.2,0.02,0.11c0.02,0.23,0.02,0.45,0,0.68c-0.03,0.31,0.05-0.19-0.02,0.11c-0.02,0.09-0.04,0.19-0.07,0.28
					c-0.03,0.09-0.06,0.18-0.09,0.27c0.08-0.19-0.05,0.09-0.06,0.1c-0.03,0.06-0.06,0.11-0.1,0.16c-0.16,0.25,0.1-0.1-0.06,0.08
					c-0.09,0.11-0.22,0.2-0.31,0.32c-0.11,0.14,0.19-0.09,0.04-0.03c-0.04,0.01-0.09,0.05-0.12,0.08c-0.18,0.13,0.24-0.04-0.03,0
					c0.36-0.06,0.21-0.02,0.12-0.02c-0.16-0.01,0.29,0.06,0.13,0.02c-0.26-0.06,0.22,0.13-0.02-0.01c0.33,0.2,0.07,0.02,0-0.03
					c-0.13-0.08,0.13,0.21,0.05,0.06c-0.02-0.04-0.06-0.08-0.08-0.12c-0.06-0.09-0.1-0.18-0.15-0.28c-0.03-0.05-0.05-0.1-0.07-0.16
					c0.14,0.29,0.01,0.03-0.01-0.04c-0.19-0.54-0.33-1.1-0.44-1.67c-0.06-0.32-0.12-0.65-0.17-0.97c-0.01-0.08-0.02-0.17-0.04-0.25
					c-0.04-0.28,0.03,0.22-0.01-0.07c-0.02-0.2-0.05-0.4-0.07-0.6c-0.07-0.66-0.13-1.33-0.17-2c-0.07-1.01-0.12-2.02-0.12-3.02
					C499.96,271.51,497.94,271.51,497.94,272.82L497.94,272.82z"/>
			</g>
		</g>
		<g>
			<g>
				<path class="st3" d="M505.37,268.93c0.01,1.83,0.19,3.68,0.43,5.49c0.17,1.27,0.36,2.55,0.7,3.79c0.26,0.95,0.6,2,1.29,2.74
					c0.88,0.94,2.05,0.81,2.99,0.06c0.43-0.34,0.36-1.08,0-1.43c-0.42-0.42-1-0.34-1.43,0c0.26-0.21-0.05,0.01-0.06,0.03
					c-0.01,0.02-0.09,0.05-0.1,0.05c0.03-0.02,0.23-0.06,0.09-0.04c-0.22,0.03,0.11,0.01,0.05,0.01c-0.28-0.02,0.16,0.06,0.02,0.02
					c-0.22-0.06,0.13,0.09,0.03,0.02c-0.04-0.03-0.2-0.14-0.06-0.03c0.15,0.11-0.04-0.05-0.07-0.08c-0.02-0.02-0.04-0.04-0.06-0.06
					c-0.14-0.14,0.12,0.19,0.01,0.01c-0.09-0.14-0.18-0.28-0.26-0.44c-0.04-0.08-0.08-0.16-0.11-0.24c-0.08-0.17,0-0.01,0.01,0.03
					c-0.03-0.08-0.06-0.15-0.09-0.23c-0.16-0.44-0.29-0.9-0.41-1.36c-0.52-2.13-0.7-4.04-0.85-6.25c-0.05-0.69-0.09-1.38-0.1-2.07
					C507.4,267.62,505.37,267.62,505.37,268.93L505.37,268.93z"/>
			</g>
		</g>
		<g>
			<g>
				<path class="st3" d="M518.42,278.07c-0.08,0-0.17-0.01-0.25-0.01c-0.2-0.01,0.14,0.04-0.05-0.01c-0.17-0.04-0.33-0.07-0.5-0.12
					c-0.07-0.02-0.15-0.05-0.22-0.08c-0.11-0.04,0.06,0.02,0.06,0.03c-0.05-0.02-0.09-0.04-0.14-0.07
					c-0.15-0.08-0.29-0.16-0.43-0.25c-0.03-0.02-0.22-0.15-0.12-0.08c0.1,0.08-0.08-0.07-0.11-0.09c-0.13-0.11-0.25-0.23-0.36-0.35
					c-0.05-0.06-0.1-0.12-0.16-0.18c-0.06-0.07-0.14-0.18-0.04-0.04c-0.1-0.14-0.2-0.28-0.29-0.42c-0.09-0.15-0.18-0.3-0.25-0.45
					c-0.04-0.07-0.07-0.14-0.1-0.22c-0.02-0.04-0.03-0.07-0.05-0.11c-0.06-0.13,0.06,0.16,0.01,0.02c-0.12-0.31-0.22-0.63-0.3-0.95
					c-0.04-0.15-0.06-0.31-0.09-0.47c-0.04-0.2,0.01,0.16-0.01-0.04c-0.01-0.09-0.02-0.18-0.02-0.27c-0.02-0.33-0.01-0.65,0.02-0.98
					c0-0.06-0.04,0.19,0-0.02c0.01-0.07,0.03-0.14,0.04-0.21c0.03-0.15,0.07-0.29,0.12-0.44c0.02-0.06,0.05-0.13,0.07-0.19
					c-0.05,0.15-0.05,0.11,0.01,0c0.07-0.13,0.14-0.24,0.21-0.37c0.11-0.19-0.1,0.08,0.02-0.03c0.05-0.04,0.08-0.1,0.13-0.14
					c0.04-0.05,0.1-0.08,0.14-0.13c0.1-0.11-0.16,0.09,0.02-0.02c0.11-0.07,0.23-0.13,0.34-0.19c0.04-0.02-0.18,0.05,0.01,0
					c0.08-0.02,0.16-0.05,0.23-0.07c0.07-0.02,0.14-0.03,0.21-0.04c-0.17,0.04-0.08,0.01,0.03,0c0.18-0.01,0.35-0.01,0.53,0
					c0.05,0,0.1,0.01,0.15,0.01c-0.15-0.02,0.02,0,0.04,0.01c0.09,0.02,0.18,0.04,0.27,0.06c0.1,0.02,0.22,0.09,0.06,0.01
					c0.07,0.04,0.14,0.08,0.21,0.12c0.06,0.03-0.17-0.13-0.02,0c0.05,0.04-0.12-0.19-0.03-0.03c0.03,0.05-0.08-0.23-0.03-0.04
					c0,0,0-0.23-0.01-0.03c-0.02,0.17,0.07-0.2,0.01-0.04c-0.02,0.05-0.04,0.13-0.05,0.18c-0.03,0.16,0.09-0.14,0,0.01
					c-0.04,0.07-0.08,0.15-0.12,0.22c-0.05,0.09-0.11,0.18-0.17,0.26c-0.04,0.06-0.18,0.24-0.06,0.09
					c-0.13,0.16-0.26,0.31-0.41,0.46c-0.15,0.15-0.3,0.3-0.46,0.44c-0.08,0.07-0.16,0.14-0.25,0.21c-0.04,0.03-0.07,0.06-0.11,0.09
					c0.08-0.06,0.05-0.04-0.01,0.01c-0.34,0.25-0.7,0.48-1.07,0.68c-0.08,0.04-0.17,0.08-0.25,0.12c0.18-0.09,0.02-0.01-0.07,0.02
					c-0.15,0.05-0.31,0.1-0.47,0.12c-0.54,0.09-0.84,0.76-0.71,1.25c0.16,0.57,0.7,0.8,1.25,0.71c0.82-0.14,1.61-0.61,2.27-1.09
					c0.81-0.59,1.56-1.27,2.12-2.11c0.49-0.73,0.8-1.7,0.37-2.53c-0.49-0.94-1.64-1.21-2.61-1.24c-1.79-0.06-3.23,1.05-3.77,2.74
					c-0.52,1.63-0.19,3.48,0.52,4.99c0.87,1.86,2.6,3.23,4.69,3.31C519.73,280.15,519.73,278.12,518.42,278.07L518.42,278.07z"/>
			</g>
		</g>
	</g>
	<g>
		<g>
			<g>
				<path class="st3" d="M202.62,82.29c0-3.45,0-6.9,0-10.35c0-1.28-1.98-1.28-1.98,0c0,3.45,0,6.9,0,10.35
					C200.64,83.57,202.62,83.57,202.62,82.29L202.62,82.29z"/>
			</g>
		</g>
		<g>
			<g>
				<path class="st3" d="M210.27,81.84c0.16-2.73-1.14-5.66-0.04-8.29c0.21-0.49-0.22-1.09-0.69-1.22c-0.57-0.16-1.01,0.2-1.22,0.69
					c-1.2,2.84,0.13,5.89-0.04,8.82c-0.03,0.53,0.48,0.99,0.99,0.99C209.84,82.83,210.24,82.38,210.27,81.84L210.27,81.84z"/>
			</g>
		</g>
		<g>
			<g>
				<path class="st3" d="M201.81,73.34c2.24,0.58,4.55,1.31,6.89,1.21c2.35-0.1,4.57-1.07,6.46-2.44c3.07-2.22,5.18-5.49,6.28-9.08
					c2.17-7.1,0.55-15.77-5.32-20.67c-4.49-3.74-10.63-5.83-15.86-2.27c-4.67,3.17-6.99,8.97-7.57,14.4
					c-0.72,6.73,1.47,13.77,7.09,17.85c1.03,0.75,2.02-0.97,1-1.71c-8.3-6.03-8.12-20.36-1.22-27.4c3.56-3.62,8.39-3.78,12.65-1.25
					c6.07,3.61,8.87,10.32,8.02,17.25c-0.46,3.75-2.04,7.46-4.8,10.1c-1.58,1.51-3.62,2.77-5.79,3.14
					c-2.45,0.42-4.95-0.43-7.29-1.04C201.1,71.11,200.58,73.02,201.81,73.34L201.81,73.34z"/>
			</g>
		</g>
		<g>
			<g>
				<path class="st3" d="M202.89,59.78c-0.28,2.66,0.22,6,2.69,7.55c0.9,0.57,2.03,0.75,3.06,0.46c1.15-0.33,2.05-1.19,2.66-2.2
					c0.95-1.59,1.22-3.53,1.23-5.36c0.01-1.28-1.97-1.28-1.98,0c0,0.43-0.02,0.87-0.06,1.3c-0.01,0.08-0.02,0.17-0.03,0.25
					c0,0.04-0.03,0.26-0.01,0.08c-0.03,0.22-0.07,0.43-0.11,0.65c-0.06,0.31-0.14,0.62-0.24,0.92c-0.05,0.15-0.1,0.3-0.16,0.45
					c-0.02,0.04-0.12,0.28-0.02,0.05c-0.03,0.07-0.06,0.13-0.09,0.2c-0.12,0.25-0.26,0.49-0.41,0.72c-0.04,0.07-0.27,0.33-0.07,0.11
					c-0.09,0.11-0.18,0.22-0.28,0.32c-0.07,0.07-0.14,0.14-0.21,0.2c-0.04,0.04-0.09,0.07-0.13,0.11c0.22-0.19,0.08-0.06,0.02-0.02
					c-0.09,0.06-0.18,0.12-0.27,0.17c-0.09,0.05-0.35,0.25-0.09,0.06c-0.13,0.1-0.36,0.11-0.52,0.16c-0.17,0.04-0.02,0.06,0.07-0.01
					c-0.02,0.02-0.12,0.01-0.14,0.01c-0.11,0-0.22,0-0.34,0c-0.04,0-0.08-0.01-0.12-0.01c-0.12,0.01,0.27,0.06,0.1,0.01
					c-0.09-0.03-0.19-0.04-0.29-0.06c-0.07-0.02-0.23-0.04-0.28-0.09c0,0,0.24,0.12,0.1,0.04c-0.06-0.03-0.12-0.06-0.18-0.09
					c-0.09-0.05-0.18-0.1-0.27-0.16c-0.08-0.05-0.27-0.24-0.06-0.04c-0.17-0.17-0.36-0.32-0.53-0.51c-0.03-0.03-0.05-0.06-0.08-0.09
					c-0.14-0.16,0.12,0.19,0.01,0.01c-0.07-0.11-0.14-0.21-0.21-0.31c-0.14-0.23-0.26-0.47-0.37-0.71c0.11,0.25,0.01,0.02-0.01-0.02
					c-0.03-0.09-0.07-0.18-0.1-0.27c-0.05-0.14-0.09-0.29-0.13-0.43c-0.05-0.18-0.09-0.36-0.12-0.54c-0.01-0.07-0.02-0.13-0.04-0.2
					c-0.01-0.05-0.05-0.35-0.02-0.11c-0.1-0.85-0.09-1.71,0-2.56c0.06-0.53-0.5-0.99-0.99-0.99
					C203.3,58.79,202.94,59.25,202.89,59.78L202.89,59.78z"/>
			</g>
		</g>
		<g>
			<g>
				<path class="st3" d="M194.37,47.7c-0.01,1.69-0.22,3.44,0.19,5.1c0.2,0.78,0.6,1.57,1.33,1.98c0.87,0.49,1.89,0.3,2.76-0.07
					c1.69-0.72,2.83-2.11,3.56-3.76c0.76-1.7,1.17-3.59,0.87-5.44c-0.34-2.14-1.95-3.51-4.09-3.65c-1.27-0.08-1.27,1.9,0,1.98
					c0.24,0.02,0.19,0,0.46,0.06c0.15,0.04,0.31,0.08,0.45,0.14c-0.16-0.06,0.19,0.1,0.24,0.13c0.07,0.04,0.14,0.09,0.21,0.14
					c-0.14-0.1,0.01,0.01,0.06,0.06c0.04,0.05,0.3,0.34,0.17,0.17c0.1,0.13,0.18,0.28,0.27,0.42c0.03,0.05,0.05,0.1,0.07,0.15
					c-0.1-0.2,0.02,0.05,0.03,0.08c0.06,0.17,0.11,0.34,0.15,0.51c0.01,0.06,0.08,0.47,0.06,0.28c0.02,0.16,0.03,0.32,0.04,0.47
					c0.01,0.4,0,0.79-0.06,1.19c0.02-0.13-0.05,0.27-0.06,0.34c-0.03,0.17-0.07,0.34-0.11,0.51c-0.1,0.39-0.22,0.77-0.36,1.15
					c-0.1,0.26-0.2,0.5-0.38,0.84c-0.17,0.32-0.35,0.63-0.56,0.93c-0.25,0.36-0.77,0.9-1.1,1.11c-0.36,0.22-0.71,0.4-1.11,0.51
					c-0.06,0.02-0.13,0.03-0.2,0.05c-0.29,0.06,0.18,0.01-0.1,0.01c-0.06,0-0.11,0-0.16,0c-0.15,0,0.13,0.07-0.11-0.02
					c-0.22-0.09,0.15,0.05,0.01,0.01c-0.04-0.01-0.11-0.06-0.15-0.09c0.25,0.25-0.18-0.25,0.02,0.02c-0.09-0.12-0.16-0.25-0.22-0.39
					c0.1,0.21-0.07-0.23-0.09-0.31c-0.18-0.68-0.19-1.33-0.19-2.18c0-0.82,0.05-1.63,0.05-2.44
					C196.36,46.43,194.38,46.43,194.37,47.7L194.37,47.7z"/>
			</g>
		</g>
		<g>
			<g>
				<path class="st3" d="M213.31,41.87c-2.15,1.66-2.53,4.72-2.11,7.24c0.2,1.24,0.68,2.48,1.51,3.43c1.01,1.16,2.5,1.43,3.97,1.21
					c0.92-0.14,1.74-0.54,2.29-1.3c0.45-0.62,0.53-1.47,1.06-2.02c0.88-0.93-0.52-2.33-1.4-1.4c-0.49,0.52-0.72,1.12-1,1.77
					c-0.07,0.17-0.17,0.4-0.29,0.55c-0.14,0.18-0.34,0.28-0.46,0.32c-0.51,0.18-1.1,0.23-1.63,0.15c-0.19-0.03-0.42-0.09-0.53-0.15
					c-0.06-0.03-0.27-0.17-0.23-0.14c0.03,0.03-0.16-0.15-0.21-0.2c-0.08-0.08-0.15-0.16-0.22-0.25c0.09,0.11-0.06-0.08-0.08-0.11
					c-0.14-0.21-0.26-0.44-0.38-0.66c-0.14-0.29-0.32-0.87-0.41-1.31c-0.19-0.89-0.21-2.07-0.04-2.95c0.05-0.29,0.12-0.57,0.21-0.85
					c0.09-0.3,0.11-0.35,0.23-0.59c0.09-0.19,0.3-0.53,0.36-0.61c-0.06,0.09,0.06-0.07,0.07-0.08c0.04-0.05,0.08-0.09,0.13-0.14
					c0.05-0.05,0.31-0.28,0.18-0.18c0.42-0.33,0.65-0.85,0.36-1.36C214.42,41.8,213.74,41.54,213.31,41.87L213.31,41.87z"/>
			</g>
		</g>
		<g>
			<g>
				<path class="st3" d="M207.21,55.83c1.28,0,1.28-1.98,0-1.98C205.94,53.85,205.94,55.83,207.21,55.83L207.21,55.83z"/>
			</g>
		</g>
		<g>
			<g>
				<path class="st3" d="M203.98,38.9c-1.41-0.01-3.01-0.02-4.24-0.82c-1.21-0.78-1.75-2.27-2.17-3.57
					c-0.41,0.41-0.81,0.81-1.22,1.22c1.71,0.42,3.33,2.46,5.39,2.03c1.12-0.23,1.65-1.23,1.47-2.31c-0.23-1.32-1-2.27-0.41-3.56
					c-0.52,0.07-1.04,0.13-1.56,0.2c0.49,0.63,1,1.76,1.5,2.55c0.6,0.96,1.32,2.01,2.35,2.56c1.01,0.54,2.41,0.51,3.19-0.42
					c0.4-0.48,0.5-1.09,0.48-1.7c-0.02-0.53-0.2-1.12,0.13-1.57c-0.52,0.07-1.04,0.13-1.56,0.2c1.3,1.18,1.46,3.15,2.39,4.59
					c0.44,0.69,1,1.14,1.62,1.65c0.08,0.07,0.17,0.13,0.24,0.21c-0.11-0.13,0,0.1-0.03-0.04c0.08,0.33,0.05,0.75,0.05,1.1
					c0.01,1.27,1.99,1.28,1.98,0c-0.01-0.73,0.04-1.56-0.38-2.19c-0.43-0.63-1.19-0.94-1.65-1.56c-1.2-1.6-1.27-3.76-2.82-5.16
					c-0.51-0.46-1.17-0.33-1.56,0.2c-0.31,0.42-0.43,0.92-0.46,1.43c-0.02,0.43,0.19,1.06,0.05,1.47c-0.15,0.46-0.93-0.05-1.22-0.32
					c-1.29-1.23-1.84-3.02-2.92-4.41c-0.37-0.48-1.31-0.33-1.56,0.2c-0.54,1.16-0.63,2.31-0.24,3.52c0.16,0.49,0.26,1.01,0.44,1.49
					c-0.04-0.1,0.18,0-0.04-0.08c-0.76-0.27-1.47-0.52-2.21-0.94c-0.68-0.39-1.38-0.88-2.15-1.07c-0.71-0.17-1.45,0.48-1.22,1.22
					c0.56,1.78,1.35,3.6,2.96,4.68c1.55,1.05,3.55,1.15,5.36,1.17C205.26,40.89,205.26,38.91,203.98,38.9L203.98,38.9z"/>
			</g>
		</g>
		<g>
			<g>
				<path class="st3" d="M218.13,50.21c-0.03-0.04-0.07-0.07-0.1-0.11c0.05,0.07,0.1,0.13,0.15,0.2c-0.1-0.13-0.17-0.26-0.24-0.41
					c0.03,0.08,0.07,0.16,0.1,0.24c-0.08-0.2-0.14-0.4-0.16-0.62c0.01,0.09,0.02,0.18,0.04,0.26c-0.03-0.23-0.03-0.47,0-0.7
					c-0.01,0.09-0.02,0.18-0.04,0.26c0.02-0.16,0.06-0.32,0.12-0.47c-0.03,0.08-0.07,0.16-0.1,0.24c0.04-0.08,0.08-0.16,0.13-0.24
					c-0.05,0.07-0.1,0.13-0.15,0.2c0.04-0.05,0.08-0.09,0.13-0.13c-0.07,0.05-0.13,0.1-0.2,0.15c0.03-0.02,0.06-0.04,0.1-0.06
					c-0.08,0.03-0.16,0.07-0.24,0.1c0.04-0.01,0.07-0.02,0.11-0.03c-0.09,0.01-0.18,0.02-0.26,0.04c0.04,0,0.08,0,0.12,0
					c-0.09-0.01-0.18-0.02-0.26-0.04c0.05,0.01,0.1,0.02,0.14,0.04c-0.08-0.03-0.16-0.07-0.24-0.1c0.07,0.03,0.14,0.07,0.2,0.12
					c-0.07-0.05-0.13-0.1-0.2-0.15c0.12,0.09,0.22,0.21,0.31,0.32c-0.05-0.07-0.1-0.13-0.15-0.2c0.04,0.05,0.07,0.09,0.11,0.14
					c0.15,0.22,0.33,0.38,0.59,0.46c0.24,0.07,0.55,0.04,0.76-0.1c0.21-0.14,0.4-0.34,0.46-0.59c0.06-0.25,0.05-0.55-0.1-0.76
					c-0.32-0.46-0.72-0.91-1.28-1.07c-0.51-0.14-1.11,0.01-1.46,0.42c-0.28,0.33-0.46,0.71-0.53,1.14
					c-0.08,0.49-0.07,0.95,0.03,1.44c0.11,0.52,0.36,1.01,0.72,1.4c0.35,0.38,1.05,0.38,1.4,0C218.5,51.2,218.5,50.62,218.13,50.21
					L218.13,50.21z"/>
			</g>
		</g>
		<g>
			<g>
				<path class="st3" d="M199.89,51.39c0-0.02,0-0.03-0.01-0.05c0.01,0.09,0.02,0.18,0.04,0.26c-0.01-0.12-0.01-0.25,0-0.37
					c-0.01,0.09-0.02,0.18-0.04,0.26c0.02-0.14,0.06-0.28,0.11-0.41c-0.03,0.08-0.07,0.16-0.1,0.24c0.06-0.14,0.14-0.27,0.23-0.39
					c-0.05,0.07-0.1,0.13-0.15,0.2c0.09-0.12,0.2-0.23,0.32-0.32c-0.07,0.05-0.13,0.1-0.2,0.15c0.1-0.08,0.21-0.14,0.32-0.19
					c-0.08,0.03-0.16,0.07-0.24,0.1c0.1-0.04,0.21-0.07,0.31-0.09c-0.09,0.01-0.18,0.02-0.26,0.04c0.1-0.01,0.21-0.01,0.31,0
					c0.24,0.03,0.54-0.13,0.7-0.29c0.17-0.17,0.3-0.45,0.29-0.7c-0.01-0.26-0.1-0.52-0.29-0.7c-0.07-0.05-0.13-0.1-0.2-0.15
					c-0.15-0.09-0.32-0.13-0.5-0.14c-0.41-0.05-0.8,0.08-1.17,0.24c-0.18,0.08-0.34,0.21-0.5,0.34c-0.09,0.07-0.18,0.16-0.25,0.25
					c-0.26,0.32-0.46,0.64-0.58,1.04c-0.06,0.19-0.08,0.39-0.1,0.59c-0.02,0.21,0.02,0.41,0.05,0.61c0.04,0.23,0.26,0.48,0.46,0.59
					c0.21,0.12,0.53,0.18,0.76,0.1c0.24-0.08,0.47-0.23,0.59-0.46c0.03-0.08,0.07-0.16,0.1-0.24
					C199.93,51.75,199.93,51.57,199.89,51.39L199.89,51.39z"/>
			</g>
		</g>
		<g>
			<g>
				<path class="st3" d="M209.45,83.73c3.77-0.03,7.61-0.36,11.13-1.82c3.7-1.54,6.5-4.22,8.88-7.39
					c5.06-6.72,7.88-14.92,10.18-22.92c0.35-1.23-1.56-1.75-1.91-0.53c-2.15,7.49-4.75,15.05-9.28,21.48
					c-2.17,3.09-4.8,5.86-8.3,7.4c-3.35,1.48-7.07,1.77-10.69,1.8C208.18,81.76,208.17,83.74,209.45,83.73L209.45,83.73z"/>
			</g>
		</g>
		<g>
			<g>
				<path class="st3" d="M200.76,81.36c-1.07-0.02-2.12-0.8-2.96-1.37c-1.04-0.71-2.01-1.52-2.97-2.34
					c-2.26-1.95-4.56-3.84-6.71-5.9c-5.65-5.42-10.18-12-12.66-19.47c-0.4-1.2-2.31-0.69-1.91,0.53
					c2.64,7.95,7.44,14.92,13.49,20.65c2.27,2.15,4.68,4.17,7.08,6.18c1.81,1.51,4.15,3.67,6.65,3.72
					C202.04,83.36,202.04,81.38,200.76,81.36L200.76,81.36z"/>
			</g>
		</g>
		<g>
			<path class="st1" d="M174.3,51.34c-2.32,0.46-6.95-0.02-4.56-3.82c2.21-3.54,4.61,0.38,4.76,2.84"/>
			<g>
				<path class="st3" d="M174.04,50.39c-0.1,0.02-0.19,0.04-0.29,0.05c-0.18,0.03-0.01,0,0.08-0.01c-0.06,0.01-0.12,0.02-0.19,0.02
					c-0.23,0.02-0.45,0.04-0.68,0.04c-0.23,0.01-0.46,0-0.68-0.01c-0.11-0.01-0.23-0.01-0.34-0.03c-0.05-0.01-0.11-0.01-0.16-0.02
					c-0.15-0.01,0.13,0.02,0.13,0.02c-0.04-0.01-0.07-0.01-0.11-0.02c-0.23-0.04-0.45-0.08-0.67-0.14c-0.1-0.03-0.19-0.06-0.28-0.09
					c-0.05-0.02-0.1-0.04-0.16-0.06c0,0,0.25,0.12,0.12,0.05c-0.02-0.01-0.05-0.02-0.07-0.03c-0.09-0.04-0.18-0.09-0.26-0.14
					c-0.04-0.02-0.08-0.05-0.11-0.07c-0.02-0.01-0.04-0.03-0.06-0.04c-0.13-0.08,0.15,0.14,0.1,0.08c-0.06-0.07-0.14-0.12-0.2-0.19
					c-0.03-0.04-0.13-0.16-0.01-0.01c0.12,0.16,0,0-0.02-0.05c-0.02-0.04-0.04-0.07-0.06-0.11c-0.09-0.16,0.03,0.02,0.03,0.09
					c-0.01-0.09-0.05-0.2-0.08-0.28c-0.03-0.11,0.02,0.29,0.01,0.07c0-0.05,0-0.09,0-0.14c0-0.06,0.01-0.11,0.01-0.17
					c0.01-0.2-0.05,0.24,0,0.04c0.03-0.12,0.05-0.24,0.09-0.36c0.02-0.06,0.04-0.12,0.06-0.18c0.01-0.04,0.07-0.16,0-0.01
					c-0.07,0.16,0-0.01,0.02-0.04c0.15-0.33,0.34-0.65,0.55-0.94c0.02-0.03,0.04-0.07,0.07-0.09c-0.15,0.14-0.05,0.07-0.02,0.03
					c0.06-0.07,0.12-0.14,0.18-0.2c0.05-0.05,0.11-0.1,0.16-0.15c0.16-0.15-0.15,0.09,0.03-0.02c0.06-0.04,0.12-0.08,0.18-0.11
					c0.02-0.01,0.05-0.02,0.07-0.04c0.13-0.07-0.09,0.04-0.1,0.04c0.06-0.01,0.12-0.04,0.18-0.06c0.02-0.01,0.05-0.01,0.07-0.01
					c0.11-0.04-0.26,0.01-0.11,0.01c0.06,0,0.12,0,0.18,0c0.02,0,0.04,0,0.07,0c0.12,0-0.25-0.05-0.13-0.02
					c0.05,0.02,0.1,0.02,0.15,0.04c0.03,0.01,0.06,0.02,0.08,0.03c0.15,0.04-0.19-0.1-0.09-0.04c0.1,0.06,0.21,0.11,0.3,0.17
					c0.02,0.01,0.04,0.03,0.06,0.04c0.1,0.06-0.17-0.15-0.08-0.07c0.05,0.05,0.11,0.1,0.17,0.15c0.11,0.1,0.21,0.22,0.3,0.33
					c0.14,0.16-0.11-0.16,0.01,0.02c0.05,0.07,0.1,0.14,0.14,0.21c0.09,0.14,0.17,0.28,0.25,0.42c0.08,0.14,0.13,0.32,0.22,0.45
					c-0.11-0.17-0.06-0.15-0.03-0.07c0.02,0.05,0.04,0.09,0.05,0.14c0.03,0.08,0.06,0.17,0.09,0.25c0.05,0.16,0.1,0.31,0.14,0.47
					c0.04,0.15,0.07,0.31,0.1,0.47c0.01,0.03,0.01,0.07,0.02,0.11c-0.01-0.02-0.03-0.24-0.01-0.1c0.01,0.09,0.02,0.17,0.02,0.26
					c0.03,0.52,0.43,1.02,0.99,0.99c0.51-0.02,1.03-0.44,0.99-0.99c-0.1-1.49-0.68-3-1.66-4.12c-0.44-0.5-1.05-0.95-1.72-1.07
					c-0.88-0.16-1.68,0.15-2.33,0.74c-0.66,0.59-1.13,1.42-1.45,2.24c-0.24,0.61-0.32,1.31-0.15,1.94c0.32,1.19,1.45,1.87,2.57,2.15
					c1.24,0.31,2.57,0.29,3.82,0.05c0.51-0.1,0.85-0.74,0.69-1.22C175.08,50.54,174.58,50.28,174.04,50.39L174.04,50.39z"/>
			</g>
		</g>
		<g>
			<path class="st1" d="M238.28,50.95c0.02-1.63,0.58-7.32,3.16-5.95c2.84,1.51,0,5.55-1.97,6.15"/>
			<g>
				<path class="st3" d="M239.28,50.95c0-0.36,0.03-0.72,0.06-1.08c0.02-0.23,0.05-0.46,0.07-0.69c0.02-0.2-0.01,0.1,0,0.03
					c0.01-0.06,0.02-0.12,0.03-0.18c0.02-0.13,0.04-0.26,0.06-0.39c0.09-0.51,0.2-1.01,0.36-1.5c0.04-0.11,0.07-0.22,0.11-0.34
					c0.02-0.05,0.04-0.11,0.06-0.16c0.06-0.15-0.09,0.2,0,0c0.09-0.2,0.19-0.39,0.31-0.58c0.01-0.02,0.09-0.1,0.08-0.12
					c0.01,0.05-0.16,0.19-0.04,0.05c0.06-0.07,0.14-0.13,0.21-0.2c0.03-0.04-0.21,0.14-0.07,0.05c0.04-0.02,0.07-0.04,0.11-0.06
					c0.04-0.02,0.18-0.09,0.01-0.01c-0.17,0.08-0.01,0.01,0.04,0c0.2-0.03-0.15,0-0.08,0.01c0.04,0,0.09,0,0.13,0
					c0.04,0,0.21,0.02,0.02,0c-0.19-0.02,0,0.01,0.05,0.02c0.03,0.01,0.11,0.05,0.14,0.05c-0.07,0.02-0.21-0.1-0.04-0.01
					c0.06,0.03,0.13,0.07,0.19,0.1c0.04,0.02,0.25,0.16,0.14,0.09c-0.11-0.07,0.06,0.05,0.09,0.08c0.05,0.05,0.09,0.09,0.14,0.14
					c0.01,0.01,0.07,0.07,0.06,0.07c-0.01,0.02-0.11-0.17-0.06-0.07c0.03,0.06,0.08,0.12,0.11,0.19c0.01,0.03,0.02,0.06,0.04,0.08
					c0.06,0.09-0.06-0.1-0.04-0.1c0.02,0,0.05,0.15,0.05,0.17c0,0.02,0.05,0.17,0.04,0.18c-0.01,0-0.01-0.22-0.01-0.11
					c0,0.04,0.01,0.08,0.01,0.12c0.01,0.13-0.01,0.25-0.01,0.37c0,0.1,0.01-0.1,0.02-0.11c-0.01,0.02-0.01,0.07-0.02,0.1
					c-0.01,0.07-0.03,0.15-0.05,0.22c-0.03,0.13-0.07,0.26-0.12,0.38c-0.02,0.06-0.05,0.13-0.07,0.19c0.07-0.19,0.02-0.04-0.03,0.05
					c-0.15,0.3-0.32,0.58-0.52,0.85c-0.13,0.19,0.06-0.07-0.04,0.06c-0.05,0.06-0.11,0.13-0.16,0.19c-0.11,0.12-0.22,0.24-0.34,0.36
					c-0.11,0.11-0.23,0.22-0.35,0.32c-0.17,0.15,0.1-0.07-0.03,0.03c-0.06,0.04-0.12,0.09-0.18,0.13c-0.12,0.08-0.24,0.15-0.36,0.21
					c-0.03,0.01-0.05,0.02-0.08,0.04c-0.12,0.07,0.06-0.04,0.09-0.03c-0.04-0.01-0.16,0.06-0.2,0.07c-0.49,0.16-0.86,0.7-0.69,1.22
					c0.16,0.5,0.69,0.86,1.22,0.69c1.35-0.43,2.47-1.58,3.17-2.78c0.75-1.28,1.1-2.99,0.13-4.26c-0.82-1.06-2.4-1.73-3.59-0.86
					c-1,0.73-1.44,2.02-1.71,3.18c-0.27,1.16-0.42,2.38-0.44,3.57c-0.01,0.52,0.46,1.01,0.99,0.99
					C238.83,51.91,239.27,51.5,239.28,50.95L239.28,50.95z"/>
			</g>
		</g>
		<g>
			<g>
				<path class="st3" d="M195.08,50.68c-0.86-0.82-2.02-1.41-3.24-1.3c-1.12,0.1-2.15,0.62-2.91,1.45
					c-1.56,1.71-2.19,4.82-0.44,6.63c0.94,0.97,2.33,1.28,3.62,1.37c0.52,0.04,1.01-0.48,0.99-0.99c-0.03-0.57-0.44-0.95-0.99-0.99
					c-0.11-0.01-0.22-0.02-0.34-0.03c-0.04,0-0.19-0.03,0.01,0c-0.04-0.01-0.08-0.01-0.13-0.02c-0.22-0.04-0.44-0.08-0.65-0.14
					c-0.11-0.03-0.21-0.07-0.31-0.1c-0.04-0.01-0.08-0.03-0.11-0.04c0.18,0.06,0.06,0.03,0.01,0.01c-0.19-0.1-0.37-0.2-0.55-0.32
					c0.18,0.12-0.05-0.05-0.1-0.1c-0.05-0.04-0.24-0.27-0.1-0.09c-0.06-0.07-0.11-0.15-0.15-0.23c-0.03-0.05-0.05-0.1-0.08-0.14
					c-0.07-0.1,0.06,0.19-0.02-0.04c-0.03-0.1-0.06-0.2-0.09-0.3c-0.01-0.06-0.06-0.34-0.04-0.14c-0.03-0.25-0.04-0.5-0.03-0.75
					c0-0.1,0.02-0.2,0.02-0.3c-0.02,0.23,0.02-0.11,0.03-0.16c0.05-0.22,0.11-0.44,0.18-0.65c0.02-0.05,0.04-0.1,0.06-0.16
					c-0.01,0.01-0.07,0.14-0.02,0.05c0.05-0.09,0.09-0.2,0.15-0.29c0.05-0.08,0.09-0.17,0.14-0.25c0.03-0.05,0.06-0.09,0.09-0.14
					c0.01-0.02,0.14-0.2,0.06-0.09c-0.07,0.09,0.1-0.11,0.12-0.15c0.07-0.08,0.14-0.15,0.22-0.23c0.07-0.07,0.15-0.14,0.23-0.21
					c0.02-0.01,0.12-0.09,0.02-0.02c-0.11,0.09,0.06-0.04,0.08-0.06c0.16-0.11,0.33-0.18,0.49-0.28c0.12-0.07-0.16,0.05-0.03,0.01
					c0.03-0.01,0.07-0.03,0.1-0.04c0.1-0.04,0.21-0.07,0.32-0.09c0.05-0.01,0.1-0.02,0.14-0.03c0.12-0.03-0.2,0.01-0.01,0
					c0.11,0,0.22-0.01,0.33-0.01c0.04,0,0.07,0,0.11,0.01c0.24,0.01-0.2-0.05,0.04,0c0.1,0.02,0.2,0.04,0.3,0.07
					c0.05,0.01,0.1,0.03,0.15,0.05c0.18,0.05-0.07-0.05,0.03,0.01c0.11,0.06,0.23,0.11,0.34,0.18c0.1,0.06,0.2,0.13,0.3,0.2
					c-0.13-0.1,0,0,0.02,0.02c0.07,0.07,0.15,0.13,0.22,0.2c0.39,0.37,1.02,0.39,1.4,0C195.45,51.71,195.47,51.05,195.08,50.68
					L195.08,50.68z"/>
			</g>
		</g>
		<g>
			<g>
				<path class="st3" d="M219.34,51.01c0.91-0.1,1.82-0.21,2.74-0.17c0.04,0,0.08,0.01,0.11,0.01c0.14,0.01-0.18-0.03-0.04-0.01
					c0.08,0.01,0.17,0.03,0.25,0.05c0.08,0.02,0.16,0.04,0.24,0.06c0.07,0.02,0.35,0.16,0.12,0.04c0.14,0.08,0.28,0.16,0.42,0.25
					c-0.16-0.1-0.03-0.02,0.05,0.05c0.08,0.07,0.15,0.14,0.21,0.22c0.05,0.05,0.18,0.23,0.08,0.08c0.07,0.1,0.13,0.19,0.2,0.29
					c0.13,0.21,0.24,0.43,0.35,0.65c0.15,0.32,0.33,0.83,0.42,1.28c0.01,0.04,0.02,0.09,0.02,0.13c-0.03-0.19,0-0.04,0,0
					c0.01,0.1,0.02,0.21,0.02,0.31c0.01,0.23,0,0.45-0.02,0.68c-0.01,0.2-0.01,0.05,0,0c-0.01,0.06-0.02,0.12-0.03,0.18
					c-0.02,0.1-0.04,0.2-0.07,0.3c-0.03,0.1-0.06,0.2-0.09,0.3c-0.02,0.06-0.04,0.11-0.06,0.16c0.04-0.09,0.04-0.08,0,0
					c-0.06,0.11-0.12,0.23-0.19,0.34c-0.02,0.04-0.05,0.07-0.07,0.11c-0.13,0.22,0.07-0.07-0.02,0.04
					c-0.07,0.09-0.15,0.17-0.23,0.25c-0.04,0.04-0.08,0.08-0.13,0.11c-0.11,0.09,0.19-0.11-0.04,0.02c-0.1,0.06-0.2,0.12-0.3,0.17
					c-0.03,0.02-0.17,0.07-0.01,0.01c-0.06,0.02-0.11,0.04-0.17,0.06c-0.06,0.02-0.12,0.03-0.18,0.05
					c-0.02,0.01-0.26,0.05-0.15,0.03c0.11-0.01-0.06,0-0.06,0c-0.1,0-0.2,0.01-0.31,0.01c-1.28,0-1.28,1.98,0,1.98
					c1.31,0,2.46-0.57,3.22-1.63c0.65-0.91,0.93-2.11,0.88-3.22c-0.05-1.21-0.48-2.44-1.15-3.45c-0.58-0.87-1.39-1.55-2.42-1.78
					c-1.18-0.27-2.41-0.09-3.59,0.05c-0.53,0.06-0.99,0.41-0.99,0.99C218.35,50.51,218.8,51.07,219.34,51.01L219.34,51.01z"/>
			</g>
		</g>
	</g>
	<g>
		<g>
			<g>
				<path class="st3" d="M94.49,168.53c-3.6,1.27-5.59,4.09-6.31,7.77c-0.85,4.34-0.98,8.93-1.09,13.34
					c-0.12,4.84-0.04,9.79,0.75,14.58c0.58,3.5,1.8,7.13,4.3,9.75c2.48,2.59,6.38,3.87,9.9,3c3.53-0.87,5.94-3.92,7.36-7.1
					c3.45-7.78,3.44-17.25,1.9-25.47c-0.45-2.41-1.08-4.8-1.93-7.1c-0.73-1.98-1.61-3.93-3.19-5.39c-2.9-2.69-7.02-3.02-10.73-3.7
					c-1.4-0.26-2.01,1.89-0.59,2.15c2.9,0.53,6.16,0.75,8.72,2.35c2.94,1.84,3.94,5.66,4.79,8.82c2,7.49,2.32,15.78,0.4,23.32
					c-0.79,3.11-2.02,6.48-4.57,8.59c-2.58,2.12-6.29,1.98-9.01,0.18c-2.67-1.76-4.02-4.94-4.75-7.94
					c-0.96-3.9-1.07-8.05-1.12-12.05c-0.06-4.77,0.2-9.56,0.69-14.3c0.38-3.65,1.27-7.29,5.1-8.64
					C96.43,170.21,95.85,168.05,94.49,168.53L94.49,168.53z"/>
			</g>
		</g>
		<g>
			<g>
				<path class="st3" d="M97.5,216.32c0.86,5.34,1.82,10.69,2.26,16.09c0.4,4.92,0.21,9.74-0.54,14.61
					c-0.53,3.46-1.36,6.71-5.16,7.69c-3.68,0.94-6.96-1.34-9.45-3.81c-2.96-2.94-5.5-6.39-8.1-9.66c-2.88-3.62-5.61-7.41-7.9-11.44
					c-1.11-1.96-2.14-3.99-2.77-6.16c-0.42-1.46-0.76-3.27-0.09-4.55c0.61-1.17,2.65-2.01,3.91-1.79c0.41,0.07,1.23,0.99,1.65,1.52
					c0.86,1.1,1.58,2.33,2.27,3.55c2.38,4.22,4.18,8.73,6.5,12.98c2.33,4.29,4.9,9.08,8.59,12.36c1.27,1.13,3.11,2.33,4.83,1.44
					c2.06-1.06,2.41-3.98,2.67-6.01c1-7.94-0.09-16.27-1.25-24.14c-0.27-1.87-0.58-3.73-0.92-5.59c-0.26-1.41-2.41-0.81-2.15,0.59
					c1.53,8.31,2.65,16.92,2.37,25.39c-0.06,1.7-0.16,3.42-0.5,5.08c-0.18,0.89-0.45,2.08-1.15,2.65c-0.1,0.08-0.18,0.12-0.46,0.1
					c-0.14-0.01-0.54-0.17-0.8-0.31c-0.9-0.51-1.64-1.29-2.32-2.05c-3.23-3.6-5.65-8.04-7.87-12.31c-2.52-4.85-4.4-10.11-7.65-14.55
					c-0.66-0.9-1.39-1.87-2.36-2.46c-0.96-0.58-1.95-0.47-3.02-0.29c-1.79,0.31-3.52,1.21-4.35,2.89c-1.86,3.76,0.73,8.72,2.51,12
					c2.34,4.31,5.24,8.31,8.27,12.15c2.61,3.32,5.21,6.79,8.15,9.81c2.51,2.58,5.69,4.97,9.44,5.05c3.53,0.08,6.82-1.8,8.18-5.08
					c0.67-1.62,0.92-3.37,1.18-5.1c0.36-2.39,0.66-4.77,0.73-7.18c0.17-5.32-0.46-10.63-1.24-15.89c-0.41-2.73-0.87-5.46-1.31-8.18
					C99.43,214.32,97.27,214.92,97.5,216.32L97.5,216.32z"/>
			</g>
		</g>
		<g>
			<g>
				<path class="st3" d="M103.43,214.44c0.62,5.92,1.99,11.71,3.51,17.45c1.21,4.57,2.79,9.13,3.49,13.82
					c0.56,3.75,0.93,7.52,1.84,11.21c0.84,3.4,2.16,7.11,4.96,9.4c1.64,1.34,5.08,3.23,7.01,1.36c1.63-1.59,0.96-4.59,0.52-6.52
					c-0.63-2.73-1.63-5.38-2.66-7.99c-1.15-2.93-2.18-5.87-3.13-8.87c-3.69-11.64-6.8-23.53-9.03-35.53
					c-0.26-1.41-2.41-0.81-2.15,0.59c1.86,10.02,4.37,19.93,7.24,29.7c1.19,4.05,2.38,8.16,3.88,12.11
					c0.82,2.15,1.71,4.27,2.46,6.45c0.78,2.26,1.69,4.78,1.62,7.21c-0.01,0.38-0.03,0.63-0.17,1c-0.06,0.15-0.21,0.3-0.24,0.31
					c-0.81,0.19-1.94-0.31-2.79-0.77c-2.94-1.6-4.27-4.98-5.13-8.04c-0.98-3.5-1.4-7.12-1.89-10.71c-0.63-4.63-2.02-9.06-3.23-13.57
					c-1.65-6.12-3.24-12.31-3.9-18.62C105.51,213.02,103.28,213.01,103.43,214.44L103.43,214.44z"/>
			</g>
		</g>
		<g>
			<g>
				<g>
					<path class="st3" d="M111.59,184.05c1.93-3.42,3.63-7.35,4.23-11.24c0.36-2.3,0.27-4.71,0.32-7.03
						c0.13-6.63,0.19-13.25,0.24-19.88c0.02-2.7,0.04-5.39,0.04-8.09c0-1.44-2.23-1.44-2.23,0c-0.03,11.09,0.11,22.23-0.43,33.31
						c-0.2,4.07-2.12,8.3-4.09,11.81C108.96,184.18,110.89,185.3,111.59,184.05L111.59,184.05z"/>
				</g>
			</g>
			<g>
				<g>
					<path class="st3" d="M116.27,136.82c-0.13-0.24-0.25-0.49-0.37-0.74c-0.06-0.12-0.11-0.23-0.16-0.35
						c-0.03-0.07-0.06-0.14-0.09-0.2c-0.02-0.05-0.1-0.24-0.04-0.1c-0.23-0.57-0.44-1.16-0.58-1.76c-0.03-0.15-0.07-0.3-0.09-0.45
						c-0.01-0.07-0.03-0.15-0.04-0.22c0.01,0.05,0.02,0.19,0-0.04c-0.02-0.29-0.02-0.58-0.01-0.87c0-0.04,0.02-0.22,0-0.02
						c0.01-0.07,0.02-0.14,0.04-0.21c0.03-0.12,0.06-0.24,0.09-0.36c0.02-0.07,0.05-0.14,0.07-0.21c0.07-0.17-0.07,0.13,0.01-0.03
						c0.07-0.13,0.14-0.26,0.22-0.38c-0.12,0.19,0.07-0.06,0.12-0.11c0.05-0.06,0.15-0.08-0.04,0.02c0.03-0.02,0.07-0.04,0.1-0.06
						c0.06-0.03,0.17-0.04,0.04-0.03c-0.16,0.01,0,0,0.04,0c0.15-0.02-0.23,0.02-0.08,0.01c0.22-0.01-0.05,0-0.04-0.02
						c0,0,0.16,0.04,0.15,0.04c0.11,0.02,0.08,0.09-0.04-0.02c0.03,0.03,0.08,0.03,0.11,0.06c0.1,0.12-0.12-0.13-0.01-0.01
						c0.05,0.05,0.1,0.09,0.14,0.14c0.02,0.02,0.16,0.18,0.09,0.09c-0.07-0.08,0.04,0.05,0.04,0.05c0.06,0.08,0.11,0.17,0.17,0.25
						c0.07,0.11,0.13,0.23,0.19,0.35c0.02,0.04,0.04,0.09,0.06,0.13c0.07,0.16-0.06-0.16,0,0.01c0.09,0.27,0.16,0.53,0.22,0.8
						c0.01,0.05,0.03,0.22,0-0.01c0.01,0.05,0.01,0.1,0.02,0.15c0.01,0.13,0.02,0.26,0.02,0.39c0,0.11,0,0.23-0.01,0.34
						c0,0.07-0.01,0.13-0.01,0.2c0,0.04-0.05,0.35-0.01,0.09c-0.05,0.29-0.11,0.58-0.2,0.86c-0.04,0.12-0.09,0.25-0.13,0.37
						c0.07-0.19,0.02-0.04,0,0c-0.03,0.07-0.07,0.15-0.11,0.22c-0.13,0.26-0.29,0.5-0.45,0.74c-0.09,0.14,0.11-0.12,0,0
						c-0.05,0.06-0.1,0.12-0.15,0.18c-0.11,0.12-0.22,0.23-0.33,0.34c-0.43,0.4-0.43,1.18,0,1.58c0.46,0.42,1.12,0.43,1.58,0
						c2.06-1.93,2.73-5.3,1.29-7.78c-0.41-0.71-0.98-1.35-1.77-1.64c-0.67-0.25-1.45-0.14-2.04,0.25c-1.3,0.87-1.75,2.62-1.62,4.1
						c0.16,1.77,0.87,3.42,1.68,4.98c0.27,0.52,1.04,0.72,1.53,0.4C116.4,138.01,116.56,137.38,116.27,136.82L116.27,136.82z"/>
				</g>
			</g>
		</g>
		<g>
			<g>
				<g>
					<path class="st3" d="M87.91,182.07c-3.47,0.09-6.3-2.8-8.33-5.29c-1.58-1.94-2.92-4.1-3.89-6.41
						c-2.17-5.19-3.93-10.58-5.71-15.92c-0.77-2.3-1.54-4.61-2.21-6.94c-0.4-1.38-2.55-0.79-2.15,0.59
						c1.5,5.19,3.31,10.3,5.11,15.39c1.86,5.24,3.63,10.34,7.16,14.73c2.43,3.02,5.88,6.19,10.02,6.08
						C89.34,184.26,89.35,182.03,87.91,182.07L87.91,182.07z"/>
				</g>
			</g>
			<g>
				<g>
					<path class="st3" d="M66.55,145.52c-0.89-1.19-1.84-2.44-2.33-3.85c-0.22-0.62-0.37-1.31-0.24-1.89
						c0.12-0.54,0.47-1.01,0.92-1.28c0.4-0.25,0.72-0.26,1.12,0.04c0,0,0.17,0.15,0.23,0.21c0.05,0.05,0.1,0.11,0.15,0.16
						c-0.11-0.13,0,0,0.02,0.03c0.08,0.12,0.15,0.24,0.21,0.36c0.02,0.03,0.08,0.19,0.01,0.02c0.03,0.08,0.06,0.16,0.08,0.25
						c0.04,0.12,0.06,0.24,0.09,0.36c0.05,0.22,0.02,0.07,0.01,0.02c0.01,0.07,0.02,0.15,0.02,0.22c0.02,0.32,0.02,0.64-0.01,0.96
						c-0.01,0.09-0.04,0.38-0.04,0.38c0.01-0.1-0.02,0.09-0.02,0.09c-0.01,0.08-0.03,0.16-0.04,0.24c-0.06,0.34-0.14,0.68-0.22,1.02
						c-0.33,1.31-0.83,2.59-1.02,3.94c-0.09,0.6,0.15,1.2,0.78,1.37c0.52,0.14,1.29-0.18,1.37-0.78c0.2-1.4,0.73-2.74,1.06-4.11
						c0.36-1.48,0.62-3.17,0.04-4.64c-0.67-1.69-2.47-3.04-4.33-2.36c-1.89,0.69-2.91,2.63-2.68,4.58c0.27,2.2,1.58,4.07,2.87,5.8
						c0.36,0.48,0.97,0.73,1.53,0.4C66.62,146.77,66.91,146.01,66.55,145.52L66.55,145.52z"/>
				</g>
			</g>
		</g>
		<g>
			<g>
				<g>
					<path class="st3" d="M94.97,167.04c-5.47-0.11-10.07-3.51-11.99-8.61c-1.7-4.51-1.46-10.2,1.98-13.86
						c3.47-3.7,10.02-4.79,14.18-1.68c4,2.99,5.71,8.56,5.57,13.37c-0.08,2.64-0.74,5.42-2.4,7.53c-1.77,2.26-4.43,3.25-7.24,3.26
						c-1.44,0-1.44,2.24,0,2.23c13.9-0.03,14.64-19.01,6.84-26.91c-4.43-4.49-11.87-4.53-16.86-0.85
						c-4.79,3.53-6.17,9.91-4.84,15.49c1.67,7,7.49,12.12,14.76,12.27C96.41,169.3,96.41,167.07,94.97,167.04L94.97,167.04z"/>
				</g>
			</g>
			<g>
				<g>
					<path class="st3" d="M88.21,158.26c1.51,2.91,4.64,5.56,8.1,4.31c2.97-1.08,4.91-4.46,4.73-7.56c-0.08-1.43-2.32-1.44-2.23,0
						c0.12,2.07-1.06,4.62-3.09,5.41c-2.49,0.97-4.54-1.28-5.58-3.28C89.47,155.86,87.55,156.99,88.21,158.26L88.21,158.26z"/>
				</g>
			</g>
			<g>
				<g>
					<path class="st3" d="M85.2,141.91c-0.78,2.6-0.68,5.63,0.3,8.17c0.47,1.23,1.16,2.57,2.25,3.37c1.18,0.87,2.51,0.4,3.35-0.67
						c0.91-1.15,1.18-2.73,1.38-4.14c0.27-1.83,0.38-3.69,0.09-5.52c-0.26-1.67-1.11-3.51-3.05-3.57c-1.44-0.05-1.43,2.19,0,2.23
						c0.3,0.01-0.15-0.09,0.11,0.02c0.17,0.07-0.07-0.04-0.08-0.04c0.04,0.02,0.1,0.07,0.14,0.08c0.07,0.01,0.2,0.18-0.04-0.04
						c0.03,0.03,0.08,0.06,0.1,0.09c0.03,0.04,0.08,0.09,0.12,0.13c0.02,0.02-0.1-0.18,0.02,0.04c0.05,0.09,0.1,0.18,0.15,0.27
						c0.14,0.27-0.02-0.11,0.08,0.2c0.1,0.3,0.18,0.6,0.23,0.9c0.01,0.07,0.08,0.53,0.05,0.31c0.02,0.14,0.03,0.28,0.04,0.42
						c0.03,0.37,0.05,0.74,0.05,1.11c0.01,0.77-0.04,1.54-0.12,2.3c-0.02,0.15-0.03,0.3-0.05,0.45c0.02-0.17-0.04,0.28-0.06,0.36
						c-0.06,0.34-0.12,0.68-0.19,1.02c-0.12,0.54-0.27,1.07-0.46,1.59c-0.05,0.15,0.13-0.25,0.02-0.06
						c-0.02,0.03-0.03,0.07-0.05,0.11c-0.04,0.08-0.08,0.15-0.13,0.23c-0.08,0.13-0.19,0.28-0.31,0.37
						c-0.02,0.01-0.19,0.1-0.18,0.09c0.02-0.06,0.19-0.01,0.21,0.01c-0.61-0.5-1.11-1.23-1.45-2.02c-0.96-2.21-1.07-4.91-0.38-7.21
						C87.77,141.13,85.61,140.54,85.2,141.91L85.2,141.91z"/>
				</g>
			</g>
			<g>
				<g>
					<path class="st3" d="M95.22,141.03c0,2.83-0.3,6.04,1.07,8.63c0.73,1.37,2.25,2.37,3.84,2c1.49-0.35,2.29-1.85,2.61-3.23
						c0.36-1.54,0.41-3.36-0.12-4.86c-0.2-0.57-0.76-0.95-1.37-0.78c-0.55,0.15-0.98,0.8-0.78,1.37c0.08,0.23,0.15,0.47,0.19,0.71
						c0.01,0.07,0.07,0.46,0.04,0.18c0.02,0.17,0.04,0.34,0.05,0.51c0.02,0.31,0.02,0.61,0.02,0.92c0,0.13-0.01,0.26-0.02,0.4
						c-0.01,0.08-0.02,0.16-0.02,0.25c0,0.05-0.01,0.1-0.02,0.15c0.02-0.12,0.02-0.13,0.01-0.05c-0.05,0.3-0.11,0.6-0.19,0.9
						c-0.04,0.13-0.08,0.27-0.13,0.4c-0.03,0.07-0.05,0.14-0.08,0.21c0.07-0.18,0.02-0.04-0.03,0.05c-0.05,0.1-0.1,0.2-0.16,0.29
						c-0.04,0.07-0.09,0.13-0.14,0.2c0.03-0.04,0.16-0.16,0.03-0.04c-0.04,0.03-0.3,0.27-0.16,0.17c0.14-0.1-0.43,0.16-0.06,0.05
						c-0.06,0.02-0.39,0.1-0.21,0.07c0.17-0.03-0.18-0.01-0.25-0.01c0.28,0-0.13-0.04-0.23-0.06c-0.05-0.01-0.1-0.04-0.15-0.05
						c0.27,0.1,0.03,0.01-0.02-0.03c-0.06-0.04-0.11-0.07-0.17-0.11c-0.13-0.08,0.17,0.19,0,0c-0.07-0.08-0.16-0.15-0.23-0.23
						c-0.01-0.01-0.17-0.22-0.07-0.08c0.11,0.14-0.06-0.09-0.06-0.1c-0.08-0.13-0.15-0.25-0.22-0.38c-0.03-0.07-0.07-0.14-0.1-0.21
						c-0.08-0.17,0.09,0.25-0.01-0.04c-0.05-0.14-0.1-0.27-0.14-0.41c-0.1-0.32-0.18-0.65-0.24-0.99c-0.03-0.16-0.06-0.31-0.08-0.47
						c-0.01-0.07-0.02-0.14-0.03-0.21c0.03,0.21,0-0.03-0.01-0.08c-0.04-0.36-0.07-0.72-0.09-1.08c-0.08-1.32-0.02-2.63-0.02-3.95
						C97.45,139.59,95.22,139.59,95.22,141.03L95.22,141.03z"/>
				</g>
			</g>
			<g>
				<g>
					<path class="st3" d="M99.32,141.93c2.61-0.59,2.89-3.73,2.79-5.92c-0.03-0.58-0.49-1.14-1.12-1.12
						c-0.58,0.03-1.14,0.49-1.12,1.12c0.02,0.44,0.03,0.87,0.01,1.31c-0.01,0.25-0.04,0.49-0.06,0.74c0.03-0.4,0-0.01-0.02,0.1
						c-0.02,0.12-0.05,0.24-0.08,0.36c-0.03,0.12-0.06,0.23-0.1,0.35c-0.02,0.05-0.04,0.1-0.05,0.15c-0.03,0.09-0.13,0.23,0.03-0.07
						c-0.05,0.09-0.09,0.19-0.14,0.28c-0.03,0.04-0.05,0.09-0.08,0.13c-0.02,0.04-0.17,0.23-0.03,0.05
						c0.13-0.17,0.01-0.01-0.03,0.02c-0.04,0.04-0.08,0.09-0.12,0.13c-0.04,0.03-0.08,0.06-0.11,0.1c0.22-0.21,0.15-0.11,0.06-0.06
						c-0.09,0.06-0.18,0.1-0.27,0.15c0.28-0.16,0.16-0.07,0.07-0.04c-0.07,0.02-0.14,0.04-0.22,0.06c-0.57,0.13-0.96,0.82-0.78,1.37
						C98.15,141.74,98.71,142.06,99.32,141.93L99.32,141.93z"/>
				</g>
			</g>
			<g>
				<g>
					<path class="st3" d="M101.65,144.94c1.08,0.12,2.25-0.12,3.14-0.77c0.94-0.68,1.58-1.61,1.97-2.7c0.22-0.6,0.32-1.24,0.38-1.87
						c0.05-0.58-0.55-1.14-1.12-1.12c-0.65,0.03-1.06,0.49-1.12,1.12c-0.01,0.08-0.02,0.16-0.02,0.23c-0.02,0.2,0.05-0.31,0-0.01
						c-0.02,0.13-0.05,0.27-0.08,0.4c-0.06,0.28-0.15,0.55-0.25,0.81c-0.08,0.2,0.12-0.26,0.03-0.06c-0.03,0.07-0.06,0.13-0.09,0.2
						c-0.06,0.11-0.12,0.22-0.18,0.33c-0.07,0.12-0.16,0.24-0.24,0.35c0.22-0.33-0.02,0.01-0.1,0.1c-0.08,0.09-0.17,0.17-0.26,0.25
						c-0.07,0.06-0.28,0.2,0.02-0.01c-0.06,0.04-0.11,0.08-0.17,0.12c-0.1,0.07-0.21,0.13-0.31,0.19c-0.05,0.03-0.13,0.09-0.19,0.09
						c0.06-0.02,0.11-0.05,0.17-0.07c-0.03,0.01-0.07,0.03-0.1,0.04c-0.14,0.05-0.27,0.09-0.42,0.12c-0.05,0.01-0.11,0.02-0.16,0.03
						c-0.29,0.05,0.22-0.02,0.02,0c-0.31,0.02-0.6,0.02-0.91-0.01c-0.26-0.03-0.61,0.15-0.79,0.33c-0.19,0.19-0.34,0.51-0.33,0.79
						c0.01,0.29,0.11,0.59,0.33,0.79C101.09,144.83,101.33,144.91,101.65,144.94L101.65,144.94z"/>
				</g>
			</g>
			<g>
				<g>
					<path class="st3" d="M86.08,141.87c-0.31-0.05-0.62-0.12-0.93-0.22c-0.06-0.02-0.13-0.06-0.2-0.07c0.28,0.07,0.09,0.04,0.01,0
						c-0.13-0.06-0.26-0.13-0.39-0.21c-0.1-0.06-0.25-0.21-0.36-0.24c0.13,0.1,0.16,0.13,0.09,0.07c-0.03-0.02-0.05-0.04-0.08-0.06
						c-0.05-0.04-0.1-0.09-0.15-0.13c-0.1-0.1-0.2-0.2-0.3-0.3c-0.05-0.06-0.1-0.12-0.15-0.17c-0.14-0.16,0.14,0.2,0.01,0.02
						c-0.16-0.23-0.3-0.45-0.43-0.7c-0.03-0.07-0.07-0.14-0.1-0.21c-0.09-0.19,0.09,0.24,0.01,0.02c-0.05-0.13-0.09-0.25-0.13-0.38
						c-0.04-0.14-0.08-0.28-0.11-0.43c-0.03-0.13-0.03-0.31-0.08-0.44c0.02,0.17,0.03,0.21,0.02,0.13c0-0.03-0.01-0.07-0.01-0.1
						c-0.01-0.07-0.01-0.14-0.02-0.21c-0.01-0.16-0.02-0.33-0.02-0.49c0-0.58-0.51-1.14-1.12-1.12c-0.6,0.03-1.12,0.49-1.12,1.12
						c0,1.4,0.38,2.86,1.22,3.99c0.9,1.22,2.21,2.06,3.72,2.28c0.31,0.05,0.58,0.05,0.86-0.11c0.23-0.14,0.45-0.4,0.51-0.67
						C86.98,142.72,86.7,141.97,86.08,141.87L86.08,141.87z"/>
				</g>
			</g>
			<g>
				<g>
					<path class="st3" d="M84.61,144.13c-0.33,0.02-0.66,0.01-0.99-0.02c-0.05,0-0.19-0.04-0.22-0.02c0.17,0.02,0.2,0.03,0.08,0.01
						c-0.04-0.01-0.07-0.01-0.11-0.02c-0.16-0.03-0.32-0.06-0.48-0.1c-0.34-0.08-0.66-0.19-0.99-0.32c-0.27-0.1,0.15,0.08-0.05-0.02
						c-0.07-0.03-0.14-0.07-0.21-0.1c-0.16-0.08-0.32-0.17-0.47-0.26c-0.15-0.09-0.3-0.19-0.45-0.29c-0.18-0.13,0.17,0.15-0.01-0.01
						c-0.06-0.05-0.12-0.1-0.17-0.15c-0.13-0.12-0.25-0.24-0.37-0.37c-0.05-0.05-0.1-0.11-0.15-0.17c-0.13-0.14,0.13,0.19-0.05-0.07
						c-0.08-0.12-0.16-0.25-0.23-0.37c-0.02-0.03-0.14-0.24-0.13-0.26c0.06,0.14,0.07,0.18,0.04,0.1c-0.01-0.03-0.03-0.07-0.04-0.1
						c-0.06-0.16-0.1-0.33-0.13-0.5c-0.01-0.04-0.01-0.07-0.02-0.11c-0.01-0.09-0.01-0.05,0.01,0.11c-0.03-0.02-0.02-0.27-0.02-0.31
						c-0.02-0.58-0.5-1.14-1.12-1.12c-0.59,0.03-1.13,0.49-1.12,1.12c0.11,3.64,4.08,5.8,7.39,5.6c0.58-0.04,1.14-0.49,1.12-1.12
						C85.7,144.67,85.23,144.09,84.61,144.13L84.61,144.13z"/>
				</g>
			</g>
			<g>
				<g>
					<path class="st3" d="M80.81,151.25c-0.28-1.31-1.26-2.45-2.68-2.41c-1.19,0.04-2.31,0.75-3.06,1.64
						c-0.86,1.03-1.37,2.28-1.2,3.63c0.18,1.43,0.96,2.8,2.33,3.39c0.8,0.35,1.62,0.43,2.48,0.29c0.87-0.14,1.64-0.6,2.32-1.14
						c0.46-0.37,0.41-1.2,0-1.58c-0.49-0.45-1.09-0.39-1.58,0c-0.2,0.16,0.21-0.14-0.01,0c-0.06,0.04-0.12,0.08-0.18,0.12
						c-0.12,0.07-0.24,0.14-0.36,0.21c-0.05,0.03-0.14,0.05-0.18,0.09c0.18-0.15,0.15-0.06,0.02-0.01
						c-0.14,0.05-0.28,0.09-0.42,0.12c-0.06,0.01-0.12,0.02-0.18,0.04c-0.23,0.05,0.28-0.02,0.06-0.01
						c-0.12,0.01-0.24,0.02-0.35,0.01c-0.06,0-0.12,0-0.17-0.01c-0.1-0.01-0.25-0.07,0.07,0.01c-0.12-0.03-0.24-0.05-0.36-0.08
						c-0.11-0.03-0.41-0.19-0.08-0.01c-0.1-0.05-0.2-0.09-0.3-0.15c-0.1-0.06-0.36-0.3-0.1-0.05c-0.1-0.09-0.2-0.17-0.29-0.27
						c-0.04-0.04-0.08-0.09-0.11-0.13c-0.15-0.16,0.15,0.23,0.03,0.04c-0.07-0.1-0.13-0.2-0.19-0.3c-0.03-0.05-0.05-0.11-0.08-0.16
						c-0.1-0.2,0.09,0.26,0.02,0.04c-0.05-0.14-0.1-0.28-0.13-0.43c-0.01-0.04-0.02-0.09-0.03-0.13c-0.02-0.12,0.02-0.25,0,0.03
						c0.01-0.14-0.03-0.29-0.03-0.43c0-0.12,0.01-0.24,0.01-0.36c0-0.21-0.05,0.29-0.01,0.09c0.01-0.07,0.03-0.14,0.04-0.21
						c0.03-0.1,0.06-0.21,0.09-0.31c0.02-0.05,0.04-0.1,0.06-0.15c-0.1,0.32-0.07,0.15-0.03,0.07c0.1-0.22,0.22-0.42,0.36-0.62
						c0.03-0.04,0.06-0.07,0.08-0.11c0.08-0.12-0.19,0.23-0.06,0.07c0.07-0.08,0.14-0.17,0.22-0.25c0.07-0.08,0.15-0.16,0.23-0.23
						c0.04-0.04,0.08-0.07,0.12-0.11c0.03-0.02,0.05-0.05,0.08-0.07c0.09-0.07,0.06-0.04-0.1,0.08c0.08-0.02,0.18-0.13,0.26-0.18
						c0.09-0.05,0.17-0.1,0.26-0.15c0.04-0.02,0.09-0.04,0.13-0.06c0.18-0.09-0.28,0.1-0.09,0.04c0.1-0.03,0.2-0.07,0.31-0.1
						c0.04-0.01,0.09-0.02,0.13-0.03c0.17-0.04-0.3,0.01-0.12,0.02c0.09,0,0.2,0.01,0.29,0c-0.29,0.03-0.26-0.05-0.13-0.02
						c0.05,0.01,0.1,0.03,0.16,0.04c0.17,0.04-0.27-0.14-0.12-0.05c0.05,0.03,0.1,0.05,0.14,0.08c0.13,0.07,0.03,0.11-0.09-0.07
						c0.03,0.04,0.09,0.09,0.13,0.12c0.11,0.11-0.01,0.11-0.06-0.08c0.01,0.05,0.08,0.12,0.11,0.17c0.03,0.05,0.05,0.09,0.07,0.14
						c0.09,0.16-0.1-0.28-0.01,0c0.05,0.14,0.09,0.29,0.12,0.43c0.12,0.57,0.82,0.96,1.37,0.78
						C80.64,152.43,80.94,151.86,80.81,151.25L80.81,151.25z"/>
				</g>
			</g>
			<g>
				<g>
					<path class="st3" d="M105.53,150.11c0.32-0.24,0.65-0.47,1-0.68c0.15-0.09,0.3-0.17,0.46-0.25c0.07-0.04,0.14-0.07,0.21-0.1
						c0.04-0.02,0.08-0.03,0.11-0.05c-0.34,0.17-0.21,0.08-0.12,0.05c0.26-0.1,0.52-0.19,0.8-0.24c0.11-0.02,0.39-0.04-0.07,0
						c0.06-0.01,0.11-0.01,0.17-0.02c0.11-0.01,0.22-0.01,0.34,0c0.06,0,0.11,0.01,0.17,0.01c-0.44-0.02-0.24-0.04-0.12-0.01
						c0.1,0.02,0.19,0.04,0.29,0.08c0.11,0.04,0.28,0.15-0.1-0.05c0.04,0.02,0.08,0.04,0.12,0.06c0.08,0.04,0.16,0.09,0.24,0.14
						c0.2,0.13-0.24-0.2-0.09-0.07c0.03,0.03,0.07,0.06,0.1,0.09c0.07,0.06,0.13,0.13,0.19,0.2c0.16,0.18-0.18-0.25-0.07-0.09
						c0.03,0.04,0.05,0.07,0.08,0.11c0.05,0.08,0.1,0.16,0.14,0.25c0.02,0.04,0.04,0.09,0.07,0.14c0.09,0.18-0.12-0.32-0.05-0.11
						c0.03,0.09,0.07,0.18,0.1,0.28c0.03,0.1,0.05,0.19,0.07,0.29c0.01,0.05,0.02,0.1,0.03,0.14c0,0.03,0.01,0.05,0.01,0.08
						c0.03,0.17-0.03-0.19-0.02-0.19c-0.01,0.2,0.04,0.42,0.04,0.62c0,0.1-0.01,0.21-0.01,0.31c0,0.05-0.01,0.1-0.01,0.15
						c-0.02,0.21,0.06-0.36,0.01-0.11c-0.03,0.2-0.08,0.41-0.14,0.6c-0.03,0.1-0.06,0.19-0.1,0.29c-0.08,0.21,0.13-0.29,0.05-0.11
						c-0.02,0.05-0.04,0.09-0.07,0.14c-0.09,0.18-0.19,0.34-0.31,0.5c-0.05,0.07,0.23-0.28,0.06-0.09c-0.03,0.03-0.06,0.07-0.09,0.1
						c-0.07,0.07-0.13,0.13-0.21,0.19c-0.18,0.16,0.27-0.19,0.07-0.05c-0.04,0.03-0.08,0.06-0.12,0.08
						c-0.09,0.06-0.19,0.1-0.28,0.15c0.43-0.21,0.08-0.04-0.07,0c-0.05,0.01-0.11,0.02-0.16,0.03c-0.09,0.02-0.23,0,0.21-0.03
						c-0.04,0-0.07,0.01-0.11,0.01c-0.12,0.01-0.24,0.01-0.36,0c-0.06,0-0.12-0.01-0.17-0.02c0.46,0.03,0.18,0.03,0.06,0
						c-0.14-0.03-0.28-0.07-0.41-0.11c-0.07-0.02-0.13-0.05-0.2-0.07c-0.16-0.06,0.29,0.13,0.13,0.06
						c-0.05-0.02-0.09-0.04-0.14-0.06c-0.53-0.25-1.23-0.16-1.53,0.4c-0.26,0.5-0.16,1.26,0.4,1.53c1.19,0.56,2.58,0.77,3.76,0.04
						c0.94-0.58,1.55-1.59,1.81-2.65c0.49-2.05-0.2-4.88-2.56-5.39c-1.7-0.36-3.37,0.5-4.69,1.5c-0.24,0.18-0.43,0.36-0.51,0.67
						c-0.07,0.27-0.04,0.62,0.11,0.86C104.3,150.17,105.03,150.49,105.53,150.11L105.53,150.11z"/>
				</g>
			</g>
			<g>
				<g>
					<path class="st3" d="M94.34,154.61c1.44,0,1.44-2.23,0-2.23C92.91,152.38,92.9,154.61,94.34,154.61L94.34,154.61z"/>
				</g>
			</g>
		</g>
		<g>
			<g>
				<path class="st3" d="M88.68,140.95c-0.76,0.55-1.14,1.45-1.28,2.35c-0.15,0.95-0.17,1.98,0.19,2.88c0.4,1,1.22,1.83,2.38,1.77
					c1.24-0.07,1.95-1.09,2.2-2.21c0.21-0.95,0.2-1.9,0.2-2.87c0-0.53-0.47-1.04-1.01-1.01c-0.55,0.02-1.01,0.45-1.01,1.01
					c0,0.66,0.01,1.31-0.06,1.97c-0.01,0.08-0.06,0.26,0.01-0.06c-0.01,0.05-0.02,0.11-0.03,0.16c-0.01,0.09-0.03,0.17-0.05,0.26
					c-0.02,0.09-0.04,0.18-0.07,0.27c-0.03,0.09-0.1,0.21-0.1,0.3c0.01-0.18,0.1-0.2,0.03-0.09c-0.02,0.03-0.03,0.07-0.05,0.1
					c-0.02,0.04-0.05,0.08-0.07,0.11c-0.07,0.13-0.1,0.02,0.06-0.07c-0.04,0.02-0.13,0.11-0.15,0.15c0.09-0.16,0.2-0.13,0.07-0.06
					c-0.02,0.01-0.09,0.04-0.11,0.06c0.12-0.12,0.23-0.09,0.09-0.05c-0.15,0.04-0.06-0.05,0.1-0.01c-0.05-0.02-0.17,0-0.22,0
					c-0.17,0.01,0.27,0.06,0.11,0.02c-0.03-0.01-0.06-0.01-0.1-0.02c-0.03-0.01-0.06-0.02-0.09-0.03c-0.15-0.04,0.26,0.14,0.07,0.02
					c-0.03-0.02-0.05-0.04-0.08-0.05c-0.09-0.05-0.06-0.12,0.1,0.08c-0.04-0.05-0.11-0.1-0.15-0.15c-0.18-0.18,0.12,0.2,0,0
					c-0.04-0.07-0.08-0.14-0.12-0.22c-0.05-0.09-0.03-0.18,0.03,0.08c-0.01-0.04-0.03-0.08-0.05-0.12
					c-0.03-0.07-0.05-0.14-0.07-0.22c-0.02-0.08-0.04-0.15-0.05-0.23c-0.01-0.05-0.02-0.09-0.03-0.14c-0.05-0.26,0.02,0.21,0,0.03
					c-0.03-0.37-0.04-0.73-0.01-1.1c0-0.04,0.02-0.1,0.02-0.15c0.03,0.27-0.03,0.17,0,0.05c0.02-0.1,0.04-0.21,0.06-0.31
					c0.04-0.18,0.1-0.35,0.16-0.52c0.03-0.1,0.11-0.16-0.04,0.08c0.03-0.04,0.05-0.1,0.07-0.15c0.04-0.07,0.07-0.14,0.12-0.2
					c0.02-0.03,0.05-0.06,0.06-0.09c-0.02,0.04-0.19,0.21-0.07,0.1c0.02-0.02,0.05-0.05,0.07-0.07c0.13-0.15-0.2,0.14-0.08,0.06
					c0.43-0.31,0.68-0.9,0.36-1.39C89.8,140.89,89.15,140.62,88.68,140.95L88.68,140.95z"/>
			</g>
		</g>
		<g>
			<g>
				<path class="st3" d="M97.67,142c-0.05,0.6-0.04,1.21,0.01,1.82c0.06,0.63,0.14,1.27,0.34,1.87c0.17,0.51,0.41,1.07,0.82,1.44
					c0.48,0.44,1.15,0.64,1.79,0.42c0.83-0.29,1.41-0.98,1.9-1.68c0.14-0.2,0.16-0.54,0.1-0.76c-0.06-0.23-0.24-0.48-0.46-0.59
					c-0.51-0.27-1.04-0.1-1.36,0.36c-0.05,0.07-0.3,0.38-0.08,0.12c-0.07,0.08-0.13,0.16-0.2,0.24c-0.11,0.13-0.23,0.24-0.36,0.35
					c-0.12,0.11,0.08-0.06,0.1-0.07c-0.03,0.02-0.06,0.04-0.09,0.06c-0.05,0.04-0.11,0.07-0.17,0.1c-0.08,0.05-0.18,0.05,0.13-0.05
					c-0.03,0.01-0.05,0.02-0.08,0.03c-0.05,0.02-0.1,0.03-0.15,0.04c0.09-0.01,0.18-0.02,0.26-0.04c-0.07,0.01-0.14,0.01-0.21,0
					c0.09,0.01,0.18,0.02,0.26,0.04c-0.04-0.01-0.08-0.02-0.12-0.03c-0.12-0.02,0.16,0.07,0.16,0.07c-0.02-0.01-0.04-0.02-0.06-0.03
					c-0.03-0.02-0.07-0.05-0.1-0.06c0,0,0.22,0.19,0.13,0.1c-0.01-0.02-0.03-0.03-0.05-0.04c-0.03-0.03-0.06-0.07-0.1-0.11
					c-0.07-0.08,0.17,0.23,0.1,0.12c-0.02-0.02-0.03-0.05-0.05-0.07c-0.06-0.09-0.11-0.19-0.16-0.28c-0.01-0.02-0.02-0.05-0.03-0.07
					c-0.06-0.13,0.09,0.23,0.05,0.13c-0.02-0.06-0.05-0.12-0.07-0.18c-0.04-0.12-0.08-0.25-0.11-0.38
					c-0.07-0.28-0.13-0.57-0.17-0.86c0.01,0.09,0.02,0.18,0.04,0.26c-0.1-0.74-0.12-1.5-0.06-2.25c0.04-0.52-0.48-1.01-0.99-0.99
					C98.09,141.03,97.71,141.44,97.67,142L97.67,142z"/>
			</g>
		</g>
		<g>
			<g>
				<path class="st3" d="M105.2,159.8c2.31,1.36,4.06,3.55,7.03,2.57c2.49-0.83,3.94-3.49,4.43-5.92c-0.36,0.27-0.72,0.55-1.08,0.82
					c1.91,0.01,3.89,0.9,5.3-0.86c2.14-2.66,1.16-6.14,0.19-9.04c-0.17,0.42-0.34,0.84-0.51,1.26c3.56-2.55,5.51-7.91,1.07-10.66
					c0.17,0.42,0.34,0.84,0.51,1.26c1-2.91,2.62-5.61,1.59-8.79c-0.44-1.36-1.35-2.52-1.65-3.92c-0.28-1.29-0.33-2.62-0.59-3.92
					c-0.58-2.82-2.44-5.21-5.04-6.49c-3.08-1.5-6.19-0.47-8.81,1.44c0.45,0.06,0.9,0.12,1.35,0.17c-2.3-2.89-2.19-7.02-5.02-9.62
					c-1.49-1.36-3.55-2.3-5.6-2.15c-2.23,0.17-4.05,1.49-5.55,3.06c0.58,0.08,1.17,0.15,1.75,0.23c-1.59-2.14-3.95-4.03-6.77-3.74
					c-2.86,0.3-4.53,2.75-5.17,5.36c0.55-0.22,1.09-0.44,1.64-0.67c-3.26-2.16-7.35-2.8-10.53-0.13c-3.01,2.53-3.94,6.86-3.51,10.61
					c0.47-0.36,0.94-0.72,1.41-1.08c-3.06-0.68-7.36-0.56-9.46,2.11c-2.39,3.05-0.91,6.96,0.02,10.26c0.26-0.46,0.52-0.92,0.78-1.37
					c-3.4,0.98-5.94,3.65-6.89,7.04c-0.47,1.69-0.53,3.47-0.21,5.19c0.35,1.87,1.21,3.16,2.65,4.37c0.51,0.43,1.37,0.97,1.45,1.7
					c0.08,0.72-0.53,1.56-0.66,2.27c-0.36,1.92,0.59,3.7,2.05,4.91c0.7,0.58,1.48,1.03,2.29,1.44c0.1,0.05,1.08,0.6,1.15,0.54
					c-0.65,0.57-0.32-0.98-0.35-0.29c-0.01,0.18,0.09,0.4,0.14,0.57c0.26,0.9,0.66,1.82,1.19,2.58c2.39,3.44,6.64,2.67,10.06,1.51
					c-0.47-0.36-0.94-0.72-1.41-1.08c-0.27,5.54,6.63,5.31,9.87,2.81c1.12-0.86,0.01-2.8-1.13-1.93c-1.79,1.38-6.69,2.76-6.52-0.88
					c0.03-0.7-0.74-1.3-1.41-1.08c-2.47,0.84-6,1.95-7.73-0.76c-0.56-0.88-0.63-1.84-1.03-2.74c-0.33-0.72-1.2-0.92-1.85-1.25
					c-1.43-0.72-3.35-1.86-3.16-3.73c0.14-1.42,1.06-2.4,0.52-3.89c-0.51-1.39-1.84-2.08-2.82-3.1c-1.08-1.13-1.31-2.84-1.27-4.35
					c0.08-3.51,2.25-6.71,5.67-7.7c0.58-0.17,0.94-0.79,0.78-1.37c-0.68-2.41-2.14-5.64-0.62-8.01c1.4-2.18,5.07-2.11,7.32-1.61
					c0.63,0.14,1.5-0.31,1.41-1.08c-0.34-3.02,0.17-6.45,2.45-8.66c2.43-2.36,5.67-1.6,8.24,0.11c0.59,0.39,1.47,0.01,1.64-0.67
					c0.41-1.68,1.32-3.55,3.26-3.74c1.88-0.19,3.56,1.25,4.61,2.66c0.41,0.56,1.21,0.79,1.75,0.23c1.28-1.34,2.88-2.62,4.85-2.4
					c1.8,0.2,3.41,1.43,4.33,2.94c1.59,2.61,1.9,5.72,3.84,8.17c0.28,0.35,0.99,0.44,1.35,0.17c2.43-1.77,5.06-2.66,7.71-0.76
					c2.12,1.52,2.79,3.59,3.12,6.06c0.15,1.09,0.22,2.23,0.62,3.26c0.39,1.02,1.03,1.94,1.37,2.98c0.88,2.7-0.75,5.14-1.59,7.61
					c-0.16,0.47,0.11,1.01,0.51,1.26c2.87,1.78,1.11,5.25-1.07,6.81c-0.39,0.28-0.68,0.76-0.51,1.26c0.66,1.97,1.96,5.24,0.23,7.06
					c-0.33,0.35-0.62,0.31-1.09,0.26c-0.83-0.09-1.64-0.25-2.48-0.25c-0.46,0-0.98,0.35-1.08,0.82c-0.35,1.73-1.27,3.97-3.17,4.45
					c-1.94,0.49-3.5-1.55-5-2.43C105.09,157.14,103.96,159.07,105.2,159.8L105.2,159.8z"/>
			</g>
		</g>
	</g>
	<g>
		<g>
			<path class="st1" d="M311.91,113.31c1.74-1.56,3.81-3.11,6.24-3.18c1.89-0.05,3.72,0.65,5.52,1.16
				c4.25,1.21,8.56,1.68,12.51-0.63c3.19-1.87,5.8-5.06,9.52-5.9c4.62-1.05,8.13,2.52,11.95,4.34c1.85,0.88,3.78,1.01,5.77,0.48
				c2.5-0.68,4.72-2.44,7.4-2.41c1.85,0.02,3.42,1.1,4.98,1.96c2.12,1.18,4.44,2.2,6.88,2.46c2.36,0.25,4.61-0.51,6.8-1.31
				c2.21-0.81,4.55-1.68,6.88-0.8c2.19,0.83,3.61,2.73,5.55,3.94c1.92,1.19,4.07,1.02,6.06,0.05c2.24-1.09,3.57-3.74,6.38-3.07
				c2.81,0.67,4.87,3.18,7.43,4.39c2.26,1.07,5.01,1.41,7.38,0.49c2.58-1.01,4.12-3.32,4.6-5.98c0.31-1.7-2.29-2.43-2.6-0.72
				c-0.41,2.27-1.68,4.14-4.1,4.49c-2.39,0.34-4.48-0.78-6.37-2.1c-2.14-1.49-4.31-3.22-7.03-3.38c-2.36-0.13-3.88,1.17-5.57,2.59
				c-1.7,1.43-3.58,1.9-5.4,0.51c-1.83-1.4-3.38-3-5.6-3.8c-2.34-0.84-4.79-0.42-7.08,0.36c-2.15,0.74-4.31,1.78-6.63,1.71
				c-4.41-0.15-7.5-3.94-11.76-4.42c-2.65-0.3-4.9,0.88-7.26,1.88c-1.83,0.78-3.69,1.17-5.54,0.26c-1.91-0.95-3.56-2.32-5.51-3.22
				c-2.11-0.97-4.41-1.72-6.76-1.52c-4.01,0.34-6.86,3.01-9.97,5.25c-1.64,1.19-3.45,2.29-5.51,2.47c-2.53,0.22-5.08-0.48-7.48-1.19
				c-2.07-0.61-4.17-1.21-6.35-0.94c-2.82,0.36-5.15,2.04-7.22,3.89C308.7,112.57,310.62,114.47,311.91,113.31L311.91,113.31z"/>
		</g>
	</g>
	<g>
		<g>
			<path d="M204.87,240.45c1.5-1.69,3.14-3.39,5.36-4.06c2.15-0.65,4.16-0.16,6.15,0.77c3.53,1.65,7.55,4.74,11.67,3.37
				c1.58-0.52,2.72-1.61,3.72-2.9c0.91-1.17,1.75-2.55,3.21-3.1c3.93-1.5,8.53,1.51,11.77,3.4c3.28,1.91,7.6,4.75,11.55,3.45
				c2.04-0.67,3.77-2.01,5.75-2.79c2.41-0.95,5.11-0.74,7.6-0.25c4.97,0.98,9.9,3.25,15.06,2.84c3.68-0.29,6.5-2.54,9.17-4.88
				c2.45-2.14,5.74-5.1,9.17-3.16c3.05,1.72,6.62,6.21,10.52,4.31c1.56-0.76,0.2-3.09-1.36-2.33c-1.26,0.61-3.2-1.06-4.12-1.72
				c-1.49-1.08-2.93-2.37-4.66-3.06c-3.28-1.31-6.56,0.08-9.16,2.12c-2.64,2.06-5,4.93-8.35,5.81c-2.24,0.59-4.73,0.16-6.95-0.34
				c-2.62-0.58-5.16-1.44-7.78-2.02c-2.53-0.56-5.15-0.89-7.73-0.49c-2.23,0.35-4.16,1.51-6.13,2.56c-0.78,0.41-1.6,0.86-2.48,1.01
				c-0.98,0.17-2-0.16-2.93-0.46c-2.06-0.68-3.95-1.83-5.82-2.92c-3.63-2.11-7.6-4.42-11.96-4.03c-1.88,0.17-3.52,0.92-4.81,2.3
				c-1.03,1.1-1.74,2.55-2.94,3.49c-1.67,1.31-3.84,0.77-5.61,0.01c-2.26-0.97-4.33-2.33-6.63-3.21c-2.31-0.89-4.8-1.05-7.15-0.18
				c-2.45,0.91-4.33,2.65-6.04,4.58C201.81,239.84,203.72,241.75,204.87,240.45L204.87,240.45z"/>
		</g>
	</g>
	<path d="M340.86,181.7V87.53h15.43v78.79h20.79v15.38H340.86z"/>
	<path class="st1" d="M298.48,267.92h-7.73l-0.01-93.91h7.74c11.84,0,20.79,3.13,27.36,9.57c8.03,7.87,12.1,15.6,12.1,37.27
		c0,19.56-4.03,28.78-11.96,36.93C319.33,264.6,310.34,267.92,298.48,267.92z M306.22,190.22l-0.01,61.43
		c4.1-0.87,7.31-2.52,9.7-4.98c4.41-4.53,7.55-9.4,7.55-25.83c0-16.12-3.03-21.6-7.41-25.9
		C313.66,192.6,310.41,191.04,306.22,190.22z"/>
	<g>
		<g>
			<path d="M363.91,208.6c-0.79-1.6-2.17-2.86-4.07-2.42c-1.63,0.38-2.98,1.68-4.31,2.61c-1.22,0.86-2.51,1.81-3.97,2.22
				c-1.43,0.4-2.96,0.2-4.4-0.04c-3.4-0.57-6.92-1.7-10.39-1.12c-3.14,0.53-5.34,2.87-7.15,5.32c-2.42,3.27-5.17,6.05-9.32,6.86
				c-4.32,0.84-8.2-0.94-12.01-2.71c-1.79-0.83-3.61-1.61-5.59-1.83c-1.98-0.22-3.9,0.28-5.66,1.16c-3.88,1.92-6.88,5.33-11.21,6.37
				c-4.56,1.09-8.99-1.09-13.24-2.45c-1.78-0.57-3.65-0.95-5.52-0.74c-2.36,0.26-4.45,1.36-6.32,2.78
				c-1.37,1.04-0.02,3.38,1.36,2.33c1.55-1.18,3.27-2.24,5.25-2.45c1.59-0.17,3.15,0.23,4.65,0.72c3.72,1.21,7.37,2.81,11.36,2.79
				c4.12-0.02,7.59-2.04,10.88-4.33c1.8-1.26,3.6-2.72,5.75-3.31c1.78-0.48,3.51-0.11,5.19,0.53c1.98,0.76,3.82,1.82,5.78,2.6
				c1.87,0.74,3.83,1.22,5.84,1.38c3.66,0.28,7.32-0.79,10.24-3c1.65-1.25,3.02-2.75,4.22-4.43c0.97-1.35,1.97-2.75,3.3-3.77
				c2.23-1.7,4.99-1.38,7.59-0.92c3.54,0.62,7.45,1.96,10.97,0.55c1.7-0.68,3.2-1.78,4.67-2.85c0.72-0.52,1.43-1.15,2.24-1.51
				c0.88-0.39,1.14,0.23,1.52,1.01C362.34,211.52,364.67,210.16,363.91,208.6L363.91,208.6z"/>
		</g>
	</g>
	<g>
		<g>
			<path class="st1" d="M337.83,119.65c3.77-1.28,7.71-1.82,11.67-1.14c3.68,0.64,6.87,2.3,10.27,3.74
				c3.35,1.42,6.66,2.12,10.23,1.08c1.76-0.51,3.47-1.29,5.29-1.53c1.75-0.23,3.46,0.06,5.12,0.61c3.16,1.05,6.05,2.78,9.41,3.14
				c3.06,0.32,6.02-0.58,8.89-1.52c2.7-0.88,5.6-1.83,8.47-1.3c2.15,0.4,4.22,1.32,6.27,2.04c4.33,1.52,11.45,3.89,14.17-1.46
				c0.79-1.55-1.54-2.92-2.33-1.36c-2.05,4.04-8.62,1.11-11.68,0.02c-1.96-0.7-3.93-1.55-5.99-1.9c-2.93-0.49-5.85,0.15-8.64,1.03
				c-2.75,0.87-5.49,1.94-8.43,1.8c-3.35-0.16-6.31-2.06-9.43-3.1c-3.35-1.12-6.53-0.85-9.84,0.26c-1.74,0.58-3.47,1.21-5.33,1.12
				c-1.7-0.09-3.37-0.67-4.93-1.32c-3.75-1.55-7.2-3.4-11.26-4.04c-4.29-0.67-8.55-0.18-12.65,1.22
				C335.48,117.6,336.18,120.21,337.83,119.65L337.83,119.65z"/>
		</g>
	</g>
	<g>
		<g>
			<g>
				<g>
					<path class="st3" d="M87.37,199.94c1.76,1.79,3.8,3.2,6.18,4.01c2.43,0.82,4.99,0.91,7.53,0.9c1.99-0.01,4.1,0.01,5.99-0.7
						c1.96-0.74,3.47-2.18,4.8-3.76c0.92-1.09-0.65-2.68-1.58-1.58c-1.12,1.32-2.36,2.66-4.03,3.26c-1.65,0.58-3.47,0.53-5.19,0.54
						c-2.2,0.01-4.38-0.04-6.49-0.68c-2.2-0.66-4.04-1.95-5.64-3.58C87.94,197.34,86.36,198.91,87.37,199.94L87.37,199.94z"/>
				</g>
			</g>
			<g>
				<g>
					<path class="st3" d="M86.58,200.07c-0.09,10.29-3.75,20.19-3.67,30.5c0.01,1.44,2.24,1.44,2.23,0
						c-0.08-10.3,3.58-20.2,3.67-30.5C88.82,198.63,86.59,198.63,86.58,200.07L86.58,200.07z"/>
				</g>
			</g>
			<g>
				<g>
					<path class="st3" d="M83.8,231.91c3.64-0.21,6.91,1.58,10.35,2.45c3.33,0.84,6.71,0.49,10-0.39c6.26-1.68,11.69-4.87,15.8-9.91
						c2.15-2.64,4.09-5.66,4.83-9.02c0.1-0.45-0.06-1.05-0.51-1.26c-2.9-1.34-5.87-2.78-8.27-4.92c-1.22-1.09-2.33-2.35-2.94-3.88
						c-0.65-1.61-1-3.29-1.92-4.77c-0.75-1.22-2.69-0.1-1.93,1.13c1.01,1.63,1.29,3.54,2.13,5.25c0.72,1.48,1.86,2.77,3.08,3.86
						c2.56,2.28,5.64,3.85,8.72,5.27c-0.17-0.42-0.34-0.84-0.51-1.26c-0.8,3.65-3.13,6.93-5.64,9.62c-2.53,2.72-5.4,4.7-8.81,6.15
						c-3.67,1.56-7.99,2.91-12.02,2.29c-4.22-0.65-7.98-3.07-12.36-2.83C82.37,229.76,82.36,231.99,83.8,231.91L83.8,231.91z"/>
				</g>
			</g>
		</g>
		<path class="st0" d="M118.89,221.91c-1.74,2.26-3.82,4.38-6.19,5.98c-2.55,1.71-5.53,2.91-8.47,3.75
			c-3.07,0.89-6.26,1.35-9.41,0.56c-3.22-0.81-6.27-2.33-9.6-2.52c0.11-9.6,3.3-18.86,3.62-28.45c1.42,1.17,3,2.11,4.77,2.71
			c2.47,0.84,5.09,0.91,7.67,0.9c1.94-0.01,4,0,5.84-0.69c1.03-0.39,1.93-0.97,2.75-1.65c0.53,1.25,0.84,2.58,1.41,3.82
			c0.72,1.57,1.89,2.93,3.16,4.07c2.36,2.11,5.16,3.61,8.01,4.95C121.76,217.75,120.41,219.95,118.89,221.91z"/>
	</g>
</g>
</svg>
